%TF.GenerationSoftware,KiCad,Pcbnew,(6.0.0)*%
%TF.CreationDate,2022-10-29T10:39:51-07:00*%
%TF.ProjectId,tiny-osean,74696e79-2d6f-4736-9561-6e2e6b696361,rev?*%
%TF.SameCoordinates,Original*%
%TF.FileFunction,Legend,Top*%
%TF.FilePolarity,Positive*%
%FSLAX46Y46*%
G04 Gerber Fmt 4.6, Leading zero omitted, Abs format (unit mm)*
G04 Created by KiCad (PCBNEW (6.0.0)) date 2022-10-29 10:39:51*
%MOMM*%
%LPD*%
G01*
G04 APERTURE LIST*
%ADD10C,0.150000*%
%ADD11C,0.125000*%
%ADD12C,0.250000*%
%ADD13C,0.120000*%
%ADD14C,0.010000*%
G04 APERTURE END LIST*
D10*
X135116470Y-122768869D02*
G75*
G03*
X135116470Y-122768869I-74020J0D01*
G01*
X126625174Y-125312003D02*
G75*
G03*
X126625174Y-125312003I-74020J0D01*
G01*
X130625174Y-123312003D02*
G75*
G03*
X130625174Y-123312003I-74020J0D01*
G01*
X123543936Y-126607167D02*
G75*
G03*
X123543936Y-126607167I-74020J0D01*
G01*
X128035232Y-126064033D02*
G75*
G03*
X128035232Y-126064033I-74020J0D01*
G01*
X133560184Y-122204846D02*
G75*
G03*
X133560184Y-122204846I-74020J0D01*
G01*
X132035232Y-124064033D02*
G75*
G03*
X132035232Y-124064033I-74020J0D01*
G01*
X125100222Y-127171190D02*
G75*
G03*
X125100222Y-127171190I-74020J0D01*
G01*
D11*
X127072884Y-125779034D02*
X127072884Y-126159987D01*
X126882408Y-125969511D02*
X127263360Y-125969511D01*
D12*
X124886070Y-126437734D02*
X124124165Y-126437734D01*
X124505118Y-126056782D02*
X124505118Y-126818686D01*
X154084130Y-86785029D02*
X154622878Y-86246281D01*
X154622878Y-86785029D02*
X154084130Y-86246281D01*
D11*
X131439481Y-123597001D02*
X131439481Y-123216048D01*
X131629957Y-123406525D02*
X131249005Y-123406525D01*
D12*
X121111015Y-119774376D02*
X121649763Y-119235628D01*
D10*
X145901738Y-95873097D02*
X145447170Y-96327666D01*
X145325951Y-96388275D01*
X145204733Y-96388275D01*
X145083515Y-96327666D01*
X145022906Y-96267056D01*
X145871434Y-97115585D02*
X145568388Y-96812539D01*
X146204784Y-96176143D01*
X146507830Y-97630762D02*
X146447221Y-97630762D01*
X146326002Y-97570153D01*
X146265393Y-97509544D01*
X146204784Y-97388326D01*
X146204784Y-97267107D01*
X146235089Y-97176194D01*
X146326002Y-97024671D01*
X146416916Y-96933757D01*
X146568439Y-96842843D01*
X146659353Y-96812539D01*
X146780571Y-96812539D01*
X146901789Y-96873148D01*
X146962398Y-96933757D01*
X147023008Y-97054975D01*
X147023008Y-97115585D01*
X147538185Y-97509544D02*
X147083617Y-97964113D01*
X146962398Y-98024722D01*
X146841180Y-98024722D01*
X146719962Y-97964113D01*
X146659353Y-97903504D01*
X147507881Y-98752032D02*
X147204835Y-98448986D01*
X147841231Y-97812590D01*
X148144277Y-99267210D02*
X148083668Y-99267210D01*
X147962449Y-99206600D01*
X147901840Y-99145991D01*
X147841231Y-99024773D01*
X147841231Y-98903555D01*
X147871536Y-98812641D01*
X147962449Y-98661118D01*
X148053363Y-98570204D01*
X148204886Y-98479291D01*
X148295800Y-98448986D01*
X148417018Y-98448986D01*
X148538236Y-98509595D01*
X148598846Y-98570204D01*
X148659455Y-98691423D01*
X148659455Y-98752032D01*
X149174632Y-99145991D02*
X148720064Y-99600560D01*
X148598846Y-99661169D01*
X148477627Y-99661169D01*
X148356409Y-99600560D01*
X148295800Y-99539951D01*
X149144328Y-100388479D02*
X148841282Y-100085433D01*
X149477678Y-99449037D01*
X149780724Y-100903657D02*
X149720115Y-100903657D01*
X149598897Y-100843047D01*
X149538287Y-100782438D01*
X149477678Y-100661220D01*
X149477678Y-100540002D01*
X149507983Y-100449088D01*
X149598897Y-100297565D01*
X149689810Y-100206651D01*
X149841333Y-100115738D01*
X149932247Y-100085433D01*
X150053465Y-100085433D01*
X150174683Y-100146042D01*
X150235293Y-100206651D01*
X150295902Y-100327870D01*
X150295902Y-100388479D01*
X150811080Y-100782438D02*
X150356511Y-101237007D01*
X150235293Y-101297616D01*
X150114074Y-101297616D01*
X149992856Y-101237007D01*
X149932247Y-101176398D01*
X150780775Y-102024926D02*
X150477729Y-101721880D01*
X151114125Y-101085484D01*
X151417171Y-102540104D02*
X151356562Y-102540104D01*
X151235344Y-102479495D01*
X151174735Y-102418885D01*
X151114125Y-102297667D01*
X151114125Y-102176449D01*
X151144430Y-102085535D01*
X151235344Y-101934012D01*
X151326257Y-101843099D01*
X151477780Y-101752185D01*
X151568694Y-101721880D01*
X151689912Y-101721880D01*
X151811131Y-101782489D01*
X151871740Y-101843099D01*
X151932349Y-101964317D01*
X151932349Y-102024926D01*
D11*
X126117178Y-126343057D02*
X126117178Y-126724010D01*
X125926702Y-126533534D02*
X126307654Y-126533534D01*
D10*
X171634687Y-85331641D02*
X171567343Y-85331641D01*
X171466328Y-85365312D01*
X171398984Y-85432656D01*
X171365312Y-85533671D01*
X171365312Y-85601015D01*
X171398984Y-85702030D01*
X171466328Y-85769374D01*
X171567343Y-85803045D01*
X171634687Y-85803045D01*
X171735702Y-85769374D01*
X171803045Y-85702030D01*
X171836717Y-85601015D01*
X171836717Y-85533671D01*
X171567343Y-85264297D02*
X171836717Y-85533671D01*
X171904061Y-85533671D01*
X171937732Y-85499999D01*
X171971404Y-85398984D01*
X171937732Y-85297969D01*
X171769374Y-85129610D01*
X171601015Y-85095938D01*
X171432656Y-85129610D01*
X171264297Y-85230625D01*
X171163282Y-85398984D01*
X171129610Y-85567343D01*
X171163282Y-85735702D01*
X171264297Y-85904061D01*
X171432656Y-86005076D01*
X171601015Y-86038748D01*
X171769374Y-86005076D01*
X171937732Y-85904061D01*
X172038748Y-85735702D01*
X172072419Y-85567343D01*
D11*
X134705826Y-124004351D02*
X134705826Y-123623398D01*
X134896302Y-123813875D02*
X134515350Y-123813875D01*
X132395187Y-123032978D02*
X132395187Y-122652025D01*
X132585663Y-122842502D02*
X132204711Y-122842502D01*
D12*
X132540029Y-123725148D02*
X133301934Y-123725148D01*
X132920982Y-124106100D02*
X132920982Y-123344196D01*
X134002988Y-92059387D02*
X134541736Y-91520639D01*
X134541736Y-92059387D02*
X134002988Y-91520639D01*
X137975612Y-103752068D02*
X138514360Y-103213320D01*
X138514360Y-103752068D02*
X137975612Y-103213320D01*
X125972336Y-125650887D02*
X125210431Y-125650887D01*
X125591384Y-125269935D02*
X125591384Y-126031839D01*
X160194085Y-76062088D02*
X160766504Y-76634507D01*
X160800176Y-76735523D01*
X160800176Y-76802866D01*
X160766504Y-76903881D01*
X160665489Y-77004897D01*
X160564474Y-77038568D01*
X160631817Y-76499820D02*
X160598146Y-76600836D01*
X160463459Y-76735523D01*
X160362443Y-76769194D01*
X160295100Y-76769194D01*
X160194085Y-76735523D01*
X159992054Y-76533492D01*
X159958382Y-76432477D01*
X159958382Y-76365133D01*
X159992054Y-76264118D01*
X160126741Y-76129431D01*
X160227756Y-76095759D01*
X161103222Y-76095759D02*
X161002207Y-76129431D01*
X160901191Y-76095759D01*
X160295100Y-75489668D01*
X161204237Y-75051935D02*
X161675642Y-75523340D01*
X160901191Y-75354981D02*
X161271581Y-75725370D01*
X161372596Y-75759042D01*
X161473611Y-75725370D01*
X161574626Y-75624355D01*
X161608298Y-75523340D01*
X161608298Y-75455996D01*
X162113374Y-75085607D02*
X162012359Y-75119279D01*
X161945016Y-75119279D01*
X161844000Y-75085607D01*
X161641970Y-74883576D01*
X161608298Y-74782561D01*
X161608298Y-74715218D01*
X161641970Y-74614202D01*
X161742985Y-74513187D01*
X161844000Y-74479515D01*
X161911344Y-74479515D01*
X162012359Y-74513187D01*
X162214390Y-74715218D01*
X162248061Y-74816233D01*
X162248061Y-74883576D01*
X162214390Y-74984592D01*
X162113374Y-75085607D01*
X162180718Y-74075454D02*
X162652122Y-74546859D01*
X162248061Y-74142798D02*
X162248061Y-74075454D01*
X162281733Y-73974439D01*
X162382748Y-73873424D01*
X162483764Y-73839752D01*
X162584779Y-73873424D01*
X162955168Y-74243813D01*
X163224542Y-73907096D02*
X163325557Y-73873424D01*
X163460244Y-73738737D01*
X163493916Y-73637722D01*
X163460244Y-73536706D01*
X163426573Y-73503035D01*
X163325557Y-73469363D01*
X163224542Y-73503035D01*
X163123527Y-73604050D01*
X163022512Y-73637722D01*
X162921496Y-73604050D01*
X162887825Y-73570378D01*
X162854153Y-73469363D01*
X162887825Y-73368348D01*
X162988840Y-73267332D01*
X163089855Y-73233661D01*
X164335710Y-72863271D02*
X164234695Y-72021477D01*
X163864305Y-72391867D02*
X164706099Y-72492882D01*
X165615237Y-71583745D02*
X165514221Y-71617416D01*
X165446878Y-71617416D01*
X165345863Y-71583745D01*
X165143832Y-71381714D01*
X165110160Y-71280699D01*
X165110160Y-71213355D01*
X165143832Y-71112340D01*
X165244847Y-71011325D01*
X165345863Y-70977653D01*
X165413206Y-70977653D01*
X165514221Y-71011325D01*
X165716252Y-71213355D01*
X165749924Y-71314371D01*
X165749924Y-71381714D01*
X165716252Y-71482729D01*
X165615237Y-71583745D01*
X166086641Y-71044997D02*
X166187656Y-71011325D01*
X166322343Y-70876638D01*
X166356015Y-70775623D01*
X166322343Y-70674607D01*
X166288672Y-70640936D01*
X166187656Y-70607264D01*
X166086641Y-70640936D01*
X165985626Y-70741951D01*
X165884611Y-70775623D01*
X165783595Y-70741951D01*
X165749924Y-70708279D01*
X165716252Y-70607264D01*
X165749924Y-70506249D01*
X165850939Y-70405233D01*
X165951954Y-70371562D01*
X166962107Y-70169531D02*
X166928435Y-70270546D01*
X166793748Y-70405233D01*
X166692733Y-70438905D01*
X166591717Y-70405233D01*
X166322343Y-70135859D01*
X166288672Y-70034844D01*
X166322343Y-69933829D01*
X166457030Y-69799142D01*
X166558046Y-69765470D01*
X166659061Y-69799142D01*
X166726404Y-69866485D01*
X166457030Y-70270546D01*
X167635542Y-69563440D02*
X167265152Y-69193050D01*
X167164137Y-69159379D01*
X167063122Y-69193050D01*
X166928435Y-69327737D01*
X166894763Y-69428753D01*
X167601870Y-69529768D02*
X167568198Y-69630783D01*
X167399839Y-69799142D01*
X167298824Y-69832814D01*
X167197809Y-69799142D01*
X167130465Y-69731798D01*
X167096794Y-69630783D01*
X167130465Y-69529768D01*
X167298824Y-69361409D01*
X167332496Y-69260394D01*
X167500855Y-68755318D02*
X167972259Y-69226722D01*
X167568198Y-68822661D02*
X167568198Y-68755318D01*
X167601870Y-68654302D01*
X167702885Y-68553287D01*
X167803900Y-68519615D01*
X167904916Y-68553287D01*
X168275305Y-68923676D01*
D11*
X127903251Y-126656403D02*
X127903251Y-127037356D01*
X127712775Y-126846880D02*
X128093727Y-126846880D01*
X130609114Y-122719632D02*
X130609114Y-122338679D01*
X130799590Y-122529156D02*
X130418638Y-122529156D01*
D12*
X133626295Y-122938301D02*
X134388200Y-122938301D01*
X134007248Y-123319253D02*
X134007248Y-122557349D01*
X123897123Y-113571646D02*
X123190016Y-112864539D01*
X123358374Y-112696180D01*
X123493061Y-112628837D01*
X123627748Y-112628837D01*
X123728764Y-112662508D01*
X123897123Y-112763524D01*
X123998138Y-112864539D01*
X124099153Y-113032898D01*
X124132825Y-113133913D01*
X124132825Y-113268600D01*
X124065481Y-113403287D01*
X123897123Y-113571646D01*
X172317307Y-84489951D02*
X172889726Y-85062370D01*
X172923398Y-85163386D01*
X172923398Y-85230729D01*
X172889726Y-85331744D01*
X172788711Y-85432760D01*
X172687696Y-85466431D01*
X172755039Y-84927683D02*
X172721368Y-85028699D01*
X172586681Y-85163386D01*
X172485665Y-85197057D01*
X172418322Y-85197057D01*
X172317307Y-85163386D01*
X172115276Y-84961355D01*
X172081604Y-84860340D01*
X172081604Y-84792996D01*
X172115276Y-84691981D01*
X172249963Y-84557294D01*
X172350978Y-84523622D01*
X173226444Y-84523622D02*
X173125429Y-84557294D01*
X173024413Y-84523622D01*
X172418322Y-83917531D01*
X173327459Y-83479798D02*
X173798864Y-83951203D01*
X173024413Y-83782844D02*
X173394803Y-84153233D01*
X173495818Y-84186905D01*
X173596833Y-84153233D01*
X173697848Y-84052218D01*
X173731520Y-83951203D01*
X173731520Y-83883859D01*
X174236596Y-83513470D02*
X174135581Y-83547142D01*
X174068238Y-83547142D01*
X173967222Y-83513470D01*
X173765192Y-83311439D01*
X173731520Y-83210424D01*
X173731520Y-83143081D01*
X173765192Y-83042065D01*
X173866207Y-82941050D01*
X173967222Y-82907378D01*
X174034566Y-82907378D01*
X174135581Y-82941050D01*
X174337612Y-83143081D01*
X174371283Y-83244096D01*
X174371283Y-83311439D01*
X174337612Y-83412455D01*
X174236596Y-83513470D01*
X174303940Y-82503317D02*
X174775345Y-82974722D01*
X174371283Y-82570661D02*
X174371283Y-82503317D01*
X174404955Y-82402302D01*
X174505971Y-82301287D01*
X174606986Y-82267615D01*
X174708001Y-82301287D01*
X175078390Y-82671676D01*
X175347764Y-82334958D02*
X175448780Y-82301287D01*
X175583467Y-82166600D01*
X175617138Y-82065584D01*
X175583467Y-81964569D01*
X175549795Y-81930897D01*
X175448780Y-81897226D01*
X175347764Y-81930897D01*
X175246749Y-82031913D01*
X175145734Y-82065584D01*
X175044719Y-82031913D01*
X175011047Y-81998241D01*
X174977375Y-81897226D01*
X175011047Y-81796210D01*
X175112062Y-81695195D01*
X175213077Y-81661523D01*
X175987528Y-81762539D02*
X175516123Y-81291134D01*
X175583467Y-81358478D02*
X175583467Y-81291134D01*
X175617138Y-81190119D01*
X175718154Y-81089104D01*
X175819169Y-81055432D01*
X175920184Y-81089104D01*
X176290573Y-81459493D01*
X175920184Y-81089104D02*
X175886512Y-80988088D01*
X175920184Y-80887073D01*
X176021199Y-80786058D01*
X176122215Y-80752386D01*
X176223230Y-80786058D01*
X176593619Y-81156447D01*
X176862993Y-80887073D02*
X176761978Y-80045279D01*
X176391589Y-80415669D02*
X177233382Y-80516684D01*
D11*
X123806539Y-125371684D02*
X123806539Y-125752637D01*
X123616063Y-125562161D02*
X123997015Y-125562161D01*
D12*
X129397518Y-110400146D02*
X129936266Y-109861398D01*
X129936266Y-110400146D02*
X129397518Y-109861398D01*
D13*
%TO.C,SW1*%
X169577552Y-81603658D02*
X174117178Y-77064032D01*
X169867466Y-72814320D02*
X169577552Y-72524406D01*
X169577552Y-72524406D02*
X165037926Y-77064032D01*
X166459211Y-78485317D02*
X168156267Y-80182373D01*
X174117178Y-77064032D02*
X173919188Y-76866042D01*
X169287638Y-81313744D02*
X169577552Y-81603658D01*
X172695893Y-75642747D02*
X170998837Y-73945691D01*
X165037926Y-77064032D02*
X165327840Y-77353946D01*
%TO.C,R8*%
X136447284Y-108526255D02*
X136230003Y-108743536D01*
X135909883Y-107988854D02*
X135692602Y-108206135D01*
%TO.C,D1*%
X155665669Y-88729043D02*
X155296202Y-88359576D01*
X154626222Y-89768490D02*
X154256755Y-89399023D01*
%TO.C,R4*%
X158533601Y-86181312D02*
X158750882Y-85964031D01*
X159071002Y-86718713D02*
X159288283Y-86501432D01*
%TO.C,D2*%
X139665669Y-105729043D02*
X139296202Y-105359576D01*
X138626222Y-106768490D02*
X138256755Y-106399023D01*
%TO.C,R3*%
X158477721Y-85635778D02*
X158260440Y-85853059D01*
X157940320Y-85098377D02*
X157723039Y-85315658D01*
%TO.C,R5*%
X159538241Y-86787608D02*
X159320960Y-87004889D01*
X160075642Y-87325009D02*
X159858361Y-87542290D01*
%TO.C,J1*%
X126408310Y-111483120D02*
X127348762Y-110542668D01*
X127348762Y-112423572D02*
X126408310Y-111483120D01*
X128246788Y-113321598D02*
X128289214Y-113364024D01*
X128246788Y-113321598D02*
X130127692Y-111440694D01*
X128289214Y-113364024D02*
X130170118Y-111483120D01*
X130127692Y-111440694D02*
X130170118Y-111483120D01*
%TO.C,R2*%
X157392997Y-84985617D02*
X157610278Y-84768336D01*
X156855596Y-84448216D02*
X157072877Y-84230935D01*
%TO.C,R7*%
X135314909Y-107719089D02*
X135532190Y-107501808D01*
X134777508Y-107181688D02*
X134994789Y-106964407D01*
%TO.C,U1*%
X130055993Y-117801850D02*
X130055993Y-118251850D01*
X130055993Y-121021850D02*
X130055993Y-120571850D01*
X129605993Y-121021850D02*
X130055993Y-121021850D01*
X127285993Y-117801850D02*
X126835993Y-117801850D01*
X129605993Y-117801850D02*
X130055993Y-117801850D01*
X126835993Y-121021850D02*
X126835993Y-120571850D01*
X127285993Y-121021850D02*
X126835993Y-121021850D01*
%TO.C,JP2*%
X131269924Y-117132044D02*
X133249823Y-115152145D01*
X132684137Y-118546257D02*
X131269924Y-117132044D01*
X133249823Y-115152145D02*
X134664036Y-116566358D01*
X134664036Y-116566358D02*
X132684137Y-118546257D01*
%TO.C,R9*%
X137302866Y-109724936D02*
X137520147Y-109507655D01*
X136765465Y-109187535D02*
X136982746Y-108970254D01*
%TO.C,C2*%
X123688093Y-119658958D02*
X123688093Y-119377798D01*
X124708093Y-119658958D02*
X124708093Y-119377798D01*
%TO.C,J3*%
X119059548Y-121867124D02*
X118119096Y-120926672D01*
X118119096Y-120926672D02*
X119059548Y-119986220D01*
X119957574Y-122765150D02*
X120000000Y-122807576D01*
X119957574Y-122765150D02*
X121838478Y-120884246D01*
X120000000Y-122807576D02*
X121880904Y-120926672D01*
X121838478Y-120884246D02*
X121880904Y-120926672D01*
%TO.C,C1*%
X125958176Y-119626214D02*
X125958176Y-119410542D01*
X125238176Y-119626214D02*
X125238176Y-119410542D01*
%TO.C,JP1*%
X133312014Y-119427167D02*
X135291913Y-117447268D01*
X136706126Y-118861481D02*
X134726227Y-120841380D01*
X134726227Y-120841380D02*
X133312014Y-119427167D01*
X135291913Y-117447268D02*
X136706126Y-118861481D01*
D14*
%TO.C,Ref\u002A\u002A*%
X164992877Y-63155387D02*
X166004246Y-63155437D01*
X166004246Y-63155437D02*
X166978394Y-63155517D01*
X166978394Y-63155517D02*
X167915688Y-63155629D01*
X167915688Y-63155629D02*
X168816492Y-63155772D01*
X168816492Y-63155772D02*
X169681171Y-63155947D01*
X169681171Y-63155947D02*
X170510092Y-63156154D01*
X170510092Y-63156154D02*
X171303619Y-63156393D01*
X171303619Y-63156393D02*
X172062117Y-63156664D01*
X172062117Y-63156664D02*
X172785951Y-63156967D01*
X172785951Y-63156967D02*
X173475487Y-63157303D01*
X173475487Y-63157303D02*
X174131091Y-63157672D01*
X174131091Y-63157672D02*
X174753126Y-63158074D01*
X174753126Y-63158074D02*
X175341959Y-63158509D01*
X175341959Y-63158509D02*
X175897955Y-63158977D01*
X175897955Y-63158977D02*
X176421479Y-63159479D01*
X176421479Y-63159479D02*
X176912895Y-63160015D01*
X176912895Y-63160015D02*
X177372571Y-63160584D01*
X177372571Y-63160584D02*
X177800870Y-63161187D01*
X177800870Y-63161187D02*
X178198157Y-63161825D01*
X178198157Y-63161825D02*
X178564799Y-63162497D01*
X178564799Y-63162497D02*
X178901161Y-63163203D01*
X178901161Y-63163203D02*
X179207606Y-63163944D01*
X179207606Y-63163944D02*
X179484502Y-63164720D01*
X179484502Y-63164720D02*
X179732213Y-63165532D01*
X179732213Y-63165532D02*
X179951103Y-63166378D01*
X179951103Y-63166378D02*
X180141540Y-63167260D01*
X180141540Y-63167260D02*
X180303887Y-63168178D01*
X180303887Y-63168178D02*
X180438510Y-63169131D01*
X180438510Y-63169131D02*
X180545774Y-63170121D01*
X180545774Y-63170121D02*
X180626045Y-63171146D01*
X180626045Y-63171146D02*
X180679687Y-63172208D01*
X180679687Y-63172208D02*
X180707067Y-63173307D01*
X180707067Y-63173307D02*
X180708628Y-63173444D01*
X180708628Y-63173444D02*
X181093415Y-63231278D01*
X181093415Y-63231278D02*
X181457670Y-63326023D01*
X181457670Y-63326023D02*
X181802501Y-63458201D01*
X181802501Y-63458201D02*
X182129014Y-63628338D01*
X182129014Y-63628338D02*
X182438315Y-63836958D01*
X182438315Y-63836958D02*
X182731512Y-64084584D01*
X182731512Y-64084584D02*
X182826951Y-64176980D01*
X182826951Y-64176980D02*
X183085009Y-64460354D01*
X183085009Y-64460354D02*
X183304102Y-64756058D01*
X183304102Y-64756058D02*
X183485404Y-65066700D01*
X183485404Y-65066700D02*
X183630089Y-65394887D01*
X183630089Y-65394887D02*
X183739329Y-65743226D01*
X183739329Y-65743226D02*
X183814299Y-66114325D01*
X183814299Y-66114325D02*
X183852358Y-66454997D01*
X183852358Y-66454997D02*
X183853453Y-66484988D01*
X183853453Y-66484988D02*
X183854511Y-66545089D01*
X183854511Y-66545089D02*
X183855533Y-66635589D01*
X183855533Y-66635589D02*
X183856517Y-66756779D01*
X183856517Y-66756779D02*
X183857465Y-66908948D01*
X183857465Y-66908948D02*
X183858377Y-67092386D01*
X183858377Y-67092386D02*
X183859252Y-67307383D01*
X183859252Y-67307383D02*
X183860092Y-67554228D01*
X183860092Y-67554228D02*
X183860895Y-67833213D01*
X183860895Y-67833213D02*
X183861662Y-68144625D01*
X183861662Y-68144625D02*
X183862394Y-68488756D01*
X183862394Y-68488756D02*
X183863090Y-68865894D01*
X183863090Y-68865894D02*
X183863750Y-69276331D01*
X183863750Y-69276331D02*
X183864375Y-69720355D01*
X183864375Y-69720355D02*
X183864966Y-70198257D01*
X183864966Y-70198257D02*
X183865521Y-70710326D01*
X183865521Y-70710326D02*
X183866041Y-71256852D01*
X183866041Y-71256852D02*
X183866526Y-71838125D01*
X183866526Y-71838125D02*
X183866977Y-72454435D01*
X183866977Y-72454435D02*
X183867393Y-73106071D01*
X183867393Y-73106071D02*
X183867775Y-73793324D01*
X183867775Y-73793324D02*
X183868123Y-74516483D01*
X183868123Y-74516483D02*
X183868436Y-75275838D01*
X183868436Y-75275838D02*
X183868716Y-76071679D01*
X183868716Y-76071679D02*
X183868962Y-76904296D01*
X183868962Y-76904296D02*
X183869174Y-77773978D01*
X183869174Y-77773978D02*
X183869353Y-78681016D01*
X183869353Y-78681016D02*
X183869498Y-79625698D01*
X183869498Y-79625698D02*
X183869610Y-80608316D01*
X183869610Y-80608316D02*
X183869689Y-81629159D01*
X183869689Y-81629159D02*
X183869735Y-82688516D01*
X183869735Y-82688516D02*
X183869748Y-83786678D01*
X183869748Y-83786678D02*
X183869728Y-84923934D01*
X183869728Y-84923934D02*
X183869676Y-86100574D01*
X183869676Y-86100574D02*
X183869592Y-87316889D01*
X183869592Y-87316889D02*
X183869475Y-88573167D01*
X183869475Y-88573167D02*
X183869326Y-89869698D01*
X183869326Y-89869698D02*
X183869145Y-91206773D01*
X183869145Y-91206773D02*
X183868932Y-92584681D01*
X183868932Y-92584681D02*
X183868687Y-94003713D01*
X183868687Y-94003713D02*
X183868411Y-95464157D01*
X183868411Y-95464157D02*
X183868103Y-96966304D01*
X183868103Y-96966304D02*
X183867764Y-98510443D01*
X183867764Y-98510443D02*
X183867701Y-98786283D01*
X183867701Y-98786283D02*
X183867377Y-100194742D01*
X183867377Y-100194742D02*
X183867058Y-101561496D01*
X183867058Y-101561496D02*
X183866744Y-102887172D01*
X183866744Y-102887172D02*
X183866433Y-104172400D01*
X183866433Y-104172400D02*
X183866126Y-105417807D01*
X183866126Y-105417807D02*
X183865820Y-106624022D01*
X183865820Y-106624022D02*
X183865516Y-107791671D01*
X183865516Y-107791671D02*
X183865212Y-108921385D01*
X183865212Y-108921385D02*
X183864908Y-110013790D01*
X183864908Y-110013790D02*
X183864602Y-111069514D01*
X183864602Y-111069514D02*
X183864295Y-112089187D01*
X183864295Y-112089187D02*
X183863984Y-113073436D01*
X183863984Y-113073436D02*
X183863670Y-114022888D01*
X183863670Y-114022888D02*
X183863350Y-114938173D01*
X183863350Y-114938173D02*
X183863026Y-115819919D01*
X183863026Y-115819919D02*
X183862695Y-116668753D01*
X183862695Y-116668753D02*
X183862357Y-117485303D01*
X183862357Y-117485303D02*
X183862010Y-118270199D01*
X183862010Y-118270199D02*
X183861655Y-119024067D01*
X183861655Y-119024067D02*
X183861290Y-119747536D01*
X183861290Y-119747536D02*
X183860915Y-120441235D01*
X183860915Y-120441235D02*
X183860528Y-121105790D01*
X183860528Y-121105790D02*
X183860129Y-121741832D01*
X183860129Y-121741832D02*
X183859717Y-122349986D01*
X183859717Y-122349986D02*
X183859291Y-122930882D01*
X183859291Y-122930882D02*
X183858850Y-123485148D01*
X183858850Y-123485148D02*
X183858393Y-124013412D01*
X183858393Y-124013412D02*
X183857920Y-124516302D01*
X183857920Y-124516302D02*
X183857430Y-124994446D01*
X183857430Y-124994446D02*
X183856921Y-125448472D01*
X183856921Y-125448472D02*
X183856393Y-125879009D01*
X183856393Y-125879009D02*
X183855846Y-126286684D01*
X183855846Y-126286684D02*
X183855278Y-126672126D01*
X183855278Y-126672126D02*
X183854688Y-127035962D01*
X183854688Y-127035962D02*
X183854076Y-127378821D01*
X183854076Y-127378821D02*
X183853440Y-127701332D01*
X183853440Y-127701332D02*
X183852781Y-128004121D01*
X183852781Y-128004121D02*
X183852097Y-128287818D01*
X183852097Y-128287818D02*
X183851386Y-128553050D01*
X183851386Y-128553050D02*
X183850650Y-128800445D01*
X183850650Y-128800445D02*
X183849885Y-129030632D01*
X183849885Y-129030632D02*
X183849093Y-129244239D01*
X183849093Y-129244239D02*
X183848271Y-129441894D01*
X183848271Y-129441894D02*
X183847420Y-129624225D01*
X183847420Y-129624225D02*
X183846537Y-129791859D01*
X183846537Y-129791859D02*
X183845623Y-129945426D01*
X183845623Y-129945426D02*
X183844676Y-130085554D01*
X183844676Y-130085554D02*
X183843696Y-130212870D01*
X183843696Y-130212870D02*
X183842682Y-130328002D01*
X183842682Y-130328002D02*
X183841632Y-130431579D01*
X183841632Y-130431579D02*
X183840547Y-130524229D01*
X183840547Y-130524229D02*
X183839425Y-130606580D01*
X183839425Y-130606580D02*
X183838265Y-130679260D01*
X183838265Y-130679260D02*
X183837067Y-130742898D01*
X183837067Y-130742898D02*
X183835830Y-130798120D01*
X183835830Y-130798120D02*
X183834552Y-130845556D01*
X183834552Y-130845556D02*
X183833234Y-130885834D01*
X183833234Y-130885834D02*
X183831874Y-130919581D01*
X183831874Y-130919581D02*
X183830471Y-130947426D01*
X183830471Y-130947426D02*
X183829024Y-130969998D01*
X183829024Y-130969998D02*
X183827534Y-130987923D01*
X183827534Y-130987923D02*
X183825998Y-131001830D01*
X183825998Y-131001830D02*
X183824416Y-131012348D01*
X183824416Y-131012348D02*
X183824383Y-131012533D01*
X183824383Y-131012533D02*
X183734337Y-131407986D01*
X183734337Y-131407986D02*
X183610029Y-131778750D01*
X183610029Y-131778750D02*
X183451175Y-132125389D01*
X183451175Y-132125389D02*
X183257490Y-132448467D01*
X183257490Y-132448467D02*
X183028688Y-132748548D01*
X183028688Y-132748548D02*
X182847195Y-132945510D01*
X182847195Y-132945510D02*
X182561648Y-133203495D01*
X182561648Y-133203495D02*
X182252402Y-133426454D01*
X182252402Y-133426454D02*
X181919795Y-133614208D01*
X181919795Y-133614208D02*
X181564168Y-133766576D01*
X181564168Y-133766576D02*
X181185861Y-133883378D01*
X181185861Y-133883378D02*
X180994378Y-133927153D01*
X180994378Y-133927153D02*
X180985112Y-133928759D01*
X180985112Y-133928759D02*
X180972882Y-133930317D01*
X180972882Y-133930317D02*
X180957063Y-133931829D01*
X180957063Y-133931829D02*
X180937028Y-133933296D01*
X180937028Y-133933296D02*
X180912150Y-133934717D01*
X180912150Y-133934717D02*
X180881804Y-133936095D01*
X180881804Y-133936095D02*
X180845363Y-133937429D01*
X180845363Y-133937429D02*
X180802201Y-133938721D01*
X180802201Y-133938721D02*
X180751692Y-133939971D01*
X180751692Y-133939971D02*
X180693210Y-133941179D01*
X180693210Y-133941179D02*
X180626128Y-133942348D01*
X180626128Y-133942348D02*
X180549821Y-133943477D01*
X180549821Y-133943477D02*
X180463661Y-133944567D01*
X180463661Y-133944567D02*
X180367024Y-133945619D01*
X180367024Y-133945619D02*
X180259281Y-133946634D01*
X180259281Y-133946634D02*
X180139808Y-133947612D01*
X180139808Y-133947612D02*
X180007979Y-133948554D01*
X180007979Y-133948554D02*
X179863166Y-133949462D01*
X179863166Y-133949462D02*
X179704743Y-133950335D01*
X179704743Y-133950335D02*
X179532085Y-133951175D01*
X179532085Y-133951175D02*
X179344566Y-133951982D01*
X179344566Y-133951982D02*
X179141558Y-133952758D01*
X179141558Y-133952758D02*
X178922436Y-133953502D01*
X178922436Y-133953502D02*
X178686574Y-133954215D01*
X178686574Y-133954215D02*
X178433344Y-133954899D01*
X178433344Y-133954899D02*
X178162122Y-133955554D01*
X178162122Y-133955554D02*
X177872281Y-133956181D01*
X177872281Y-133956181D02*
X177563195Y-133956780D01*
X177563195Y-133956780D02*
X177234236Y-133957353D01*
X177234236Y-133957353D02*
X176884781Y-133957900D01*
X176884781Y-133957900D02*
X176514201Y-133958421D01*
X176514201Y-133958421D02*
X176121870Y-133958919D01*
X176121870Y-133958919D02*
X175707164Y-133959392D01*
X175707164Y-133959392D02*
X175269454Y-133959843D01*
X175269454Y-133959843D02*
X174808116Y-133960272D01*
X174808116Y-133960272D02*
X174322522Y-133960680D01*
X174322522Y-133960680D02*
X173812048Y-133961066D01*
X173812048Y-133961066D02*
X173276065Y-133961434D01*
X173276065Y-133961434D02*
X172713949Y-133961782D01*
X172713949Y-133961782D02*
X172125073Y-133962111D01*
X172125073Y-133962111D02*
X171508810Y-133962423D01*
X171508810Y-133962423D02*
X170864535Y-133962719D01*
X170864535Y-133962719D02*
X170191621Y-133962998D01*
X170191621Y-133962998D02*
X169489442Y-133963262D01*
X169489442Y-133963262D02*
X168757373Y-133963512D01*
X168757373Y-133963512D02*
X167994785Y-133963748D01*
X167994785Y-133963748D02*
X167201055Y-133963971D01*
X167201055Y-133963971D02*
X166375554Y-133964181D01*
X166375554Y-133964181D02*
X165517657Y-133964380D01*
X165517657Y-133964380D02*
X164626738Y-133964569D01*
X164626738Y-133964569D02*
X163702171Y-133964747D01*
X163702171Y-133964747D02*
X162743328Y-133964917D01*
X162743328Y-133964917D02*
X161749585Y-133965077D01*
X161749585Y-133965077D02*
X160720315Y-133965231D01*
X160720315Y-133965231D02*
X159654891Y-133965377D01*
X159654891Y-133965377D02*
X158552688Y-133965517D01*
X158552688Y-133965517D02*
X157413079Y-133965652D01*
X157413079Y-133965652D02*
X156235438Y-133965782D01*
X156235438Y-133965782D02*
X155019138Y-133965908D01*
X155019138Y-133965908D02*
X153763554Y-133966031D01*
X153763554Y-133966031D02*
X152468060Y-133966152D01*
X152468060Y-133966152D02*
X151132028Y-133966271D01*
X151132028Y-133966271D02*
X149754833Y-133966389D01*
X149754833Y-133966389D02*
X148524712Y-133966491D01*
X148524712Y-133966491D02*
X147355171Y-133966583D01*
X147355171Y-133966583D02*
X146195672Y-133966663D01*
X146195672Y-133966663D02*
X145046945Y-133966733D01*
X145046945Y-133966733D02*
X143909715Y-133966791D01*
X143909715Y-133966791D02*
X142784712Y-133966840D01*
X142784712Y-133966840D02*
X141672663Y-133966878D01*
X141672663Y-133966878D02*
X140574295Y-133966905D01*
X140574295Y-133966905D02*
X139490337Y-133966922D01*
X139490337Y-133966922D02*
X138421516Y-133966929D01*
X138421516Y-133966929D02*
X137368560Y-133966926D01*
X137368560Y-133966926D02*
X136332196Y-133966914D01*
X136332196Y-133966914D02*
X135313153Y-133966891D01*
X135313153Y-133966891D02*
X134312159Y-133966859D01*
X134312159Y-133966859D02*
X133329940Y-133966817D01*
X133329940Y-133966817D02*
X132367225Y-133966766D01*
X132367225Y-133966766D02*
X131424741Y-133966705D01*
X131424741Y-133966705D02*
X130503217Y-133966636D01*
X130503217Y-133966636D02*
X129603380Y-133966557D01*
X129603380Y-133966557D02*
X128725958Y-133966469D01*
X128725958Y-133966469D02*
X127871678Y-133966373D01*
X127871678Y-133966373D02*
X127041269Y-133966267D01*
X127041269Y-133966267D02*
X126235458Y-133966153D01*
X126235458Y-133966153D02*
X125454973Y-133966031D01*
X125454973Y-133966031D02*
X124700541Y-133965900D01*
X124700541Y-133965900D02*
X123972891Y-133965761D01*
X123972891Y-133965761D02*
X123272750Y-133965614D01*
X123272750Y-133965614D02*
X122600846Y-133965459D01*
X122600846Y-133965459D02*
X121957907Y-133965296D01*
X121957907Y-133965296D02*
X121344661Y-133965125D01*
X121344661Y-133965125D02*
X120761834Y-133964947D01*
X120761834Y-133964947D02*
X120210156Y-133964760D01*
X120210156Y-133964760D02*
X119690353Y-133964567D01*
X119690353Y-133964567D02*
X119203154Y-133964366D01*
X119203154Y-133964366D02*
X118749287Y-133964158D01*
X118749287Y-133964158D02*
X118329478Y-133963943D01*
X118329478Y-133963943D02*
X117944457Y-133963720D01*
X117944457Y-133963720D02*
X117594950Y-133963491D01*
X117594950Y-133963491D02*
X117281685Y-133963256D01*
X117281685Y-133963256D02*
X117005391Y-133963013D01*
X117005391Y-133963013D02*
X116766795Y-133962764D01*
X116766795Y-133962764D02*
X116566624Y-133962509D01*
X116566624Y-133962509D02*
X116405607Y-133962247D01*
X116405607Y-133962247D02*
X116284471Y-133961980D01*
X116284471Y-133961980D02*
X116203944Y-133961706D01*
X116203944Y-133961706D02*
X116164754Y-133961426D01*
X116164754Y-133961426D02*
X116160878Y-133961321D01*
X116160878Y-133961321D02*
X115802550Y-133903103D01*
X115802550Y-133903103D02*
X115449018Y-133806079D01*
X115449018Y-133806079D02*
X115105410Y-133672833D01*
X115105410Y-133672833D02*
X114776855Y-133505949D01*
X114776855Y-133505949D02*
X114468482Y-133308011D01*
X114468482Y-133308011D02*
X114185421Y-133081602D01*
X114185421Y-133081602D02*
X113948515Y-132846796D01*
X113948515Y-132846796D02*
X113703953Y-132546211D01*
X113703953Y-132546211D02*
X113496870Y-132225997D01*
X113496870Y-132225997D02*
X113327398Y-131886454D01*
X113327398Y-131886454D02*
X113195670Y-131527885D01*
X113195670Y-131527885D02*
X113101817Y-131150590D01*
X113101817Y-131150590D02*
X113049343Y-130790283D01*
X113049343Y-130790283D02*
X113048242Y-130765732D01*
X113048242Y-130765732D02*
X113047177Y-130714337D01*
X113047177Y-130714337D02*
X113046149Y-130635742D01*
X113046149Y-130635742D02*
X113045158Y-130529595D01*
X113045158Y-130529595D02*
X113044202Y-130395541D01*
X113044202Y-130395541D02*
X113043282Y-130233227D01*
X113043282Y-130233227D02*
X113042398Y-130042299D01*
X113042398Y-130042299D02*
X113041550Y-129822405D01*
X113041550Y-129822405D02*
X113040737Y-129573189D01*
X113040737Y-129573189D02*
X113039959Y-129294299D01*
X113039959Y-129294299D02*
X113039216Y-128985381D01*
X113039216Y-128985381D02*
X113038508Y-128646081D01*
X113038508Y-128646081D02*
X113037835Y-128276046D01*
X113037835Y-128276046D02*
X113037197Y-127874922D01*
X113037197Y-127874922D02*
X113036592Y-127442355D01*
X113036592Y-127442355D02*
X113036022Y-126977992D01*
X113036022Y-126977992D02*
X113035486Y-126481479D01*
X113035486Y-126481479D02*
X113034984Y-125952463D01*
X113034984Y-125952463D02*
X113034515Y-125390590D01*
X113034515Y-125390590D02*
X113034080Y-124795506D01*
X113034080Y-124795506D02*
X113033679Y-124166858D01*
X113033679Y-124166858D02*
X113033310Y-123504292D01*
X113033310Y-123504292D02*
X113032974Y-122807454D01*
X113032974Y-122807454D02*
X113032672Y-122075992D01*
X113032672Y-122075992D02*
X113032402Y-121309550D01*
X113032402Y-121309550D02*
X113032164Y-120507776D01*
X113032164Y-120507776D02*
X113031958Y-119670316D01*
X113031958Y-119670316D02*
X113031785Y-118796817D01*
X113031785Y-118796817D02*
X113031644Y-117886924D01*
X113031644Y-117886924D02*
X113031534Y-116940284D01*
X113031534Y-116940284D02*
X113031456Y-115956544D01*
X113031456Y-115956544D02*
X113031410Y-114935350D01*
X113031410Y-114935350D02*
X113031394Y-113876347D01*
X113031394Y-113876347D02*
X113031410Y-112779184D01*
X113031410Y-112779184D02*
X113031457Y-111643506D01*
X113031457Y-111643506D02*
X113031534Y-110468959D01*
X113031534Y-110468959D02*
X113031642Y-109255190D01*
X113031642Y-109255190D02*
X113031780Y-108001845D01*
X113031780Y-108001845D02*
X113031949Y-106708570D01*
X113031949Y-106708570D02*
X113032147Y-105375013D01*
X113032147Y-105375013D02*
X113032376Y-104000819D01*
X113032376Y-104000819D02*
X113032634Y-102585634D01*
X113032634Y-102585634D02*
X113032922Y-101129106D01*
X113032922Y-101129106D02*
X113033239Y-99630880D01*
X113033239Y-99630880D02*
X113033513Y-98405283D01*
X113033513Y-98405283D02*
X113033816Y-97084749D01*
X113033816Y-97084749D02*
X114445164Y-97084749D01*
X114445164Y-97084749D02*
X114445175Y-98097000D01*
X114445175Y-98097000D02*
X114445207Y-99109670D01*
X114445207Y-99109670D02*
X114445261Y-100121867D01*
X114445261Y-100121867D02*
X114445335Y-101132701D01*
X114445335Y-101132701D02*
X114445429Y-102141279D01*
X114445429Y-102141279D02*
X114445545Y-103146710D01*
X114445545Y-103146710D02*
X114445681Y-104148102D01*
X114445681Y-104148102D02*
X114445838Y-105144562D01*
X114445838Y-105144562D02*
X114446016Y-106135200D01*
X114446016Y-106135200D02*
X114446215Y-107119123D01*
X114446215Y-107119123D02*
X114446434Y-108095440D01*
X114446434Y-108095440D02*
X114446674Y-109063259D01*
X114446674Y-109063259D02*
X114446935Y-110021687D01*
X114446935Y-110021687D02*
X114447216Y-110969834D01*
X114447216Y-110969834D02*
X114447517Y-111906808D01*
X114447517Y-111906808D02*
X114447839Y-112831716D01*
X114447839Y-112831716D02*
X114448182Y-113743668D01*
X114448182Y-113743668D02*
X114448545Y-114641770D01*
X114448545Y-114641770D02*
X114448929Y-115525132D01*
X114448929Y-115525132D02*
X114449333Y-116392861D01*
X114449333Y-116392861D02*
X114449757Y-117244067D01*
X114449757Y-117244067D02*
X114450202Y-118077856D01*
X114450202Y-118077856D02*
X114450667Y-118893338D01*
X114450667Y-118893338D02*
X114451153Y-119689620D01*
X114451153Y-119689620D02*
X114451659Y-120465811D01*
X114451659Y-120465811D02*
X114452185Y-121221019D01*
X114452185Y-121221019D02*
X114452731Y-121954352D01*
X114452731Y-121954352D02*
X114453297Y-122664918D01*
X114453297Y-122664918D02*
X114453884Y-123351826D01*
X114453884Y-123351826D02*
X114454491Y-124014184D01*
X114454491Y-124014184D02*
X114455117Y-124651100D01*
X114455117Y-124651100D02*
X114455764Y-125261682D01*
X114455764Y-125261682D02*
X114456431Y-125845039D01*
X114456431Y-125845039D02*
X114457118Y-126400278D01*
X114457118Y-126400278D02*
X114457825Y-126926509D01*
X114457825Y-126926509D02*
X114458552Y-127422838D01*
X114458552Y-127422838D02*
X114459299Y-127888375D01*
X114459299Y-127888375D02*
X114460066Y-128322227D01*
X114460066Y-128322227D02*
X114460853Y-128723504D01*
X114460853Y-128723504D02*
X114461660Y-129091312D01*
X114461660Y-129091312D02*
X114462486Y-129424760D01*
X114462486Y-129424760D02*
X114463332Y-129722957D01*
X114463332Y-129722957D02*
X114464199Y-129985011D01*
X114464199Y-129985011D02*
X114465084Y-130210029D01*
X114465084Y-130210029D02*
X114465990Y-130397121D01*
X114465990Y-130397121D02*
X114466915Y-130545394D01*
X114466915Y-130545394D02*
X114467860Y-130653957D01*
X114467860Y-130653957D02*
X114468825Y-130721917D01*
X114468825Y-130721917D02*
X114469745Y-130747949D01*
X114469745Y-130747949D02*
X114525110Y-131032830D01*
X114525110Y-131032830D02*
X114618182Y-131302577D01*
X114618182Y-131302577D02*
X114746128Y-131554186D01*
X114746128Y-131554186D02*
X114906115Y-131784653D01*
X114906115Y-131784653D02*
X115095309Y-131990973D01*
X115095309Y-131990973D02*
X115310878Y-132170143D01*
X115310878Y-132170143D02*
X115549989Y-132319158D01*
X115549989Y-132319158D02*
X115809808Y-132435015D01*
X115809808Y-132435015D02*
X116087503Y-132514709D01*
X116087503Y-132514709D02*
X116146941Y-132526408D01*
X116146941Y-132526408D02*
X116159902Y-132527644D01*
X116159902Y-132527644D02*
X116185352Y-132528842D01*
X116185352Y-132528842D02*
X116223854Y-132530003D01*
X116223854Y-132530003D02*
X116275975Y-132531129D01*
X116275975Y-132531129D02*
X116342279Y-132532218D01*
X116342279Y-132532218D02*
X116423330Y-132533273D01*
X116423330Y-132533273D02*
X116519692Y-132534292D01*
X116519692Y-132534292D02*
X116631931Y-132535276D01*
X116631931Y-132535276D02*
X116760612Y-132536227D01*
X116760612Y-132536227D02*
X116906298Y-132537144D01*
X116906298Y-132537144D02*
X117069554Y-132538027D01*
X117069554Y-132538027D02*
X117250945Y-132538878D01*
X117250945Y-132538878D02*
X117451036Y-132539696D01*
X117451036Y-132539696D02*
X117670392Y-132540482D01*
X117670392Y-132540482D02*
X117909575Y-132541237D01*
X117909575Y-132541237D02*
X118169153Y-132541960D01*
X118169153Y-132541960D02*
X118449688Y-132542653D01*
X118449688Y-132542653D02*
X118751746Y-132543315D01*
X118751746Y-132543315D02*
X119075892Y-132543948D01*
X119075892Y-132543948D02*
X119422689Y-132544551D01*
X119422689Y-132544551D02*
X119792703Y-132545124D01*
X119792703Y-132545124D02*
X120186498Y-132545670D01*
X120186498Y-132545670D02*
X120604639Y-132546187D01*
X120604639Y-132546187D02*
X121047690Y-132546676D01*
X121047690Y-132546676D02*
X121516216Y-132547137D01*
X121516216Y-132547137D02*
X122010782Y-132547572D01*
X122010782Y-132547572D02*
X122531951Y-132547980D01*
X122531951Y-132547980D02*
X123080290Y-132548362D01*
X123080290Y-132548362D02*
X123656363Y-132548719D01*
X123656363Y-132548719D02*
X124260733Y-132549050D01*
X124260733Y-132549050D02*
X124893966Y-132549356D01*
X124893966Y-132549356D02*
X125556626Y-132549637D01*
X125556626Y-132549637D02*
X126249279Y-132549895D01*
X126249279Y-132549895D02*
X126972487Y-132550129D01*
X126972487Y-132550129D02*
X127726817Y-132550340D01*
X127726817Y-132550340D02*
X128512833Y-132550528D01*
X128512833Y-132550528D02*
X129331100Y-132550694D01*
X129331100Y-132550694D02*
X130182181Y-132550838D01*
X130182181Y-132550838D02*
X131066642Y-132550960D01*
X131066642Y-132550960D02*
X131985047Y-132551061D01*
X131985047Y-132551061D02*
X132937961Y-132551142D01*
X132937961Y-132551142D02*
X133925948Y-132551202D01*
X133925948Y-132551202D02*
X134949574Y-132551242D01*
X134949574Y-132551242D02*
X136009402Y-132551264D01*
X136009402Y-132551264D02*
X137105998Y-132551266D01*
X137105998Y-132551266D02*
X138239926Y-132551249D01*
X138239926Y-132551249D02*
X139411750Y-132551215D01*
X139411750Y-132551215D02*
X140622035Y-132551162D01*
X140622035Y-132551162D02*
X141871347Y-132551093D01*
X141871347Y-132551093D02*
X143160248Y-132551006D01*
X143160248Y-132551006D02*
X144489305Y-132550903D01*
X144489305Y-132550903D02*
X145859081Y-132550784D01*
X145859081Y-132550784D02*
X147270142Y-132550649D01*
X147270142Y-132550649D02*
X148514128Y-132550522D01*
X148514128Y-132550522D02*
X180729795Y-132547116D01*
X180729795Y-132547116D02*
X180899128Y-132497914D01*
X180899128Y-132497914D02*
X181188986Y-132392934D01*
X181188986Y-132392934D02*
X181454348Y-132253668D01*
X181454348Y-132253668D02*
X181694645Y-132080447D01*
X181694645Y-132080447D02*
X181841199Y-131945701D01*
X181841199Y-131945701D02*
X182025184Y-131734877D01*
X182025184Y-131734877D02*
X182175630Y-131506379D01*
X182175630Y-131506379D02*
X182296497Y-131253523D01*
X182296497Y-131253523D02*
X182363963Y-131063779D01*
X182363963Y-131063779D02*
X182423128Y-130874949D01*
X182423128Y-130874949D02*
X182423128Y-66274283D01*
X182423128Y-66274283D02*
X182374222Y-66105333D01*
X182374222Y-66105333D02*
X182269761Y-65816075D01*
X182269761Y-65816075D02*
X182131949Y-65552304D01*
X182131949Y-65552304D02*
X181962299Y-65315499D01*
X181962299Y-65315499D02*
X181762325Y-65107137D01*
X181762325Y-65107137D02*
X181533541Y-64928696D01*
X181533541Y-64928696D02*
X181277462Y-64781654D01*
X181277462Y-64781654D02*
X180995601Y-64667489D01*
X180995601Y-64667489D02*
X180859599Y-64626926D01*
X180859599Y-64626926D02*
X180687462Y-64580949D01*
X180687462Y-64580949D02*
X116213795Y-64580949D01*
X116213795Y-64580949D02*
X116025898Y-64628816D01*
X116025898Y-64628816D02*
X115751140Y-64719714D01*
X115751140Y-64719714D02*
X115491857Y-64847042D01*
X115491857Y-64847042D02*
X115252886Y-65007416D01*
X115252886Y-65007416D02*
X115039066Y-65197453D01*
X115039066Y-65197453D02*
X114855234Y-65413769D01*
X114855234Y-65413769D02*
X114808682Y-65480246D01*
X114808682Y-65480246D02*
X114666828Y-65722841D01*
X114666828Y-65722841D02*
X114562757Y-65972715D01*
X114562757Y-65972715D02*
X114493064Y-66239044D01*
X114493064Y-66239044D02*
X114467742Y-66399126D01*
X114467742Y-66399126D02*
X114466761Y-66428057D01*
X114466761Y-66428057D02*
X114465802Y-66498430D01*
X114465802Y-66498430D02*
X114464865Y-66609353D01*
X114464865Y-66609353D02*
X114463950Y-66759934D01*
X114463950Y-66759934D02*
X114463058Y-66949280D01*
X114463058Y-66949280D02*
X114462188Y-67176502D01*
X114462188Y-67176502D02*
X114461339Y-67440706D01*
X114461339Y-67440706D02*
X114460513Y-67741000D01*
X114460513Y-67741000D02*
X114459709Y-68076494D01*
X114459709Y-68076494D02*
X114458926Y-68446296D01*
X114458926Y-68446296D02*
X114458166Y-68849512D01*
X114458166Y-68849512D02*
X114457427Y-69285253D01*
X114457427Y-69285253D02*
X114456711Y-69752625D01*
X114456711Y-69752625D02*
X114456016Y-70250738D01*
X114456016Y-70250738D02*
X114455343Y-70778699D01*
X114455343Y-70778699D02*
X114454692Y-71335617D01*
X114454692Y-71335617D02*
X114454063Y-71920599D01*
X114454063Y-71920599D02*
X114453455Y-72532755D01*
X114453455Y-72532755D02*
X114452869Y-73171192D01*
X114452869Y-73171192D02*
X114452305Y-73835018D01*
X114452305Y-73835018D02*
X114451763Y-74523342D01*
X114451763Y-74523342D02*
X114451242Y-75235272D01*
X114451242Y-75235272D02*
X114450743Y-75969916D01*
X114450743Y-75969916D02*
X114450265Y-76726383D01*
X114450265Y-76726383D02*
X114449809Y-77503780D01*
X114449809Y-77503780D02*
X114449375Y-78301216D01*
X114449375Y-78301216D02*
X114448962Y-79117799D01*
X114448962Y-79117799D02*
X114448570Y-79952638D01*
X114448570Y-79952638D02*
X114448200Y-80804839D01*
X114448200Y-80804839D02*
X114447852Y-81673513D01*
X114447852Y-81673513D02*
X114447524Y-82557766D01*
X114447524Y-82557766D02*
X114447218Y-83456708D01*
X114447218Y-83456708D02*
X114446934Y-84369446D01*
X114446934Y-84369446D02*
X114446671Y-85295089D01*
X114446671Y-85295089D02*
X114446429Y-86232744D01*
X114446429Y-86232744D02*
X114446208Y-87181520D01*
X114446208Y-87181520D02*
X114446009Y-88140526D01*
X114446009Y-88140526D02*
X114445830Y-89108869D01*
X114445830Y-89108869D02*
X114445673Y-90085658D01*
X114445673Y-90085658D02*
X114445537Y-91070001D01*
X114445537Y-91070001D02*
X114445422Y-92061006D01*
X114445422Y-92061006D02*
X114445329Y-93057781D01*
X114445329Y-93057781D02*
X114445256Y-94059435D01*
X114445256Y-94059435D02*
X114445204Y-95065075D01*
X114445204Y-95065075D02*
X114445174Y-96073811D01*
X114445174Y-96073811D02*
X114445164Y-97084749D01*
X114445164Y-97084749D02*
X113033816Y-97084749D01*
X113033816Y-97084749D02*
X113033838Y-96990550D01*
X113033838Y-96990550D02*
X113034160Y-95617529D01*
X113034160Y-95617529D02*
X113034478Y-94285600D01*
X113034478Y-94285600D02*
X113034794Y-92994140D01*
X113034794Y-92994140D02*
X113035107Y-91742529D01*
X113035107Y-91742529D02*
X113035420Y-90530145D01*
X113035420Y-90530145D02*
X113035732Y-89356368D01*
X113035732Y-89356368D02*
X113036045Y-88220576D01*
X113036045Y-88220576D02*
X113036360Y-87122148D01*
X113036360Y-87122148D02*
X113036676Y-86060463D01*
X113036676Y-86060463D02*
X113036996Y-85034900D01*
X113036996Y-85034900D02*
X113037319Y-84044837D01*
X113037319Y-84044837D02*
X113037646Y-83089654D01*
X113037646Y-83089654D02*
X113037979Y-82168729D01*
X113037979Y-82168729D02*
X113038318Y-81281441D01*
X113038318Y-81281441D02*
X113038664Y-80427169D01*
X113038664Y-80427169D02*
X113039018Y-79605291D01*
X113039018Y-79605291D02*
X113039380Y-78815188D01*
X113039380Y-78815188D02*
X113039751Y-78056236D01*
X113039751Y-78056236D02*
X113040133Y-77327816D01*
X113040133Y-77327816D02*
X113040525Y-76629306D01*
X113040525Y-76629306D02*
X113040929Y-75960085D01*
X113040929Y-75960085D02*
X113041345Y-75319532D01*
X113041345Y-75319532D02*
X113041774Y-74707025D01*
X113041774Y-74707025D02*
X113042218Y-74121944D01*
X113042218Y-74121944D02*
X113042676Y-73563667D01*
X113042676Y-73563667D02*
X113043150Y-73031573D01*
X113043150Y-73031573D02*
X113043640Y-72525041D01*
X113043640Y-72525041D02*
X113044148Y-72043450D01*
X113044148Y-72043450D02*
X113044673Y-71586179D01*
X113044673Y-71586179D02*
X113045217Y-71152606D01*
X113045217Y-71152606D02*
X113045781Y-70742110D01*
X113045781Y-70742110D02*
X113046365Y-70354071D01*
X113046365Y-70354071D02*
X113046970Y-69987867D01*
X113046970Y-69987867D02*
X113047597Y-69642876D01*
X113047597Y-69642876D02*
X113048247Y-69318478D01*
X113048247Y-69318478D02*
X113048920Y-69014052D01*
X113048920Y-69014052D02*
X113049618Y-68728976D01*
X113049618Y-68728976D02*
X113050340Y-68462629D01*
X113050340Y-68462629D02*
X113051089Y-68214390D01*
X113051089Y-68214390D02*
X113051864Y-67983638D01*
X113051864Y-67983638D02*
X113052667Y-67769752D01*
X113052667Y-67769752D02*
X113053498Y-67572110D01*
X113053498Y-67572110D02*
X113054358Y-67390092D01*
X113054358Y-67390092D02*
X113055247Y-67223076D01*
X113055247Y-67223076D02*
X113056168Y-67070441D01*
X113056168Y-67070441D02*
X113057120Y-66931566D01*
X113057120Y-66931566D02*
X113058104Y-66805830D01*
X113058104Y-66805830D02*
X113059121Y-66692611D01*
X113059121Y-66692611D02*
X113060172Y-66591289D01*
X113060172Y-66591289D02*
X113061257Y-66501242D01*
X113061257Y-66501242D02*
X113062378Y-66421849D01*
X113062378Y-66421849D02*
X113063535Y-66352489D01*
X113063535Y-66352489D02*
X113064729Y-66292540D01*
X113064729Y-66292540D02*
X113065961Y-66241383D01*
X113065961Y-66241383D02*
X113067231Y-66198394D01*
X113067231Y-66198394D02*
X113068540Y-66162954D01*
X113068540Y-66162954D02*
X113069890Y-66134441D01*
X113069890Y-66134441D02*
X113071281Y-66112235D01*
X113071281Y-66112235D02*
X113072713Y-66095713D01*
X113072713Y-66095713D02*
X113074188Y-66084254D01*
X113074188Y-66084254D02*
X113074696Y-66081416D01*
X113074696Y-66081416D02*
X113165293Y-65701295D01*
X113165293Y-65701295D02*
X113282056Y-65351950D01*
X113282056Y-65351950D02*
X113427066Y-65029345D01*
X113427066Y-65029345D02*
X113602403Y-64729443D01*
X113602403Y-64729443D02*
X113810145Y-64448209D01*
X113810145Y-64448209D02*
X114052374Y-64181605D01*
X114052374Y-64181605D02*
X114054998Y-64178980D01*
X114054998Y-64178980D02*
X114335471Y-63925555D01*
X114335471Y-63925555D02*
X114634732Y-63708143D01*
X114634732Y-63708143D02*
X114955033Y-63525571D01*
X114955033Y-63525571D02*
X115298625Y-63376666D01*
X115298625Y-63376666D02*
X115667762Y-63260255D01*
X115667762Y-63260255D02*
X115937019Y-63198563D01*
X115937019Y-63198563D02*
X115946917Y-63197079D01*
X115946917Y-63197079D02*
X115961762Y-63195638D01*
X115961762Y-63195638D02*
X115982175Y-63194239D01*
X115982175Y-63194239D02*
X116008776Y-63192880D01*
X116008776Y-63192880D02*
X116042186Y-63191562D01*
X116042186Y-63191562D02*
X116083025Y-63190284D01*
X116083025Y-63190284D02*
X116131914Y-63189043D01*
X116131914Y-63189043D02*
X116189472Y-63187841D01*
X116189472Y-63187841D02*
X116256321Y-63186676D01*
X116256321Y-63186676D02*
X116333080Y-63185547D01*
X116333080Y-63185547D02*
X116420371Y-63184453D01*
X116420371Y-63184453D02*
X116518814Y-63183394D01*
X116518814Y-63183394D02*
X116629028Y-63182369D01*
X116629028Y-63182369D02*
X116751636Y-63181378D01*
X116751636Y-63181378D02*
X116887256Y-63180418D01*
X116887256Y-63180418D02*
X117036510Y-63179490D01*
X117036510Y-63179490D02*
X117200017Y-63178593D01*
X117200017Y-63178593D02*
X117378400Y-63177725D01*
X117378400Y-63177725D02*
X117572277Y-63176887D01*
X117572277Y-63176887D02*
X117782269Y-63176077D01*
X117782269Y-63176077D02*
X118008997Y-63175295D01*
X118008997Y-63175295D02*
X118253081Y-63174539D01*
X118253081Y-63174539D02*
X118515142Y-63173810D01*
X118515142Y-63173810D02*
X118795799Y-63173106D01*
X118795799Y-63173106D02*
X119095675Y-63172426D01*
X119095675Y-63172426D02*
X119415388Y-63171770D01*
X119415388Y-63171770D02*
X119755559Y-63171136D01*
X119755559Y-63171136D02*
X120116810Y-63170525D01*
X120116810Y-63170525D02*
X120499759Y-63169935D01*
X120499759Y-63169935D02*
X120905028Y-63169366D01*
X120905028Y-63169366D02*
X121333238Y-63168816D01*
X121333238Y-63168816D02*
X121785008Y-63168285D01*
X121785008Y-63168285D02*
X122260959Y-63167773D01*
X122260959Y-63167773D02*
X122761712Y-63167277D01*
X122761712Y-63167277D02*
X123287886Y-63166799D01*
X123287886Y-63166799D02*
X123840103Y-63166336D01*
X123840103Y-63166336D02*
X124418982Y-63165888D01*
X124418982Y-63165888D02*
X125025145Y-63165454D01*
X125025145Y-63165454D02*
X125659212Y-63165033D01*
X125659212Y-63165033D02*
X126321803Y-63164626D01*
X126321803Y-63164626D02*
X127013538Y-63164230D01*
X127013538Y-63164230D02*
X127735038Y-63163845D01*
X127735038Y-63163845D02*
X128486924Y-63163470D01*
X128486924Y-63163470D02*
X129269816Y-63163105D01*
X129269816Y-63163105D02*
X130084334Y-63162749D01*
X130084334Y-63162749D02*
X130931099Y-63162400D01*
X130931099Y-63162400D02*
X131810731Y-63162059D01*
X131810731Y-63162059D02*
X132723851Y-63161724D01*
X132723851Y-63161724D02*
X133671079Y-63161394D01*
X133671079Y-63161394D02*
X134653036Y-63161069D01*
X134653036Y-63161069D02*
X135670341Y-63160748D01*
X135670341Y-63160748D02*
X136723616Y-63160431D01*
X136723616Y-63160431D02*
X137813481Y-63160115D01*
X137813481Y-63160115D02*
X138940557Y-63159802D01*
X138940557Y-63159802D02*
X140105463Y-63159489D01*
X140105463Y-63159489D02*
X141308820Y-63159176D01*
X141308820Y-63159176D02*
X142551249Y-63158862D01*
X142551249Y-63158862D02*
X143833370Y-63158547D01*
X143833370Y-63158547D02*
X145155804Y-63158230D01*
X145155804Y-63158230D02*
X146519171Y-63157909D01*
X146519171Y-63157909D02*
X147924091Y-63157584D01*
X147924091Y-63157584D02*
X148291878Y-63157500D01*
X148291878Y-63157500D02*
X149820344Y-63157161D01*
X149820344Y-63157161D02*
X151306841Y-63156850D01*
X151306841Y-63156850D02*
X152751736Y-63156569D01*
X152751736Y-63156569D02*
X154155393Y-63156316D01*
X154155393Y-63156316D02*
X155518178Y-63156093D01*
X155518178Y-63156093D02*
X156840455Y-63155900D01*
X156840455Y-63155900D02*
X158122591Y-63155736D01*
X158122591Y-63155736D02*
X159364950Y-63155602D01*
X159364950Y-63155602D02*
X160567897Y-63155498D01*
X160567897Y-63155498D02*
X161731799Y-63155425D01*
X161731799Y-63155425D02*
X162857019Y-63155382D01*
X162857019Y-63155382D02*
X163943923Y-63155369D01*
X163943923Y-63155369D02*
X164992877Y-63155387D01*
X164992877Y-63155387D02*
X164992877Y-63155387D01*
G36*
X113034160Y-95617529D02*
G01*
X113034478Y-94285600D01*
X113034794Y-92994140D01*
X113035107Y-91742529D01*
X113035420Y-90530145D01*
X113035732Y-89356368D01*
X113036045Y-88220576D01*
X113036360Y-87122148D01*
X113036676Y-86060463D01*
X113036996Y-85034900D01*
X113037319Y-84044837D01*
X113037646Y-83089654D01*
X113037979Y-82168729D01*
X113038318Y-81281441D01*
X113038664Y-80427169D01*
X113039018Y-79605291D01*
X113039380Y-78815188D01*
X113039751Y-78056236D01*
X113040133Y-77327816D01*
X113040525Y-76629306D01*
X113040929Y-75960085D01*
X113041345Y-75319532D01*
X113041774Y-74707025D01*
X113042218Y-74121944D01*
X113042676Y-73563667D01*
X113043150Y-73031573D01*
X113043640Y-72525041D01*
X113044148Y-72043450D01*
X113044673Y-71586179D01*
X113045217Y-71152606D01*
X113045781Y-70742110D01*
X113046365Y-70354071D01*
X113046970Y-69987867D01*
X113047597Y-69642876D01*
X113048247Y-69318478D01*
X113048920Y-69014052D01*
X113049618Y-68728976D01*
X113050340Y-68462629D01*
X113051089Y-68214390D01*
X113051864Y-67983638D01*
X113052667Y-67769752D01*
X113053498Y-67572110D01*
X113054358Y-67390092D01*
X113055247Y-67223076D01*
X113056168Y-67070441D01*
X113057120Y-66931566D01*
X113058104Y-66805830D01*
X113059121Y-66692611D01*
X113060172Y-66591289D01*
X113061257Y-66501242D01*
X113062378Y-66421849D01*
X113063535Y-66352489D01*
X113064729Y-66292540D01*
X113065961Y-66241383D01*
X113067231Y-66198394D01*
X113068540Y-66162954D01*
X113069890Y-66134441D01*
X113071281Y-66112235D01*
X113072713Y-66095713D01*
X113074188Y-66084254D01*
X113074696Y-66081416D01*
X113165293Y-65701295D01*
X113282056Y-65351950D01*
X113427066Y-65029345D01*
X113602403Y-64729443D01*
X113810145Y-64448209D01*
X114052374Y-64181605D01*
X114054998Y-64178980D01*
X114335471Y-63925555D01*
X114634732Y-63708143D01*
X114955033Y-63525571D01*
X115298625Y-63376666D01*
X115667762Y-63260255D01*
X115937019Y-63198563D01*
X115946917Y-63197079D01*
X115961762Y-63195638D01*
X115982175Y-63194239D01*
X116008776Y-63192880D01*
X116042186Y-63191562D01*
X116083025Y-63190284D01*
X116131914Y-63189043D01*
X116189472Y-63187841D01*
X116256321Y-63186676D01*
X116333080Y-63185547D01*
X116420371Y-63184453D01*
X116518814Y-63183394D01*
X116629028Y-63182369D01*
X116751636Y-63181378D01*
X116887256Y-63180418D01*
X117036510Y-63179490D01*
X117200017Y-63178593D01*
X117378400Y-63177725D01*
X117572277Y-63176887D01*
X117782269Y-63176077D01*
X118008997Y-63175295D01*
X118253081Y-63174539D01*
X118515142Y-63173810D01*
X118795799Y-63173106D01*
X119095675Y-63172426D01*
X119415388Y-63171770D01*
X119755559Y-63171136D01*
X120116810Y-63170525D01*
X120499759Y-63169935D01*
X120905028Y-63169366D01*
X121333238Y-63168816D01*
X121785008Y-63168285D01*
X122260959Y-63167773D01*
X122761712Y-63167277D01*
X123287886Y-63166799D01*
X123840103Y-63166336D01*
X124418982Y-63165888D01*
X125025145Y-63165454D01*
X125659212Y-63165033D01*
X126321803Y-63164626D01*
X127013538Y-63164230D01*
X127735038Y-63163845D01*
X128486924Y-63163470D01*
X129269816Y-63163105D01*
X130084334Y-63162749D01*
X130931099Y-63162400D01*
X131810731Y-63162059D01*
X132723851Y-63161724D01*
X133671079Y-63161394D01*
X134653036Y-63161069D01*
X135670341Y-63160748D01*
X136723616Y-63160431D01*
X137813481Y-63160115D01*
X138940557Y-63159802D01*
X140105463Y-63159489D01*
X141308820Y-63159176D01*
X142551249Y-63158862D01*
X143833370Y-63158547D01*
X145155804Y-63158230D01*
X146519171Y-63157909D01*
X147924091Y-63157584D01*
X148291878Y-63157500D01*
X149820344Y-63157161D01*
X151306841Y-63156850D01*
X152751736Y-63156569D01*
X154155393Y-63156316D01*
X155518178Y-63156093D01*
X156840455Y-63155900D01*
X158122591Y-63155736D01*
X159364950Y-63155602D01*
X160567897Y-63155498D01*
X161731799Y-63155425D01*
X162857019Y-63155382D01*
X163943923Y-63155369D01*
X164992877Y-63155387D01*
X166004246Y-63155437D01*
X166978394Y-63155517D01*
X167915688Y-63155629D01*
X168816492Y-63155772D01*
X169681171Y-63155947D01*
X170510092Y-63156154D01*
X171303619Y-63156393D01*
X172062117Y-63156664D01*
X172785951Y-63156967D01*
X173475487Y-63157303D01*
X174131091Y-63157672D01*
X174753126Y-63158074D01*
X175341959Y-63158509D01*
X175897955Y-63158977D01*
X176421479Y-63159479D01*
X176912895Y-63160015D01*
X177372571Y-63160584D01*
X177800870Y-63161187D01*
X178198157Y-63161825D01*
X178564799Y-63162497D01*
X178901161Y-63163203D01*
X179207606Y-63163944D01*
X179484502Y-63164720D01*
X179732213Y-63165532D01*
X179951103Y-63166378D01*
X180141540Y-63167260D01*
X180303887Y-63168178D01*
X180438510Y-63169131D01*
X180545774Y-63170121D01*
X180626045Y-63171146D01*
X180679687Y-63172208D01*
X180707067Y-63173307D01*
X180708628Y-63173444D01*
X181093415Y-63231278D01*
X181457670Y-63326023D01*
X181802501Y-63458201D01*
X182129014Y-63628338D01*
X182438315Y-63836958D01*
X182731512Y-64084584D01*
X182826951Y-64176980D01*
X183085009Y-64460354D01*
X183304102Y-64756058D01*
X183485404Y-65066700D01*
X183630089Y-65394887D01*
X183739329Y-65743226D01*
X183814299Y-66114325D01*
X183852358Y-66454997D01*
X183853453Y-66484988D01*
X183854511Y-66545089D01*
X183855533Y-66635589D01*
X183856517Y-66756779D01*
X183857465Y-66908948D01*
X183858377Y-67092386D01*
X183859252Y-67307383D01*
X183860092Y-67554228D01*
X183860895Y-67833213D01*
X183861662Y-68144625D01*
X183862394Y-68488756D01*
X183863090Y-68865894D01*
X183863750Y-69276331D01*
X183864375Y-69720355D01*
X183864966Y-70198257D01*
X183865521Y-70710326D01*
X183866041Y-71256852D01*
X183866526Y-71838125D01*
X183866977Y-72454435D01*
X183867393Y-73106071D01*
X183867775Y-73793324D01*
X183868123Y-74516483D01*
X183868436Y-75275838D01*
X183868716Y-76071679D01*
X183868962Y-76904296D01*
X183869174Y-77773978D01*
X183869353Y-78681016D01*
X183869498Y-79625698D01*
X183869610Y-80608316D01*
X183869689Y-81629159D01*
X183869735Y-82688516D01*
X183869748Y-83786678D01*
X183869728Y-84923934D01*
X183869676Y-86100574D01*
X183869592Y-87316889D01*
X183869475Y-88573167D01*
X183869326Y-89869698D01*
X183869145Y-91206773D01*
X183868932Y-92584681D01*
X183868687Y-94003713D01*
X183868411Y-95464157D01*
X183868103Y-96966304D01*
X183867764Y-98510443D01*
X183867701Y-98786283D01*
X183867377Y-100194742D01*
X183867058Y-101561496D01*
X183866744Y-102887172D01*
X183866433Y-104172400D01*
X183866126Y-105417807D01*
X183865820Y-106624022D01*
X183865516Y-107791671D01*
X183865212Y-108921385D01*
X183864908Y-110013790D01*
X183864602Y-111069514D01*
X183864295Y-112089187D01*
X183863984Y-113073436D01*
X183863670Y-114022888D01*
X183863350Y-114938173D01*
X183863026Y-115819919D01*
X183862695Y-116668753D01*
X183862357Y-117485303D01*
X183862010Y-118270199D01*
X183861655Y-119024067D01*
X183861290Y-119747536D01*
X183860915Y-120441235D01*
X183860528Y-121105790D01*
X183860129Y-121741832D01*
X183859717Y-122349986D01*
X183859291Y-122930882D01*
X183858850Y-123485148D01*
X183858393Y-124013412D01*
X183857920Y-124516302D01*
X183857430Y-124994446D01*
X183856921Y-125448472D01*
X183856393Y-125879009D01*
X183855846Y-126286684D01*
X183855278Y-126672126D01*
X183854688Y-127035962D01*
X183854076Y-127378821D01*
X183853440Y-127701332D01*
X183852781Y-128004121D01*
X183852097Y-128287818D01*
X183851386Y-128553050D01*
X183850650Y-128800445D01*
X183849885Y-129030632D01*
X183849093Y-129244239D01*
X183848271Y-129441894D01*
X183847420Y-129624225D01*
X183846537Y-129791859D01*
X183845623Y-129945426D01*
X183844676Y-130085554D01*
X183843696Y-130212870D01*
X183842682Y-130328002D01*
X183841632Y-130431579D01*
X183840547Y-130524229D01*
X183839425Y-130606580D01*
X183838265Y-130679260D01*
X183837067Y-130742898D01*
X183835830Y-130798120D01*
X183834552Y-130845556D01*
X183833234Y-130885834D01*
X183831874Y-130919581D01*
X183830471Y-130947426D01*
X183829024Y-130969998D01*
X183827534Y-130987923D01*
X183825998Y-131001830D01*
X183824416Y-131012348D01*
X183824383Y-131012533D01*
X183734337Y-131407986D01*
X183610029Y-131778750D01*
X183451175Y-132125389D01*
X183257490Y-132448467D01*
X183028688Y-132748548D01*
X182847195Y-132945510D01*
X182561648Y-133203495D01*
X182252402Y-133426454D01*
X181919795Y-133614208D01*
X181564168Y-133766576D01*
X181185861Y-133883378D01*
X180994378Y-133927153D01*
X180985112Y-133928759D01*
X180972882Y-133930317D01*
X180957063Y-133931829D01*
X180937028Y-133933296D01*
X180912150Y-133934717D01*
X180881804Y-133936095D01*
X180845363Y-133937429D01*
X180802201Y-133938721D01*
X180751692Y-133939971D01*
X180693210Y-133941179D01*
X180626128Y-133942348D01*
X180549821Y-133943477D01*
X180463661Y-133944567D01*
X180367024Y-133945619D01*
X180259281Y-133946634D01*
X180139808Y-133947612D01*
X180007979Y-133948554D01*
X179863166Y-133949462D01*
X179704743Y-133950335D01*
X179532085Y-133951175D01*
X179344566Y-133951982D01*
X179141558Y-133952758D01*
X178922436Y-133953502D01*
X178686574Y-133954215D01*
X178433344Y-133954899D01*
X178162122Y-133955554D01*
X177872281Y-133956181D01*
X177563195Y-133956780D01*
X177234236Y-133957353D01*
X176884781Y-133957900D01*
X176514201Y-133958421D01*
X176121870Y-133958919D01*
X175707164Y-133959392D01*
X175269454Y-133959843D01*
X174808116Y-133960272D01*
X174322522Y-133960680D01*
X173812048Y-133961066D01*
X173276065Y-133961434D01*
X172713949Y-133961782D01*
X172125073Y-133962111D01*
X171508810Y-133962423D01*
X170864535Y-133962719D01*
X170191621Y-133962998D01*
X169489442Y-133963262D01*
X168757373Y-133963512D01*
X167994785Y-133963748D01*
X167201055Y-133963971D01*
X166375554Y-133964181D01*
X165517657Y-133964380D01*
X164626738Y-133964569D01*
X163702171Y-133964747D01*
X162743328Y-133964917D01*
X161749585Y-133965077D01*
X160720315Y-133965231D01*
X159654891Y-133965377D01*
X158552688Y-133965517D01*
X157413079Y-133965652D01*
X156235438Y-133965782D01*
X155019138Y-133965908D01*
X153763554Y-133966031D01*
X152468060Y-133966152D01*
X151132028Y-133966271D01*
X149754833Y-133966389D01*
X148524712Y-133966491D01*
X147355171Y-133966583D01*
X146195672Y-133966663D01*
X145046945Y-133966733D01*
X143909715Y-133966791D01*
X142784712Y-133966840D01*
X141672663Y-133966878D01*
X140574295Y-133966905D01*
X139490337Y-133966922D01*
X138421516Y-133966929D01*
X137368560Y-133966926D01*
X136332196Y-133966914D01*
X135313153Y-133966891D01*
X134312159Y-133966859D01*
X133329940Y-133966817D01*
X132367225Y-133966766D01*
X131424741Y-133966705D01*
X130503217Y-133966636D01*
X129603380Y-133966557D01*
X128725958Y-133966469D01*
X127871678Y-133966373D01*
X127041269Y-133966267D01*
X126235458Y-133966153D01*
X125454973Y-133966031D01*
X124700541Y-133965900D01*
X123972891Y-133965761D01*
X123272750Y-133965614D01*
X122600846Y-133965459D01*
X121957907Y-133965296D01*
X121344661Y-133965125D01*
X120761834Y-133964947D01*
X120210156Y-133964760D01*
X119690353Y-133964567D01*
X119203154Y-133964366D01*
X118749287Y-133964158D01*
X118329478Y-133963943D01*
X117944457Y-133963720D01*
X117594950Y-133963491D01*
X117281685Y-133963256D01*
X117005391Y-133963013D01*
X116766795Y-133962764D01*
X116566624Y-133962509D01*
X116405607Y-133962247D01*
X116284471Y-133961980D01*
X116203944Y-133961706D01*
X116164754Y-133961426D01*
X116160878Y-133961321D01*
X115802550Y-133903103D01*
X115449018Y-133806079D01*
X115105410Y-133672833D01*
X114776855Y-133505949D01*
X114468482Y-133308011D01*
X114185421Y-133081602D01*
X113948515Y-132846796D01*
X113703953Y-132546211D01*
X113496870Y-132225997D01*
X113327398Y-131886454D01*
X113195670Y-131527885D01*
X113101817Y-131150590D01*
X113049343Y-130790283D01*
X113048242Y-130765732D01*
X113047177Y-130714337D01*
X113046149Y-130635742D01*
X113045158Y-130529595D01*
X113044202Y-130395541D01*
X113043282Y-130233227D01*
X113042398Y-130042299D01*
X113041550Y-129822405D01*
X113040737Y-129573189D01*
X113039959Y-129294299D01*
X113039216Y-128985381D01*
X113038508Y-128646081D01*
X113037835Y-128276046D01*
X113037197Y-127874922D01*
X113036592Y-127442355D01*
X113036022Y-126977992D01*
X113035486Y-126481479D01*
X113034984Y-125952463D01*
X113034515Y-125390590D01*
X113034080Y-124795506D01*
X113033679Y-124166858D01*
X113033310Y-123504292D01*
X113032974Y-122807454D01*
X113032672Y-122075992D01*
X113032402Y-121309550D01*
X113032164Y-120507776D01*
X113031958Y-119670316D01*
X113031785Y-118796817D01*
X113031644Y-117886924D01*
X113031534Y-116940284D01*
X113031456Y-115956544D01*
X113031410Y-114935350D01*
X113031394Y-113876347D01*
X113031410Y-112779184D01*
X113031457Y-111643506D01*
X113031534Y-110468959D01*
X113031642Y-109255190D01*
X113031780Y-108001845D01*
X113031949Y-106708570D01*
X113032147Y-105375013D01*
X113032376Y-104000819D01*
X113032634Y-102585634D01*
X113032922Y-101129106D01*
X113033239Y-99630880D01*
X113033513Y-98405283D01*
X113033816Y-97084749D01*
X114445164Y-97084749D01*
X114445175Y-98097000D01*
X114445207Y-99109670D01*
X114445261Y-100121867D01*
X114445335Y-101132701D01*
X114445429Y-102141279D01*
X114445545Y-103146710D01*
X114445681Y-104148102D01*
X114445838Y-105144562D01*
X114446016Y-106135200D01*
X114446215Y-107119123D01*
X114446434Y-108095440D01*
X114446674Y-109063259D01*
X114446935Y-110021687D01*
X114447216Y-110969834D01*
X114447517Y-111906808D01*
X114447839Y-112831716D01*
X114448182Y-113743668D01*
X114448545Y-114641770D01*
X114448929Y-115525132D01*
X114449333Y-116392861D01*
X114449757Y-117244067D01*
X114450202Y-118077856D01*
X114450667Y-118893338D01*
X114451153Y-119689620D01*
X114451659Y-120465811D01*
X114452185Y-121221019D01*
X114452731Y-121954352D01*
X114453297Y-122664918D01*
X114453884Y-123351826D01*
X114454491Y-124014184D01*
X114455117Y-124651100D01*
X114455764Y-125261682D01*
X114456431Y-125845039D01*
X114457118Y-126400278D01*
X114457825Y-126926509D01*
X114458552Y-127422838D01*
X114459299Y-127888375D01*
X114460066Y-128322227D01*
X114460853Y-128723504D01*
X114461660Y-129091312D01*
X114462486Y-129424760D01*
X114463332Y-129722957D01*
X114464199Y-129985011D01*
X114465084Y-130210029D01*
X114465990Y-130397121D01*
X114466915Y-130545394D01*
X114467860Y-130653957D01*
X114468825Y-130721917D01*
X114469745Y-130747949D01*
X114525110Y-131032830D01*
X114618182Y-131302577D01*
X114746128Y-131554186D01*
X114906115Y-131784653D01*
X115095309Y-131990973D01*
X115310878Y-132170143D01*
X115549989Y-132319158D01*
X115809808Y-132435015D01*
X116087503Y-132514709D01*
X116146941Y-132526408D01*
X116159902Y-132527644D01*
X116185352Y-132528842D01*
X116223854Y-132530003D01*
X116275975Y-132531129D01*
X116342279Y-132532218D01*
X116423330Y-132533273D01*
X116519692Y-132534292D01*
X116631931Y-132535276D01*
X116760612Y-132536227D01*
X116906298Y-132537144D01*
X117069554Y-132538027D01*
X117250945Y-132538878D01*
X117451036Y-132539696D01*
X117670392Y-132540482D01*
X117909575Y-132541237D01*
X118169153Y-132541960D01*
X118449688Y-132542653D01*
X118751746Y-132543315D01*
X119075892Y-132543948D01*
X119422689Y-132544551D01*
X119792703Y-132545124D01*
X120186498Y-132545670D01*
X120604639Y-132546187D01*
X121047690Y-132546676D01*
X121516216Y-132547137D01*
X122010782Y-132547572D01*
X122531951Y-132547980D01*
X123080290Y-132548362D01*
X123656363Y-132548719D01*
X124260733Y-132549050D01*
X124893966Y-132549356D01*
X125556626Y-132549637D01*
X126249279Y-132549895D01*
X126972487Y-132550129D01*
X127726817Y-132550340D01*
X128512833Y-132550528D01*
X129331100Y-132550694D01*
X130182181Y-132550838D01*
X131066642Y-132550960D01*
X131985047Y-132551061D01*
X132937961Y-132551142D01*
X133925948Y-132551202D01*
X134949574Y-132551242D01*
X136009402Y-132551264D01*
X137105998Y-132551266D01*
X138239926Y-132551249D01*
X139411750Y-132551215D01*
X140622035Y-132551162D01*
X141871347Y-132551093D01*
X143160248Y-132551006D01*
X144489305Y-132550903D01*
X145859081Y-132550784D01*
X147270142Y-132550649D01*
X148514128Y-132550522D01*
X180729795Y-132547116D01*
X180899128Y-132497914D01*
X181188986Y-132392934D01*
X181454348Y-132253668D01*
X181694645Y-132080447D01*
X181841199Y-131945701D01*
X182025184Y-131734877D01*
X182175630Y-131506379D01*
X182296497Y-131253523D01*
X182363963Y-131063779D01*
X182423128Y-130874949D01*
X182423128Y-66274283D01*
X182374222Y-66105333D01*
X182269761Y-65816075D01*
X182131949Y-65552304D01*
X181962299Y-65315499D01*
X181762325Y-65107137D01*
X181533541Y-64928696D01*
X181277462Y-64781654D01*
X180995601Y-64667489D01*
X180859599Y-64626926D01*
X180687462Y-64580949D01*
X116213795Y-64580949D01*
X116025898Y-64628816D01*
X115751140Y-64719714D01*
X115491857Y-64847042D01*
X115252886Y-65007416D01*
X115039066Y-65197453D01*
X114855234Y-65413769D01*
X114808682Y-65480246D01*
X114666828Y-65722841D01*
X114562757Y-65972715D01*
X114493064Y-66239044D01*
X114467742Y-66399126D01*
X114466761Y-66428057D01*
X114465802Y-66498430D01*
X114464865Y-66609353D01*
X114463950Y-66759934D01*
X114463058Y-66949280D01*
X114462188Y-67176502D01*
X114461339Y-67440706D01*
X114460513Y-67741000D01*
X114459709Y-68076494D01*
X114458926Y-68446296D01*
X114458166Y-68849512D01*
X114457427Y-69285253D01*
X114456711Y-69752625D01*
X114456016Y-70250738D01*
X114455343Y-70778699D01*
X114454692Y-71335617D01*
X114454063Y-71920599D01*
X114453455Y-72532755D01*
X114452869Y-73171192D01*
X114452305Y-73835018D01*
X114451763Y-74523342D01*
X114451242Y-75235272D01*
X114450743Y-75969916D01*
X114450265Y-76726383D01*
X114449809Y-77503780D01*
X114449375Y-78301216D01*
X114448962Y-79117799D01*
X114448570Y-79952638D01*
X114448200Y-80804839D01*
X114447852Y-81673513D01*
X114447524Y-82557766D01*
X114447218Y-83456708D01*
X114446934Y-84369446D01*
X114446671Y-85295089D01*
X114446429Y-86232744D01*
X114446208Y-87181520D01*
X114446009Y-88140526D01*
X114445830Y-89108869D01*
X114445673Y-90085658D01*
X114445537Y-91070001D01*
X114445422Y-92061006D01*
X114445329Y-93057781D01*
X114445256Y-94059435D01*
X114445204Y-95065075D01*
X114445174Y-96073811D01*
X114445164Y-97084749D01*
X113033816Y-97084749D01*
X113033838Y-96990550D01*
X113034160Y-95617529D01*
G37*
X113034160Y-95617529D02*
X113034478Y-94285600D01*
X113034794Y-92994140D01*
X113035107Y-91742529D01*
X113035420Y-90530145D01*
X113035732Y-89356368D01*
X113036045Y-88220576D01*
X113036360Y-87122148D01*
X113036676Y-86060463D01*
X113036996Y-85034900D01*
X113037319Y-84044837D01*
X113037646Y-83089654D01*
X113037979Y-82168729D01*
X113038318Y-81281441D01*
X113038664Y-80427169D01*
X113039018Y-79605291D01*
X113039380Y-78815188D01*
X113039751Y-78056236D01*
X113040133Y-77327816D01*
X113040525Y-76629306D01*
X113040929Y-75960085D01*
X113041345Y-75319532D01*
X113041774Y-74707025D01*
X113042218Y-74121944D01*
X113042676Y-73563667D01*
X113043150Y-73031573D01*
X113043640Y-72525041D01*
X113044148Y-72043450D01*
X113044673Y-71586179D01*
X113045217Y-71152606D01*
X113045781Y-70742110D01*
X113046365Y-70354071D01*
X113046970Y-69987867D01*
X113047597Y-69642876D01*
X113048247Y-69318478D01*
X113048920Y-69014052D01*
X113049618Y-68728976D01*
X113050340Y-68462629D01*
X113051089Y-68214390D01*
X113051864Y-67983638D01*
X113052667Y-67769752D01*
X113053498Y-67572110D01*
X113054358Y-67390092D01*
X113055247Y-67223076D01*
X113056168Y-67070441D01*
X113057120Y-66931566D01*
X113058104Y-66805830D01*
X113059121Y-66692611D01*
X113060172Y-66591289D01*
X113061257Y-66501242D01*
X113062378Y-66421849D01*
X113063535Y-66352489D01*
X113064729Y-66292540D01*
X113065961Y-66241383D01*
X113067231Y-66198394D01*
X113068540Y-66162954D01*
X113069890Y-66134441D01*
X113071281Y-66112235D01*
X113072713Y-66095713D01*
X113074188Y-66084254D01*
X113074696Y-66081416D01*
X113165293Y-65701295D01*
X113282056Y-65351950D01*
X113427066Y-65029345D01*
X113602403Y-64729443D01*
X113810145Y-64448209D01*
X114052374Y-64181605D01*
X114054998Y-64178980D01*
X114335471Y-63925555D01*
X114634732Y-63708143D01*
X114955033Y-63525571D01*
X115298625Y-63376666D01*
X115667762Y-63260255D01*
X115937019Y-63198563D01*
X115946917Y-63197079D01*
X115961762Y-63195638D01*
X115982175Y-63194239D01*
X116008776Y-63192880D01*
X116042186Y-63191562D01*
X116083025Y-63190284D01*
X116131914Y-63189043D01*
X116189472Y-63187841D01*
X116256321Y-63186676D01*
X116333080Y-63185547D01*
X116420371Y-63184453D01*
X116518814Y-63183394D01*
X116629028Y-63182369D01*
X116751636Y-63181378D01*
X116887256Y-63180418D01*
X117036510Y-63179490D01*
X117200017Y-63178593D01*
X117378400Y-63177725D01*
X117572277Y-63176887D01*
X117782269Y-63176077D01*
X118008997Y-63175295D01*
X118253081Y-63174539D01*
X118515142Y-63173810D01*
X118795799Y-63173106D01*
X119095675Y-63172426D01*
X119415388Y-63171770D01*
X119755559Y-63171136D01*
X120116810Y-63170525D01*
X120499759Y-63169935D01*
X120905028Y-63169366D01*
X121333238Y-63168816D01*
X121785008Y-63168285D01*
X122260959Y-63167773D01*
X122761712Y-63167277D01*
X123287886Y-63166799D01*
X123840103Y-63166336D01*
X124418982Y-63165888D01*
X125025145Y-63165454D01*
X125659212Y-63165033D01*
X126321803Y-63164626D01*
X127013538Y-63164230D01*
X127735038Y-63163845D01*
X128486924Y-63163470D01*
X129269816Y-63163105D01*
X130084334Y-63162749D01*
X130931099Y-63162400D01*
X131810731Y-63162059D01*
X132723851Y-63161724D01*
X133671079Y-63161394D01*
X134653036Y-63161069D01*
X135670341Y-63160748D01*
X136723616Y-63160431D01*
X137813481Y-63160115D01*
X138940557Y-63159802D01*
X140105463Y-63159489D01*
X141308820Y-63159176D01*
X142551249Y-63158862D01*
X143833370Y-63158547D01*
X145155804Y-63158230D01*
X146519171Y-63157909D01*
X147924091Y-63157584D01*
X148291878Y-63157500D01*
X149820344Y-63157161D01*
X151306841Y-63156850D01*
X152751736Y-63156569D01*
X154155393Y-63156316D01*
X155518178Y-63156093D01*
X156840455Y-63155900D01*
X158122591Y-63155736D01*
X159364950Y-63155602D01*
X160567897Y-63155498D01*
X161731799Y-63155425D01*
X162857019Y-63155382D01*
X163943923Y-63155369D01*
X164992877Y-63155387D01*
X166004246Y-63155437D01*
X166978394Y-63155517D01*
X167915688Y-63155629D01*
X168816492Y-63155772D01*
X169681171Y-63155947D01*
X170510092Y-63156154D01*
X171303619Y-63156393D01*
X172062117Y-63156664D01*
X172785951Y-63156967D01*
X173475487Y-63157303D01*
X174131091Y-63157672D01*
X174753126Y-63158074D01*
X175341959Y-63158509D01*
X175897955Y-63158977D01*
X176421479Y-63159479D01*
X176912895Y-63160015D01*
X177372571Y-63160584D01*
X177800870Y-63161187D01*
X178198157Y-63161825D01*
X178564799Y-63162497D01*
X178901161Y-63163203D01*
X179207606Y-63163944D01*
X179484502Y-63164720D01*
X179732213Y-63165532D01*
X179951103Y-63166378D01*
X180141540Y-63167260D01*
X180303887Y-63168178D01*
X180438510Y-63169131D01*
X180545774Y-63170121D01*
X180626045Y-63171146D01*
X180679687Y-63172208D01*
X180707067Y-63173307D01*
X180708628Y-63173444D01*
X181093415Y-63231278D01*
X181457670Y-63326023D01*
X181802501Y-63458201D01*
X182129014Y-63628338D01*
X182438315Y-63836958D01*
X182731512Y-64084584D01*
X182826951Y-64176980D01*
X183085009Y-64460354D01*
X183304102Y-64756058D01*
X183485404Y-65066700D01*
X183630089Y-65394887D01*
X183739329Y-65743226D01*
X183814299Y-66114325D01*
X183852358Y-66454997D01*
X183853453Y-66484988D01*
X183854511Y-66545089D01*
X183855533Y-66635589D01*
X183856517Y-66756779D01*
X183857465Y-66908948D01*
X183858377Y-67092386D01*
X183859252Y-67307383D01*
X183860092Y-67554228D01*
X183860895Y-67833213D01*
X183861662Y-68144625D01*
X183862394Y-68488756D01*
X183863090Y-68865894D01*
X183863750Y-69276331D01*
X183864375Y-69720355D01*
X183864966Y-70198257D01*
X183865521Y-70710326D01*
X183866041Y-71256852D01*
X183866526Y-71838125D01*
X183866977Y-72454435D01*
X183867393Y-73106071D01*
X183867775Y-73793324D01*
X183868123Y-74516483D01*
X183868436Y-75275838D01*
X183868716Y-76071679D01*
X183868962Y-76904296D01*
X183869174Y-77773978D01*
X183869353Y-78681016D01*
X183869498Y-79625698D01*
X183869610Y-80608316D01*
X183869689Y-81629159D01*
X183869735Y-82688516D01*
X183869748Y-83786678D01*
X183869728Y-84923934D01*
X183869676Y-86100574D01*
X183869592Y-87316889D01*
X183869475Y-88573167D01*
X183869326Y-89869698D01*
X183869145Y-91206773D01*
X183868932Y-92584681D01*
X183868687Y-94003713D01*
X183868411Y-95464157D01*
X183868103Y-96966304D01*
X183867764Y-98510443D01*
X183867701Y-98786283D01*
X183867377Y-100194742D01*
X183867058Y-101561496D01*
X183866744Y-102887172D01*
X183866433Y-104172400D01*
X183866126Y-105417807D01*
X183865820Y-106624022D01*
X183865516Y-107791671D01*
X183865212Y-108921385D01*
X183864908Y-110013790D01*
X183864602Y-111069514D01*
X183864295Y-112089187D01*
X183863984Y-113073436D01*
X183863670Y-114022888D01*
X183863350Y-114938173D01*
X183863026Y-115819919D01*
X183862695Y-116668753D01*
X183862357Y-117485303D01*
X183862010Y-118270199D01*
X183861655Y-119024067D01*
X183861290Y-119747536D01*
X183860915Y-120441235D01*
X183860528Y-121105790D01*
X183860129Y-121741832D01*
X183859717Y-122349986D01*
X183859291Y-122930882D01*
X183858850Y-123485148D01*
X183858393Y-124013412D01*
X183857920Y-124516302D01*
X183857430Y-124994446D01*
X183856921Y-125448472D01*
X183856393Y-125879009D01*
X183855846Y-126286684D01*
X183855278Y-126672126D01*
X183854688Y-127035962D01*
X183854076Y-127378821D01*
X183853440Y-127701332D01*
X183852781Y-128004121D01*
X183852097Y-128287818D01*
X183851386Y-128553050D01*
X183850650Y-128800445D01*
X183849885Y-129030632D01*
X183849093Y-129244239D01*
X183848271Y-129441894D01*
X183847420Y-129624225D01*
X183846537Y-129791859D01*
X183845623Y-129945426D01*
X183844676Y-130085554D01*
X183843696Y-130212870D01*
X183842682Y-130328002D01*
X183841632Y-130431579D01*
X183840547Y-130524229D01*
X183839425Y-130606580D01*
X183838265Y-130679260D01*
X183837067Y-130742898D01*
X183835830Y-130798120D01*
X183834552Y-130845556D01*
X183833234Y-130885834D01*
X183831874Y-130919581D01*
X183830471Y-130947426D01*
X183829024Y-130969998D01*
X183827534Y-130987923D01*
X183825998Y-131001830D01*
X183824416Y-131012348D01*
X183824383Y-131012533D01*
X183734337Y-131407986D01*
X183610029Y-131778750D01*
X183451175Y-132125389D01*
X183257490Y-132448467D01*
X183028688Y-132748548D01*
X182847195Y-132945510D01*
X182561648Y-133203495D01*
X182252402Y-133426454D01*
X181919795Y-133614208D01*
X181564168Y-133766576D01*
X181185861Y-133883378D01*
X180994378Y-133927153D01*
X180985112Y-133928759D01*
X180972882Y-133930317D01*
X180957063Y-133931829D01*
X180937028Y-133933296D01*
X180912150Y-133934717D01*
X180881804Y-133936095D01*
X180845363Y-133937429D01*
X180802201Y-133938721D01*
X180751692Y-133939971D01*
X180693210Y-133941179D01*
X180626128Y-133942348D01*
X180549821Y-133943477D01*
X180463661Y-133944567D01*
X180367024Y-133945619D01*
X180259281Y-133946634D01*
X180139808Y-133947612D01*
X180007979Y-133948554D01*
X179863166Y-133949462D01*
X179704743Y-133950335D01*
X179532085Y-133951175D01*
X179344566Y-133951982D01*
X179141558Y-133952758D01*
X178922436Y-133953502D01*
X178686574Y-133954215D01*
X178433344Y-133954899D01*
X178162122Y-133955554D01*
X177872281Y-133956181D01*
X177563195Y-133956780D01*
X177234236Y-133957353D01*
X176884781Y-133957900D01*
X176514201Y-133958421D01*
X176121870Y-133958919D01*
X175707164Y-133959392D01*
X175269454Y-133959843D01*
X174808116Y-133960272D01*
X174322522Y-133960680D01*
X173812048Y-133961066D01*
X173276065Y-133961434D01*
X172713949Y-133961782D01*
X172125073Y-133962111D01*
X171508810Y-133962423D01*
X170864535Y-133962719D01*
X170191621Y-133962998D01*
X169489442Y-133963262D01*
X168757373Y-133963512D01*
X167994785Y-133963748D01*
X167201055Y-133963971D01*
X166375554Y-133964181D01*
X165517657Y-133964380D01*
X164626738Y-133964569D01*
X163702171Y-133964747D01*
X162743328Y-133964917D01*
X161749585Y-133965077D01*
X160720315Y-133965231D01*
X159654891Y-133965377D01*
X158552688Y-133965517D01*
X157413079Y-133965652D01*
X156235438Y-133965782D01*
X155019138Y-133965908D01*
X153763554Y-133966031D01*
X152468060Y-133966152D01*
X151132028Y-133966271D01*
X149754833Y-133966389D01*
X148524712Y-133966491D01*
X147355171Y-133966583D01*
X146195672Y-133966663D01*
X145046945Y-133966733D01*
X143909715Y-133966791D01*
X142784712Y-133966840D01*
X141672663Y-133966878D01*
X140574295Y-133966905D01*
X139490337Y-133966922D01*
X138421516Y-133966929D01*
X137368560Y-133966926D01*
X136332196Y-133966914D01*
X135313153Y-133966891D01*
X134312159Y-133966859D01*
X133329940Y-133966817D01*
X132367225Y-133966766D01*
X131424741Y-133966705D01*
X130503217Y-133966636D01*
X129603380Y-133966557D01*
X128725958Y-133966469D01*
X127871678Y-133966373D01*
X127041269Y-133966267D01*
X126235458Y-133966153D01*
X125454973Y-133966031D01*
X124700541Y-133965900D01*
X123972891Y-133965761D01*
X123272750Y-133965614D01*
X122600846Y-133965459D01*
X121957907Y-133965296D01*
X121344661Y-133965125D01*
X120761834Y-133964947D01*
X120210156Y-133964760D01*
X119690353Y-133964567D01*
X119203154Y-133964366D01*
X118749287Y-133964158D01*
X118329478Y-133963943D01*
X117944457Y-133963720D01*
X117594950Y-133963491D01*
X117281685Y-133963256D01*
X117005391Y-133963013D01*
X116766795Y-133962764D01*
X116566624Y-133962509D01*
X116405607Y-133962247D01*
X116284471Y-133961980D01*
X116203944Y-133961706D01*
X116164754Y-133961426D01*
X116160878Y-133961321D01*
X115802550Y-133903103D01*
X115449018Y-133806079D01*
X115105410Y-133672833D01*
X114776855Y-133505949D01*
X114468482Y-133308011D01*
X114185421Y-133081602D01*
X113948515Y-132846796D01*
X113703953Y-132546211D01*
X113496870Y-132225997D01*
X113327398Y-131886454D01*
X113195670Y-131527885D01*
X113101817Y-131150590D01*
X113049343Y-130790283D01*
X113048242Y-130765732D01*
X113047177Y-130714337D01*
X113046149Y-130635742D01*
X113045158Y-130529595D01*
X113044202Y-130395541D01*
X113043282Y-130233227D01*
X113042398Y-130042299D01*
X113041550Y-129822405D01*
X113040737Y-129573189D01*
X113039959Y-129294299D01*
X113039216Y-128985381D01*
X113038508Y-128646081D01*
X113037835Y-128276046D01*
X113037197Y-127874922D01*
X113036592Y-127442355D01*
X113036022Y-126977992D01*
X113035486Y-126481479D01*
X113034984Y-125952463D01*
X113034515Y-125390590D01*
X113034080Y-124795506D01*
X113033679Y-124166858D01*
X113033310Y-123504292D01*
X113032974Y-122807454D01*
X113032672Y-122075992D01*
X113032402Y-121309550D01*
X113032164Y-120507776D01*
X113031958Y-119670316D01*
X113031785Y-118796817D01*
X113031644Y-117886924D01*
X113031534Y-116940284D01*
X113031456Y-115956544D01*
X113031410Y-114935350D01*
X113031394Y-113876347D01*
X113031410Y-112779184D01*
X113031457Y-111643506D01*
X113031534Y-110468959D01*
X113031642Y-109255190D01*
X113031780Y-108001845D01*
X113031949Y-106708570D01*
X113032147Y-105375013D01*
X113032376Y-104000819D01*
X113032634Y-102585634D01*
X113032922Y-101129106D01*
X113033239Y-99630880D01*
X113033513Y-98405283D01*
X113033816Y-97084749D01*
X114445164Y-97084749D01*
X114445175Y-98097000D01*
X114445207Y-99109670D01*
X114445261Y-100121867D01*
X114445335Y-101132701D01*
X114445429Y-102141279D01*
X114445545Y-103146710D01*
X114445681Y-104148102D01*
X114445838Y-105144562D01*
X114446016Y-106135200D01*
X114446215Y-107119123D01*
X114446434Y-108095440D01*
X114446674Y-109063259D01*
X114446935Y-110021687D01*
X114447216Y-110969834D01*
X114447517Y-111906808D01*
X114447839Y-112831716D01*
X114448182Y-113743668D01*
X114448545Y-114641770D01*
X114448929Y-115525132D01*
X114449333Y-116392861D01*
X114449757Y-117244067D01*
X114450202Y-118077856D01*
X114450667Y-118893338D01*
X114451153Y-119689620D01*
X114451659Y-120465811D01*
X114452185Y-121221019D01*
X114452731Y-121954352D01*
X114453297Y-122664918D01*
X114453884Y-123351826D01*
X114454491Y-124014184D01*
X114455117Y-124651100D01*
X114455764Y-125261682D01*
X114456431Y-125845039D01*
X114457118Y-126400278D01*
X114457825Y-126926509D01*
X114458552Y-127422838D01*
X114459299Y-127888375D01*
X114460066Y-128322227D01*
X114460853Y-128723504D01*
X114461660Y-129091312D01*
X114462486Y-129424760D01*
X114463332Y-129722957D01*
X114464199Y-129985011D01*
X114465084Y-130210029D01*
X114465990Y-130397121D01*
X114466915Y-130545394D01*
X114467860Y-130653957D01*
X114468825Y-130721917D01*
X114469745Y-130747949D01*
X114525110Y-131032830D01*
X114618182Y-131302577D01*
X114746128Y-131554186D01*
X114906115Y-131784653D01*
X115095309Y-131990973D01*
X115310878Y-132170143D01*
X115549989Y-132319158D01*
X115809808Y-132435015D01*
X116087503Y-132514709D01*
X116146941Y-132526408D01*
X116159902Y-132527644D01*
X116185352Y-132528842D01*
X116223854Y-132530003D01*
X116275975Y-132531129D01*
X116342279Y-132532218D01*
X116423330Y-132533273D01*
X116519692Y-132534292D01*
X116631931Y-132535276D01*
X116760612Y-132536227D01*
X116906298Y-132537144D01*
X117069554Y-132538027D01*
X117250945Y-132538878D01*
X117451036Y-132539696D01*
X117670392Y-132540482D01*
X117909575Y-132541237D01*
X118169153Y-132541960D01*
X118449688Y-132542653D01*
X118751746Y-132543315D01*
X119075892Y-132543948D01*
X119422689Y-132544551D01*
X119792703Y-132545124D01*
X120186498Y-132545670D01*
X120604639Y-132546187D01*
X121047690Y-132546676D01*
X121516216Y-132547137D01*
X122010782Y-132547572D01*
X122531951Y-132547980D01*
X123080290Y-132548362D01*
X123656363Y-132548719D01*
X124260733Y-132549050D01*
X124893966Y-132549356D01*
X125556626Y-132549637D01*
X126249279Y-132549895D01*
X126972487Y-132550129D01*
X127726817Y-132550340D01*
X128512833Y-132550528D01*
X129331100Y-132550694D01*
X130182181Y-132550838D01*
X131066642Y-132550960D01*
X131985047Y-132551061D01*
X132937961Y-132551142D01*
X133925948Y-132551202D01*
X134949574Y-132551242D01*
X136009402Y-132551264D01*
X137105998Y-132551266D01*
X138239926Y-132551249D01*
X139411750Y-132551215D01*
X140622035Y-132551162D01*
X141871347Y-132551093D01*
X143160248Y-132551006D01*
X144489305Y-132550903D01*
X145859081Y-132550784D01*
X147270142Y-132550649D01*
X148514128Y-132550522D01*
X180729795Y-132547116D01*
X180899128Y-132497914D01*
X181188986Y-132392934D01*
X181454348Y-132253668D01*
X181694645Y-132080447D01*
X181841199Y-131945701D01*
X182025184Y-131734877D01*
X182175630Y-131506379D01*
X182296497Y-131253523D01*
X182363963Y-131063779D01*
X182423128Y-130874949D01*
X182423128Y-66274283D01*
X182374222Y-66105333D01*
X182269761Y-65816075D01*
X182131949Y-65552304D01*
X181962299Y-65315499D01*
X181762325Y-65107137D01*
X181533541Y-64928696D01*
X181277462Y-64781654D01*
X180995601Y-64667489D01*
X180859599Y-64626926D01*
X180687462Y-64580949D01*
X116213795Y-64580949D01*
X116025898Y-64628816D01*
X115751140Y-64719714D01*
X115491857Y-64847042D01*
X115252886Y-65007416D01*
X115039066Y-65197453D01*
X114855234Y-65413769D01*
X114808682Y-65480246D01*
X114666828Y-65722841D01*
X114562757Y-65972715D01*
X114493064Y-66239044D01*
X114467742Y-66399126D01*
X114466761Y-66428057D01*
X114465802Y-66498430D01*
X114464865Y-66609353D01*
X114463950Y-66759934D01*
X114463058Y-66949280D01*
X114462188Y-67176502D01*
X114461339Y-67440706D01*
X114460513Y-67741000D01*
X114459709Y-68076494D01*
X114458926Y-68446296D01*
X114458166Y-68849512D01*
X114457427Y-69285253D01*
X114456711Y-69752625D01*
X114456016Y-70250738D01*
X114455343Y-70778699D01*
X114454692Y-71335617D01*
X114454063Y-71920599D01*
X114453455Y-72532755D01*
X114452869Y-73171192D01*
X114452305Y-73835018D01*
X114451763Y-74523342D01*
X114451242Y-75235272D01*
X114450743Y-75969916D01*
X114450265Y-76726383D01*
X114449809Y-77503780D01*
X114449375Y-78301216D01*
X114448962Y-79117799D01*
X114448570Y-79952638D01*
X114448200Y-80804839D01*
X114447852Y-81673513D01*
X114447524Y-82557766D01*
X114447218Y-83456708D01*
X114446934Y-84369446D01*
X114446671Y-85295089D01*
X114446429Y-86232744D01*
X114446208Y-87181520D01*
X114446009Y-88140526D01*
X114445830Y-89108869D01*
X114445673Y-90085658D01*
X114445537Y-91070001D01*
X114445422Y-92061006D01*
X114445329Y-93057781D01*
X114445256Y-94059435D01*
X114445204Y-95065075D01*
X114445174Y-96073811D01*
X114445164Y-97084749D01*
X113033816Y-97084749D01*
X113033838Y-96990550D01*
X113034160Y-95617529D01*
X168559667Y-66652695D02*
X168780901Y-66655211D01*
X168780901Y-66655211D02*
X169013847Y-66658998D01*
X169013847Y-66658998D02*
X169253410Y-66663944D01*
X169253410Y-66663944D02*
X169494494Y-66669935D01*
X169494494Y-66669935D02*
X169732003Y-66676858D01*
X169732003Y-66676858D02*
X169960840Y-66684600D01*
X169960840Y-66684600D02*
X170175909Y-66693049D01*
X170175909Y-66693049D02*
X170372116Y-66702091D01*
X170372116Y-66702091D02*
X170544363Y-66711612D01*
X170544363Y-66711612D02*
X170687555Y-66721501D01*
X170687555Y-66721501D02*
X170770878Y-66728893D01*
X170770878Y-66728893D02*
X171347097Y-66806890D01*
X171347097Y-66806890D02*
X171929802Y-66924174D01*
X171929802Y-66924174D02*
X172514224Y-67079223D01*
X172514224Y-67079223D02*
X173095592Y-67270515D01*
X173095592Y-67270515D02*
X173669135Y-67496529D01*
X173669135Y-67496529D02*
X174230082Y-67755743D01*
X174230082Y-67755743D02*
X174605621Y-67952240D01*
X174605621Y-67952240D02*
X175207209Y-68306722D01*
X175207209Y-68306722D02*
X175784257Y-68695078D01*
X175784257Y-68695078D02*
X176335594Y-69115883D01*
X176335594Y-69115883D02*
X176860046Y-69567710D01*
X176860046Y-69567710D02*
X177356444Y-70049136D01*
X177356444Y-70049136D02*
X177823614Y-70558734D01*
X177823614Y-70558734D02*
X178260386Y-71095078D01*
X178260386Y-71095078D02*
X178665587Y-71656744D01*
X178665587Y-71656744D02*
X179038045Y-72242306D01*
X179038045Y-72242306D02*
X179376588Y-72850339D01*
X179376588Y-72850339D02*
X179680045Y-73479416D01*
X179680045Y-73479416D02*
X179947244Y-74128114D01*
X179947244Y-74128114D02*
X180143101Y-74688033D01*
X180143101Y-74688033D02*
X180237082Y-74996979D01*
X180237082Y-74996979D02*
X180315922Y-75296167D01*
X180315922Y-75296167D02*
X180382480Y-75598578D01*
X180382480Y-75598578D02*
X180439613Y-75917195D01*
X180439613Y-75917195D02*
X180490172Y-76264949D01*
X180490172Y-76264949D02*
X180502998Y-76366938D01*
X180502998Y-76366938D02*
X180513334Y-76461802D01*
X180513334Y-76461802D02*
X180521446Y-76555896D01*
X180521446Y-76555896D02*
X180527603Y-76655577D01*
X180527603Y-76655577D02*
X180532073Y-76767200D01*
X180532073Y-76767200D02*
X180535124Y-76897122D01*
X180535124Y-76897122D02*
X180537025Y-77051697D01*
X180537025Y-77051697D02*
X180538043Y-77237282D01*
X180538043Y-77237282D02*
X180538398Y-77407949D01*
X180538398Y-77407949D02*
X180538160Y-77649057D01*
X180538160Y-77649057D02*
X180536526Y-77855308D01*
X180536526Y-77855308D02*
X180533015Y-78034170D01*
X180533015Y-78034170D02*
X180527142Y-78193110D01*
X180527142Y-78193110D02*
X180518427Y-78339596D01*
X180518427Y-78339596D02*
X180506386Y-78481094D01*
X180506386Y-78481094D02*
X180490537Y-78625073D01*
X180490537Y-78625073D02*
X180470397Y-78778998D01*
X180470397Y-78778998D02*
X180445485Y-78950338D01*
X180445485Y-78950338D02*
X180433740Y-79027605D01*
X180433740Y-79027605D02*
X180317328Y-79662009D01*
X180317328Y-79662009D02*
X180164155Y-80292242D01*
X180164155Y-80292242D02*
X179975771Y-80916245D01*
X179975771Y-80916245D02*
X179753725Y-81531957D01*
X179753725Y-81531957D02*
X179499566Y-82137319D01*
X179499566Y-82137319D02*
X179214844Y-82730272D01*
X179214844Y-82730272D02*
X178901107Y-83308753D01*
X178901107Y-83308753D02*
X178559906Y-83870705D01*
X178559906Y-83870705D02*
X178192789Y-84414068D01*
X178192789Y-84414068D02*
X177801306Y-84936780D01*
X177801306Y-84936780D02*
X177387006Y-85436783D01*
X177387006Y-85436783D02*
X176951438Y-85912016D01*
X176951438Y-85912016D02*
X176496152Y-86360420D01*
X176496152Y-86360420D02*
X176022698Y-86779934D01*
X176022698Y-86779934D02*
X175532623Y-87168499D01*
X175532623Y-87168499D02*
X175027478Y-87524055D01*
X175027478Y-87524055D02*
X174508812Y-87844542D01*
X174508812Y-87844542D02*
X173978174Y-88127900D01*
X173978174Y-88127900D02*
X173437114Y-88372070D01*
X173437114Y-88372070D02*
X173391598Y-88390586D01*
X173391598Y-88390586D02*
X173167692Y-88478112D01*
X173167692Y-88478112D02*
X172956847Y-88554051D01*
X172956847Y-88554051D02*
X172750984Y-88620561D01*
X172750984Y-88620561D02*
X172542019Y-88679802D01*
X172542019Y-88679802D02*
X172321873Y-88733933D01*
X172321873Y-88733933D02*
X172082463Y-88785114D01*
X172082463Y-88785114D02*
X171815708Y-88835505D01*
X171815708Y-88835505D02*
X171564628Y-88878796D01*
X171564628Y-88878796D02*
X171107381Y-88952484D01*
X171107381Y-88952484D02*
X170685112Y-89014986D01*
X170685112Y-89014986D02*
X170292115Y-89066810D01*
X170292115Y-89066810D02*
X169922683Y-89108464D01*
X169922683Y-89108464D02*
X169571108Y-89140455D01*
X169571108Y-89140455D02*
X169231683Y-89163291D01*
X169231683Y-89163291D02*
X168898700Y-89177480D01*
X168898700Y-89177480D02*
X168566453Y-89183528D01*
X168566453Y-89183528D02*
X168229233Y-89181943D01*
X168229233Y-89181943D02*
X168167378Y-89180883D01*
X168167378Y-89180883D02*
X167662733Y-89162079D01*
X167662733Y-89162079D02*
X167191877Y-89125096D01*
X167191877Y-89125096D02*
X166750092Y-89069342D01*
X166750092Y-89069342D02*
X166332661Y-88994228D01*
X166332661Y-88994228D02*
X165950170Y-88903277D01*
X165950170Y-88903277D02*
X165889188Y-88889256D01*
X165889188Y-88889256D02*
X165848859Y-88884398D01*
X165848859Y-88884398D02*
X165839125Y-88887490D01*
X165839125Y-88887490D02*
X165845078Y-88911792D01*
X165845078Y-88911792D02*
X165861339Y-88968671D01*
X165861339Y-88968671D02*
X165885605Y-89050292D01*
X165885605Y-89050292D02*
X165915573Y-89148821D01*
X165915573Y-89148821D02*
X165924130Y-89176616D01*
X165924130Y-89176616D02*
X166226886Y-90224878D01*
X166226886Y-90224878D02*
X166494937Y-91294117D01*
X166494937Y-91294117D02*
X166727454Y-92379924D01*
X166727454Y-92379924D02*
X166923611Y-93477891D01*
X166923611Y-93477891D02*
X167082581Y-94583613D01*
X167082581Y-94583613D02*
X167203537Y-95692680D01*
X167203537Y-95692680D02*
X167248655Y-96235699D01*
X167248655Y-96235699D02*
X167258826Y-96399139D01*
X167258826Y-96399139D02*
X167267937Y-96598367D01*
X167267937Y-96598367D02*
X167275919Y-96826852D01*
X167275919Y-96826852D02*
X167282704Y-97078062D01*
X167282704Y-97078062D02*
X167288224Y-97345463D01*
X167288224Y-97345463D02*
X167292411Y-97622524D01*
X167292411Y-97622524D02*
X167295197Y-97902711D01*
X167295197Y-97902711D02*
X167296515Y-98179492D01*
X167296515Y-98179492D02*
X167296297Y-98446335D01*
X167296297Y-98446335D02*
X167294473Y-98696708D01*
X167294473Y-98696708D02*
X167290978Y-98924077D01*
X167290978Y-98924077D02*
X167285742Y-99121910D01*
X167285742Y-99121910D02*
X167280083Y-99257881D01*
X167280083Y-99257881D02*
X167211534Y-100228777D01*
X167211534Y-100228777D02*
X167106519Y-101178192D01*
X167106519Y-101178192D02*
X166965014Y-102106187D01*
X166965014Y-102106187D02*
X166786995Y-103012824D01*
X166786995Y-103012824D02*
X166572440Y-103898165D01*
X166572440Y-103898165D02*
X166321325Y-104762269D01*
X166321325Y-104762269D02*
X166033625Y-105605198D01*
X166033625Y-105605198D02*
X165709318Y-106427014D01*
X165709318Y-106427014D02*
X165348380Y-107227777D01*
X165348380Y-107227777D02*
X164950788Y-108007549D01*
X164950788Y-108007549D02*
X164516517Y-108766392D01*
X164516517Y-108766392D02*
X164045544Y-109504365D01*
X164045544Y-109504365D02*
X163537846Y-110221531D01*
X163537846Y-110221531D02*
X162993399Y-110917950D01*
X162993399Y-110917950D02*
X162617897Y-111361697D01*
X162617897Y-111361697D02*
X162015593Y-112020120D01*
X162015593Y-112020120D02*
X161386100Y-112646219D01*
X161386100Y-112646219D02*
X160730110Y-113239527D01*
X160730110Y-113239527D02*
X160048313Y-113799575D01*
X160048313Y-113799575D02*
X159341400Y-114325899D01*
X159341400Y-114325899D02*
X158610060Y-114818030D01*
X158610060Y-114818030D02*
X157854984Y-115275502D01*
X157854984Y-115275502D02*
X157076862Y-115697847D01*
X157076862Y-115697847D02*
X156276385Y-116084600D01*
X156276385Y-116084600D02*
X155454243Y-116435293D01*
X155454243Y-116435293D02*
X154694795Y-116720250D01*
X154694795Y-116720250D02*
X153834230Y-117000614D01*
X153834230Y-117000614D02*
X152957634Y-117242485D01*
X152957634Y-117242485D02*
X152066829Y-117445757D01*
X152066829Y-117445757D02*
X151163638Y-117610323D01*
X151163638Y-117610323D02*
X150249882Y-117736074D01*
X150249882Y-117736074D02*
X149327383Y-117822904D01*
X149327383Y-117822904D02*
X148397964Y-117870705D01*
X148397964Y-117870705D02*
X147463446Y-117879371D01*
X147463446Y-117879371D02*
X146525652Y-117848793D01*
X146525652Y-117848793D02*
X145586403Y-117778864D01*
X145586403Y-117778864D02*
X144647521Y-117669477D01*
X144647521Y-117669477D02*
X143710830Y-117520525D01*
X143710830Y-117520525D02*
X143106045Y-117402862D01*
X143106045Y-117402862D02*
X142179184Y-117188605D01*
X142179184Y-117188605D02*
X141271186Y-116936564D01*
X141271186Y-116936564D02*
X140381439Y-116646540D01*
X140381439Y-116646540D02*
X139509331Y-116318338D01*
X139509331Y-116318338D02*
X138793337Y-116014515D01*
X138793337Y-116014515D02*
X138683131Y-115966365D01*
X138683131Y-115966365D02*
X138587559Y-115926681D01*
X138587559Y-115926681D02*
X138512709Y-115897820D01*
X138512709Y-115897820D02*
X138464667Y-115882139D01*
X138464667Y-115882139D02*
X138449378Y-115881337D01*
X138449378Y-115881337D02*
X138454768Y-115909740D01*
X138454768Y-115909740D02*
X138469185Y-115968388D01*
X138469185Y-115968388D02*
X138490004Y-116046830D01*
X138490004Y-116046830D02*
X138500785Y-116085887D01*
X138500785Y-116085887D02*
X138606269Y-116479384D01*
X138606269Y-116479384D02*
X138694716Y-116845496D01*
X138694716Y-116845496D02*
X138768187Y-117194620D01*
X138768187Y-117194620D02*
X138828745Y-117537151D01*
X138828745Y-117537151D02*
X138878452Y-117883486D01*
X138878452Y-117883486D02*
X138908912Y-118143199D01*
X138908912Y-118143199D02*
X138923213Y-118311127D01*
X138923213Y-118311127D02*
X138934319Y-118512928D01*
X138934319Y-118512928D02*
X138942233Y-118740263D01*
X138942233Y-118740263D02*
X138946960Y-118984793D01*
X138946960Y-118984793D02*
X138948504Y-119238179D01*
X138948504Y-119238179D02*
X138946871Y-119492083D01*
X138946871Y-119492083D02*
X138942065Y-119738164D01*
X138942065Y-119738164D02*
X138934090Y-119968085D01*
X138934090Y-119968085D02*
X138922951Y-120173506D01*
X138922951Y-120173506D02*
X138908652Y-120346088D01*
X138908652Y-120346088D02*
X138907704Y-120355116D01*
X138907704Y-120355116D02*
X138812911Y-121051876D01*
X138812911Y-121051876D02*
X138678687Y-121734562D01*
X138678687Y-121734562D02*
X138505659Y-122402041D01*
X138505659Y-122402041D02*
X138294453Y-123053177D01*
X138294453Y-123053177D02*
X138045693Y-123686834D01*
X138045693Y-123686834D02*
X137760006Y-124301878D01*
X137760006Y-124301878D02*
X137438016Y-124897173D01*
X137438016Y-124897173D02*
X137080350Y-125471583D01*
X137080350Y-125471583D02*
X136687632Y-126023975D01*
X136687632Y-126023975D02*
X136260489Y-126553212D01*
X136260489Y-126553212D02*
X135799546Y-127058160D01*
X135799546Y-127058160D02*
X135305427Y-127537682D01*
X135305427Y-127537682D02*
X134778760Y-127990645D01*
X134778760Y-127990645D02*
X134639378Y-128101723D01*
X134639378Y-128101723D02*
X134496612Y-128209760D01*
X134496612Y-128209760D02*
X134326307Y-128332175D01*
X134326307Y-128332175D02*
X134137873Y-128462679D01*
X134137873Y-128462679D02*
X133940719Y-128594987D01*
X133940719Y-128594987D02*
X133744255Y-128722811D01*
X133744255Y-128722811D02*
X133557889Y-128839865D01*
X133557889Y-128839865D02*
X133391030Y-128939861D01*
X133391030Y-128939861D02*
X133348212Y-128964443D01*
X133348212Y-128964443D02*
X132806616Y-129252035D01*
X132806616Y-129252035D02*
X132251874Y-129507240D01*
X132251874Y-129507240D02*
X131681001Y-129730969D01*
X131681001Y-129730969D02*
X131091010Y-129924135D01*
X131091010Y-129924135D02*
X130478916Y-130087648D01*
X130478916Y-130087648D02*
X129841731Y-130222420D01*
X129841731Y-130222420D02*
X129176471Y-130329364D01*
X129176471Y-130329364D02*
X128680962Y-130389375D01*
X128680962Y-130389375D02*
X128561817Y-130399341D01*
X128561817Y-130399341D02*
X128407754Y-130408208D01*
X128407754Y-130408208D02*
X128226175Y-130415873D01*
X128226175Y-130415873D02*
X128024483Y-130422230D01*
X128024483Y-130422230D02*
X127810079Y-130427175D01*
X127810079Y-130427175D02*
X127590368Y-130430603D01*
X127590368Y-130430603D02*
X127372752Y-130432409D01*
X127372752Y-130432409D02*
X127164633Y-130432488D01*
X127164633Y-130432488D02*
X126973415Y-130430736D01*
X126973415Y-130430736D02*
X126806499Y-130427048D01*
X126806499Y-130427048D02*
X126671290Y-130421319D01*
X126671290Y-130421319D02*
X126627795Y-130418437D01*
X126627795Y-130418437D02*
X125940319Y-130346128D01*
X125940319Y-130346128D02*
X125267524Y-130235129D01*
X125267524Y-130235129D02*
X124610502Y-130086029D01*
X124610502Y-130086029D02*
X123970345Y-129899414D01*
X123970345Y-129899414D02*
X123348145Y-129675873D01*
X123348145Y-129675873D02*
X122744994Y-129415994D01*
X122744994Y-129415994D02*
X122161984Y-129120364D01*
X122161984Y-129120364D02*
X121600207Y-128789571D01*
X121600207Y-128789571D02*
X121060754Y-128424202D01*
X121060754Y-128424202D02*
X120544718Y-128024846D01*
X120544718Y-128024846D02*
X120053190Y-127592090D01*
X120053190Y-127592090D02*
X119587263Y-127126522D01*
X119587263Y-127126522D02*
X119148028Y-126628729D01*
X119148028Y-126628729D02*
X118824525Y-126218283D01*
X118824525Y-126218283D02*
X118548151Y-125828535D01*
X118548151Y-125828535D02*
X118278069Y-125406692D01*
X118278069Y-125406692D02*
X118020006Y-124962984D01*
X118020006Y-124962984D02*
X117779688Y-124507645D01*
X117779688Y-124507645D02*
X117562841Y-124050909D01*
X117562841Y-124050909D02*
X117409246Y-123689230D01*
X117409246Y-123689230D02*
X117185097Y-123080576D01*
X117185097Y-123080576D02*
X116990686Y-122449334D01*
X116990686Y-122449334D02*
X116828435Y-121805100D01*
X116828435Y-121805100D02*
X116700767Y-121157469D01*
X116700767Y-121157469D02*
X116611864Y-120531580D01*
X116611864Y-120531580D02*
X116596484Y-120360133D01*
X116596484Y-120360133D02*
X116584856Y-120154909D01*
X116584856Y-120154909D02*
X116576940Y-119924293D01*
X116576940Y-119924293D02*
X116572697Y-119676671D01*
X116572697Y-119676671D02*
X116572087Y-119420429D01*
X116572087Y-119420429D02*
X116574982Y-119171593D01*
X116574982Y-119171593D02*
X117273709Y-119171593D01*
X117273709Y-119171593D02*
X117274697Y-119805889D01*
X117274697Y-119805889D02*
X117317063Y-120438296D01*
X117317063Y-120438296D02*
X117346925Y-120699834D01*
X117346925Y-120699834D02*
X117447907Y-121328597D01*
X117447907Y-121328597D02*
X117588992Y-121958549D01*
X117588992Y-121958549D02*
X117768374Y-122584889D01*
X117768374Y-122584889D02*
X117984249Y-123202814D01*
X117984249Y-123202814D02*
X118234812Y-123807522D01*
X118234812Y-123807522D02*
X118518257Y-124394210D01*
X118518257Y-124394210D02*
X118832781Y-124958077D01*
X118832781Y-124958077D02*
X119114479Y-125402831D01*
X119114479Y-125402831D02*
X119481199Y-125912285D01*
X119481199Y-125912285D02*
X119881031Y-126397243D01*
X119881031Y-126397243D02*
X120311639Y-126855678D01*
X120311639Y-126855678D02*
X120770687Y-127285562D01*
X120770687Y-127285562D02*
X121255841Y-127684868D01*
X121255841Y-127684868D02*
X121764764Y-128051568D01*
X121764764Y-128051568D02*
X122295122Y-128383636D01*
X122295122Y-128383636D02*
X122844579Y-128679043D01*
X122844579Y-128679043D02*
X122944795Y-128727910D01*
X122944795Y-128727910D02*
X123530585Y-128987398D01*
X123530585Y-128987398D02*
X124126049Y-129207642D01*
X124126049Y-129207642D02*
X124733568Y-129389253D01*
X124733568Y-129389253D02*
X125355524Y-129532839D01*
X125355524Y-129532839D02*
X125994301Y-129639008D01*
X125994301Y-129639008D02*
X126652281Y-129708371D01*
X126652281Y-129708371D02*
X126828878Y-129720580D01*
X126828878Y-129720580D02*
X126974053Y-129726998D01*
X126974053Y-129726998D02*
X127151661Y-129730803D01*
X127151661Y-129730803D02*
X127351893Y-129732121D01*
X127351893Y-129732121D02*
X127564938Y-129731079D01*
X127564938Y-129731079D02*
X127780984Y-129727805D01*
X127780984Y-129727805D02*
X127990223Y-129722424D01*
X127990223Y-129722424D02*
X128182842Y-129715064D01*
X128182842Y-129715064D02*
X128349031Y-129705852D01*
X128349031Y-129705852D02*
X128426962Y-129699925D01*
X128426962Y-129699925D02*
X129128848Y-129621565D01*
X129128848Y-129621565D02*
X129805385Y-129509705D01*
X129805385Y-129509705D02*
X130457663Y-129363906D01*
X130457663Y-129363906D02*
X131086772Y-129183728D01*
X131086772Y-129183728D02*
X131693804Y-128968732D01*
X131693804Y-128968732D02*
X132279849Y-128718479D01*
X132279849Y-128718479D02*
X132845998Y-128432531D01*
X132845998Y-128432531D02*
X133393341Y-128110447D01*
X133393341Y-128110447D02*
X133922969Y-127751789D01*
X133922969Y-127751789D02*
X134435972Y-127356117D01*
X134435972Y-127356117D02*
X134610438Y-127209968D01*
X134610438Y-127209968D02*
X134735761Y-127098916D01*
X134735761Y-127098916D02*
X134880898Y-126963894D01*
X134880898Y-126963894D02*
X135038210Y-126812534D01*
X135038210Y-126812534D02*
X135200057Y-126652468D01*
X135200057Y-126652468D02*
X135358801Y-126491328D01*
X135358801Y-126491328D02*
X135506802Y-126336746D01*
X135506802Y-126336746D02*
X135636420Y-126196354D01*
X135636420Y-126196354D02*
X135719627Y-126101866D01*
X135719627Y-126101866D02*
X136133406Y-125585790D01*
X136133406Y-125585790D02*
X136512190Y-125046991D01*
X136512190Y-125046991D02*
X136855383Y-124487424D01*
X136855383Y-124487424D02*
X137162388Y-123909042D01*
X137162388Y-123909042D02*
X137432608Y-123313800D01*
X137432608Y-123313800D02*
X137665445Y-122703651D01*
X137665445Y-122703651D02*
X137860304Y-122080549D01*
X137860304Y-122080549D02*
X138016588Y-121446448D01*
X138016588Y-121446448D02*
X138133698Y-120803303D01*
X138133698Y-120803303D02*
X138211039Y-120153066D01*
X138211039Y-120153066D02*
X138248014Y-119497692D01*
X138248014Y-119497692D02*
X138244026Y-118839135D01*
X138244026Y-118839135D02*
X138198477Y-118179349D01*
X138198477Y-118179349D02*
X138183180Y-118037366D01*
X138183180Y-118037366D02*
X138146664Y-117753525D01*
X138146664Y-117753525D02*
X138102610Y-117478850D01*
X138102610Y-117478850D02*
X138048663Y-117201150D01*
X138048663Y-117201150D02*
X137982467Y-116908232D01*
X137982467Y-116908232D02*
X137907099Y-116608616D01*
X137907099Y-116608616D02*
X137851052Y-116396141D01*
X137851052Y-116396141D02*
X137800974Y-116211971D01*
X137800974Y-116211971D02*
X137754441Y-116050055D01*
X137754441Y-116050055D02*
X137709030Y-115904339D01*
X137709030Y-115904339D02*
X137662319Y-115768774D01*
X137662319Y-115768774D02*
X137611883Y-115637307D01*
X137611883Y-115637307D02*
X137555301Y-115503888D01*
X137555301Y-115503888D02*
X137490150Y-115362464D01*
X137490150Y-115362464D02*
X137414007Y-115206985D01*
X137414007Y-115206985D02*
X137324448Y-115031398D01*
X137324448Y-115031398D02*
X137219051Y-114829652D01*
X137219051Y-114829652D02*
X137119024Y-114640298D01*
X137119024Y-114640298D02*
X137060317Y-114528537D01*
X137060317Y-114528537D02*
X137009615Y-114430260D01*
X137009615Y-114430260D02*
X136969850Y-114351291D01*
X136969850Y-114351291D02*
X136943949Y-114297457D01*
X136943949Y-114297457D02*
X136934842Y-114274583D01*
X136934842Y-114274583D02*
X136934949Y-114274240D01*
X136934949Y-114274240D02*
X136954461Y-114282248D01*
X136954461Y-114282248D02*
X137006647Y-114307984D01*
X137006647Y-114307984D02*
X137086925Y-114349074D01*
X137086925Y-114349074D02*
X137190716Y-114403139D01*
X137190716Y-114403139D02*
X137313436Y-114467805D01*
X137313436Y-114467805D02*
X137450507Y-114540695D01*
X137450507Y-114540695D02*
X137510159Y-114572603D01*
X137510159Y-114572603D02*
X137735380Y-114693093D01*
X137735380Y-114693093D02*
X137928520Y-114795948D01*
X137928520Y-114795948D02*
X138094673Y-114883789D01*
X138094673Y-114883789D02*
X138238933Y-114959234D01*
X138238933Y-114959234D02*
X138366391Y-115024902D01*
X138366391Y-115024902D02*
X138482143Y-115083412D01*
X138482143Y-115083412D02*
X138591281Y-115137384D01*
X138591281Y-115137384D02*
X138698899Y-115189437D01*
X138698899Y-115189437D02*
X138810089Y-115242189D01*
X138810089Y-115242189D02*
X138835842Y-115254292D01*
X138835842Y-115254292D02*
X139585782Y-115585204D01*
X139585782Y-115585204D02*
X140364100Y-115887942D01*
X140364100Y-115887942D02*
X141166574Y-116161338D01*
X141166574Y-116161338D02*
X141988980Y-116404220D01*
X141988980Y-116404220D02*
X142827096Y-116615420D01*
X142827096Y-116615420D02*
X143676697Y-116793768D01*
X143676697Y-116793768D02*
X144533561Y-116938094D01*
X144533561Y-116938094D02*
X145254462Y-117032023D01*
X145254462Y-117032023D02*
X145515570Y-117060700D01*
X145515570Y-117060700D02*
X145752559Y-117084818D01*
X145752559Y-117084818D02*
X145972659Y-117104750D01*
X145972659Y-117104750D02*
X146183099Y-117120867D01*
X146183099Y-117120867D02*
X146391109Y-117133541D01*
X146391109Y-117133541D02*
X146603919Y-117143143D01*
X146603919Y-117143143D02*
X146828758Y-117150047D01*
X146828758Y-117150047D02*
X147072856Y-117154624D01*
X147072856Y-117154624D02*
X147343443Y-117157245D01*
X147343443Y-117157245D02*
X147647748Y-117158284D01*
X147647748Y-117158284D02*
X147709795Y-117158333D01*
X147709795Y-117158333D02*
X148105512Y-117156830D01*
X148105512Y-117156830D02*
X148466571Y-117151631D01*
X148466571Y-117151631D02*
X148800526Y-117142248D01*
X148800526Y-117142248D02*
X149114931Y-117128197D01*
X149114931Y-117128197D02*
X149417338Y-117108992D01*
X149417338Y-117108992D02*
X149715301Y-117084149D01*
X149715301Y-117084149D02*
X150016375Y-117053182D01*
X150016375Y-117053182D02*
X150328111Y-117015606D01*
X150328111Y-117015606D02*
X150658065Y-116970935D01*
X150658065Y-116970935D02*
X150683712Y-116967292D01*
X150683712Y-116967292D02*
X151582668Y-116819005D01*
X151582668Y-116819005D02*
X152464310Y-116632989D01*
X152464310Y-116632989D02*
X153327921Y-116409649D01*
X153327921Y-116409649D02*
X154172784Y-116149387D01*
X154172784Y-116149387D02*
X154998182Y-115852608D01*
X154998182Y-115852608D02*
X155803399Y-115519716D01*
X155803399Y-115519716D02*
X156587718Y-115151113D01*
X156587718Y-115151113D02*
X157350421Y-114747203D01*
X157350421Y-114747203D02*
X158090792Y-114308391D01*
X158090792Y-114308391D02*
X158808114Y-113835080D01*
X158808114Y-113835080D02*
X159501669Y-113327673D01*
X159501669Y-113327673D02*
X160170742Y-112786574D01*
X160170742Y-112786574D02*
X160814615Y-112212187D01*
X160814615Y-112212187D02*
X161432572Y-111604916D01*
X161432572Y-111604916D02*
X162023895Y-110965163D01*
X162023895Y-110965163D02*
X162587867Y-110293334D01*
X162587867Y-110293334D02*
X162629828Y-110240675D01*
X162629828Y-110240675D02*
X163146838Y-109556411D01*
X163146838Y-109556411D02*
X163627159Y-108852102D01*
X163627159Y-108852102D02*
X164071263Y-108126869D01*
X164071263Y-108126869D02*
X164479620Y-107379834D01*
X164479620Y-107379834D02*
X164852701Y-106610119D01*
X164852701Y-106610119D02*
X165190975Y-105816846D01*
X165190975Y-105816846D02*
X165494914Y-104999136D01*
X165494914Y-104999136D02*
X165591317Y-104712949D01*
X165591317Y-104712949D02*
X165800167Y-104034232D01*
X165800167Y-104034232D02*
X165983784Y-103346341D01*
X165983784Y-103346341D02*
X166143016Y-102644713D01*
X166143016Y-102644713D02*
X166278708Y-101924785D01*
X166278708Y-101924785D02*
X166391706Y-101181994D01*
X166391706Y-101181994D02*
X166482857Y-100411778D01*
X166482857Y-100411778D02*
X166553005Y-99609574D01*
X166553005Y-99609574D02*
X166562593Y-99474199D01*
X166562593Y-99474199D02*
X166569730Y-99341717D01*
X166569730Y-99341717D02*
X166575732Y-99173067D01*
X166575732Y-99173067D02*
X166580601Y-98974399D01*
X166580601Y-98974399D02*
X166584337Y-98751863D01*
X166584337Y-98751863D02*
X166586941Y-98511610D01*
X166586941Y-98511610D02*
X166588413Y-98259789D01*
X166588413Y-98259789D02*
X166588753Y-98002552D01*
X166588753Y-98002552D02*
X166587963Y-97746047D01*
X166587963Y-97746047D02*
X166586042Y-97496426D01*
X166586042Y-97496426D02*
X166582992Y-97259838D01*
X166582992Y-97259838D02*
X166578813Y-97042434D01*
X166578813Y-97042434D02*
X166573505Y-96850363D01*
X166573505Y-96850363D02*
X166567068Y-96689776D01*
X166567068Y-96689776D02*
X166562341Y-96606116D01*
X166562341Y-96606116D02*
X166506244Y-95862207D01*
X166506244Y-95862207D02*
X166437432Y-95148874D01*
X166437432Y-95148874D02*
X166354558Y-94455914D01*
X166354558Y-94455914D02*
X166256278Y-93773125D01*
X166256278Y-93773125D02*
X166141245Y-93090303D01*
X166141245Y-93090303D02*
X166008113Y-92397246D01*
X166008113Y-92397246D02*
X166005288Y-92383366D01*
X166005288Y-92383366D02*
X165901793Y-91891159D01*
X165901793Y-91891159D02*
X165795493Y-91418482D01*
X165795493Y-91418482D02*
X165684252Y-90957436D01*
X165684252Y-90957436D02*
X165565938Y-90500122D01*
X165565938Y-90500122D02*
X165438415Y-90038645D01*
X165438415Y-90038645D02*
X165299550Y-89565104D01*
X165299550Y-89565104D02*
X165147209Y-89071602D01*
X165147209Y-89071602D02*
X164979257Y-88550241D01*
X164979257Y-88550241D02*
X164925380Y-88386833D01*
X164925380Y-88386833D02*
X164873963Y-88230373D01*
X164873963Y-88230373D02*
X164827671Y-88087060D01*
X164827671Y-88087060D02*
X164788011Y-87961746D01*
X164788011Y-87961746D02*
X164756485Y-87859287D01*
X164756485Y-87859287D02*
X164734599Y-87784536D01*
X164734599Y-87784536D02*
X164723856Y-87742347D01*
X164723856Y-87742347D02*
X164723265Y-87734756D01*
X164723265Y-87734756D02*
X164745060Y-87739141D01*
X164745060Y-87739141D02*
X164800881Y-87756961D01*
X164800881Y-87756961D02*
X164885302Y-87786297D01*
X164885302Y-87786297D02*
X164992900Y-87825228D01*
X164992900Y-87825228D02*
X165118251Y-87871833D01*
X165118251Y-87871833D02*
X165228177Y-87913546D01*
X165228177Y-87913546D02*
X165570060Y-88039175D01*
X165570060Y-88039175D02*
X165888064Y-88144133D01*
X165888064Y-88144133D02*
X166193192Y-88231016D01*
X166193192Y-88231016D02*
X166496451Y-88302416D01*
X166496451Y-88302416D02*
X166808843Y-88360928D01*
X166808843Y-88360928D02*
X167141374Y-88409146D01*
X167141374Y-88409146D02*
X167500628Y-88449230D01*
X167500628Y-88449230D02*
X167640377Y-88459662D01*
X167640377Y-88459662D02*
X167814487Y-88467408D01*
X167814487Y-88467408D02*
X168015075Y-88472510D01*
X168015075Y-88472510D02*
X168234258Y-88475010D01*
X168234258Y-88475010D02*
X168464153Y-88474952D01*
X168464153Y-88474952D02*
X168696875Y-88472377D01*
X168696875Y-88472377D02*
X168924541Y-88467329D01*
X168924541Y-88467329D02*
X169139268Y-88459849D01*
X169139268Y-88459849D02*
X169333172Y-88449981D01*
X169333172Y-88449981D02*
X169490295Y-88438487D01*
X169490295Y-88438487D02*
X169743770Y-88414116D01*
X169743770Y-88414116D02*
X170013858Y-88384497D01*
X170013858Y-88384497D02*
X170294907Y-88350489D01*
X170294907Y-88350489D02*
X170581270Y-88312950D01*
X170581270Y-88312950D02*
X170867297Y-88272740D01*
X170867297Y-88272740D02*
X171147339Y-88230717D01*
X171147339Y-88230717D02*
X171415745Y-88187740D01*
X171415745Y-88187740D02*
X171666867Y-88144669D01*
X171666867Y-88144669D02*
X171895056Y-88102362D01*
X171895056Y-88102362D02*
X172094662Y-88061677D01*
X172094662Y-88061677D02*
X172260035Y-88023475D01*
X172260035Y-88023475D02*
X172316045Y-88008888D01*
X172316045Y-88008888D02*
X172822843Y-87849956D01*
X172822843Y-87849956D02*
X173325608Y-87650505D01*
X173325608Y-87650505D02*
X173822607Y-87412287D01*
X173822607Y-87412287D02*
X174312106Y-87137055D01*
X174312106Y-87137055D02*
X174792371Y-86826560D01*
X174792371Y-86826560D02*
X175261670Y-86482555D01*
X175261670Y-86482555D02*
X175718269Y-86106792D01*
X175718269Y-86106792D02*
X176160435Y-85701023D01*
X176160435Y-85701023D02*
X176586434Y-85267000D01*
X176586434Y-85267000D02*
X176994533Y-84806475D01*
X176994533Y-84806475D02*
X177382998Y-84321200D01*
X177382998Y-84321200D02*
X177750097Y-83812928D01*
X177750097Y-83812928D02*
X178094095Y-83283409D01*
X178094095Y-83283409D02*
X178413260Y-82734398D01*
X178413260Y-82734398D02*
X178705858Y-82167645D01*
X178705858Y-82167645D02*
X178970156Y-81584903D01*
X178970156Y-81584903D02*
X179170499Y-81080366D01*
X179170499Y-81080366D02*
X179376993Y-80471330D01*
X179376993Y-80471330D02*
X179546576Y-79856402D01*
X179546576Y-79856402D02*
X179678866Y-79238624D01*
X179678866Y-79238624D02*
X179773477Y-78621040D01*
X179773477Y-78621040D02*
X179830028Y-78006695D01*
X179830028Y-78006695D02*
X179848134Y-77398632D01*
X179848134Y-77398632D02*
X179827411Y-76799895D01*
X179827411Y-76799895D02*
X179775813Y-76275875D01*
X179775813Y-76275875D02*
X179694828Y-75788533D01*
X179694828Y-75788533D02*
X179577007Y-75286468D01*
X179577007Y-75286468D02*
X179423578Y-74773481D01*
X179423578Y-74773481D02*
X179235772Y-74253371D01*
X179235772Y-74253371D02*
X179014818Y-73729940D01*
X179014818Y-73729940D02*
X178820743Y-73322783D01*
X178820743Y-73322783D02*
X178713405Y-73111832D01*
X178713405Y-73111832D02*
X178613771Y-72924172D01*
X178613771Y-72924172D02*
X178515560Y-72749015D01*
X178515560Y-72749015D02*
X178412490Y-72575571D01*
X178412490Y-72575571D02*
X178298279Y-72393052D01*
X178298279Y-72393052D02*
X178166645Y-72190670D01*
X178166645Y-72190670D02*
X178124410Y-72126866D01*
X178124410Y-72126866D02*
X177749521Y-71597202D01*
X177749521Y-71597202D02*
X177345670Y-71092564D01*
X177345670Y-71092564D02*
X176914891Y-70614268D01*
X176914891Y-70614268D02*
X176459214Y-70163630D01*
X176459214Y-70163630D02*
X175980671Y-69741966D01*
X175980671Y-69741966D02*
X175481295Y-69350592D01*
X175481295Y-69350592D02*
X174963116Y-68990823D01*
X174963116Y-68990823D02*
X174428167Y-68663977D01*
X174428167Y-68663977D02*
X173878480Y-68371368D01*
X173878480Y-68371368D02*
X173316085Y-68114313D01*
X173316085Y-68114313D02*
X172743015Y-67894128D01*
X172743015Y-67894128D02*
X172161301Y-67712129D01*
X172161301Y-67712129D02*
X171572975Y-67569631D01*
X171572975Y-67569631D02*
X170980069Y-67467950D01*
X170980069Y-67467950D02*
X170919045Y-67459877D01*
X170919045Y-67459877D02*
X170819882Y-67449207D01*
X170819882Y-67449207D02*
X170688540Y-67438154D01*
X170688540Y-67438154D02*
X170535156Y-67427399D01*
X170535156Y-67427399D02*
X170369870Y-67417626D01*
X170369870Y-67417626D02*
X170202823Y-67409518D01*
X170202823Y-67409518D02*
X170125295Y-67406428D01*
X170125295Y-67406428D02*
X169942572Y-67399529D01*
X169942572Y-67399529D02*
X169732762Y-67391285D01*
X169732762Y-67391285D02*
X169511067Y-67382316D01*
X169511067Y-67382316D02*
X169292687Y-67373238D01*
X169292687Y-67373238D02*
X169092823Y-67364669D01*
X169092823Y-67364669D02*
X169035212Y-67362134D01*
X169035212Y-67362134D02*
X168750036Y-67351478D01*
X168750036Y-67351478D02*
X168499014Y-67346772D01*
X168499014Y-67346772D02*
X168274340Y-67348341D01*
X168274340Y-67348341D02*
X168068207Y-67356513D01*
X168068207Y-67356513D02*
X167872812Y-67371615D01*
X167872812Y-67371615D02*
X167680348Y-67393973D01*
X167680348Y-67393973D02*
X167483010Y-67423915D01*
X167483010Y-67423915D02*
X167457647Y-67428201D01*
X167457647Y-67428201D02*
X167174269Y-67479785D01*
X167174269Y-67479785D02*
X166918978Y-67533714D01*
X166918978Y-67533714D02*
X166677546Y-67593516D01*
X166677546Y-67593516D02*
X166435743Y-67662718D01*
X166435743Y-67662718D02*
X166179340Y-67744848D01*
X166179340Y-67744848D02*
X166176122Y-67745925D01*
X166176122Y-67745925D02*
X165604587Y-67958925D01*
X165604587Y-67958925D02*
X165040830Y-68211833D01*
X165040830Y-68211833D02*
X164486954Y-68502604D01*
X164486954Y-68502604D02*
X163945060Y-68829195D01*
X163945060Y-68829195D02*
X163417248Y-69189562D01*
X163417248Y-69189562D02*
X162905620Y-69581661D01*
X162905620Y-69581661D02*
X162412278Y-70003449D01*
X162412278Y-70003449D02*
X161939322Y-70452882D01*
X161939322Y-70452882D02*
X161488854Y-70927917D01*
X161488854Y-70927917D02*
X161062975Y-71426509D01*
X161062975Y-71426509D02*
X160663787Y-71946614D01*
X160663787Y-71946614D02*
X160293390Y-72486191D01*
X160293390Y-72486191D02*
X159953886Y-73043193D01*
X159953886Y-73043193D02*
X159647376Y-73615579D01*
X159647376Y-73615579D02*
X159375962Y-74201304D01*
X159375962Y-74201304D02*
X159266985Y-74465783D01*
X159266985Y-74465783D02*
X159043040Y-75085386D01*
X159043040Y-75085386D02*
X158858026Y-75714762D01*
X158858026Y-75714762D02*
X158712810Y-76350260D01*
X158712810Y-76350260D02*
X158608260Y-76988230D01*
X158608260Y-76988230D02*
X158558377Y-77450283D01*
X158558377Y-77450283D02*
X158550845Y-77569112D01*
X158550845Y-77569112D02*
X158545003Y-77721027D01*
X158545003Y-77721027D02*
X158540853Y-77897507D01*
X158540853Y-77897507D02*
X158538397Y-78090030D01*
X158538397Y-78090030D02*
X158537637Y-78290076D01*
X158537637Y-78290076D02*
X158538574Y-78489123D01*
X158538574Y-78489123D02*
X158541210Y-78678650D01*
X158541210Y-78678650D02*
X158545547Y-78850137D01*
X158545547Y-78850137D02*
X158551587Y-78995062D01*
X158551587Y-78995062D02*
X158558035Y-79090699D01*
X158558035Y-79090699D02*
X158604041Y-79470487D01*
X158604041Y-79470487D02*
X158676639Y-79870110D01*
X158676639Y-79870110D02*
X158773088Y-80278881D01*
X158773088Y-80278881D02*
X158890648Y-80686114D01*
X158890648Y-80686114D02*
X159026578Y-81081121D01*
X159026578Y-81081121D02*
X159143623Y-81373939D01*
X159143623Y-81373939D02*
X159260489Y-81632793D01*
X159260489Y-81632793D02*
X159396747Y-81906807D01*
X159396747Y-81906807D02*
X159554772Y-82200445D01*
X159554772Y-82200445D02*
X159736941Y-82518172D01*
X159736941Y-82518172D02*
X159877197Y-82752533D01*
X159877197Y-82752533D02*
X159959368Y-82888372D01*
X159959368Y-82888372D02*
X160033551Y-83012131D01*
X160033551Y-83012131D02*
X160097105Y-83119313D01*
X160097105Y-83119313D02*
X160147389Y-83205424D01*
X160147389Y-83205424D02*
X160181762Y-83265966D01*
X160181762Y-83265966D02*
X160197585Y-83296444D01*
X160197585Y-83296444D02*
X160198262Y-83299167D01*
X160198262Y-83299167D02*
X160177538Y-83293736D01*
X160177538Y-83293736D02*
X160121302Y-83275331D01*
X160121302Y-83275331D02*
X160033830Y-83245445D01*
X160033830Y-83245445D02*
X159919394Y-83205571D01*
X159919394Y-83205571D02*
X159782269Y-83157202D01*
X159782269Y-83157202D02*
X159626730Y-83101830D01*
X159626730Y-83101830D02*
X159457049Y-83040947D01*
X159457049Y-83040947D02*
X159401021Y-83020747D01*
X159401021Y-83020747D02*
X159052212Y-82895911D01*
X159052212Y-82895911D02*
X158734514Y-82784628D01*
X158734514Y-82784628D02*
X158439917Y-82684272D01*
X158439917Y-82684272D02*
X158160410Y-82592218D01*
X158160410Y-82592218D02*
X157887985Y-82505839D01*
X157887985Y-82505839D02*
X157614632Y-82422512D01*
X157614632Y-82422512D02*
X157332341Y-82339611D01*
X157332341Y-82339611D02*
X157255962Y-82317650D01*
X157255962Y-82317650D02*
X156324314Y-82066150D01*
X156324314Y-82066150D02*
X155405066Y-81849389D01*
X155405066Y-81849389D02*
X154489656Y-81665845D01*
X154489656Y-81665845D02*
X153569521Y-81513999D01*
X153569521Y-81513999D02*
X152636099Y-81392328D01*
X152636099Y-81392328D02*
X151680828Y-81299311D01*
X151680828Y-81299311D02*
X151403378Y-81277836D01*
X151403378Y-81277836D02*
X151242240Y-81268114D01*
X151242240Y-81268114D02*
X151047176Y-81259748D01*
X151047176Y-81259748D02*
X150824426Y-81252760D01*
X150824426Y-81252760D02*
X150580233Y-81247177D01*
X150580233Y-81247177D02*
X150320836Y-81243023D01*
X150320836Y-81243023D02*
X150052478Y-81240322D01*
X150052478Y-81240322D02*
X149781397Y-81239098D01*
X149781397Y-81239098D02*
X149513836Y-81239377D01*
X149513836Y-81239377D02*
X149256035Y-81241182D01*
X149256035Y-81241182D02*
X149014235Y-81244539D01*
X149014235Y-81244539D02*
X148794677Y-81249471D01*
X148794677Y-81249471D02*
X148603601Y-81256003D01*
X148603601Y-81256003D02*
X148447249Y-81264160D01*
X148447249Y-81264160D02*
X148418878Y-81266120D01*
X148418878Y-81266120D02*
X148016532Y-81297469D01*
X148016532Y-81297469D02*
X147646745Y-81330634D01*
X147646745Y-81330634D02*
X147299752Y-81366562D01*
X147299752Y-81366562D02*
X146965787Y-81406200D01*
X146965787Y-81406200D02*
X146937212Y-81409832D01*
X146937212Y-81409832D02*
X146033249Y-81545412D01*
X146033249Y-81545412D02*
X145147653Y-81718728D01*
X145147653Y-81718728D02*
X144280860Y-81929549D01*
X144280860Y-81929549D02*
X143433307Y-82177645D01*
X143433307Y-82177645D02*
X142605432Y-82462783D01*
X142605432Y-82462783D02*
X141797670Y-82784732D01*
X141797670Y-82784732D02*
X141010460Y-83143262D01*
X141010460Y-83143262D02*
X140244237Y-83538141D01*
X140244237Y-83538141D02*
X139499440Y-83969138D01*
X139499440Y-83969138D02*
X138776504Y-84436021D01*
X138776504Y-84436021D02*
X138075866Y-84938559D01*
X138075866Y-84938559D02*
X137397965Y-85476522D01*
X137397965Y-85476522D02*
X136743236Y-86049677D01*
X136743236Y-86049677D02*
X136112116Y-86657795D01*
X136112116Y-86657795D02*
X135505043Y-87300642D01*
X135505043Y-87300642D02*
X135241112Y-87599699D01*
X135241112Y-87599699D02*
X134694700Y-88264155D01*
X134694700Y-88264155D02*
X134180669Y-88955281D01*
X134180669Y-88955281D02*
X133699967Y-89671393D01*
X133699967Y-89671393D02*
X133253541Y-90410807D01*
X133253541Y-90410807D02*
X132842338Y-91171839D01*
X132842338Y-91171839D02*
X132467304Y-91952805D01*
X132467304Y-91952805D02*
X132129388Y-92752021D01*
X132129388Y-92752021D02*
X131829535Y-93567803D01*
X131829535Y-93567803D02*
X131748960Y-93809920D01*
X131748960Y-93809920D02*
X131497599Y-94651434D01*
X131497599Y-94651434D02*
X131287454Y-95501660D01*
X131287454Y-95501660D02*
X131118491Y-96359815D01*
X131118491Y-96359815D02*
X130990673Y-97225115D01*
X130990673Y-97225115D02*
X130903961Y-98096775D01*
X130903961Y-98096775D02*
X130858321Y-98974013D01*
X130858321Y-98974013D02*
X130853715Y-99856044D01*
X130853715Y-99856044D02*
X130890106Y-100742085D01*
X130890106Y-100742085D02*
X130967458Y-101631350D01*
X130967458Y-101631350D02*
X131085734Y-102523058D01*
X131085734Y-102523058D02*
X131244897Y-103416422D01*
X131244897Y-103416422D02*
X131444910Y-104310661D01*
X131444910Y-104310661D02*
X131685738Y-105204990D01*
X131685738Y-105204990D02*
X131967343Y-106098624D01*
X131967343Y-106098624D02*
X132289688Y-106990781D01*
X132289688Y-106990781D02*
X132376739Y-107213758D01*
X132376739Y-107213758D02*
X132476404Y-107461924D01*
X132476404Y-107461924D02*
X132574739Y-107699404D01*
X132574739Y-107699404D02*
X132674688Y-107932682D01*
X132674688Y-107932682D02*
X132779194Y-108168241D01*
X132779194Y-108168241D02*
X132891199Y-108412563D01*
X132891199Y-108412563D02*
X133013647Y-108672133D01*
X133013647Y-108672133D02*
X133149479Y-108953435D01*
X133149479Y-108953435D02*
X133301640Y-109262950D01*
X133301640Y-109262950D02*
X133363072Y-109386735D01*
X133363072Y-109386735D02*
X133450553Y-109563106D01*
X133450553Y-109563106D02*
X133531374Y-109726992D01*
X133531374Y-109726992D02*
X133603745Y-109874692D01*
X133603745Y-109874692D02*
X133665875Y-110002507D01*
X133665875Y-110002507D02*
X133715972Y-110106735D01*
X133715972Y-110106735D02*
X133752246Y-110183677D01*
X133752246Y-110183677D02*
X133772906Y-110229634D01*
X133772906Y-110229634D02*
X133776828Y-110241557D01*
X133776828Y-110241557D02*
X133484240Y-110077143D01*
X133484240Y-110077143D02*
X133224671Y-109933112D01*
X133224671Y-109933112D02*
X132998644Y-109809742D01*
X132998644Y-109809742D02*
X132806680Y-109707311D01*
X132806680Y-109707311D02*
X132649303Y-109626100D01*
X132649303Y-109626100D02*
X132527033Y-109566386D01*
X132527033Y-109566386D02*
X132442176Y-109529150D01*
X132442176Y-109529150D02*
X132187686Y-109438146D01*
X132187686Y-109438146D02*
X131894810Y-109350753D01*
X131894810Y-109350753D02*
X131567398Y-109267678D01*
X131567398Y-109267678D02*
X131209296Y-109189631D01*
X131209296Y-109189631D02*
X130824355Y-109117318D01*
X130824355Y-109117318D02*
X130416422Y-109051449D01*
X130416422Y-109051449D02*
X129989345Y-108992731D01*
X129989345Y-108992731D02*
X129546974Y-108941874D01*
X129546974Y-108941874D02*
X129093156Y-108899585D01*
X129093156Y-108899585D02*
X128966712Y-108889540D01*
X128966712Y-108889540D02*
X128835926Y-108881615D01*
X128835926Y-108881615D02*
X128673459Y-108875087D01*
X128673459Y-108875087D02*
X128485843Y-108869954D01*
X128485843Y-108869954D02*
X128279608Y-108866219D01*
X128279608Y-108866219D02*
X128061289Y-108863880D01*
X128061289Y-108863880D02*
X127837415Y-108862939D01*
X127837415Y-108862939D02*
X127614521Y-108863396D01*
X127614521Y-108863396D02*
X127399137Y-108865251D01*
X127399137Y-108865251D02*
X127197796Y-108868504D01*
X127197796Y-108868504D02*
X127017030Y-108873157D01*
X127017030Y-108873157D02*
X126863371Y-108879209D01*
X126863371Y-108879209D02*
X126743351Y-108886661D01*
X126743351Y-108886661D02*
X126712462Y-108889406D01*
X126712462Y-108889406D02*
X126138039Y-108965482D01*
X126138039Y-108965482D02*
X125565370Y-109080752D01*
X125565370Y-109080752D02*
X124992641Y-109235753D01*
X124992641Y-109235753D02*
X124418039Y-109431025D01*
X124418039Y-109431025D02*
X123839749Y-109667108D01*
X123839749Y-109667108D02*
X123389295Y-109877790D01*
X123389295Y-109877790D02*
X122785913Y-110198776D01*
X122785913Y-110198776D02*
X122206135Y-110554691D01*
X122206135Y-110554691D02*
X121650891Y-110944713D01*
X121650891Y-110944713D02*
X121121113Y-111368021D01*
X121121113Y-111368021D02*
X120617733Y-111823791D01*
X120617733Y-111823791D02*
X120141683Y-112311203D01*
X120141683Y-112311203D02*
X119693895Y-112829434D01*
X119693895Y-112829434D02*
X119275301Y-113377662D01*
X119275301Y-113377662D02*
X119046442Y-113708783D01*
X119046442Y-113708783D02*
X118696955Y-114269846D01*
X118696955Y-114269846D02*
X118384459Y-114847067D01*
X118384459Y-114847067D02*
X118109443Y-115438440D01*
X118109443Y-115438440D02*
X117872394Y-116041961D01*
X117872394Y-116041961D02*
X117673799Y-116655623D01*
X117673799Y-116655623D02*
X117514146Y-117277423D01*
X117514146Y-117277423D02*
X117393921Y-117905355D01*
X117393921Y-117905355D02*
X117313613Y-118537413D01*
X117313613Y-118537413D02*
X117273709Y-119171593D01*
X117273709Y-119171593D02*
X116574982Y-119171593D01*
X116574982Y-119171593D02*
X116575071Y-119163951D01*
X116575071Y-119163951D02*
X116581609Y-118915624D01*
X116581609Y-118915624D02*
X116591662Y-118683834D01*
X116591662Y-118683834D02*
X116605190Y-118476966D01*
X116605190Y-118476966D02*
X116622155Y-118303405D01*
X116622155Y-118303405D02*
X116622359Y-118301719D01*
X116622359Y-118301719D02*
X116728182Y-117603245D01*
X116728182Y-117603245D02*
X116873723Y-116919327D01*
X116873723Y-116919327D02*
X117058800Y-116250377D01*
X117058800Y-116250377D02*
X117283231Y-115596807D01*
X117283231Y-115596807D02*
X117546832Y-114959028D01*
X117546832Y-114959028D02*
X117849423Y-114337451D01*
X117849423Y-114337451D02*
X118190821Y-113732487D01*
X118190821Y-113732487D02*
X118570844Y-113144549D01*
X118570844Y-113144549D02*
X118989309Y-112574047D01*
X118989309Y-112574047D02*
X119359511Y-112121283D01*
X119359511Y-112121283D02*
X119469937Y-111996724D01*
X119469937Y-111996724D02*
X119604246Y-111852081D01*
X119604246Y-111852081D02*
X119755760Y-111694011D01*
X119755760Y-111694011D02*
X119917804Y-111529167D01*
X119917804Y-111529167D02*
X120083701Y-111364206D01*
X120083701Y-111364206D02*
X120246774Y-111205782D01*
X120246774Y-111205782D02*
X120400347Y-111060552D01*
X120400347Y-111060552D02*
X120537743Y-110935170D01*
X120537743Y-110935170D02*
X120629401Y-110855420D01*
X120629401Y-110855420D02*
X121195530Y-110403470D01*
X121195530Y-110403470D02*
X121776579Y-109991114D01*
X121776579Y-109991114D02*
X122372663Y-109618287D01*
X122372663Y-109618287D02*
X122983894Y-109284923D01*
X122983894Y-109284923D02*
X123610387Y-108990956D01*
X123610387Y-108990956D02*
X124252255Y-108736321D01*
X124252255Y-108736321D02*
X124405295Y-108682198D01*
X124405295Y-108682198D02*
X124731718Y-108575880D01*
X124731718Y-108575880D02*
X125069242Y-108478037D01*
X125069242Y-108478037D02*
X125407755Y-108391135D01*
X125407755Y-108391135D02*
X125737148Y-108317640D01*
X125737148Y-108317640D02*
X126047310Y-108260019D01*
X126047310Y-108260019D02*
X126267962Y-108227857D01*
X126267962Y-108227857D02*
X126617069Y-108191936D01*
X126617069Y-108191936D02*
X127000014Y-108166595D01*
X127000014Y-108166595D02*
X127409642Y-108151832D01*
X127409642Y-108151832D02*
X127838802Y-108147648D01*
X127838802Y-108147648D02*
X128280339Y-108154044D01*
X128280339Y-108154044D02*
X128727102Y-108171019D01*
X128727102Y-108171019D02*
X129171936Y-108198573D01*
X129171936Y-108198573D02*
X129517045Y-108227799D01*
X129517045Y-108227799D02*
X129961803Y-108275325D01*
X129961803Y-108275325D02*
X130399297Y-108332077D01*
X130399297Y-108332077D02*
X130822876Y-108396933D01*
X130822876Y-108396933D02*
X131225888Y-108468773D01*
X131225888Y-108468773D02*
X131601682Y-108546474D01*
X131601682Y-108546474D02*
X131943609Y-108628917D01*
X131943609Y-108628917D02*
X132023935Y-108650388D01*
X132023935Y-108650388D02*
X132107322Y-108672015D01*
X132107322Y-108672015D02*
X132174014Y-108687144D01*
X132174014Y-108687144D02*
X132214503Y-108693724D01*
X132214503Y-108693724D02*
X132222061Y-108693072D01*
X132222061Y-108693072D02*
X132216807Y-108671804D01*
X132216807Y-108671804D02*
X132196680Y-108618334D01*
X132196680Y-108618334D02*
X132164270Y-108539022D01*
X132164270Y-108539022D02*
X132122167Y-108440230D01*
X132122167Y-108440230D02*
X132079756Y-108343580D01*
X132079756Y-108343580D02*
X131697891Y-107433793D01*
X131697891Y-107433793D02*
X131357684Y-106516872D01*
X131357684Y-106516872D02*
X131058945Y-105592089D01*
X131058945Y-105592089D02*
X130801486Y-104658718D01*
X130801486Y-104658718D02*
X130585119Y-103716030D01*
X130585119Y-103716030D02*
X130409655Y-102763299D01*
X130409655Y-102763299D02*
X130274906Y-101799796D01*
X130274906Y-101799796D02*
X130203431Y-101104033D01*
X130203431Y-101104033D02*
X130192611Y-100953830D01*
X130192611Y-100953830D02*
X130182989Y-100768157D01*
X130182989Y-100768157D02*
X130174645Y-100553862D01*
X130174645Y-100553862D02*
X130167661Y-100317793D01*
X130167661Y-100317793D02*
X130162118Y-100066797D01*
X130162118Y-100066797D02*
X130158098Y-99807723D01*
X130158098Y-99807723D02*
X130155682Y-99547420D01*
X130155682Y-99547420D02*
X130154952Y-99292734D01*
X130154952Y-99292734D02*
X130155988Y-99050515D01*
X130155988Y-99050515D02*
X130158872Y-98827610D01*
X130158872Y-98827610D02*
X130163686Y-98630868D01*
X130163686Y-98630868D02*
X130170510Y-98467137D01*
X130170510Y-98467137D02*
X130171826Y-98443917D01*
X130171826Y-98443917D02*
X130246491Y-97529031D01*
X130246491Y-97529031D02*
X130361077Y-96627811D01*
X130361077Y-96627811D02*
X130515389Y-95740733D01*
X130515389Y-95740733D02*
X130709234Y-94868268D01*
X130709234Y-94868268D02*
X130942416Y-94010889D01*
X130942416Y-94010889D02*
X131214743Y-93169070D01*
X131214743Y-93169070D02*
X131526019Y-92343283D01*
X131526019Y-92343283D02*
X131876051Y-91534002D01*
X131876051Y-91534002D02*
X132264644Y-90741700D01*
X132264644Y-90741700D02*
X132691604Y-89966849D01*
X132691604Y-89966849D02*
X133156738Y-89209922D01*
X133156738Y-89209922D02*
X133659850Y-88471393D01*
X133659850Y-88471393D02*
X134200747Y-87751735D01*
X134200747Y-87751735D02*
X134779234Y-87051420D01*
X134779234Y-87051420D02*
X134910463Y-86901199D01*
X134910463Y-86901199D02*
X135048982Y-86747999D01*
X135048982Y-86747999D02*
X135212579Y-86573389D01*
X135212579Y-86573389D02*
X135394621Y-86384002D01*
X135394621Y-86384002D02*
X135588473Y-86186472D01*
X135588473Y-86186472D02*
X135787503Y-85987435D01*
X135787503Y-85987435D02*
X135985077Y-85793522D01*
X135985077Y-85793522D02*
X136174562Y-85611369D01*
X136174562Y-85611369D02*
X136349323Y-85447610D01*
X136349323Y-85447610D02*
X136502218Y-85309328D01*
X136502218Y-85309328D02*
X137186832Y-84732435D01*
X137186832Y-84732435D02*
X137891334Y-84192888D01*
X137891334Y-84192888D02*
X138616105Y-83690468D01*
X138616105Y-83690468D02*
X139361524Y-83224959D01*
X139361524Y-83224959D02*
X140127971Y-82796140D01*
X140127971Y-82796140D02*
X140915825Y-82403794D01*
X140915825Y-82403794D02*
X141725467Y-82047702D01*
X141725467Y-82047702D02*
X142557276Y-81727647D01*
X142557276Y-81727647D02*
X142996763Y-81576031D01*
X142996763Y-81576031D02*
X143861124Y-81311321D01*
X143861124Y-81311321D02*
X144743450Y-81084704D01*
X144743450Y-81084704D02*
X145643114Y-80896242D01*
X145643114Y-80896242D02*
X146559492Y-80745995D01*
X146559492Y-80745995D02*
X147491957Y-80634023D01*
X147491957Y-80634023D02*
X148439883Y-80560388D01*
X148439883Y-80560388D02*
X149402644Y-80525151D01*
X149402644Y-80525151D02*
X150379615Y-80528372D01*
X150379615Y-80528372D02*
X151370169Y-80570112D01*
X151370169Y-80570112D02*
X152373680Y-80650431D01*
X152373680Y-80650431D02*
X152451128Y-80658182D01*
X152451128Y-80658182D02*
X153328142Y-80762918D01*
X153328142Y-80762918D02*
X154222518Y-80900299D01*
X154222518Y-80900299D02*
X155126716Y-81068739D01*
X155126716Y-81068739D02*
X156033196Y-81266649D01*
X156033196Y-81266649D02*
X156934415Y-81492443D01*
X156934415Y-81492443D02*
X157822833Y-81744533D01*
X157822833Y-81744533D02*
X158269801Y-81883106D01*
X158269801Y-81883106D02*
X158382592Y-81918826D01*
X158382592Y-81918826D02*
X158481223Y-81949519D01*
X158481223Y-81949519D02*
X158558677Y-81973044D01*
X158558677Y-81973044D02*
X158607938Y-81987261D01*
X158607938Y-81987261D02*
X158622034Y-81990532D01*
X158622034Y-81990532D02*
X158619545Y-81972209D01*
X158619545Y-81972209D02*
X158602560Y-81921557D01*
X158602560Y-81921557D02*
X158573505Y-81845051D01*
X158573505Y-81845051D02*
X158534805Y-81749167D01*
X158534805Y-81749167D02*
X158505118Y-81678324D01*
X158505118Y-81678324D02*
X158308124Y-81171861D01*
X158308124Y-81171861D02*
X158141560Y-80653458D01*
X158141560Y-80653458D02*
X158007531Y-80131076D01*
X158007531Y-80131076D02*
X157908141Y-79612675D01*
X157908141Y-79612675D02*
X157857280Y-79228283D01*
X157857280Y-79228283D02*
X157846793Y-79097210D01*
X157846793Y-79097210D02*
X157838771Y-78931692D01*
X157838771Y-78931692D02*
X157833177Y-78739544D01*
X157833177Y-78739544D02*
X157829972Y-78528580D01*
X157829972Y-78528580D02*
X157829120Y-78306614D01*
X157829120Y-78306614D02*
X157830582Y-78081461D01*
X157830582Y-78081461D02*
X157834321Y-77860934D01*
X157834321Y-77860934D02*
X157840299Y-77652849D01*
X157840299Y-77652849D02*
X157848478Y-77465019D01*
X157848478Y-77465019D02*
X157858820Y-77305260D01*
X157858820Y-77305260D02*
X157866982Y-77217449D01*
X157866982Y-77217449D02*
X157947973Y-76608036D01*
X157947973Y-76608036D02*
X158055580Y-76023808D01*
X158055580Y-76023808D02*
X158192145Y-75455268D01*
X158192145Y-75455268D02*
X158360009Y-74892917D01*
X158360009Y-74892917D02*
X158561516Y-74327257D01*
X158561516Y-74327257D02*
X158610951Y-74200524D01*
X158610951Y-74200524D02*
X158873523Y-73590543D01*
X158873523Y-73590543D02*
X159172310Y-72993099D01*
X159172310Y-72993099D02*
X159505278Y-72410164D01*
X159505278Y-72410164D02*
X159870396Y-71843711D01*
X159870396Y-71843711D02*
X160265632Y-71295711D01*
X160265632Y-71295711D02*
X160688953Y-70768137D01*
X160688953Y-70768137D02*
X161138328Y-70262962D01*
X161138328Y-70262962D02*
X161611725Y-69782157D01*
X161611725Y-69782157D02*
X162107111Y-69327695D01*
X162107111Y-69327695D02*
X162622455Y-68901549D01*
X162622455Y-68901549D02*
X163155724Y-68505690D01*
X163155724Y-68505690D02*
X163704886Y-68142091D01*
X163704886Y-68142091D02*
X164267910Y-67812724D01*
X164267910Y-67812724D02*
X164842763Y-67519561D01*
X164842763Y-67519561D02*
X165427413Y-67264575D01*
X165427413Y-67264575D02*
X165957101Y-67070424D01*
X165957101Y-67070424D02*
X166256674Y-66977479D01*
X166256674Y-66977479D02*
X166576022Y-66891080D01*
X166576022Y-66891080D02*
X166903545Y-66813781D01*
X166903545Y-66813781D02*
X167227641Y-66748136D01*
X167227641Y-66748136D02*
X167536707Y-66696697D01*
X167536707Y-66696697D02*
X167807545Y-66663146D01*
X167807545Y-66663146D02*
X167893776Y-66657609D01*
X167893776Y-66657609D02*
X168017200Y-66653908D01*
X168017200Y-66653908D02*
X168172721Y-66651931D01*
X168172721Y-66651931D02*
X168355242Y-66651564D01*
X168355242Y-66651564D02*
X168559667Y-66652695D01*
X168559667Y-66652695D02*
X168559667Y-66652695D01*
G36*
X116581609Y-118915624D02*
G01*
X116591662Y-118683834D01*
X116605190Y-118476966D01*
X116622155Y-118303405D01*
X116622359Y-118301719D01*
X116728182Y-117603245D01*
X116873723Y-116919327D01*
X117058800Y-116250377D01*
X117283231Y-115596807D01*
X117546832Y-114959028D01*
X117849423Y-114337451D01*
X118190821Y-113732487D01*
X118570844Y-113144549D01*
X118989309Y-112574047D01*
X119359511Y-112121283D01*
X119469937Y-111996724D01*
X119604246Y-111852081D01*
X119755760Y-111694011D01*
X119917804Y-111529167D01*
X120083701Y-111364206D01*
X120246774Y-111205782D01*
X120400347Y-111060552D01*
X120537743Y-110935170D01*
X120629401Y-110855420D01*
X121195530Y-110403470D01*
X121776579Y-109991114D01*
X122372663Y-109618287D01*
X122983894Y-109284923D01*
X123610387Y-108990956D01*
X124252255Y-108736321D01*
X124405295Y-108682198D01*
X124731718Y-108575880D01*
X125069242Y-108478037D01*
X125407755Y-108391135D01*
X125737148Y-108317640D01*
X126047310Y-108260019D01*
X126267962Y-108227857D01*
X126617069Y-108191936D01*
X127000014Y-108166595D01*
X127409642Y-108151832D01*
X127838802Y-108147648D01*
X128280339Y-108154044D01*
X128727102Y-108171019D01*
X129171936Y-108198573D01*
X129517045Y-108227799D01*
X129961803Y-108275325D01*
X130399297Y-108332077D01*
X130822876Y-108396933D01*
X131225888Y-108468773D01*
X131601682Y-108546474D01*
X131943609Y-108628917D01*
X132023935Y-108650388D01*
X132107322Y-108672015D01*
X132174014Y-108687144D01*
X132214503Y-108693724D01*
X132222061Y-108693072D01*
X132216807Y-108671804D01*
X132196680Y-108618334D01*
X132164270Y-108539022D01*
X132122167Y-108440230D01*
X132079756Y-108343580D01*
X131697891Y-107433793D01*
X131357684Y-106516872D01*
X131058945Y-105592089D01*
X130801486Y-104658718D01*
X130585119Y-103716030D01*
X130409655Y-102763299D01*
X130274906Y-101799796D01*
X130203431Y-101104033D01*
X130192611Y-100953830D01*
X130182989Y-100768157D01*
X130174645Y-100553862D01*
X130167661Y-100317793D01*
X130162118Y-100066797D01*
X130158098Y-99807723D01*
X130155682Y-99547420D01*
X130154952Y-99292734D01*
X130155988Y-99050515D01*
X130158872Y-98827610D01*
X130163686Y-98630868D01*
X130170510Y-98467137D01*
X130171826Y-98443917D01*
X130246491Y-97529031D01*
X130361077Y-96627811D01*
X130515389Y-95740733D01*
X130709234Y-94868268D01*
X130942416Y-94010889D01*
X131214743Y-93169070D01*
X131526019Y-92343283D01*
X131876051Y-91534002D01*
X132264644Y-90741700D01*
X132691604Y-89966849D01*
X133156738Y-89209922D01*
X133659850Y-88471393D01*
X134200747Y-87751735D01*
X134779234Y-87051420D01*
X134910463Y-86901199D01*
X135048982Y-86747999D01*
X135212579Y-86573389D01*
X135394621Y-86384002D01*
X135588473Y-86186472D01*
X135787503Y-85987435D01*
X135985077Y-85793522D01*
X136174562Y-85611369D01*
X136349323Y-85447610D01*
X136502218Y-85309328D01*
X137186832Y-84732435D01*
X137891334Y-84192888D01*
X138616105Y-83690468D01*
X139361524Y-83224959D01*
X140127971Y-82796140D01*
X140915825Y-82403794D01*
X141725467Y-82047702D01*
X142557276Y-81727647D01*
X142996763Y-81576031D01*
X143861124Y-81311321D01*
X144743450Y-81084704D01*
X145643114Y-80896242D01*
X146559492Y-80745995D01*
X147491957Y-80634023D01*
X148439883Y-80560388D01*
X149402644Y-80525151D01*
X150379615Y-80528372D01*
X151370169Y-80570112D01*
X152373680Y-80650431D01*
X152451128Y-80658182D01*
X153328142Y-80762918D01*
X154222518Y-80900299D01*
X155126716Y-81068739D01*
X156033196Y-81266649D01*
X156934415Y-81492443D01*
X157822833Y-81744533D01*
X158269801Y-81883106D01*
X158382592Y-81918826D01*
X158481223Y-81949519D01*
X158558677Y-81973044D01*
X158607938Y-81987261D01*
X158622034Y-81990532D01*
X158619545Y-81972209D01*
X158602560Y-81921557D01*
X158573505Y-81845051D01*
X158534805Y-81749167D01*
X158505118Y-81678324D01*
X158308124Y-81171861D01*
X158141560Y-80653458D01*
X158007531Y-80131076D01*
X157908141Y-79612675D01*
X157857280Y-79228283D01*
X157846793Y-79097210D01*
X157838771Y-78931692D01*
X157833177Y-78739544D01*
X157829972Y-78528580D01*
X157829120Y-78306614D01*
X157830582Y-78081461D01*
X157834321Y-77860934D01*
X157840299Y-77652849D01*
X157848478Y-77465019D01*
X157858820Y-77305260D01*
X157866982Y-77217449D01*
X157947973Y-76608036D01*
X158055580Y-76023808D01*
X158192145Y-75455268D01*
X158360009Y-74892917D01*
X158561516Y-74327257D01*
X158610951Y-74200524D01*
X158873523Y-73590543D01*
X159172310Y-72993099D01*
X159505278Y-72410164D01*
X159870396Y-71843711D01*
X160265632Y-71295711D01*
X160688953Y-70768137D01*
X161138328Y-70262962D01*
X161611725Y-69782157D01*
X162107111Y-69327695D01*
X162622455Y-68901549D01*
X163155724Y-68505690D01*
X163704886Y-68142091D01*
X164267910Y-67812724D01*
X164842763Y-67519561D01*
X165427413Y-67264575D01*
X165957101Y-67070424D01*
X166256674Y-66977479D01*
X166576022Y-66891080D01*
X166903545Y-66813781D01*
X167227641Y-66748136D01*
X167536707Y-66696697D01*
X167807545Y-66663146D01*
X167893776Y-66657609D01*
X168017200Y-66653908D01*
X168172721Y-66651931D01*
X168355242Y-66651564D01*
X168559667Y-66652695D01*
X168780901Y-66655211D01*
X169013847Y-66658998D01*
X169253410Y-66663944D01*
X169494494Y-66669935D01*
X169732003Y-66676858D01*
X169960840Y-66684600D01*
X170175909Y-66693049D01*
X170372116Y-66702091D01*
X170544363Y-66711612D01*
X170687555Y-66721501D01*
X170770878Y-66728893D01*
X171347097Y-66806890D01*
X171929802Y-66924174D01*
X172514224Y-67079223D01*
X173095592Y-67270515D01*
X173669135Y-67496529D01*
X174230082Y-67755743D01*
X174605621Y-67952240D01*
X175207209Y-68306722D01*
X175784257Y-68695078D01*
X176335594Y-69115883D01*
X176860046Y-69567710D01*
X177356444Y-70049136D01*
X177823614Y-70558734D01*
X178260386Y-71095078D01*
X178665587Y-71656744D01*
X179038045Y-72242306D01*
X179376588Y-72850339D01*
X179680045Y-73479416D01*
X179947244Y-74128114D01*
X180143101Y-74688033D01*
X180237082Y-74996979D01*
X180315922Y-75296167D01*
X180382480Y-75598578D01*
X180439613Y-75917195D01*
X180490172Y-76264949D01*
X180502998Y-76366938D01*
X180513334Y-76461802D01*
X180521446Y-76555896D01*
X180527603Y-76655577D01*
X180532073Y-76767200D01*
X180535124Y-76897122D01*
X180537025Y-77051697D01*
X180538043Y-77237282D01*
X180538398Y-77407949D01*
X180538160Y-77649057D01*
X180536526Y-77855308D01*
X180533015Y-78034170D01*
X180527142Y-78193110D01*
X180518427Y-78339596D01*
X180506386Y-78481094D01*
X180490537Y-78625073D01*
X180470397Y-78778998D01*
X180445485Y-78950338D01*
X180433740Y-79027605D01*
X180317328Y-79662009D01*
X180164155Y-80292242D01*
X179975771Y-80916245D01*
X179753725Y-81531957D01*
X179499566Y-82137319D01*
X179214844Y-82730272D01*
X178901107Y-83308753D01*
X178559906Y-83870705D01*
X178192789Y-84414068D01*
X177801306Y-84936780D01*
X177387006Y-85436783D01*
X176951438Y-85912016D01*
X176496152Y-86360420D01*
X176022698Y-86779934D01*
X175532623Y-87168499D01*
X175027478Y-87524055D01*
X174508812Y-87844542D01*
X173978174Y-88127900D01*
X173437114Y-88372070D01*
X173391598Y-88390586D01*
X173167692Y-88478112D01*
X172956847Y-88554051D01*
X172750984Y-88620561D01*
X172542019Y-88679802D01*
X172321873Y-88733933D01*
X172082463Y-88785114D01*
X171815708Y-88835505D01*
X171564628Y-88878796D01*
X171107381Y-88952484D01*
X170685112Y-89014986D01*
X170292115Y-89066810D01*
X169922683Y-89108464D01*
X169571108Y-89140455D01*
X169231683Y-89163291D01*
X168898700Y-89177480D01*
X168566453Y-89183528D01*
X168229233Y-89181943D01*
X168167378Y-89180883D01*
X167662733Y-89162079D01*
X167191877Y-89125096D01*
X166750092Y-89069342D01*
X166332661Y-88994228D01*
X165950170Y-88903277D01*
X165889188Y-88889256D01*
X165848859Y-88884398D01*
X165839125Y-88887490D01*
X165845078Y-88911792D01*
X165861339Y-88968671D01*
X165885605Y-89050292D01*
X165915573Y-89148821D01*
X165924130Y-89176616D01*
X166226886Y-90224878D01*
X166494937Y-91294117D01*
X166727454Y-92379924D01*
X166923611Y-93477891D01*
X167082581Y-94583613D01*
X167203537Y-95692680D01*
X167248655Y-96235699D01*
X167258826Y-96399139D01*
X167267937Y-96598367D01*
X167275919Y-96826852D01*
X167282704Y-97078062D01*
X167288224Y-97345463D01*
X167292411Y-97622524D01*
X167295197Y-97902711D01*
X167296515Y-98179492D01*
X167296297Y-98446335D01*
X167294473Y-98696708D01*
X167290978Y-98924077D01*
X167285742Y-99121910D01*
X167280083Y-99257881D01*
X167211534Y-100228777D01*
X167106519Y-101178192D01*
X166965014Y-102106187D01*
X166786995Y-103012824D01*
X166572440Y-103898165D01*
X166321325Y-104762269D01*
X166033625Y-105605198D01*
X165709318Y-106427014D01*
X165348380Y-107227777D01*
X164950788Y-108007549D01*
X164516517Y-108766392D01*
X164045544Y-109504365D01*
X163537846Y-110221531D01*
X162993399Y-110917950D01*
X162617897Y-111361697D01*
X162015593Y-112020120D01*
X161386100Y-112646219D01*
X160730110Y-113239527D01*
X160048313Y-113799575D01*
X159341400Y-114325899D01*
X158610060Y-114818030D01*
X157854984Y-115275502D01*
X157076862Y-115697847D01*
X156276385Y-116084600D01*
X155454243Y-116435293D01*
X154694795Y-116720250D01*
X153834230Y-117000614D01*
X152957634Y-117242485D01*
X152066829Y-117445757D01*
X151163638Y-117610323D01*
X150249882Y-117736074D01*
X149327383Y-117822904D01*
X148397964Y-117870705D01*
X147463446Y-117879371D01*
X146525652Y-117848793D01*
X145586403Y-117778864D01*
X144647521Y-117669477D01*
X143710830Y-117520525D01*
X143106045Y-117402862D01*
X142179184Y-117188605D01*
X141271186Y-116936564D01*
X140381439Y-116646540D01*
X139509331Y-116318338D01*
X138793337Y-116014515D01*
X138683131Y-115966365D01*
X138587559Y-115926681D01*
X138512709Y-115897820D01*
X138464667Y-115882139D01*
X138449378Y-115881337D01*
X138454768Y-115909740D01*
X138469185Y-115968388D01*
X138490004Y-116046830D01*
X138500785Y-116085887D01*
X138606269Y-116479384D01*
X138694716Y-116845496D01*
X138768187Y-117194620D01*
X138828745Y-117537151D01*
X138878452Y-117883486D01*
X138908912Y-118143199D01*
X138923213Y-118311127D01*
X138934319Y-118512928D01*
X138942233Y-118740263D01*
X138946960Y-118984793D01*
X138948504Y-119238179D01*
X138946871Y-119492083D01*
X138942065Y-119738164D01*
X138934090Y-119968085D01*
X138922951Y-120173506D01*
X138908652Y-120346088D01*
X138907704Y-120355116D01*
X138812911Y-121051876D01*
X138678687Y-121734562D01*
X138505659Y-122402041D01*
X138294453Y-123053177D01*
X138045693Y-123686834D01*
X137760006Y-124301878D01*
X137438016Y-124897173D01*
X137080350Y-125471583D01*
X136687632Y-126023975D01*
X136260489Y-126553212D01*
X135799546Y-127058160D01*
X135305427Y-127537682D01*
X134778760Y-127990645D01*
X134639378Y-128101723D01*
X134496612Y-128209760D01*
X134326307Y-128332175D01*
X134137873Y-128462679D01*
X133940719Y-128594987D01*
X133744255Y-128722811D01*
X133557889Y-128839865D01*
X133391030Y-128939861D01*
X133348212Y-128964443D01*
X132806616Y-129252035D01*
X132251874Y-129507240D01*
X131681001Y-129730969D01*
X131091010Y-129924135D01*
X130478916Y-130087648D01*
X129841731Y-130222420D01*
X129176471Y-130329364D01*
X128680962Y-130389375D01*
X128561817Y-130399341D01*
X128407754Y-130408208D01*
X128226175Y-130415873D01*
X128024483Y-130422230D01*
X127810079Y-130427175D01*
X127590368Y-130430603D01*
X127372752Y-130432409D01*
X127164633Y-130432488D01*
X126973415Y-130430736D01*
X126806499Y-130427048D01*
X126671290Y-130421319D01*
X126627795Y-130418437D01*
X125940319Y-130346128D01*
X125267524Y-130235129D01*
X124610502Y-130086029D01*
X123970345Y-129899414D01*
X123348145Y-129675873D01*
X122744994Y-129415994D01*
X122161984Y-129120364D01*
X121600207Y-128789571D01*
X121060754Y-128424202D01*
X120544718Y-128024846D01*
X120053190Y-127592090D01*
X119587263Y-127126522D01*
X119148028Y-126628729D01*
X118824525Y-126218283D01*
X118548151Y-125828535D01*
X118278069Y-125406692D01*
X118020006Y-124962984D01*
X117779688Y-124507645D01*
X117562841Y-124050909D01*
X117409246Y-123689230D01*
X117185097Y-123080576D01*
X116990686Y-122449334D01*
X116828435Y-121805100D01*
X116700767Y-121157469D01*
X116611864Y-120531580D01*
X116596484Y-120360133D01*
X116584856Y-120154909D01*
X116576940Y-119924293D01*
X116572697Y-119676671D01*
X116572087Y-119420429D01*
X116574982Y-119171593D01*
X117273709Y-119171593D01*
X117274697Y-119805889D01*
X117317063Y-120438296D01*
X117346925Y-120699834D01*
X117447907Y-121328597D01*
X117588992Y-121958549D01*
X117768374Y-122584889D01*
X117984249Y-123202814D01*
X118234812Y-123807522D01*
X118518257Y-124394210D01*
X118832781Y-124958077D01*
X119114479Y-125402831D01*
X119481199Y-125912285D01*
X119881031Y-126397243D01*
X120311639Y-126855678D01*
X120770687Y-127285562D01*
X121255841Y-127684868D01*
X121764764Y-128051568D01*
X122295122Y-128383636D01*
X122844579Y-128679043D01*
X122944795Y-128727910D01*
X123530585Y-128987398D01*
X124126049Y-129207642D01*
X124733568Y-129389253D01*
X125355524Y-129532839D01*
X125994301Y-129639008D01*
X126652281Y-129708371D01*
X126828878Y-129720580D01*
X126974053Y-129726998D01*
X127151661Y-129730803D01*
X127351893Y-129732121D01*
X127564938Y-129731079D01*
X127780984Y-129727805D01*
X127990223Y-129722424D01*
X128182842Y-129715064D01*
X128349031Y-129705852D01*
X128426962Y-129699925D01*
X129128848Y-129621565D01*
X129805385Y-129509705D01*
X130457663Y-129363906D01*
X131086772Y-129183728D01*
X131693804Y-128968732D01*
X132279849Y-128718479D01*
X132845998Y-128432531D01*
X133393341Y-128110447D01*
X133922969Y-127751789D01*
X134435972Y-127356117D01*
X134610438Y-127209968D01*
X134735761Y-127098916D01*
X134880898Y-126963894D01*
X135038210Y-126812534D01*
X135200057Y-126652468D01*
X135358801Y-126491328D01*
X135506802Y-126336746D01*
X135636420Y-126196354D01*
X135719627Y-126101866D01*
X136133406Y-125585790D01*
X136512190Y-125046991D01*
X136855383Y-124487424D01*
X137162388Y-123909042D01*
X137432608Y-123313800D01*
X137665445Y-122703651D01*
X137860304Y-122080549D01*
X138016588Y-121446448D01*
X138133698Y-120803303D01*
X138211039Y-120153066D01*
X138248014Y-119497692D01*
X138244026Y-118839135D01*
X138198477Y-118179349D01*
X138183180Y-118037366D01*
X138146664Y-117753525D01*
X138102610Y-117478850D01*
X138048663Y-117201150D01*
X137982467Y-116908232D01*
X137907099Y-116608616D01*
X137851052Y-116396141D01*
X137800974Y-116211971D01*
X137754441Y-116050055D01*
X137709030Y-115904339D01*
X137662319Y-115768774D01*
X137611883Y-115637307D01*
X137555301Y-115503888D01*
X137490150Y-115362464D01*
X137414007Y-115206985D01*
X137324448Y-115031398D01*
X137219051Y-114829652D01*
X137119024Y-114640298D01*
X137060317Y-114528537D01*
X137009615Y-114430260D01*
X136969850Y-114351291D01*
X136943949Y-114297457D01*
X136934842Y-114274583D01*
X136934949Y-114274240D01*
X136954461Y-114282248D01*
X137006647Y-114307984D01*
X137086925Y-114349074D01*
X137190716Y-114403139D01*
X137313436Y-114467805D01*
X137450507Y-114540695D01*
X137510159Y-114572603D01*
X137735380Y-114693093D01*
X137928520Y-114795948D01*
X138094673Y-114883789D01*
X138238933Y-114959234D01*
X138366391Y-115024902D01*
X138482143Y-115083412D01*
X138591281Y-115137384D01*
X138698899Y-115189437D01*
X138810089Y-115242189D01*
X138835842Y-115254292D01*
X139585782Y-115585204D01*
X140364100Y-115887942D01*
X141166574Y-116161338D01*
X141988980Y-116404220D01*
X142827096Y-116615420D01*
X143676697Y-116793768D01*
X144533561Y-116938094D01*
X145254462Y-117032023D01*
X145515570Y-117060700D01*
X145752559Y-117084818D01*
X145972659Y-117104750D01*
X146183099Y-117120867D01*
X146391109Y-117133541D01*
X146603919Y-117143143D01*
X146828758Y-117150047D01*
X147072856Y-117154624D01*
X147343443Y-117157245D01*
X147647748Y-117158284D01*
X147709795Y-117158333D01*
X148105512Y-117156830D01*
X148466571Y-117151631D01*
X148800526Y-117142248D01*
X149114931Y-117128197D01*
X149417338Y-117108992D01*
X149715301Y-117084149D01*
X150016375Y-117053182D01*
X150328111Y-117015606D01*
X150658065Y-116970935D01*
X150683712Y-116967292D01*
X151582668Y-116819005D01*
X152464310Y-116632989D01*
X153327921Y-116409649D01*
X154172784Y-116149387D01*
X154998182Y-115852608D01*
X155803399Y-115519716D01*
X156587718Y-115151113D01*
X157350421Y-114747203D01*
X158090792Y-114308391D01*
X158808114Y-113835080D01*
X159501669Y-113327673D01*
X160170742Y-112786574D01*
X160814615Y-112212187D01*
X161432572Y-111604916D01*
X162023895Y-110965163D01*
X162587867Y-110293334D01*
X162629828Y-110240675D01*
X163146838Y-109556411D01*
X163627159Y-108852102D01*
X164071263Y-108126869D01*
X164479620Y-107379834D01*
X164852701Y-106610119D01*
X165190975Y-105816846D01*
X165494914Y-104999136D01*
X165591317Y-104712949D01*
X165800167Y-104034232D01*
X165983784Y-103346341D01*
X166143016Y-102644713D01*
X166278708Y-101924785D01*
X166391706Y-101181994D01*
X166482857Y-100411778D01*
X166553005Y-99609574D01*
X166562593Y-99474199D01*
X166569730Y-99341717D01*
X166575732Y-99173067D01*
X166580601Y-98974399D01*
X166584337Y-98751863D01*
X166586941Y-98511610D01*
X166588413Y-98259789D01*
X166588753Y-98002552D01*
X166587963Y-97746047D01*
X166586042Y-97496426D01*
X166582992Y-97259838D01*
X166578813Y-97042434D01*
X166573505Y-96850363D01*
X166567068Y-96689776D01*
X166562341Y-96606116D01*
X166506244Y-95862207D01*
X166437432Y-95148874D01*
X166354558Y-94455914D01*
X166256278Y-93773125D01*
X166141245Y-93090303D01*
X166008113Y-92397246D01*
X166005288Y-92383366D01*
X165901793Y-91891159D01*
X165795493Y-91418482D01*
X165684252Y-90957436D01*
X165565938Y-90500122D01*
X165438415Y-90038645D01*
X165299550Y-89565104D01*
X165147209Y-89071602D01*
X164979257Y-88550241D01*
X164925380Y-88386833D01*
X164873963Y-88230373D01*
X164827671Y-88087060D01*
X164788011Y-87961746D01*
X164756485Y-87859287D01*
X164734599Y-87784536D01*
X164723856Y-87742347D01*
X164723265Y-87734756D01*
X164745060Y-87739141D01*
X164800881Y-87756961D01*
X164885302Y-87786297D01*
X164992900Y-87825228D01*
X165118251Y-87871833D01*
X165228177Y-87913546D01*
X165570060Y-88039175D01*
X165888064Y-88144133D01*
X166193192Y-88231016D01*
X166496451Y-88302416D01*
X166808843Y-88360928D01*
X167141374Y-88409146D01*
X167500628Y-88449230D01*
X167640377Y-88459662D01*
X167814487Y-88467408D01*
X168015075Y-88472510D01*
X168234258Y-88475010D01*
X168464153Y-88474952D01*
X168696875Y-88472377D01*
X168924541Y-88467329D01*
X169139268Y-88459849D01*
X169333172Y-88449981D01*
X169490295Y-88438487D01*
X169743770Y-88414116D01*
X170013858Y-88384497D01*
X170294907Y-88350489D01*
X170581270Y-88312950D01*
X170867297Y-88272740D01*
X171147339Y-88230717D01*
X171415745Y-88187740D01*
X171666867Y-88144669D01*
X171895056Y-88102362D01*
X172094662Y-88061677D01*
X172260035Y-88023475D01*
X172316045Y-88008888D01*
X172822843Y-87849956D01*
X173325608Y-87650505D01*
X173822607Y-87412287D01*
X174312106Y-87137055D01*
X174792371Y-86826560D01*
X175261670Y-86482555D01*
X175718269Y-86106792D01*
X176160435Y-85701023D01*
X176586434Y-85267000D01*
X176994533Y-84806475D01*
X177382998Y-84321200D01*
X177750097Y-83812928D01*
X178094095Y-83283409D01*
X178413260Y-82734398D01*
X178705858Y-82167645D01*
X178970156Y-81584903D01*
X179170499Y-81080366D01*
X179376993Y-80471330D01*
X179546576Y-79856402D01*
X179678866Y-79238624D01*
X179773477Y-78621040D01*
X179830028Y-78006695D01*
X179848134Y-77398632D01*
X179827411Y-76799895D01*
X179775813Y-76275875D01*
X179694828Y-75788533D01*
X179577007Y-75286468D01*
X179423578Y-74773481D01*
X179235772Y-74253371D01*
X179014818Y-73729940D01*
X178820743Y-73322783D01*
X178713405Y-73111832D01*
X178613771Y-72924172D01*
X178515560Y-72749015D01*
X178412490Y-72575571D01*
X178298279Y-72393052D01*
X178166645Y-72190670D01*
X178124410Y-72126866D01*
X177749521Y-71597202D01*
X177345670Y-71092564D01*
X176914891Y-70614268D01*
X176459214Y-70163630D01*
X175980671Y-69741966D01*
X175481295Y-69350592D01*
X174963116Y-68990823D01*
X174428167Y-68663977D01*
X173878480Y-68371368D01*
X173316085Y-68114313D01*
X172743015Y-67894128D01*
X172161301Y-67712129D01*
X171572975Y-67569631D01*
X170980069Y-67467950D01*
X170919045Y-67459877D01*
X170819882Y-67449207D01*
X170688540Y-67438154D01*
X170535156Y-67427399D01*
X170369870Y-67417626D01*
X170202823Y-67409518D01*
X170125295Y-67406428D01*
X169942572Y-67399529D01*
X169732762Y-67391285D01*
X169511067Y-67382316D01*
X169292687Y-67373238D01*
X169092823Y-67364669D01*
X169035212Y-67362134D01*
X168750036Y-67351478D01*
X168499014Y-67346772D01*
X168274340Y-67348341D01*
X168068207Y-67356513D01*
X167872812Y-67371615D01*
X167680348Y-67393973D01*
X167483010Y-67423915D01*
X167457647Y-67428201D01*
X167174269Y-67479785D01*
X166918978Y-67533714D01*
X166677546Y-67593516D01*
X166435743Y-67662718D01*
X166179340Y-67744848D01*
X166176122Y-67745925D01*
X165604587Y-67958925D01*
X165040830Y-68211833D01*
X164486954Y-68502604D01*
X163945060Y-68829195D01*
X163417248Y-69189562D01*
X162905620Y-69581661D01*
X162412278Y-70003449D01*
X161939322Y-70452882D01*
X161488854Y-70927917D01*
X161062975Y-71426509D01*
X160663787Y-71946614D01*
X160293390Y-72486191D01*
X159953886Y-73043193D01*
X159647376Y-73615579D01*
X159375962Y-74201304D01*
X159266985Y-74465783D01*
X159043040Y-75085386D01*
X158858026Y-75714762D01*
X158712810Y-76350260D01*
X158608260Y-76988230D01*
X158558377Y-77450283D01*
X158550845Y-77569112D01*
X158545003Y-77721027D01*
X158540853Y-77897507D01*
X158538397Y-78090030D01*
X158537637Y-78290076D01*
X158538574Y-78489123D01*
X158541210Y-78678650D01*
X158545547Y-78850137D01*
X158551587Y-78995062D01*
X158558035Y-79090699D01*
X158604041Y-79470487D01*
X158676639Y-79870110D01*
X158773088Y-80278881D01*
X158890648Y-80686114D01*
X159026578Y-81081121D01*
X159143623Y-81373939D01*
X159260489Y-81632793D01*
X159396747Y-81906807D01*
X159554772Y-82200445D01*
X159736941Y-82518172D01*
X159877197Y-82752533D01*
X159959368Y-82888372D01*
X160033551Y-83012131D01*
X160097105Y-83119313D01*
X160147389Y-83205424D01*
X160181762Y-83265966D01*
X160197585Y-83296444D01*
X160198262Y-83299167D01*
X160177538Y-83293736D01*
X160121302Y-83275331D01*
X160033830Y-83245445D01*
X159919394Y-83205571D01*
X159782269Y-83157202D01*
X159626730Y-83101830D01*
X159457049Y-83040947D01*
X159401021Y-83020747D01*
X159052212Y-82895911D01*
X158734514Y-82784628D01*
X158439917Y-82684272D01*
X158160410Y-82592218D01*
X157887985Y-82505839D01*
X157614632Y-82422512D01*
X157332341Y-82339611D01*
X157255962Y-82317650D01*
X156324314Y-82066150D01*
X155405066Y-81849389D01*
X154489656Y-81665845D01*
X153569521Y-81513999D01*
X152636099Y-81392328D01*
X151680828Y-81299311D01*
X151403378Y-81277836D01*
X151242240Y-81268114D01*
X151047176Y-81259748D01*
X150824426Y-81252760D01*
X150580233Y-81247177D01*
X150320836Y-81243023D01*
X150052478Y-81240322D01*
X149781397Y-81239098D01*
X149513836Y-81239377D01*
X149256035Y-81241182D01*
X149014235Y-81244539D01*
X148794677Y-81249471D01*
X148603601Y-81256003D01*
X148447249Y-81264160D01*
X148418878Y-81266120D01*
X148016532Y-81297469D01*
X147646745Y-81330634D01*
X147299752Y-81366562D01*
X146965787Y-81406200D01*
X146937212Y-81409832D01*
X146033249Y-81545412D01*
X145147653Y-81718728D01*
X144280860Y-81929549D01*
X143433307Y-82177645D01*
X142605432Y-82462783D01*
X141797670Y-82784732D01*
X141010460Y-83143262D01*
X140244237Y-83538141D01*
X139499440Y-83969138D01*
X138776504Y-84436021D01*
X138075866Y-84938559D01*
X137397965Y-85476522D01*
X136743236Y-86049677D01*
X136112116Y-86657795D01*
X135505043Y-87300642D01*
X135241112Y-87599699D01*
X134694700Y-88264155D01*
X134180669Y-88955281D01*
X133699967Y-89671393D01*
X133253541Y-90410807D01*
X132842338Y-91171839D01*
X132467304Y-91952805D01*
X132129388Y-92752021D01*
X131829535Y-93567803D01*
X131748960Y-93809920D01*
X131497599Y-94651434D01*
X131287454Y-95501660D01*
X131118491Y-96359815D01*
X130990673Y-97225115D01*
X130903961Y-98096775D01*
X130858321Y-98974013D01*
X130853715Y-99856044D01*
X130890106Y-100742085D01*
X130967458Y-101631350D01*
X131085734Y-102523058D01*
X131244897Y-103416422D01*
X131444910Y-104310661D01*
X131685738Y-105204990D01*
X131967343Y-106098624D01*
X132289688Y-106990781D01*
X132376739Y-107213758D01*
X132476404Y-107461924D01*
X132574739Y-107699404D01*
X132674688Y-107932682D01*
X132779194Y-108168241D01*
X132891199Y-108412563D01*
X133013647Y-108672133D01*
X133149479Y-108953435D01*
X133301640Y-109262950D01*
X133363072Y-109386735D01*
X133450553Y-109563106D01*
X133531374Y-109726992D01*
X133603745Y-109874692D01*
X133665875Y-110002507D01*
X133715972Y-110106735D01*
X133752246Y-110183677D01*
X133772906Y-110229634D01*
X133776828Y-110241557D01*
X133484240Y-110077143D01*
X133224671Y-109933112D01*
X132998644Y-109809742D01*
X132806680Y-109707311D01*
X132649303Y-109626100D01*
X132527033Y-109566386D01*
X132442176Y-109529150D01*
X132187686Y-109438146D01*
X131894810Y-109350753D01*
X131567398Y-109267678D01*
X131209296Y-109189631D01*
X130824355Y-109117318D01*
X130416422Y-109051449D01*
X129989345Y-108992731D01*
X129546974Y-108941874D01*
X129093156Y-108899585D01*
X128966712Y-108889540D01*
X128835926Y-108881615D01*
X128673459Y-108875087D01*
X128485843Y-108869954D01*
X128279608Y-108866219D01*
X128061289Y-108863880D01*
X127837415Y-108862939D01*
X127614521Y-108863396D01*
X127399137Y-108865251D01*
X127197796Y-108868504D01*
X127017030Y-108873157D01*
X126863371Y-108879209D01*
X126743351Y-108886661D01*
X126712462Y-108889406D01*
X126138039Y-108965482D01*
X125565370Y-109080752D01*
X124992641Y-109235753D01*
X124418039Y-109431025D01*
X123839749Y-109667108D01*
X123389295Y-109877790D01*
X122785913Y-110198776D01*
X122206135Y-110554691D01*
X121650891Y-110944713D01*
X121121113Y-111368021D01*
X120617733Y-111823791D01*
X120141683Y-112311203D01*
X119693895Y-112829434D01*
X119275301Y-113377662D01*
X119046442Y-113708783D01*
X118696955Y-114269846D01*
X118384459Y-114847067D01*
X118109443Y-115438440D01*
X117872394Y-116041961D01*
X117673799Y-116655623D01*
X117514146Y-117277423D01*
X117393921Y-117905355D01*
X117313613Y-118537413D01*
X117273709Y-119171593D01*
X116574982Y-119171593D01*
X116575071Y-119163951D01*
X116581609Y-118915624D01*
G37*
X116581609Y-118915624D02*
X116591662Y-118683834D01*
X116605190Y-118476966D01*
X116622155Y-118303405D01*
X116622359Y-118301719D01*
X116728182Y-117603245D01*
X116873723Y-116919327D01*
X117058800Y-116250377D01*
X117283231Y-115596807D01*
X117546832Y-114959028D01*
X117849423Y-114337451D01*
X118190821Y-113732487D01*
X118570844Y-113144549D01*
X118989309Y-112574047D01*
X119359511Y-112121283D01*
X119469937Y-111996724D01*
X119604246Y-111852081D01*
X119755760Y-111694011D01*
X119917804Y-111529167D01*
X120083701Y-111364206D01*
X120246774Y-111205782D01*
X120400347Y-111060552D01*
X120537743Y-110935170D01*
X120629401Y-110855420D01*
X121195530Y-110403470D01*
X121776579Y-109991114D01*
X122372663Y-109618287D01*
X122983894Y-109284923D01*
X123610387Y-108990956D01*
X124252255Y-108736321D01*
X124405295Y-108682198D01*
X124731718Y-108575880D01*
X125069242Y-108478037D01*
X125407755Y-108391135D01*
X125737148Y-108317640D01*
X126047310Y-108260019D01*
X126267962Y-108227857D01*
X126617069Y-108191936D01*
X127000014Y-108166595D01*
X127409642Y-108151832D01*
X127838802Y-108147648D01*
X128280339Y-108154044D01*
X128727102Y-108171019D01*
X129171936Y-108198573D01*
X129517045Y-108227799D01*
X129961803Y-108275325D01*
X130399297Y-108332077D01*
X130822876Y-108396933D01*
X131225888Y-108468773D01*
X131601682Y-108546474D01*
X131943609Y-108628917D01*
X132023935Y-108650388D01*
X132107322Y-108672015D01*
X132174014Y-108687144D01*
X132214503Y-108693724D01*
X132222061Y-108693072D01*
X132216807Y-108671804D01*
X132196680Y-108618334D01*
X132164270Y-108539022D01*
X132122167Y-108440230D01*
X132079756Y-108343580D01*
X131697891Y-107433793D01*
X131357684Y-106516872D01*
X131058945Y-105592089D01*
X130801486Y-104658718D01*
X130585119Y-103716030D01*
X130409655Y-102763299D01*
X130274906Y-101799796D01*
X130203431Y-101104033D01*
X130192611Y-100953830D01*
X130182989Y-100768157D01*
X130174645Y-100553862D01*
X130167661Y-100317793D01*
X130162118Y-100066797D01*
X130158098Y-99807723D01*
X130155682Y-99547420D01*
X130154952Y-99292734D01*
X130155988Y-99050515D01*
X130158872Y-98827610D01*
X130163686Y-98630868D01*
X130170510Y-98467137D01*
X130171826Y-98443917D01*
X130246491Y-97529031D01*
X130361077Y-96627811D01*
X130515389Y-95740733D01*
X130709234Y-94868268D01*
X130942416Y-94010889D01*
X131214743Y-93169070D01*
X131526019Y-92343283D01*
X131876051Y-91534002D01*
X132264644Y-90741700D01*
X132691604Y-89966849D01*
X133156738Y-89209922D01*
X133659850Y-88471393D01*
X134200747Y-87751735D01*
X134779234Y-87051420D01*
X134910463Y-86901199D01*
X135048982Y-86747999D01*
X135212579Y-86573389D01*
X135394621Y-86384002D01*
X135588473Y-86186472D01*
X135787503Y-85987435D01*
X135985077Y-85793522D01*
X136174562Y-85611369D01*
X136349323Y-85447610D01*
X136502218Y-85309328D01*
X137186832Y-84732435D01*
X137891334Y-84192888D01*
X138616105Y-83690468D01*
X139361524Y-83224959D01*
X140127971Y-82796140D01*
X140915825Y-82403794D01*
X141725467Y-82047702D01*
X142557276Y-81727647D01*
X142996763Y-81576031D01*
X143861124Y-81311321D01*
X144743450Y-81084704D01*
X145643114Y-80896242D01*
X146559492Y-80745995D01*
X147491957Y-80634023D01*
X148439883Y-80560388D01*
X149402644Y-80525151D01*
X150379615Y-80528372D01*
X151370169Y-80570112D01*
X152373680Y-80650431D01*
X152451128Y-80658182D01*
X153328142Y-80762918D01*
X154222518Y-80900299D01*
X155126716Y-81068739D01*
X156033196Y-81266649D01*
X156934415Y-81492443D01*
X157822833Y-81744533D01*
X158269801Y-81883106D01*
X158382592Y-81918826D01*
X158481223Y-81949519D01*
X158558677Y-81973044D01*
X158607938Y-81987261D01*
X158622034Y-81990532D01*
X158619545Y-81972209D01*
X158602560Y-81921557D01*
X158573505Y-81845051D01*
X158534805Y-81749167D01*
X158505118Y-81678324D01*
X158308124Y-81171861D01*
X158141560Y-80653458D01*
X158007531Y-80131076D01*
X157908141Y-79612675D01*
X157857280Y-79228283D01*
X157846793Y-79097210D01*
X157838771Y-78931692D01*
X157833177Y-78739544D01*
X157829972Y-78528580D01*
X157829120Y-78306614D01*
X157830582Y-78081461D01*
X157834321Y-77860934D01*
X157840299Y-77652849D01*
X157848478Y-77465019D01*
X157858820Y-77305260D01*
X157866982Y-77217449D01*
X157947973Y-76608036D01*
X158055580Y-76023808D01*
X158192145Y-75455268D01*
X158360009Y-74892917D01*
X158561516Y-74327257D01*
X158610951Y-74200524D01*
X158873523Y-73590543D01*
X159172310Y-72993099D01*
X159505278Y-72410164D01*
X159870396Y-71843711D01*
X160265632Y-71295711D01*
X160688953Y-70768137D01*
X161138328Y-70262962D01*
X161611725Y-69782157D01*
X162107111Y-69327695D01*
X162622455Y-68901549D01*
X163155724Y-68505690D01*
X163704886Y-68142091D01*
X164267910Y-67812724D01*
X164842763Y-67519561D01*
X165427413Y-67264575D01*
X165957101Y-67070424D01*
X166256674Y-66977479D01*
X166576022Y-66891080D01*
X166903545Y-66813781D01*
X167227641Y-66748136D01*
X167536707Y-66696697D01*
X167807545Y-66663146D01*
X167893776Y-66657609D01*
X168017200Y-66653908D01*
X168172721Y-66651931D01*
X168355242Y-66651564D01*
X168559667Y-66652695D01*
X168780901Y-66655211D01*
X169013847Y-66658998D01*
X169253410Y-66663944D01*
X169494494Y-66669935D01*
X169732003Y-66676858D01*
X169960840Y-66684600D01*
X170175909Y-66693049D01*
X170372116Y-66702091D01*
X170544363Y-66711612D01*
X170687555Y-66721501D01*
X170770878Y-66728893D01*
X171347097Y-66806890D01*
X171929802Y-66924174D01*
X172514224Y-67079223D01*
X173095592Y-67270515D01*
X173669135Y-67496529D01*
X174230082Y-67755743D01*
X174605621Y-67952240D01*
X175207209Y-68306722D01*
X175784257Y-68695078D01*
X176335594Y-69115883D01*
X176860046Y-69567710D01*
X177356444Y-70049136D01*
X177823614Y-70558734D01*
X178260386Y-71095078D01*
X178665587Y-71656744D01*
X179038045Y-72242306D01*
X179376588Y-72850339D01*
X179680045Y-73479416D01*
X179947244Y-74128114D01*
X180143101Y-74688033D01*
X180237082Y-74996979D01*
X180315922Y-75296167D01*
X180382480Y-75598578D01*
X180439613Y-75917195D01*
X180490172Y-76264949D01*
X180502998Y-76366938D01*
X180513334Y-76461802D01*
X180521446Y-76555896D01*
X180527603Y-76655577D01*
X180532073Y-76767200D01*
X180535124Y-76897122D01*
X180537025Y-77051697D01*
X180538043Y-77237282D01*
X180538398Y-77407949D01*
X180538160Y-77649057D01*
X180536526Y-77855308D01*
X180533015Y-78034170D01*
X180527142Y-78193110D01*
X180518427Y-78339596D01*
X180506386Y-78481094D01*
X180490537Y-78625073D01*
X180470397Y-78778998D01*
X180445485Y-78950338D01*
X180433740Y-79027605D01*
X180317328Y-79662009D01*
X180164155Y-80292242D01*
X179975771Y-80916245D01*
X179753725Y-81531957D01*
X179499566Y-82137319D01*
X179214844Y-82730272D01*
X178901107Y-83308753D01*
X178559906Y-83870705D01*
X178192789Y-84414068D01*
X177801306Y-84936780D01*
X177387006Y-85436783D01*
X176951438Y-85912016D01*
X176496152Y-86360420D01*
X176022698Y-86779934D01*
X175532623Y-87168499D01*
X175027478Y-87524055D01*
X174508812Y-87844542D01*
X173978174Y-88127900D01*
X173437114Y-88372070D01*
X173391598Y-88390586D01*
X173167692Y-88478112D01*
X172956847Y-88554051D01*
X172750984Y-88620561D01*
X172542019Y-88679802D01*
X172321873Y-88733933D01*
X172082463Y-88785114D01*
X171815708Y-88835505D01*
X171564628Y-88878796D01*
X171107381Y-88952484D01*
X170685112Y-89014986D01*
X170292115Y-89066810D01*
X169922683Y-89108464D01*
X169571108Y-89140455D01*
X169231683Y-89163291D01*
X168898700Y-89177480D01*
X168566453Y-89183528D01*
X168229233Y-89181943D01*
X168167378Y-89180883D01*
X167662733Y-89162079D01*
X167191877Y-89125096D01*
X166750092Y-89069342D01*
X166332661Y-88994228D01*
X165950170Y-88903277D01*
X165889188Y-88889256D01*
X165848859Y-88884398D01*
X165839125Y-88887490D01*
X165845078Y-88911792D01*
X165861339Y-88968671D01*
X165885605Y-89050292D01*
X165915573Y-89148821D01*
X165924130Y-89176616D01*
X166226886Y-90224878D01*
X166494937Y-91294117D01*
X166727454Y-92379924D01*
X166923611Y-93477891D01*
X167082581Y-94583613D01*
X167203537Y-95692680D01*
X167248655Y-96235699D01*
X167258826Y-96399139D01*
X167267937Y-96598367D01*
X167275919Y-96826852D01*
X167282704Y-97078062D01*
X167288224Y-97345463D01*
X167292411Y-97622524D01*
X167295197Y-97902711D01*
X167296515Y-98179492D01*
X167296297Y-98446335D01*
X167294473Y-98696708D01*
X167290978Y-98924077D01*
X167285742Y-99121910D01*
X167280083Y-99257881D01*
X167211534Y-100228777D01*
X167106519Y-101178192D01*
X166965014Y-102106187D01*
X166786995Y-103012824D01*
X166572440Y-103898165D01*
X166321325Y-104762269D01*
X166033625Y-105605198D01*
X165709318Y-106427014D01*
X165348380Y-107227777D01*
X164950788Y-108007549D01*
X164516517Y-108766392D01*
X164045544Y-109504365D01*
X163537846Y-110221531D01*
X162993399Y-110917950D01*
X162617897Y-111361697D01*
X162015593Y-112020120D01*
X161386100Y-112646219D01*
X160730110Y-113239527D01*
X160048313Y-113799575D01*
X159341400Y-114325899D01*
X158610060Y-114818030D01*
X157854984Y-115275502D01*
X157076862Y-115697847D01*
X156276385Y-116084600D01*
X155454243Y-116435293D01*
X154694795Y-116720250D01*
X153834230Y-117000614D01*
X152957634Y-117242485D01*
X152066829Y-117445757D01*
X151163638Y-117610323D01*
X150249882Y-117736074D01*
X149327383Y-117822904D01*
X148397964Y-117870705D01*
X147463446Y-117879371D01*
X146525652Y-117848793D01*
X145586403Y-117778864D01*
X144647521Y-117669477D01*
X143710830Y-117520525D01*
X143106045Y-117402862D01*
X142179184Y-117188605D01*
X141271186Y-116936564D01*
X140381439Y-116646540D01*
X139509331Y-116318338D01*
X138793337Y-116014515D01*
X138683131Y-115966365D01*
X138587559Y-115926681D01*
X138512709Y-115897820D01*
X138464667Y-115882139D01*
X138449378Y-115881337D01*
X138454768Y-115909740D01*
X138469185Y-115968388D01*
X138490004Y-116046830D01*
X138500785Y-116085887D01*
X138606269Y-116479384D01*
X138694716Y-116845496D01*
X138768187Y-117194620D01*
X138828745Y-117537151D01*
X138878452Y-117883486D01*
X138908912Y-118143199D01*
X138923213Y-118311127D01*
X138934319Y-118512928D01*
X138942233Y-118740263D01*
X138946960Y-118984793D01*
X138948504Y-119238179D01*
X138946871Y-119492083D01*
X138942065Y-119738164D01*
X138934090Y-119968085D01*
X138922951Y-120173506D01*
X138908652Y-120346088D01*
X138907704Y-120355116D01*
X138812911Y-121051876D01*
X138678687Y-121734562D01*
X138505659Y-122402041D01*
X138294453Y-123053177D01*
X138045693Y-123686834D01*
X137760006Y-124301878D01*
X137438016Y-124897173D01*
X137080350Y-125471583D01*
X136687632Y-126023975D01*
X136260489Y-126553212D01*
X135799546Y-127058160D01*
X135305427Y-127537682D01*
X134778760Y-127990645D01*
X134639378Y-128101723D01*
X134496612Y-128209760D01*
X134326307Y-128332175D01*
X134137873Y-128462679D01*
X133940719Y-128594987D01*
X133744255Y-128722811D01*
X133557889Y-128839865D01*
X133391030Y-128939861D01*
X133348212Y-128964443D01*
X132806616Y-129252035D01*
X132251874Y-129507240D01*
X131681001Y-129730969D01*
X131091010Y-129924135D01*
X130478916Y-130087648D01*
X129841731Y-130222420D01*
X129176471Y-130329364D01*
X128680962Y-130389375D01*
X128561817Y-130399341D01*
X128407754Y-130408208D01*
X128226175Y-130415873D01*
X128024483Y-130422230D01*
X127810079Y-130427175D01*
X127590368Y-130430603D01*
X127372752Y-130432409D01*
X127164633Y-130432488D01*
X126973415Y-130430736D01*
X126806499Y-130427048D01*
X126671290Y-130421319D01*
X126627795Y-130418437D01*
X125940319Y-130346128D01*
X125267524Y-130235129D01*
X124610502Y-130086029D01*
X123970345Y-129899414D01*
X123348145Y-129675873D01*
X122744994Y-129415994D01*
X122161984Y-129120364D01*
X121600207Y-128789571D01*
X121060754Y-128424202D01*
X120544718Y-128024846D01*
X120053190Y-127592090D01*
X119587263Y-127126522D01*
X119148028Y-126628729D01*
X118824525Y-126218283D01*
X118548151Y-125828535D01*
X118278069Y-125406692D01*
X118020006Y-124962984D01*
X117779688Y-124507645D01*
X117562841Y-124050909D01*
X117409246Y-123689230D01*
X117185097Y-123080576D01*
X116990686Y-122449334D01*
X116828435Y-121805100D01*
X116700767Y-121157469D01*
X116611864Y-120531580D01*
X116596484Y-120360133D01*
X116584856Y-120154909D01*
X116576940Y-119924293D01*
X116572697Y-119676671D01*
X116572087Y-119420429D01*
X116574982Y-119171593D01*
X117273709Y-119171593D01*
X117274697Y-119805889D01*
X117317063Y-120438296D01*
X117346925Y-120699834D01*
X117447907Y-121328597D01*
X117588992Y-121958549D01*
X117768374Y-122584889D01*
X117984249Y-123202814D01*
X118234812Y-123807522D01*
X118518257Y-124394210D01*
X118832781Y-124958077D01*
X119114479Y-125402831D01*
X119481199Y-125912285D01*
X119881031Y-126397243D01*
X120311639Y-126855678D01*
X120770687Y-127285562D01*
X121255841Y-127684868D01*
X121764764Y-128051568D01*
X122295122Y-128383636D01*
X122844579Y-128679043D01*
X122944795Y-128727910D01*
X123530585Y-128987398D01*
X124126049Y-129207642D01*
X124733568Y-129389253D01*
X125355524Y-129532839D01*
X125994301Y-129639008D01*
X126652281Y-129708371D01*
X126828878Y-129720580D01*
X126974053Y-129726998D01*
X127151661Y-129730803D01*
X127351893Y-129732121D01*
X127564938Y-129731079D01*
X127780984Y-129727805D01*
X127990223Y-129722424D01*
X128182842Y-129715064D01*
X128349031Y-129705852D01*
X128426962Y-129699925D01*
X129128848Y-129621565D01*
X129805385Y-129509705D01*
X130457663Y-129363906D01*
X131086772Y-129183728D01*
X131693804Y-128968732D01*
X132279849Y-128718479D01*
X132845998Y-128432531D01*
X133393341Y-128110447D01*
X133922969Y-127751789D01*
X134435972Y-127356117D01*
X134610438Y-127209968D01*
X134735761Y-127098916D01*
X134880898Y-126963894D01*
X135038210Y-126812534D01*
X135200057Y-126652468D01*
X135358801Y-126491328D01*
X135506802Y-126336746D01*
X135636420Y-126196354D01*
X135719627Y-126101866D01*
X136133406Y-125585790D01*
X136512190Y-125046991D01*
X136855383Y-124487424D01*
X137162388Y-123909042D01*
X137432608Y-123313800D01*
X137665445Y-122703651D01*
X137860304Y-122080549D01*
X138016588Y-121446448D01*
X138133698Y-120803303D01*
X138211039Y-120153066D01*
X138248014Y-119497692D01*
X138244026Y-118839135D01*
X138198477Y-118179349D01*
X138183180Y-118037366D01*
X138146664Y-117753525D01*
X138102610Y-117478850D01*
X138048663Y-117201150D01*
X137982467Y-116908232D01*
X137907099Y-116608616D01*
X137851052Y-116396141D01*
X137800974Y-116211971D01*
X137754441Y-116050055D01*
X137709030Y-115904339D01*
X137662319Y-115768774D01*
X137611883Y-115637307D01*
X137555301Y-115503888D01*
X137490150Y-115362464D01*
X137414007Y-115206985D01*
X137324448Y-115031398D01*
X137219051Y-114829652D01*
X137119024Y-114640298D01*
X137060317Y-114528537D01*
X137009615Y-114430260D01*
X136969850Y-114351291D01*
X136943949Y-114297457D01*
X136934842Y-114274583D01*
X136934949Y-114274240D01*
X136954461Y-114282248D01*
X137006647Y-114307984D01*
X137086925Y-114349074D01*
X137190716Y-114403139D01*
X137313436Y-114467805D01*
X137450507Y-114540695D01*
X137510159Y-114572603D01*
X137735380Y-114693093D01*
X137928520Y-114795948D01*
X138094673Y-114883789D01*
X138238933Y-114959234D01*
X138366391Y-115024902D01*
X138482143Y-115083412D01*
X138591281Y-115137384D01*
X138698899Y-115189437D01*
X138810089Y-115242189D01*
X138835842Y-115254292D01*
X139585782Y-115585204D01*
X140364100Y-115887942D01*
X141166574Y-116161338D01*
X141988980Y-116404220D01*
X142827096Y-116615420D01*
X143676697Y-116793768D01*
X144533561Y-116938094D01*
X145254462Y-117032023D01*
X145515570Y-117060700D01*
X145752559Y-117084818D01*
X145972659Y-117104750D01*
X146183099Y-117120867D01*
X146391109Y-117133541D01*
X146603919Y-117143143D01*
X146828758Y-117150047D01*
X147072856Y-117154624D01*
X147343443Y-117157245D01*
X147647748Y-117158284D01*
X147709795Y-117158333D01*
X148105512Y-117156830D01*
X148466571Y-117151631D01*
X148800526Y-117142248D01*
X149114931Y-117128197D01*
X149417338Y-117108992D01*
X149715301Y-117084149D01*
X150016375Y-117053182D01*
X150328111Y-117015606D01*
X150658065Y-116970935D01*
X150683712Y-116967292D01*
X151582668Y-116819005D01*
X152464310Y-116632989D01*
X153327921Y-116409649D01*
X154172784Y-116149387D01*
X154998182Y-115852608D01*
X155803399Y-115519716D01*
X156587718Y-115151113D01*
X157350421Y-114747203D01*
X158090792Y-114308391D01*
X158808114Y-113835080D01*
X159501669Y-113327673D01*
X160170742Y-112786574D01*
X160814615Y-112212187D01*
X161432572Y-111604916D01*
X162023895Y-110965163D01*
X162587867Y-110293334D01*
X162629828Y-110240675D01*
X163146838Y-109556411D01*
X163627159Y-108852102D01*
X164071263Y-108126869D01*
X164479620Y-107379834D01*
X164852701Y-106610119D01*
X165190975Y-105816846D01*
X165494914Y-104999136D01*
X165591317Y-104712949D01*
X165800167Y-104034232D01*
X165983784Y-103346341D01*
X166143016Y-102644713D01*
X166278708Y-101924785D01*
X166391706Y-101181994D01*
X166482857Y-100411778D01*
X166553005Y-99609574D01*
X166562593Y-99474199D01*
X166569730Y-99341717D01*
X166575732Y-99173067D01*
X166580601Y-98974399D01*
X166584337Y-98751863D01*
X166586941Y-98511610D01*
X166588413Y-98259789D01*
X166588753Y-98002552D01*
X166587963Y-97746047D01*
X166586042Y-97496426D01*
X166582992Y-97259838D01*
X166578813Y-97042434D01*
X166573505Y-96850363D01*
X166567068Y-96689776D01*
X166562341Y-96606116D01*
X166506244Y-95862207D01*
X166437432Y-95148874D01*
X166354558Y-94455914D01*
X166256278Y-93773125D01*
X166141245Y-93090303D01*
X166008113Y-92397246D01*
X166005288Y-92383366D01*
X165901793Y-91891159D01*
X165795493Y-91418482D01*
X165684252Y-90957436D01*
X165565938Y-90500122D01*
X165438415Y-90038645D01*
X165299550Y-89565104D01*
X165147209Y-89071602D01*
X164979257Y-88550241D01*
X164925380Y-88386833D01*
X164873963Y-88230373D01*
X164827671Y-88087060D01*
X164788011Y-87961746D01*
X164756485Y-87859287D01*
X164734599Y-87784536D01*
X164723856Y-87742347D01*
X164723265Y-87734756D01*
X164745060Y-87739141D01*
X164800881Y-87756961D01*
X164885302Y-87786297D01*
X164992900Y-87825228D01*
X165118251Y-87871833D01*
X165228177Y-87913546D01*
X165570060Y-88039175D01*
X165888064Y-88144133D01*
X166193192Y-88231016D01*
X166496451Y-88302416D01*
X166808843Y-88360928D01*
X167141374Y-88409146D01*
X167500628Y-88449230D01*
X167640377Y-88459662D01*
X167814487Y-88467408D01*
X168015075Y-88472510D01*
X168234258Y-88475010D01*
X168464153Y-88474952D01*
X168696875Y-88472377D01*
X168924541Y-88467329D01*
X169139268Y-88459849D01*
X169333172Y-88449981D01*
X169490295Y-88438487D01*
X169743770Y-88414116D01*
X170013858Y-88384497D01*
X170294907Y-88350489D01*
X170581270Y-88312950D01*
X170867297Y-88272740D01*
X171147339Y-88230717D01*
X171415745Y-88187740D01*
X171666867Y-88144669D01*
X171895056Y-88102362D01*
X172094662Y-88061677D01*
X172260035Y-88023475D01*
X172316045Y-88008888D01*
X172822843Y-87849956D01*
X173325608Y-87650505D01*
X173822607Y-87412287D01*
X174312106Y-87137055D01*
X174792371Y-86826560D01*
X175261670Y-86482555D01*
X175718269Y-86106792D01*
X176160435Y-85701023D01*
X176586434Y-85267000D01*
X176994533Y-84806475D01*
X177382998Y-84321200D01*
X177750097Y-83812928D01*
X178094095Y-83283409D01*
X178413260Y-82734398D01*
X178705858Y-82167645D01*
X178970156Y-81584903D01*
X179170499Y-81080366D01*
X179376993Y-80471330D01*
X179546576Y-79856402D01*
X179678866Y-79238624D01*
X179773477Y-78621040D01*
X179830028Y-78006695D01*
X179848134Y-77398632D01*
X179827411Y-76799895D01*
X179775813Y-76275875D01*
X179694828Y-75788533D01*
X179577007Y-75286468D01*
X179423578Y-74773481D01*
X179235772Y-74253371D01*
X179014818Y-73729940D01*
X178820743Y-73322783D01*
X178713405Y-73111832D01*
X178613771Y-72924172D01*
X178515560Y-72749015D01*
X178412490Y-72575571D01*
X178298279Y-72393052D01*
X178166645Y-72190670D01*
X178124410Y-72126866D01*
X177749521Y-71597202D01*
X177345670Y-71092564D01*
X176914891Y-70614268D01*
X176459214Y-70163630D01*
X175980671Y-69741966D01*
X175481295Y-69350592D01*
X174963116Y-68990823D01*
X174428167Y-68663977D01*
X173878480Y-68371368D01*
X173316085Y-68114313D01*
X172743015Y-67894128D01*
X172161301Y-67712129D01*
X171572975Y-67569631D01*
X170980069Y-67467950D01*
X170919045Y-67459877D01*
X170819882Y-67449207D01*
X170688540Y-67438154D01*
X170535156Y-67427399D01*
X170369870Y-67417626D01*
X170202823Y-67409518D01*
X170125295Y-67406428D01*
X169942572Y-67399529D01*
X169732762Y-67391285D01*
X169511067Y-67382316D01*
X169292687Y-67373238D01*
X169092823Y-67364669D01*
X169035212Y-67362134D01*
X168750036Y-67351478D01*
X168499014Y-67346772D01*
X168274340Y-67348341D01*
X168068207Y-67356513D01*
X167872812Y-67371615D01*
X167680348Y-67393973D01*
X167483010Y-67423915D01*
X167457647Y-67428201D01*
X167174269Y-67479785D01*
X166918978Y-67533714D01*
X166677546Y-67593516D01*
X166435743Y-67662718D01*
X166179340Y-67744848D01*
X166176122Y-67745925D01*
X165604587Y-67958925D01*
X165040830Y-68211833D01*
X164486954Y-68502604D01*
X163945060Y-68829195D01*
X163417248Y-69189562D01*
X162905620Y-69581661D01*
X162412278Y-70003449D01*
X161939322Y-70452882D01*
X161488854Y-70927917D01*
X161062975Y-71426509D01*
X160663787Y-71946614D01*
X160293390Y-72486191D01*
X159953886Y-73043193D01*
X159647376Y-73615579D01*
X159375962Y-74201304D01*
X159266985Y-74465783D01*
X159043040Y-75085386D01*
X158858026Y-75714762D01*
X158712810Y-76350260D01*
X158608260Y-76988230D01*
X158558377Y-77450283D01*
X158550845Y-77569112D01*
X158545003Y-77721027D01*
X158540853Y-77897507D01*
X158538397Y-78090030D01*
X158537637Y-78290076D01*
X158538574Y-78489123D01*
X158541210Y-78678650D01*
X158545547Y-78850137D01*
X158551587Y-78995062D01*
X158558035Y-79090699D01*
X158604041Y-79470487D01*
X158676639Y-79870110D01*
X158773088Y-80278881D01*
X158890648Y-80686114D01*
X159026578Y-81081121D01*
X159143623Y-81373939D01*
X159260489Y-81632793D01*
X159396747Y-81906807D01*
X159554772Y-82200445D01*
X159736941Y-82518172D01*
X159877197Y-82752533D01*
X159959368Y-82888372D01*
X160033551Y-83012131D01*
X160097105Y-83119313D01*
X160147389Y-83205424D01*
X160181762Y-83265966D01*
X160197585Y-83296444D01*
X160198262Y-83299167D01*
X160177538Y-83293736D01*
X160121302Y-83275331D01*
X160033830Y-83245445D01*
X159919394Y-83205571D01*
X159782269Y-83157202D01*
X159626730Y-83101830D01*
X159457049Y-83040947D01*
X159401021Y-83020747D01*
X159052212Y-82895911D01*
X158734514Y-82784628D01*
X158439917Y-82684272D01*
X158160410Y-82592218D01*
X157887985Y-82505839D01*
X157614632Y-82422512D01*
X157332341Y-82339611D01*
X157255962Y-82317650D01*
X156324314Y-82066150D01*
X155405066Y-81849389D01*
X154489656Y-81665845D01*
X153569521Y-81513999D01*
X152636099Y-81392328D01*
X151680828Y-81299311D01*
X151403378Y-81277836D01*
X151242240Y-81268114D01*
X151047176Y-81259748D01*
X150824426Y-81252760D01*
X150580233Y-81247177D01*
X150320836Y-81243023D01*
X150052478Y-81240322D01*
X149781397Y-81239098D01*
X149513836Y-81239377D01*
X149256035Y-81241182D01*
X149014235Y-81244539D01*
X148794677Y-81249471D01*
X148603601Y-81256003D01*
X148447249Y-81264160D01*
X148418878Y-81266120D01*
X148016532Y-81297469D01*
X147646745Y-81330634D01*
X147299752Y-81366562D01*
X146965787Y-81406200D01*
X146937212Y-81409832D01*
X146033249Y-81545412D01*
X145147653Y-81718728D01*
X144280860Y-81929549D01*
X143433307Y-82177645D01*
X142605432Y-82462783D01*
X141797670Y-82784732D01*
X141010460Y-83143262D01*
X140244237Y-83538141D01*
X139499440Y-83969138D01*
X138776504Y-84436021D01*
X138075866Y-84938559D01*
X137397965Y-85476522D01*
X136743236Y-86049677D01*
X136112116Y-86657795D01*
X135505043Y-87300642D01*
X135241112Y-87599699D01*
X134694700Y-88264155D01*
X134180669Y-88955281D01*
X133699967Y-89671393D01*
X133253541Y-90410807D01*
X132842338Y-91171839D01*
X132467304Y-91952805D01*
X132129388Y-92752021D01*
X131829535Y-93567803D01*
X131748960Y-93809920D01*
X131497599Y-94651434D01*
X131287454Y-95501660D01*
X131118491Y-96359815D01*
X130990673Y-97225115D01*
X130903961Y-98096775D01*
X130858321Y-98974013D01*
X130853715Y-99856044D01*
X130890106Y-100742085D01*
X130967458Y-101631350D01*
X131085734Y-102523058D01*
X131244897Y-103416422D01*
X131444910Y-104310661D01*
X131685738Y-105204990D01*
X131967343Y-106098624D01*
X132289688Y-106990781D01*
X132376739Y-107213758D01*
X132476404Y-107461924D01*
X132574739Y-107699404D01*
X132674688Y-107932682D01*
X132779194Y-108168241D01*
X132891199Y-108412563D01*
X133013647Y-108672133D01*
X133149479Y-108953435D01*
X133301640Y-109262950D01*
X133363072Y-109386735D01*
X133450553Y-109563106D01*
X133531374Y-109726992D01*
X133603745Y-109874692D01*
X133665875Y-110002507D01*
X133715972Y-110106735D01*
X133752246Y-110183677D01*
X133772906Y-110229634D01*
X133776828Y-110241557D01*
X133484240Y-110077143D01*
X133224671Y-109933112D01*
X132998644Y-109809742D01*
X132806680Y-109707311D01*
X132649303Y-109626100D01*
X132527033Y-109566386D01*
X132442176Y-109529150D01*
X132187686Y-109438146D01*
X131894810Y-109350753D01*
X131567398Y-109267678D01*
X131209296Y-109189631D01*
X130824355Y-109117318D01*
X130416422Y-109051449D01*
X129989345Y-108992731D01*
X129546974Y-108941874D01*
X129093156Y-108899585D01*
X128966712Y-108889540D01*
X128835926Y-108881615D01*
X128673459Y-108875087D01*
X128485843Y-108869954D01*
X128279608Y-108866219D01*
X128061289Y-108863880D01*
X127837415Y-108862939D01*
X127614521Y-108863396D01*
X127399137Y-108865251D01*
X127197796Y-108868504D01*
X127017030Y-108873157D01*
X126863371Y-108879209D01*
X126743351Y-108886661D01*
X126712462Y-108889406D01*
X126138039Y-108965482D01*
X125565370Y-109080752D01*
X124992641Y-109235753D01*
X124418039Y-109431025D01*
X123839749Y-109667108D01*
X123389295Y-109877790D01*
X122785913Y-110198776D01*
X122206135Y-110554691D01*
X121650891Y-110944713D01*
X121121113Y-111368021D01*
X120617733Y-111823791D01*
X120141683Y-112311203D01*
X119693895Y-112829434D01*
X119275301Y-113377662D01*
X119046442Y-113708783D01*
X118696955Y-114269846D01*
X118384459Y-114847067D01*
X118109443Y-115438440D01*
X117872394Y-116041961D01*
X117673799Y-116655623D01*
X117514146Y-117277423D01*
X117393921Y-117905355D01*
X117313613Y-118537413D01*
X117273709Y-119171593D01*
X116574982Y-119171593D01*
X116575071Y-119163951D01*
X116581609Y-118915624D01*
D13*
%TO.C,R1*%
X172517495Y-80312273D02*
X172853028Y-79976740D01*
X173256422Y-81051200D02*
X173591955Y-80715667D01*
%TO.C,R6*%
X134428324Y-106415319D02*
X134211043Y-106632600D01*
X133890923Y-105877918D02*
X133673642Y-106095199D01*
%TO.C,J2*%
X124178321Y-114446909D02*
X124220747Y-114489335D01*
X121399391Y-115429787D02*
X120458939Y-114489335D01*
X120458939Y-114489335D02*
X121399391Y-113548883D01*
X122297417Y-116327813D02*
X124178321Y-114446909D01*
X122339843Y-116370239D02*
X124220747Y-114489335D01*
X122297417Y-116327813D02*
X122339843Y-116370239D01*
%TD*%
M02*
