%TF.GenerationSoftware,KiCad,Pcbnew,(6.0.0)*%
%TF.CreationDate,2022-10-29T10:39:51-07:00*%
%TF.ProjectId,tiny-osean,74696e79-2d6f-4736-9561-6e2e6b696361,rev?*%
%TF.SameCoordinates,Original*%
%TF.FileFunction,Paste,Top*%
%TF.FilePolarity,Positive*%
%FSLAX46Y46*%
G04 Gerber Fmt 4.6, Leading zero omitted, Abs format (unit mm)*
G04 Created by KiCad (PCBNEW (6.0.0)) date 2022-10-29 10:39:51*
%MOMM*%
%LPD*%
G01*
G04 APERTURE LIST*
G04 Aperture macros list*
%AMRoundRect*
0 Rectangle with rounded corners*
0 $1 Rounding radius*
0 $2 $3 $4 $5 $6 $7 $8 $9 X,Y pos of 4 corners*
0 Add a 4 corners polygon primitive as box body*
4,1,4,$2,$3,$4,$5,$6,$7,$8,$9,$2,$3,0*
0 Add four circle primitives for the rounded corners*
1,1,$1+$1,$2,$3*
1,1,$1+$1,$4,$5*
1,1,$1+$1,$6,$7*
1,1,$1+$1,$8,$9*
0 Add four rect primitives between the rounded corners*
20,1,$1+$1,$2,$3,$4,$5,0*
20,1,$1+$1,$4,$5,$6,$7,0*
20,1,$1+$1,$6,$7,$8,$9,0*
20,1,$1+$1,$8,$9,$2,$3,0*%
%AMRotRect*
0 Rectangle, with rotation*
0 The origin of the aperture is its center*
0 $1 length*
0 $2 width*
0 $3 Rotation angle, in degrees counterclockwise*
0 Add horizontal line*
21,1,$1,$2,0,0,$3*%
%AMFreePoly0*
4,1,14,0.334644,0.085355,0.385355,0.034644,0.400000,-0.000711,0.400000,-0.050000,0.385355,-0.085355,0.350000,-0.100000,-0.350000,-0.100000,-0.385355,-0.085355,-0.400000,-0.050000,-0.400000,0.050000,-0.385355,0.085355,-0.350000,0.100000,0.299289,0.100000,0.334644,0.085355,0.334644,0.085355,$1*%
%AMFreePoly1*
4,1,15,0.385355,0.085355,0.400000,0.050000,0.400000,0.000711,0.399705,0.000000,0.385355,-0.034644,0.334644,-0.085355,0.299289,-0.100000,-0.350000,-0.100000,-0.385355,-0.085355,-0.400000,-0.050000,-0.400000,0.050000,-0.385355,0.085355,-0.350000,0.100000,0.350000,0.100000,0.385355,0.085355,0.385355,0.085355,$1*%
%AMFreePoly2*
4,1,14,0.085355,0.385355,0.100000,0.350000,0.100000,-0.350000,0.085355,-0.385355,0.050000,-0.400000,-0.050000,-0.400000,-0.085355,-0.385355,-0.100000,-0.350000,-0.100000,0.299289,-0.085355,0.334644,-0.034644,0.385355,0.000711,0.400000,0.050000,0.400000,0.085355,0.385355,0.085355,0.385355,$1*%
%AMFreePoly3*
4,1,14,0.034644,0.385355,0.085355,0.334644,0.100000,0.299289,0.100000,-0.350000,0.085355,-0.385355,0.050000,-0.400000,-0.050000,-0.400000,-0.085355,-0.385355,-0.100000,-0.350000,-0.100000,0.350000,-0.085355,0.385355,-0.050000,0.400000,-0.000711,0.400000,0.034644,0.385355,0.034644,0.385355,$1*%
%AMFreePoly4*
4,1,14,0.385355,0.085355,0.400000,0.050000,0.400000,-0.050000,0.385355,-0.085355,0.350000,-0.100000,-0.299289,-0.100000,-0.334644,-0.085355,-0.385355,-0.034644,-0.400000,0.000711,-0.400000,0.050000,-0.385355,0.085355,-0.350000,0.100000,0.350000,0.100000,0.385355,0.085355,0.385355,0.085355,$1*%
%AMFreePoly5*
4,1,14,0.385355,0.085355,0.400000,0.050000,0.400000,-0.050000,0.385355,-0.085355,0.350000,-0.100000,-0.350000,-0.100000,-0.385355,-0.085355,-0.400000,-0.050000,-0.400000,-0.000711,-0.385355,0.034644,-0.334644,0.085355,-0.299289,0.100000,0.350000,0.100000,0.385355,0.085355,0.385355,0.085355,$1*%
%AMFreePoly6*
4,1,15,0.085355,0.385355,0.100000,0.350000,0.100000,-0.299289,0.099705,-0.300000,0.085355,-0.334644,0.034644,-0.385355,-0.000711,-0.400000,-0.050000,-0.400000,-0.085355,-0.385355,-0.100000,-0.350000,-0.100000,0.350000,-0.085355,0.385355,-0.050000,0.400000,0.050000,0.400000,0.085355,0.385355,0.085355,0.385355,$1*%
%AMFreePoly7*
4,1,14,0.085355,0.385355,0.100000,0.350000,0.100000,-0.350000,0.085355,-0.385355,0.050000,-0.400000,0.000711,-0.400000,-0.034644,-0.385355,-0.085355,-0.334644,-0.100000,-0.299289,-0.100000,0.350000,-0.085355,0.385355,-0.050000,0.400000,0.050000,0.400000,0.085355,0.385355,0.085355,0.385355,$1*%
G04 Aperture macros list end*
%ADD10RotRect,2.800000X1.000000X45.000000*%
%ADD11RoundRect,0.135000X-0.035355X0.226274X-0.226274X0.035355X0.035355X-0.226274X0.226274X-0.035355X0*%
%ADD12RoundRect,0.250000X0.574524X0.097227X0.097227X0.574524X-0.574524X-0.097227X-0.097227X-0.574524X0*%
%ADD13RoundRect,0.135000X0.035355X-0.226274X0.226274X-0.035355X-0.035355X0.226274X-0.226274X0.035355X0*%
%ADD14RoundRect,0.172500X-0.172500X-0.172500X0.172500X-0.172500X0.172500X0.172500X-0.172500X0.172500X0*%
%ADD15FreePoly0,0.000000*%
%ADD16RoundRect,0.050000X-0.350000X-0.050000X0.350000X-0.050000X0.350000X0.050000X-0.350000X0.050000X0*%
%ADD17FreePoly1,0.000000*%
%ADD18FreePoly2,0.000000*%
%ADD19RoundRect,0.050000X-0.050000X-0.350000X0.050000X-0.350000X0.050000X0.350000X-0.050000X0.350000X0*%
%ADD20FreePoly3,0.000000*%
%ADD21FreePoly4,0.000000*%
%ADD22FreePoly5,0.000000*%
%ADD23FreePoly6,0.000000*%
%ADD24FreePoly7,0.000000*%
%ADD25RoundRect,0.225000X0.250000X-0.225000X0.250000X0.225000X-0.250000X0.225000X-0.250000X-0.225000X0*%
%ADD26RoundRect,0.140000X0.170000X-0.140000X0.170000X0.140000X-0.170000X0.140000X-0.170000X-0.140000X0*%
%ADD27RotRect,4.200000X3.200000X45.000000*%
%ADD28RoundRect,0.200000X0.053033X-0.335876X0.335876X-0.053033X-0.053033X0.335876X-0.335876X0.053033X0*%
G04 APERTURE END LIST*
D10*
%TO.C,SW1*%
X166112729Y-77700428D03*
X170213948Y-73599209D03*
X168941156Y-80528855D03*
X173042375Y-76427636D03*
%TD*%
D11*
%TO.C,R8*%
X136430567Y-108005571D03*
X135709319Y-108726819D03*
%TD*%
D12*
%TO.C,D1*%
X155694835Y-89797656D03*
X154227589Y-88330410D03*
%TD*%
D13*
%TO.C,R4*%
X158550318Y-86701996D03*
X159271566Y-85980748D03*
%TD*%
D12*
%TO.C,D2*%
X139694835Y-106797656D03*
X138227589Y-105330410D03*
%TD*%
D11*
%TO.C,R3*%
X158461004Y-85115094D03*
X157739756Y-85836342D03*
%TD*%
%TO.C,R5*%
X160058925Y-86804325D03*
X159337677Y-87525573D03*
%TD*%
D13*
%TO.C,R2*%
X156872313Y-84968900D03*
X157593561Y-84247652D03*
%TD*%
%TO.C,R7*%
X134794225Y-107702372D03*
X135515473Y-106981124D03*
%TD*%
D14*
%TO.C,U1*%
X128020993Y-118986850D03*
X128870993Y-119836850D03*
X128870993Y-118986850D03*
X128020993Y-119836850D03*
D15*
X126995993Y-118611850D03*
D16*
X126995993Y-119011850D03*
X126995993Y-119411850D03*
X126995993Y-119811850D03*
D17*
X126995993Y-120211850D03*
D18*
X127645993Y-120861850D03*
D19*
X128045993Y-120861850D03*
X128445993Y-120861850D03*
X128845993Y-120861850D03*
D20*
X129245993Y-120861850D03*
D21*
X129895993Y-120211850D03*
D16*
X129895993Y-119811850D03*
X129895993Y-119411850D03*
X129895993Y-119011850D03*
D22*
X129895993Y-118611850D03*
D23*
X129245993Y-117961850D03*
D19*
X128845993Y-117961850D03*
X128445993Y-117961850D03*
X128045993Y-117961850D03*
D24*
X127645993Y-117961850D03*
%TD*%
D13*
%TO.C,R9*%
X136782182Y-109708219D03*
X137503430Y-108986971D03*
%TD*%
D25*
%TO.C,C2*%
X124198093Y-120293378D03*
X124198093Y-118743378D03*
%TD*%
D26*
%TO.C,C1*%
X125598176Y-119998378D03*
X125598176Y-119038378D03*
%TD*%
D27*
%TO.C,BT1*%
X138208164Y-88310985D03*
X158714260Y-108817081D03*
%TD*%
D28*
%TO.C,R1*%
X172471362Y-81097333D03*
X173638088Y-79930607D03*
%TD*%
D11*
%TO.C,R6*%
X134411607Y-105894635D03*
X133690359Y-106615883D03*
%TD*%
M02*
