%TF.GenerationSoftware,KiCad,Pcbnew,(6.0.0)*%
%TF.CreationDate,2022-10-29T10:39:51-07:00*%
%TF.ProjectId,tiny-osean,74696e79-2d6f-4736-9561-6e2e6b696361,rev?*%
%TF.SameCoordinates,Original*%
%TF.FileFunction,Profile,NP*%
%FSLAX46Y46*%
G04 Gerber Fmt 4.6, Leading zero omitted, Abs format (unit mm)*
G04 Created by KiCad (PCBNEW (6.0.0)) date 2022-10-29 10:39:51*
%MOMM*%
%LPD*%
G01*
G04 APERTURE LIST*
%TA.AperFunction,Profile*%
%ADD10C,1.550000*%
%TD*%
%TA.AperFunction,Profile*%
%ADD11C,0.100000*%
%TD*%
G04 APERTURE END LIST*
D10*
X145406087Y-84162040D02*
G75*
G03*
X145406087Y-84162040I-775000J0D01*
G01*
D11*
%TO.C,Ref\u002A\u002A*%
X116186347Y-121609519D02*
X116214588Y-121748347D01*
X167777131Y-93519775D02*
X167744401Y-93382504D01*
X166600173Y-106569066D02*
X166654143Y-106437610D01*
X165945197Y-66461164D02*
X165809208Y-66500900D01*
X125947680Y-131044622D02*
X126087828Y-131066492D01*
X169307121Y-66002928D02*
X169165731Y-66002786D01*
X144201796Y-118296844D02*
X144341192Y-118321664D01*
X166635228Y-66286227D02*
X166496408Y-66317901D01*
X148142954Y-118683761D02*
X148284188Y-118685017D01*
X159135040Y-115567418D02*
X159254029Y-115489498D01*
X167482751Y-92424462D02*
X167440691Y-92293003D01*
X166078434Y-107730695D02*
X166140204Y-107602489D01*
X172657260Y-66505935D02*
X172522121Y-66466228D01*
X125391961Y-130940962D02*
X125529831Y-130969262D01*
X160627443Y-114497188D02*
X160738350Y-114409068D01*
X163654604Y-111545635D02*
X163743574Y-111435989D01*
X116111465Y-121190759D02*
X116134910Y-121331433D01*
X174248241Y-88707531D02*
X174375734Y-88648331D01*
X162620634Y-112705124D02*
X162718654Y-112603701D01*
X149706893Y-79551418D02*
X149565940Y-79549899D01*
X129662148Y-95442357D02*
X129632238Y-95580622D01*
X167562931Y-92696017D02*
X167523271Y-92559458D01*
X160515670Y-114584738D02*
X160627443Y-114497188D01*
X132318177Y-89122832D02*
X132242817Y-89241118D01*
X168129823Y-100694802D02*
X168146333Y-100554557D01*
X176193374Y-87565061D02*
X176306996Y-87481071D01*
X167582633Y-103615698D02*
X167617473Y-103478160D01*
X132708067Y-88536777D02*
X132628727Y-88652667D01*
X168226063Y-99709398D02*
X168236253Y-99568452D01*
X159488761Y-115332388D02*
X159604919Y-115252638D01*
X129244498Y-99768986D02*
X129248598Y-99909377D01*
X121965123Y-129637762D02*
X122088765Y-129707302D01*
X179772191Y-83430691D02*
X179837211Y-83304739D01*
X116309694Y-122164682D02*
X116344741Y-122302803D01*
X172794642Y-89249101D02*
X172929662Y-89208711D01*
X160473362Y-69838588D02*
X160378172Y-69942566D01*
X161382707Y-68951715D02*
X161277163Y-69045394D01*
X160865787Y-69433066D02*
X160765782Y-69533080D01*
X145077537Y-80011856D02*
X144939560Y-80042526D01*
X158166637Y-116156888D02*
X158289602Y-116086348D01*
X115976864Y-119922904D02*
X115985174Y-120064991D01*
X158253122Y-73233760D02*
X158198162Y-73363953D01*
X130372868Y-105790722D02*
X130391138Y-105929132D01*
X137792596Y-83294805D02*
X137677713Y-83378815D01*
X181110921Y-78554981D02*
X181117721Y-78413020D01*
X179642435Y-72140914D02*
X179572885Y-72017157D01*
X154141190Y-117871737D02*
X154275909Y-117831367D01*
X136462390Y-84348075D02*
X136355860Y-84440285D01*
X125529831Y-130969262D02*
X125669072Y-130995992D01*
X132610311Y-130215467D02*
X132740482Y-130157957D01*
X130100188Y-93813400D02*
X130057978Y-93947412D01*
X168012903Y-101535127D02*
X168034663Y-101395590D01*
X144253917Y-80211236D02*
X144118206Y-80247776D01*
X131271137Y-90953822D02*
X131208237Y-91079469D01*
X155212432Y-117519987D02*
X155344464Y-117471677D01*
X122717897Y-130032562D02*
X122845861Y-130092892D01*
X163837278Y-67288323D02*
X163711351Y-67353249D01*
X164425224Y-110532620D02*
X164506944Y-110416456D01*
X140943440Y-117430484D02*
X141076171Y-117474384D01*
X121598913Y-129419622D02*
X121720444Y-129493992D01*
X180775591Y-80790539D02*
X180809021Y-80652404D01*
X167752378Y-66093491D02*
X167612129Y-66111718D01*
X140400586Y-117304024D02*
X140539133Y-117324904D01*
X177795045Y-69645490D02*
X177696295Y-69544315D01*
X128348559Y-131189407D02*
X128489526Y-131183007D01*
X129421948Y-101868976D02*
X129442398Y-102007945D01*
X142376196Y-80813436D02*
X142244025Y-80864005D01*
X120911583Y-109650190D02*
X120796399Y-109733490D01*
X177788381Y-86172824D02*
X177886691Y-86069977D01*
X168226571Y-96454018D02*
X168215321Y-96312778D01*
X121614635Y-109184720D02*
X121495526Y-109258660D01*
X152773166Y-118222787D02*
X152911700Y-118192007D01*
X179841765Y-72516373D02*
X179776745Y-72390408D01*
X161066162Y-114141188D02*
X161174391Y-114050228D01*
X173327608Y-66729169D02*
X173194433Y-66681259D01*
X177983451Y-85966269D02*
X178078931Y-85861450D01*
X153186952Y-118127727D02*
X153324365Y-118094147D01*
X116834963Y-123781328D02*
X116889304Y-123912793D01*
X126776789Y-107508630D02*
X126639552Y-107520360D01*
X128065377Y-131197442D02*
X128206617Y-131194307D01*
X130907107Y-91714260D02*
X130849457Y-91843023D01*
X172926849Y-66590366D02*
X172792561Y-66547415D01*
X164900774Y-109828570D02*
X164976854Y-109709561D01*
X176640193Y-87222081D02*
X176749981Y-87132701D01*
X129402238Y-101728729D02*
X129421948Y-101868976D01*
X145631016Y-79898696D02*
X145491612Y-79925626D01*
X139694260Y-82070705D02*
X139571143Y-82140955D01*
X127923293Y-131198999D02*
X128065377Y-131197442D01*
X170580793Y-66079672D02*
X170439558Y-66064387D01*
X116279779Y-116549377D02*
X116248118Y-116687058D01*
X158309652Y-73104578D02*
X158253122Y-73233760D01*
X138220374Y-124923318D02*
X138279024Y-124797228D01*
X180744255Y-74898929D02*
X180707575Y-74761330D01*
X165004426Y-66772919D02*
X164872962Y-66823619D01*
X116069861Y-120910273D02*
X116089768Y-121050083D01*
X156523364Y-116990437D02*
X156651566Y-116932347D01*
X140539133Y-117324904D02*
X140674843Y-117354254D01*
X129610218Y-102821653D02*
X129655258Y-102957082D01*
X153460499Y-118059727D02*
X153596928Y-118024167D01*
X125539492Y-107660190D02*
X125400438Y-107687740D01*
X154960968Y-80249806D02*
X154827525Y-80226876D01*
X133371157Y-87626034D02*
X133286017Y-87737521D01*
X180450751Y-81873538D02*
X180496811Y-81740231D01*
X124308351Y-107966460D02*
X124173818Y-108008800D01*
X157039293Y-79825561D02*
X156975263Y-79951498D01*
X135160495Y-128701727D02*
X135271702Y-128614017D01*
X163831554Y-111325773D02*
X163918944Y-111214286D01*
X168599500Y-66018951D02*
X168457422Y-66027231D01*
X117807907Y-125669108D02*
X117884661Y-125788388D01*
X141208770Y-117521134D02*
X141339811Y-117569154D01*
X164745374Y-110066121D02*
X164823854Y-109947134D01*
X168756033Y-89678981D02*
X168886082Y-89676372D01*
X116504384Y-115730136D02*
X116462933Y-115865286D01*
X143508787Y-118161104D02*
X143648034Y-118189984D01*
X167547213Y-103751990D02*
X167582633Y-103615698D01*
X129246638Y-98787544D02*
X129243038Y-98927804D01*
X116893275Y-114668372D02*
X116839004Y-114799284D01*
X172659090Y-89287761D02*
X172794642Y-89249101D01*
X122845861Y-130092892D02*
X122975326Y-130152112D01*
X142773127Y-80668376D02*
X142640531Y-80715686D01*
X129576038Y-95855303D02*
X129549678Y-95992997D01*
X118916069Y-111445731D02*
X118823369Y-111552403D01*
X157325570Y-77750771D02*
X157326278Y-77891598D01*
X158488122Y-72721739D02*
X158427222Y-72848370D01*
X144063247Y-118271364D02*
X144201796Y-118296844D01*
X119202126Y-111131802D02*
X119105470Y-111235370D01*
X137467314Y-126259879D02*
X137543944Y-126143013D01*
X151101703Y-118512827D02*
X151241376Y-118494257D01*
X175490065Y-67782088D02*
X175368517Y-67707744D01*
X137969064Y-125422241D02*
X138034234Y-125298857D01*
X139571143Y-82140955D02*
X139448761Y-82211915D01*
X123365687Y-130319412D02*
X123497392Y-130372252D01*
X180541561Y-81605942D02*
X180584481Y-81471646D01*
X167638841Y-92969704D02*
X167601461Y-92832993D01*
X157411992Y-76345081D02*
X157395492Y-76485643D01*
X129259998Y-100189579D02*
X129267398Y-100329535D01*
X151381343Y-118474447D02*
X151520440Y-118453887D01*
X148295946Y-79578426D02*
X148155129Y-79586226D01*
X171697071Y-66260824D02*
X171559248Y-66232533D01*
X177487900Y-86473011D02*
X177588767Y-86374561D01*
X131399627Y-90703630D02*
X131334747Y-90828872D01*
X129942838Y-103891334D02*
X129980798Y-104025634D01*
X156587680Y-80324781D02*
X156452664Y-80352931D01*
X149977324Y-118627477D02*
X150117582Y-118616597D01*
X130187298Y-93546076D02*
X130143248Y-93679521D01*
X180669335Y-74624435D02*
X180629535Y-74488380D01*
X162499709Y-68082534D02*
X162383264Y-68163564D01*
X116189784Y-116963297D02*
X116162962Y-117102543D01*
X129632238Y-95580622D02*
X129603598Y-95718178D01*
X161809050Y-113490808D02*
X161913155Y-113394618D01*
X180779245Y-75037088D02*
X180744255Y-74898929D01*
X127886457Y-107455291D02*
X127746079Y-107462600D01*
X123506716Y-108245350D02*
X123375393Y-108297340D01*
X157093843Y-79695650D02*
X157039293Y-79825561D01*
X181093895Y-76995158D02*
X181082245Y-76854002D01*
X129432998Y-96686861D02*
X129412898Y-96825541D01*
X129296378Y-100750274D02*
X129308348Y-100891226D01*
X129394028Y-96963944D02*
X129376198Y-97102764D01*
X168483046Y-89681213D02*
X168618465Y-89680930D01*
X168176323Y-100274344D02*
X168190043Y-100132966D01*
X135271702Y-128614017D02*
X135382473Y-128524627D01*
X160667182Y-69633787D02*
X160569712Y-69735642D01*
X134735047Y-86013081D02*
X134639427Y-86116780D01*
X159372037Y-115411148D02*
X159488761Y-115332388D01*
X130524198Y-92620043D02*
X130472908Y-92751646D01*
X116053974Y-117801088D02*
X116037150Y-117941610D01*
X137907757Y-83211645D02*
X137792596Y-83294805D01*
X116547307Y-115595697D02*
X116504384Y-115730136D01*
X176970714Y-68867386D02*
X176863479Y-68776340D01*
X154559225Y-80177286D02*
X154425361Y-80150816D01*
X175845321Y-87809711D02*
X175962487Y-87729541D01*
X157471202Y-75927268D02*
X157449702Y-76066340D01*
X136794134Y-127154049D02*
X136883804Y-127046678D01*
X134354442Y-129276577D02*
X134472575Y-129198507D01*
X162320870Y-113005328D02*
X162421163Y-112906438D01*
X129510698Y-102424003D02*
X129535608Y-102561983D01*
X167891283Y-102232949D02*
X167917633Y-102093413D01*
X159833492Y-70586871D02*
X159746802Y-70697962D01*
X116218053Y-116825465D02*
X116189784Y-116963297D01*
X168034663Y-101395590D02*
X168055473Y-101255639D01*
X133627158Y-129714407D02*
X133750823Y-129644867D01*
X153757985Y-80006276D02*
X153622996Y-79974396D01*
X147292001Y-118657694D02*
X147433369Y-118664194D01*
X180406675Y-73816432D02*
X180357385Y-73683635D01*
X159836824Y-115090038D02*
X159951701Y-115007738D01*
X157180373Y-79428192D02*
X157140433Y-79563057D01*
X167267261Y-91781454D02*
X167226301Y-91652394D01*
X146048491Y-79824406D02*
X145909089Y-79848166D01*
X179776745Y-72390408D02*
X179710585Y-72265817D01*
X164609753Y-66930489D02*
X164478715Y-66986460D01*
X168740466Y-66012421D02*
X168599500Y-66018951D01*
X168284904Y-98438693D02*
X168286819Y-98298022D01*
X129476398Y-96408921D02*
X129454128Y-96547891D01*
X167019491Y-90736982D02*
X167011001Y-90601836D01*
X129435666Y-107525644D02*
X129294570Y-107526103D01*
X175963079Y-68091234D02*
X175846489Y-68012046D01*
X166809973Y-106042508D02*
X166860123Y-105910345D01*
X147309422Y-79654956D02*
X147169177Y-79669746D01*
X168255111Y-96879836D02*
X168246711Y-96737751D01*
X170157931Y-66039037D02*
X170017122Y-66028843D01*
X133994487Y-129502227D02*
X134115588Y-129428287D01*
X180740461Y-80928093D02*
X180775591Y-80790539D01*
X167510793Y-103888539D02*
X167547213Y-103751990D01*
X159254029Y-115489498D02*
X159372037Y-115411148D01*
X135706318Y-128250237D02*
X135811844Y-128156597D01*
X166774057Y-66256268D02*
X166635228Y-66286227D01*
X180902665Y-75592202D02*
X180874335Y-75453352D01*
X130143248Y-93679521D02*
X130100188Y-93813400D01*
X136972204Y-126937732D02*
X137058494Y-126828229D01*
X127746079Y-107462600D02*
X127606670Y-107471315D01*
X167027951Y-90334368D02*
X167061051Y-90203920D01*
X134264497Y-86535959D02*
X134172687Y-86641784D01*
X147433369Y-118664194D02*
X147575462Y-118669894D01*
X151939342Y-118385917D02*
X152078877Y-118361307D01*
X144665439Y-80106836D02*
X144528312Y-80140546D01*
X166860123Y-105910345D02*
X166909823Y-105776898D01*
X140947107Y-81420895D02*
X140820604Y-81481385D01*
X130325448Y-93148156D02*
X130278548Y-93280192D01*
X130277908Y-105243355D02*
X130304468Y-105379343D01*
X146583685Y-118611274D02*
X146725211Y-118622304D01*
X179120561Y-84525309D02*
X179198611Y-84407449D01*
X149272565Y-118667777D02*
X149413231Y-118661677D01*
X165344624Y-109105090D02*
X165415584Y-108982840D01*
X167942873Y-101953173D02*
X167967173Y-101813354D01*
X176194558Y-68254642D02*
X176079243Y-68172238D01*
X179837211Y-83304739D02*
X179900971Y-83177672D01*
X129010538Y-107513044D02*
X128869857Y-107502744D01*
X155872857Y-117267397D02*
X156004038Y-117213847D01*
X171138202Y-89597041D02*
X171278448Y-89577731D01*
X163338204Y-67557082D02*
X163216508Y-67627376D01*
X157243973Y-79153513D02*
X157214573Y-79291914D01*
X116006752Y-120347734D02*
X116020018Y-120488252D01*
X116384963Y-116136994D02*
X116348342Y-116273697D01*
X163564374Y-111655423D02*
X163654604Y-111545635D01*
X170858996Y-89630311D02*
X170998236Y-89614551D01*
X150131312Y-79561826D02*
X149990220Y-79557426D01*
X166496408Y-66317901D02*
X166357863Y-66351274D01*
X120796399Y-109733490D02*
X120682688Y-109817650D01*
X143786300Y-118217914D02*
X143924423Y-118245004D01*
X116686010Y-115194937D02*
X116638129Y-115328115D01*
X147575462Y-118669894D02*
X147717545Y-118674694D01*
X127191286Y-107482730D02*
X127053315Y-107489730D01*
X178361695Y-70275827D02*
X178270735Y-70168433D01*
X167967173Y-101813354D02*
X167990433Y-101674378D01*
X180707575Y-74761330D02*
X180669335Y-74624435D01*
X117813561Y-112913186D02*
X117738424Y-113032767D01*
X175609786Y-67857267D02*
X175490065Y-67782088D01*
X126508203Y-131122022D02*
X126649534Y-131137342D01*
X131684974Y-130572037D02*
X131818840Y-130525967D01*
X129698908Y-103090808D02*
X129741398Y-103223689D01*
X170860850Y-66114948D02*
X170721328Y-66096528D01*
X139436759Y-119796864D02*
X139437676Y-119659022D01*
X180139801Y-82663440D02*
X180195621Y-82533408D01*
X178800015Y-70832116D02*
X178715165Y-70718972D01*
X168025271Y-94768524D02*
X168001921Y-94628848D01*
X129476886Y-131090287D02*
X129616712Y-131070417D01*
X177596005Y-69443974D02*
X177494439Y-69344571D01*
X130089598Y-104429935D02*
X130123888Y-104565080D01*
X157545459Y-116495477D02*
X157671381Y-116429187D01*
X129980798Y-104025634D02*
X130017778Y-104159496D01*
X147450786Y-79641046D02*
X147309422Y-79654956D01*
X139416604Y-120210659D02*
X139427394Y-120072255D01*
X145214794Y-79982276D02*
X145077537Y-80011856D01*
X129791928Y-94893860D02*
X129757778Y-95030970D01*
X151660263Y-118432187D02*
X151799810Y-118409547D01*
X116731651Y-123518122D02*
X116782378Y-123649734D01*
X129257138Y-98505497D02*
X129251438Y-98646324D01*
X168112553Y-100835046D02*
X168129823Y-100694802D01*
X136323254Y-127668847D02*
X136421274Y-127567980D01*
X167058231Y-91004158D02*
X167035941Y-90871564D01*
X181034771Y-79400564D02*
X181051651Y-79260168D01*
X163008224Y-112294181D02*
X163102854Y-112189775D01*
X115960566Y-119356672D02*
X115962147Y-119498756D01*
X167315583Y-104568961D02*
X167356233Y-104433527D01*
X167226301Y-91652394D02*
X167187211Y-91523629D01*
X139138414Y-122144906D02*
X139166484Y-122008061D01*
X164478715Y-66986460D02*
X164348545Y-67043974D01*
X130792917Y-91971234D02*
X130737257Y-92100556D01*
X116344741Y-122302803D02*
X116381418Y-122440359D01*
X168882410Y-66007531D02*
X168740466Y-66012421D01*
X164259934Y-110762400D02*
X164343064Y-110647794D01*
X168618465Y-89680930D02*
X168756033Y-89678981D01*
X129335408Y-101172135D02*
X129350578Y-101311817D01*
X120555279Y-128692162D02*
X120667532Y-128778582D01*
X159661952Y-70809564D02*
X159578382Y-70922142D01*
X167011001Y-90601836D02*
X167012801Y-90467685D01*
X119801187Y-128052152D02*
X119906059Y-128147772D01*
X129864648Y-103624009D02*
X129904028Y-103757320D01*
X171836739Y-89482651D02*
X171973728Y-89454721D01*
X124988987Y-107779430D02*
X124853203Y-107813150D01*
X129366698Y-101450230D02*
X129383988Y-101589340D01*
X155609367Y-117371517D02*
X155741258Y-117319957D01*
X161495120Y-113773138D02*
X161600940Y-113679228D01*
X152911700Y-118192007D02*
X153049118Y-118160457D01*
X158775649Y-115795228D02*
X158896488Y-115719858D01*
X126228156Y-131086722D02*
X126367715Y-131105102D01*
X131465227Y-90579258D02*
X131399627Y-90703630D01*
X175962487Y-87729541D02*
X176078496Y-87647791D01*
X129757778Y-95030970D02*
X129724918Y-95167675D01*
X162912744Y-112397878D02*
X163008224Y-112294181D01*
X154024722Y-80066676D02*
X153891711Y-80037006D01*
X150821070Y-118547387D02*
X150961167Y-118530697D01*
X147591611Y-79628176D02*
X147450786Y-79641046D01*
X149424273Y-79549191D02*
X149282900Y-79549617D01*
X129412898Y-96825541D02*
X129394028Y-96963944D01*
X171419990Y-66205672D02*
X171280317Y-66180461D01*
X120682688Y-109817650D02*
X120569514Y-109903620D01*
X146302062Y-118586584D02*
X146443159Y-118599324D01*
X179966985Y-72770415D02*
X179905235Y-72643359D01*
X181118595Y-77419853D02*
X181112195Y-77278867D01*
X132084602Y-130428947D02*
X132216063Y-130378237D01*
X155079693Y-117567447D02*
X155212432Y-117519987D01*
X122859783Y-108519750D02*
X122732515Y-108579100D01*
X131667527Y-90208107D02*
X131599527Y-90330929D01*
X167472313Y-66131584D02*
X167331644Y-66153273D01*
X157289653Y-78873591D02*
X157268983Y-79013413D01*
X137226947Y-83721055D02*
X137115600Y-83808615D01*
X159029002Y-71738580D02*
X158956332Y-71858667D01*
X166434153Y-106959623D02*
X166490683Y-106829028D01*
X116248118Y-116687058D02*
X116218053Y-116825465D01*
X170439558Y-66064387D02*
X170298184Y-66050842D01*
X165200124Y-109348470D02*
X165272804Y-109227204D01*
X159103382Y-71619216D02*
X159029002Y-71738580D01*
X164176204Y-110876005D02*
X164259934Y-110762400D01*
X116159856Y-121470974D02*
X116186347Y-121609519D01*
X141076171Y-117474384D02*
X141208770Y-117521134D01*
X169591565Y-66008243D02*
X169449045Y-66004733D01*
X169449045Y-66004733D02*
X169307121Y-66002928D01*
X175123879Y-67564042D02*
X175000207Y-67494399D01*
X170438104Y-89667431D02*
X170578497Y-89656771D01*
X181037435Y-76431737D02*
X181019125Y-76291495D01*
X116089768Y-121050083D02*
X116111465Y-121190759D01*
X131006991Y-130778997D02*
X131143820Y-130740757D01*
X117591662Y-113276004D02*
X117520463Y-113398952D01*
X123638700Y-108194920D02*
X123506716Y-108245350D01*
X174880754Y-88393341D02*
X175004141Y-88325901D01*
X140693958Y-81543005D02*
X140567595Y-81605625D01*
X137338565Y-83634505D02*
X137226947Y-83721055D01*
X168160201Y-95748963D02*
X168143931Y-95608864D01*
X181102421Y-78696358D02*
X181110921Y-78554981D01*
X150117582Y-118616597D02*
X150258522Y-118604687D01*
X160569712Y-69735642D02*
X160473362Y-69838588D01*
X144118206Y-80247776D02*
X143982344Y-80285456D01*
X179572885Y-72017157D02*
X179502485Y-71895456D01*
X129757380Y-131048607D02*
X129898046Y-131025297D01*
X180899221Y-80238485D02*
X180925861Y-80099235D01*
X143648034Y-118189984D02*
X143786300Y-118217914D01*
X161706542Y-68677359D02*
X161597188Y-68767794D01*
X126363705Y-107548800D02*
X126227005Y-107565200D01*
X158044052Y-73755246D02*
X157996162Y-73886446D01*
X140567595Y-81605625D02*
X140441375Y-81669375D01*
X158654668Y-115869588D02*
X158775649Y-115795228D01*
X116137768Y-117242087D02*
X116114422Y-117381064D01*
X136883804Y-127046678D02*
X136972204Y-126937732D01*
X117658935Y-125428282D02*
X117732855Y-125549401D01*
X169733779Y-89695607D02*
X169874864Y-89693381D01*
X128773257Y-131164707D02*
X128914355Y-131153057D01*
X180925861Y-80099235D02*
X180950981Y-79959553D01*
X149413231Y-118661677D02*
X149554045Y-118654577D01*
X130314969Y-130945507D02*
X130453796Y-130915677D01*
X157328641Y-78032961D02*
X157332693Y-78173355D01*
X157604292Y-75235110D02*
X157574182Y-75372508D01*
X171973178Y-66322626D02*
X171835338Y-66290923D01*
X124444016Y-107925640D02*
X124308351Y-107966460D01*
X162016007Y-113298278D02*
X162117720Y-113201808D01*
X143982344Y-80285456D02*
X143846218Y-80324106D01*
X117516184Y-125184627D02*
X117586518Y-125306311D01*
X145491612Y-79925626D02*
X145353203Y-79953456D01*
X167435293Y-104161245D02*
X167473533Y-104024688D01*
X117383123Y-113646158D02*
X117316698Y-113771109D01*
X151682082Y-79670706D02*
X151540558Y-79656136D01*
X165674059Y-66542108D02*
X165539202Y-66585004D01*
X138646374Y-123893723D02*
X138692424Y-123762956D01*
X166357863Y-66351274D02*
X166219740Y-66386294D01*
X139440578Y-119244804D02*
X139442903Y-119106974D01*
X173591659Y-66829479D02*
X173459779Y-66778455D01*
X141981809Y-80967565D02*
X141851337Y-81020835D01*
X148436900Y-79571426D02*
X148295946Y-79578426D01*
X138607002Y-82732965D02*
X138488861Y-82810885D01*
X135025337Y-85705689D02*
X134928007Y-85807536D01*
X181019125Y-76291495D02*
X180999315Y-76151589D01*
X161600940Y-113679228D02*
X161705054Y-113585578D01*
X157449702Y-76066340D02*
X157430152Y-76205028D01*
X174498719Y-67231319D02*
X174371083Y-67169244D01*
X119195922Y-127453327D02*
X119293996Y-127556311D01*
X176533685Y-68509619D02*
X176421507Y-68423149D01*
X129336647Y-131108397D02*
X129476886Y-131090287D01*
X160738350Y-114409068D02*
X160848291Y-114320518D01*
X167051581Y-66201599D02*
X166912885Y-66228060D01*
X162267394Y-68246194D02*
X162153357Y-68329606D01*
X134472575Y-129198507D02*
X134589316Y-129119457D01*
X163473564Y-111763798D02*
X163564374Y-111655423D01*
X130395639Y-106898518D02*
X130359719Y-107033526D01*
X134115588Y-129428287D02*
X134235283Y-129353207D01*
X159578382Y-70922142D02*
X159495652Y-71036124D01*
X178172861Y-85756050D02*
X178265501Y-85649378D01*
X130189338Y-104835789D02*
X130220078Y-104970799D01*
X167977351Y-94488739D02*
X167951821Y-94349502D01*
X149990220Y-79557426D02*
X149848541Y-79553926D01*
X150272968Y-79567026D02*
X150131312Y-79561826D01*
X130406618Y-106066686D02*
X130418688Y-106205652D01*
X178084035Y-69955813D02*
X177989555Y-69851961D01*
X176530263Y-87309641D02*
X176640193Y-87222081D01*
X147732977Y-79616216D02*
X147591611Y-79628176D01*
X129616712Y-131070417D02*
X129757380Y-131048607D01*
X169875594Y-66020303D02*
X169733791Y-66013453D01*
X122228002Y-108833400D02*
X122104062Y-108900550D01*
X139109064Y-122281181D02*
X139138414Y-122144906D01*
X134235283Y-129353207D02*
X134354442Y-129276577D01*
X116634626Y-123252360D02*
X116682266Y-123385386D01*
X155229420Y-80291896D02*
X155094706Y-80271556D01*
X157332693Y-78173355D02*
X157336393Y-78267135D01*
X131736527Y-90085575D02*
X131667527Y-90208107D01*
X172522533Y-89324881D02*
X172659090Y-89287761D01*
X181103795Y-77136811D02*
X181093895Y-76995158D01*
X157347212Y-77048691D02*
X157339512Y-77188459D01*
X173984488Y-66992349D02*
X173854315Y-66936549D01*
X167680810Y-89746916D02*
X167813422Y-89721826D01*
X168268053Y-99001376D02*
X168273553Y-98860285D01*
X155769709Y-80355006D02*
X155634719Y-80342626D01*
X181054085Y-76572854D02*
X181037435Y-76431737D01*
X137691404Y-125907869D02*
X137762664Y-125788861D01*
X178960491Y-84758051D02*
X179041351Y-84641888D01*
X115971116Y-118788602D02*
X115965946Y-118930848D01*
X129054876Y-131139947D02*
X129195550Y-131125037D01*
X141851337Y-81020835D02*
X141721151Y-81075095D01*
X123116315Y-108405420D02*
X122987590Y-108461800D01*
X180086115Y-73027642D02*
X180027175Y-72898405D01*
X120780818Y-128863722D02*
X120894530Y-128947162D01*
X154410488Y-117789857D02*
X154544924Y-117747357D01*
X133544127Y-87403782D02*
X133456867Y-87515271D01*
X133124679Y-129977057D02*
X133251750Y-129913597D01*
X167424123Y-89829786D02*
X167550069Y-89782196D01*
X158289602Y-116086348D02*
X158411713Y-116014948D01*
X155499715Y-80327756D02*
X155364849Y-80310706D01*
X144759229Y-118391804D02*
X144899195Y-118413704D01*
X150838345Y-79597526D02*
X150697101Y-79588426D01*
X166377063Y-107088826D02*
X166434153Y-106959623D01*
X118373861Y-126482808D02*
X118459751Y-126594572D01*
X162815834Y-112501432D02*
X162912744Y-112397878D01*
X178078931Y-85861450D02*
X178172861Y-85756050D01*
X131279819Y-130701097D02*
X131414965Y-130659857D01*
X165137310Y-66723578D02*
X165004426Y-66772919D01*
X121720444Y-129493992D02*
X121842146Y-129566522D01*
X130731161Y-130850667D02*
X130869286Y-130815677D01*
X174113690Y-67049624D02*
X173984488Y-66992349D01*
X116214588Y-121748347D02*
X116244586Y-121887316D01*
X137762664Y-125788861D02*
X137833064Y-125667737D01*
X178265501Y-85649378D02*
X178356591Y-85542148D01*
X168282720Y-97589431D02*
X168279211Y-97447067D01*
X133502203Y-129782557D02*
X133627158Y-129714407D01*
X142906009Y-80621916D02*
X142773127Y-80668376D01*
X122088765Y-129707302D02*
X122212477Y-129775162D01*
X179198611Y-84407449D02*
X179275261Y-84288585D01*
X115962147Y-119498756D02*
X115965374Y-119639993D01*
X145353203Y-79953456D02*
X145214794Y-79982276D01*
X116945303Y-124043821D02*
X117002860Y-124174143D01*
X129264038Y-98364835D02*
X129257138Y-98505497D01*
X151823173Y-79686176D02*
X151682082Y-79670706D01*
X139242664Y-121597233D02*
X139265574Y-121459122D01*
X148860179Y-79556226D02*
X148719497Y-79560326D01*
X157329112Y-77470290D02*
X157326505Y-77610965D01*
X129977078Y-94216001D02*
X129938128Y-94350437D01*
X157339512Y-77188459D02*
X157333512Y-77328908D01*
X115985174Y-120064991D02*
X115995134Y-120206636D01*
X118547370Y-126705777D02*
X118636843Y-126816569D01*
X127329587Y-107477230D02*
X127191286Y-107482730D01*
X165485694Y-108859734D02*
X165554844Y-108736487D01*
X142543644Y-117939024D02*
X142681765Y-117973024D01*
X139434786Y-119934850D02*
X139436759Y-119796864D01*
X158198162Y-73363953D02*
X158145032Y-73494122D01*
X157796609Y-116362167D02*
X157920710Y-116294438D01*
X138598614Y-124024052D02*
X138646374Y-123893723D01*
X176421507Y-68423149D02*
X176308177Y-68337997D01*
X157636032Y-75097786D02*
X157604292Y-75235110D01*
X164091418Y-67163153D02*
X163964347Y-67224819D01*
X128590240Y-107480494D02*
X128449279Y-107470174D01*
X180625861Y-81336353D02*
X180665511Y-81201216D01*
X157704312Y-74825528D02*
X157669472Y-74961051D01*
X167747983Y-102925808D02*
X167778443Y-102787843D01*
X150961167Y-118530697D02*
X151101703Y-118512827D01*
X132950727Y-88191836D02*
X132869257Y-88306010D01*
X162734592Y-67925401D02*
X162616439Y-68003373D01*
X161277163Y-69045394D02*
X161173324Y-69139840D01*
X167012801Y-90467685D02*
X167027951Y-90334368D01*
X125808679Y-131021072D02*
X125947680Y-131044622D01*
X174243163Y-67108839D02*
X174113690Y-67049624D01*
X180950981Y-79959553D02*
X180974381Y-79820578D01*
X180874335Y-75453352D02*
X180844405Y-75314453D01*
X178966165Y-71062004D02*
X178883465Y-70946155D01*
X176863479Y-68776340D02*
X176754539Y-68686016D01*
X150978879Y-79607466D02*
X150838345Y-79597526D01*
X167116681Y-91266373D02*
X167085501Y-91135757D01*
X140120658Y-117304574D02*
X140259769Y-117295324D01*
X141339811Y-117569154D02*
X141469850Y-117617874D01*
X181080441Y-78977550D02*
X181092161Y-78837309D01*
X126087828Y-131066492D02*
X126228156Y-131086722D01*
X181068995Y-76713430D02*
X181054085Y-76572854D01*
X143924423Y-118245004D02*
X144063247Y-118271364D01*
X127355224Y-131188192D02*
X127497470Y-131193392D01*
X130278548Y-93280192D02*
X130232488Y-93412916D01*
X162718654Y-112603701D02*
X162815834Y-112501432D01*
X122337337Y-129841612D02*
X122463319Y-129906632D01*
X157380792Y-76626408D02*
X157367932Y-76766714D01*
X165809208Y-66500900D02*
X165674059Y-66542108D01*
X160957648Y-114231128D02*
X161066162Y-114141188D01*
X162853733Y-67848677D02*
X162734592Y-67925401D01*
X133251750Y-129913597D02*
X133377684Y-129848717D01*
X156394315Y-117047657D02*
X156523364Y-116990437D01*
X143231558Y-118101094D02*
X143370238Y-118131404D01*
X179710585Y-72265817D02*
X179642435Y-72140914D01*
X115996611Y-118364473D02*
X115986456Y-118505281D01*
X131806367Y-89963605D02*
X131736527Y-90085575D01*
X152663791Y-79796636D02*
X152523545Y-79776026D01*
X154275909Y-117831367D02*
X154410488Y-117789857D01*
X132479272Y-130271437D02*
X132610311Y-130215467D01*
X175127250Y-88256631D02*
X175249648Y-88185661D01*
X130017778Y-104159496D02*
X130054198Y-104294507D01*
X138965552Y-82503885D02*
X138845714Y-82579255D01*
X166490683Y-106829028D02*
X166545923Y-106699260D01*
X116638129Y-115328115D02*
X116592003Y-115461410D01*
X178446831Y-85433065D02*
X178535791Y-85322994D01*
X156315108Y-80366981D02*
X156177697Y-80371881D01*
X134639427Y-86116780D02*
X134544667Y-86220764D01*
X143370238Y-118131404D02*
X143508787Y-118161104D01*
X132740482Y-130157957D02*
X132869681Y-130099027D01*
X141203517Y-81301765D02*
X141074610Y-81361115D01*
X149836514Y-118637477D02*
X149977324Y-118627477D01*
X116020018Y-120488252D02*
X116034931Y-120628937D01*
X180840751Y-80514574D02*
X180870801Y-80376306D01*
X116244586Y-121887316D02*
X116276293Y-122026145D01*
X167187211Y-91523629D02*
X167150661Y-91395420D01*
X176078496Y-87647791D02*
X176193374Y-87565061D01*
X119004977Y-127245950D02*
X119099437Y-127349779D01*
X170578497Y-89656771D02*
X170719302Y-89644371D01*
X120457728Y-109990480D02*
X120347728Y-110078030D01*
X177287892Y-69149573D02*
X177182914Y-69054010D01*
X166200534Y-107475134D02*
X166260033Y-107347071D01*
X118553007Y-111878645D02*
X118465701Y-111989286D01*
X129383988Y-101589340D02*
X129402238Y-101728729D01*
X154292041Y-80123756D02*
X154158461Y-80095636D01*
X167674971Y-93106682D02*
X167638841Y-92969704D01*
X135048853Y-128787567D02*
X135160495Y-128701727D01*
X163289974Y-111978133D02*
X163382054Y-111871603D01*
X116348342Y-116273697D02*
X116313268Y-116411241D01*
X157336393Y-78267135D02*
X157329993Y-78448171D01*
X138097844Y-125174609D02*
X138160184Y-125048833D01*
X180588295Y-74353291D02*
X180545375Y-74218461D01*
X177391450Y-69246243D02*
X177287892Y-69149573D01*
X153870484Y-117949647D02*
X154006601Y-117910967D01*
X167808991Y-93657760D02*
X167777131Y-93519775D01*
X167947560Y-89704116D02*
X168081295Y-89692596D01*
X137388534Y-126376194D02*
X137467314Y-126259879D01*
X168253953Y-99286098D02*
X168261453Y-99143741D01*
X156714313Y-80271371D02*
X156587680Y-80324781D01*
X167716633Y-103064499D02*
X167747983Y-102925808D01*
X171419116Y-89556491D02*
X171559228Y-89533561D01*
X126915151Y-107498330D02*
X126776789Y-107508630D01*
X169168401Y-89688972D02*
X169309913Y-89692972D01*
X136039389Y-84721915D02*
X135935272Y-84816965D01*
X127497470Y-131193392D02*
X127639972Y-131196992D01*
X129294570Y-107526103D02*
X129152342Y-107521244D01*
X158896488Y-115719858D02*
X159016313Y-115643928D01*
X155741258Y-117319957D02*
X155872857Y-117267397D01*
X146021438Y-118558814D02*
X146161253Y-118573104D01*
X173459779Y-66778455D02*
X173327608Y-66729169D01*
X125400438Y-107687740D02*
X125262460Y-107716710D01*
X125262460Y-107716710D02*
X125125097Y-107747320D01*
X174630026Y-88524101D02*
X174755677Y-88459651D01*
X147717545Y-118674694D02*
X147859071Y-118678594D01*
X142508500Y-80763996D02*
X142376196Y-80813436D01*
X168286819Y-98298022D02*
X168287935Y-98157215D01*
X129862918Y-94621571D02*
X129826908Y-94757558D01*
X156811793Y-80180842D02*
X156714313Y-80271371D01*
X132242817Y-89241118D02*
X132167877Y-89360544D01*
X140441375Y-81669375D02*
X140315728Y-81733965D01*
X177072834Y-86856911D02*
X177178231Y-86762561D01*
X147169177Y-79669746D02*
X147028932Y-79685696D01*
X165052214Y-109589573D02*
X165126454Y-109469441D01*
X174751740Y-67360188D02*
X174625646Y-67295066D01*
X151540558Y-79656136D02*
X151400451Y-79642656D01*
X125956636Y-107588170D02*
X125818029Y-107610200D01*
X121495526Y-109258660D02*
X121376786Y-109334310D01*
X177989555Y-69851961D02*
X177893085Y-69748348D01*
X165757984Y-108362075D02*
X165823424Y-108237418D01*
X180929085Y-75730843D02*
X180902665Y-75592202D01*
X159179472Y-71500149D02*
X159103382Y-71619216D01*
X149848541Y-79553926D02*
X149706893Y-79551418D01*
X180954195Y-75870237D02*
X180929085Y-75730843D01*
X134935670Y-128872427D02*
X135048853Y-128787567D01*
X149695140Y-118646477D02*
X149836514Y-118637477D01*
X129524148Y-96131259D02*
X129499758Y-96269943D01*
X141721151Y-81075095D02*
X141590688Y-81130485D01*
X116051596Y-120770026D02*
X116069861Y-120910273D01*
X139818504Y-82001005D02*
X139694260Y-82070705D01*
X171559248Y-66232533D02*
X171419990Y-66205672D01*
X129291558Y-97942391D02*
X129281238Y-98083069D01*
X129693048Y-95304524D02*
X129662148Y-95442357D01*
X161928540Y-68500323D02*
X161817324Y-68587914D01*
X165554844Y-108736487D02*
X165623544Y-108611980D01*
X115965946Y-118930848D02*
X115962456Y-119073359D01*
X168175511Y-95890208D02*
X168160201Y-95748963D01*
X167006023Y-105510569D02*
X167052773Y-105377129D01*
X171559228Y-89533561D02*
X171698339Y-89508821D01*
X179356155Y-71652378D02*
X179281075Y-71532661D01*
X168203121Y-96171970D02*
X168189801Y-96030881D01*
X136249473Y-84533785D02*
X136143653Y-84627835D01*
X116839004Y-114799284D02*
X116786263Y-114931037D01*
X162117720Y-113201808D02*
X162219430Y-113104058D01*
X129486788Y-102284898D02*
X129510698Y-102424003D01*
X165952644Y-107984830D02*
X166015824Y-107858328D01*
X132347809Y-130325687D02*
X132479272Y-130271437D01*
X147859071Y-118678594D02*
X148001004Y-118681686D01*
X158615642Y-72468860D02*
X158551042Y-72595192D01*
X130427079Y-106622709D02*
X130416579Y-106761102D01*
X168161753Y-100414583D02*
X168176323Y-100274344D01*
X118128433Y-112443728D02*
X118047458Y-112559892D01*
X158145032Y-73494122D02*
X158093622Y-73624872D01*
X157779542Y-74554289D02*
X157741152Y-74689401D01*
X135811844Y-128156597D02*
X135915693Y-128062117D01*
X132788237Y-88421189D02*
X132708067Y-88536777D01*
X126501652Y-107533810D02*
X126363705Y-107548800D01*
X138726010Y-82655755D02*
X138607002Y-82732965D01*
X158956332Y-71858667D02*
X158885362Y-71978851D01*
X138845714Y-82579255D02*
X138726010Y-82655755D01*
X122590375Y-129970382D02*
X122717897Y-130032562D01*
X116682266Y-123385386D02*
X116731651Y-123518122D01*
X136143653Y-84627835D02*
X136039389Y-84721915D01*
X167684343Y-103202911D02*
X167716633Y-103064499D01*
X180500465Y-74083188D02*
X180454415Y-73949398D01*
X159414922Y-71150386D02*
X159335442Y-71265359D01*
X167187793Y-104974953D02*
X167231283Y-104839803D01*
X116786263Y-114931037D02*
X116735266Y-115062917D01*
X154006601Y-117910967D02*
X154141190Y-117871737D01*
X147007968Y-118641794D02*
X147149921Y-118650094D01*
X116889304Y-123912793D02*
X116945303Y-124043821D01*
X173860796Y-88875541D02*
X173990843Y-88821151D01*
X180454415Y-73949398D02*
X180406675Y-73816432D01*
X171835338Y-66290923D02*
X171697071Y-66260824D01*
X129248598Y-99909377D02*
X129253798Y-100050046D01*
X139377034Y-120627992D02*
X139391374Y-120489439D01*
X128631595Y-131174607D02*
X128773257Y-131164707D01*
X136122092Y-127867607D02*
X136223238Y-127768847D01*
X129240388Y-99067616D02*
X129239155Y-99208153D01*
X166909823Y-105776898D02*
X166958273Y-105644022D01*
X144528312Y-80140546D02*
X144390902Y-80175396D01*
X181092161Y-78837309D02*
X181102421Y-78696358D01*
X155634719Y-80342626D02*
X155499715Y-80327756D01*
X174375734Y-88648331D02*
X174503230Y-88587001D01*
X177588767Y-86374561D02*
X177689051Y-86274541D01*
X165415584Y-108982840D02*
X165485694Y-108859734D01*
X125678928Y-107634270D02*
X125539492Y-107660190D01*
X121259122Y-109411230D02*
X121142620Y-109489440D01*
X178794751Y-84986985D02*
X178878041Y-84873227D01*
X177893085Y-69748348D02*
X177795045Y-69645490D01*
X129376198Y-97102764D02*
X129359318Y-97242880D01*
X158747672Y-72222013D02*
X158681092Y-72344707D01*
X168068761Y-95046886D02*
X168047431Y-94908057D01*
X145458901Y-118492764D02*
X145598855Y-118510364D01*
X152634340Y-118252477D02*
X152773166Y-118222787D01*
X126649534Y-131137342D02*
X126790789Y-131150752D01*
X151520440Y-118453887D02*
X151660263Y-118432187D01*
X122104062Y-108900550D02*
X121980236Y-108969540D01*
X130351898Y-105651907D02*
X130372868Y-105790722D01*
X146608334Y-79738986D02*
X146467658Y-79758986D01*
X129900168Y-94485432D02*
X129862918Y-94621571D01*
X131208237Y-91079469D02*
X131146617Y-91204845D01*
X175370745Y-88113431D02*
X175491043Y-88039481D01*
X146443159Y-118599324D02*
X146583685Y-118611274D01*
X130629028Y-92359102D02*
X130576178Y-92489132D01*
X121479294Y-129344542D02*
X121598913Y-129419622D01*
X178452215Y-70385190D02*
X178361695Y-70275827D01*
X118727307Y-126925925D02*
X118818281Y-127033303D01*
X166912885Y-66228060D02*
X166774057Y-66256268D01*
X139326218Y-82284145D02*
X139205393Y-82356565D01*
X173990843Y-88821151D02*
X174120183Y-88765191D01*
X152803464Y-79818206D02*
X152663791Y-79796636D01*
X145881330Y-118543474D02*
X146021438Y-118558814D01*
X168215033Y-99851063D02*
X168226063Y-99709398D01*
X129904028Y-103757320D02*
X129942838Y-103891334D01*
X123104605Y-130209332D02*
X123234733Y-130265152D01*
X122477977Y-108703620D02*
X122352608Y-108767790D01*
X162616439Y-68003373D02*
X162499709Y-68082534D01*
X149001128Y-79552935D02*
X148860179Y-79556226D01*
X129655258Y-102957082D02*
X129698908Y-103090808D01*
X165126454Y-109469441D02*
X165200124Y-109348470D01*
X175491043Y-88039481D02*
X175610586Y-87963981D01*
X163197194Y-112083954D02*
X163289974Y-111978133D01*
X139205393Y-82356565D02*
X139085549Y-82429525D01*
X124296548Y-130654302D02*
X124431804Y-130695822D01*
X124853203Y-107813150D02*
X124717389Y-107848730D01*
X181082245Y-76854002D02*
X181068995Y-76713430D01*
X129239155Y-99208153D02*
X129238872Y-99347674D01*
X116500681Y-122848477D02*
X116543606Y-122983344D01*
X137677713Y-83378815D02*
X137564238Y-83463245D01*
X153733640Y-117987487D02*
X153870484Y-117949647D01*
X166706853Y-106306424D02*
X166758833Y-106174539D01*
X168174672Y-66048757D02*
X168034151Y-66061975D01*
X129552708Y-102654062D02*
X129610218Y-102821653D01*
X124162220Y-130611392D02*
X124296548Y-130654302D01*
X128449279Y-107470174D02*
X128308322Y-107461674D01*
X170719302Y-89644371D02*
X170858996Y-89630311D01*
X141332711Y-81243545D02*
X141203517Y-81301765D01*
X129152342Y-107521244D02*
X129010538Y-107513044D01*
X117316698Y-113771109D02*
X117251605Y-113897043D01*
X168189801Y-96030881D02*
X168175511Y-95890208D01*
X173723402Y-66882249D02*
X173591659Y-66829479D01*
X139437676Y-119659022D02*
X139438386Y-119520759D01*
X179963031Y-83050174D02*
X180023361Y-82922115D01*
X144390902Y-80175396D02*
X144253917Y-80211236D01*
X135915693Y-128062117D02*
X136019257Y-127965647D01*
X123894597Y-130520432D02*
X124027882Y-130566632D01*
X134705762Y-129038437D02*
X134821632Y-128955737D01*
X157819632Y-74419353D02*
X157779542Y-74554289D01*
X121125975Y-129110492D02*
X121242494Y-129189692D01*
X131532087Y-90454733D02*
X131465227Y-90579258D01*
X161913155Y-113394618D02*
X162016007Y-113298278D01*
X138336384Y-124669596D02*
X138392064Y-124541248D01*
X147028932Y-79685696D02*
X146888688Y-79702456D01*
X166260033Y-107347071D02*
X166319253Y-107217600D01*
X129350578Y-101311817D02*
X129366698Y-101450230D01*
X133989807Y-86856550D02*
X133899697Y-86964340D01*
X167396323Y-104297254D02*
X167435293Y-104161245D01*
X157036885Y-116751187D02*
X157164950Y-116688577D01*
X151119827Y-79618256D02*
X150978879Y-79607466D01*
X180977505Y-76010926D02*
X180954195Y-75870237D01*
X133809747Y-87073434D02*
X133720497Y-87183213D01*
X136019257Y-127965647D02*
X136122092Y-127867607D01*
X167550069Y-89782196D02*
X167680810Y-89746916D01*
X179905235Y-72643359D02*
X179841765Y-72516373D01*
X129285598Y-100609602D02*
X129296378Y-100750274D01*
X178878041Y-84873227D02*
X178960491Y-84758051D01*
X139166484Y-122008061D02*
X139193174Y-121871350D01*
X127639972Y-131196992D02*
X127781906Y-131198857D01*
X156133797Y-117159737D02*
X156263973Y-117104197D01*
X129271938Y-98223880D02*
X129264038Y-98364835D01*
X166319253Y-107217600D02*
X166377063Y-107088826D01*
X180302591Y-82270752D02*
X180353581Y-82138862D01*
X179430095Y-71773500D02*
X179356155Y-71652378D01*
X148990236Y-118677377D02*
X149130906Y-118673077D01*
X138488861Y-82810885D02*
X138371572Y-82889375D01*
X160765782Y-69533080D02*
X160667182Y-69633787D01*
X137226084Y-126605552D02*
X137307944Y-126491651D01*
X129454128Y-96547891D02*
X129432998Y-96686861D01*
X172385552Y-66427895D02*
X172248848Y-66391246D01*
X160010002Y-70368119D02*
X159920752Y-70477453D01*
X123375393Y-108297340D02*
X123245669Y-108350610D01*
X130422618Y-92884236D02*
X130373328Y-93016546D01*
X157326278Y-77891598D02*
X157328641Y-78032961D01*
X178709621Y-85100164D02*
X178794751Y-84986985D01*
X155905291Y-80364606D02*
X155769709Y-80355006D01*
X118636843Y-126816569D02*
X118727307Y-126925925D01*
X115977956Y-118646799D02*
X115971116Y-118788602D01*
X150414627Y-79573226D02*
X150272968Y-79567026D01*
X176079243Y-68172238D02*
X175963079Y-68091234D01*
X157574182Y-75372508D02*
X157545822Y-75510313D01*
X180584481Y-81471646D02*
X180625861Y-81336353D01*
X117122082Y-124431271D02*
X117183776Y-124558340D01*
X129986450Y-107423674D02*
X129853844Y-107470844D01*
X129359318Y-97242880D02*
X129343568Y-97382128D01*
X119300425Y-111028816D02*
X119202126Y-111131802D01*
X149565940Y-79549899D02*
X149424273Y-79549191D01*
X133750823Y-129644867D02*
X133872517Y-129574617D01*
X179350481Y-84169014D02*
X179424721Y-84047477D01*
X116276293Y-122026145D02*
X116309694Y-122164682D01*
X172522121Y-66466228D02*
X172385552Y-66427895D01*
X125253625Y-130910842D02*
X125391961Y-130940962D01*
X135830995Y-84913435D02*
X135728029Y-85010055D01*
X176644316Y-68596955D02*
X176533685Y-68509619D01*
X131951717Y-130478377D02*
X132084602Y-130428947D01*
X143093729Y-118070064D02*
X143231558Y-118101094D01*
X138034234Y-125298857D02*
X138097844Y-125174609D01*
X142406522Y-117904464D02*
X142543644Y-117939024D01*
X164741217Y-66876175D02*
X164609753Y-66930489D01*
X139555302Y-118016322D02*
X139592542Y-117884299D01*
X162219430Y-113104058D02*
X162320870Y-113005328D01*
X180199725Y-73288889D02*
X180143625Y-73157888D01*
X177178231Y-86762561D02*
X177282768Y-86666941D01*
X179281075Y-71532661D02*
X179204435Y-71413410D01*
X165623544Y-108611980D02*
X165691544Y-108486750D01*
X132997608Y-130038827D02*
X133124679Y-129977057D01*
X143574502Y-80404716D02*
X143440641Y-80446096D01*
X118459751Y-126594572D02*
X118547370Y-126705777D01*
X132471747Y-88886965D02*
X132394547Y-89004824D01*
X130217339Y-107267834D02*
X130109417Y-107356244D01*
X156177697Y-80371881D02*
X156041139Y-80370497D01*
X175728640Y-67933919D02*
X175609786Y-67857267D01*
X173333813Y-89075981D02*
X173466833Y-89028391D01*
X164343064Y-110647794D02*
X164425224Y-110532620D01*
X116782378Y-123649734D02*
X116834963Y-123781328D01*
X168279211Y-97447067D02*
X168274511Y-97305258D01*
X121376786Y-109334310D02*
X121259122Y-109411230D01*
X179424721Y-84047477D02*
X179497241Y-83925786D01*
X167523271Y-92559458D02*
X167482751Y-92424462D01*
X126790789Y-131150752D02*
X126931055Y-131162672D01*
X179568341Y-83802828D02*
X179638031Y-83679157D01*
X172247273Y-89393731D02*
X172384824Y-89360311D01*
X129783188Y-103356707D02*
X129824408Y-103490577D01*
X148426009Y-118685300D02*
X148567515Y-118684594D01*
X117061820Y-124303343D02*
X117122082Y-124431271D01*
X119492988Y-127757752D02*
X119594631Y-127857212D01*
X168261453Y-99143741D02*
X168268053Y-99001376D01*
X168126621Y-95468053D02*
X168108221Y-95326959D01*
X141074610Y-81361115D02*
X140947107Y-81420895D01*
X138903194Y-123095585D02*
X138941014Y-122960583D01*
X170017122Y-66028843D02*
X169875594Y-66020303D01*
X139286984Y-121322131D02*
X139307414Y-121183866D01*
X167273783Y-104704797D02*
X167315583Y-104568961D01*
X158815812Y-72100014D02*
X158747672Y-72222013D01*
X171698339Y-89508821D02*
X171836739Y-89482651D01*
X120225533Y-128425422D02*
X120334542Y-128515802D01*
X154425361Y-80150816D02*
X154292041Y-80123756D01*
X139698652Y-117629438D02*
X139772322Y-117512428D01*
X139442903Y-119106974D02*
X139446552Y-118968988D01*
X130453796Y-130915677D02*
X130592616Y-130883957D01*
X132549537Y-88769955D02*
X132471747Y-88886965D01*
X118205554Y-126255577D02*
X118288994Y-126369617D01*
X131948317Y-89721207D02*
X131876917Y-89842204D01*
X124580753Y-107886270D02*
X124444016Y-107925640D01*
X139448761Y-82211915D02*
X139326218Y-82284145D01*
X148708183Y-118683109D02*
X148849418Y-118680726D01*
X157545822Y-75510313D02*
X157519202Y-75648847D01*
X127053315Y-107489730D02*
X126915151Y-107498330D01*
X157920710Y-116294438D02*
X158043821Y-116226158D01*
X169733791Y-66013453D02*
X169591565Y-66008243D01*
X139502522Y-118286042D02*
X139525722Y-118150616D01*
X157329993Y-78448171D02*
X157319993Y-78591968D01*
X136421274Y-127567980D02*
X136517324Y-127465991D01*
X145318650Y-118474214D02*
X145458901Y-118492764D01*
X130849457Y-91843023D02*
X130792917Y-91971234D01*
X144480147Y-118345734D02*
X144619841Y-118369294D01*
X128167800Y-107455774D02*
X128026995Y-107453308D01*
X167925061Y-94210097D02*
X167897611Y-94071688D01*
X168081295Y-89692596D02*
X168214879Y-89685696D01*
X134831097Y-85910240D02*
X134735047Y-86013081D01*
X163586833Y-67419347D02*
X163461877Y-67487557D01*
X142113123Y-80915155D02*
X141981809Y-80967565D01*
X169027580Y-89683472D02*
X169168401Y-89688972D01*
X154813092Y-117659387D02*
X154946529Y-117613907D01*
X129251438Y-98646324D02*
X129246638Y-98787544D01*
X167710121Y-93244250D02*
X167674971Y-93106682D01*
X153361334Y-79912676D02*
X153222361Y-79887956D01*
X138692424Y-123762956D02*
X138737454Y-123630931D01*
X153082679Y-79863886D02*
X152943440Y-79840576D01*
X152078877Y-118361307D02*
X152217428Y-118335597D01*
X179047185Y-71178563D02*
X178966165Y-71062004D01*
X180249881Y-82402355D02*
X180302591Y-82270752D01*
X160966943Y-69334342D02*
X160865787Y-69433066D01*
X120129555Y-110258080D02*
X120021170Y-110350720D01*
X164219345Y-67102920D02*
X164091418Y-67163153D01*
X145038727Y-118434614D02*
X145178975Y-118454764D01*
X167061051Y-90203920D02*
X167117431Y-90081078D01*
X168348476Y-89682306D02*
X168483046Y-89681213D01*
X139438386Y-119520759D02*
X139439234Y-119382773D01*
X130869286Y-130815677D02*
X131006991Y-130778997D01*
X178177815Y-70061267D02*
X178084035Y-69955813D01*
X172111303Y-66356144D02*
X171973178Y-66322626D01*
X148577710Y-79565426D02*
X148436900Y-79571426D01*
X139865392Y-117408304D02*
X139985808Y-117339334D01*
X129535608Y-102561983D02*
X129552708Y-102654062D01*
X128869857Y-107502744D02*
X128730612Y-107491684D01*
X118732337Y-111659634D02*
X118642041Y-111768574D01*
X120444656Y-128604762D02*
X120555279Y-128692162D01*
X178715165Y-70718972D02*
X178629295Y-70607244D01*
X168457422Y-66027231D02*
X168315909Y-66037171D01*
X181122921Y-78270792D02*
X181126421Y-78128291D01*
X122212477Y-129775162D02*
X122337337Y-129841612D01*
X141469850Y-117617874D02*
X141601018Y-117666884D01*
X136569918Y-84256135D02*
X136462390Y-84348075D01*
X177689051Y-86274541D02*
X177788381Y-86172824D01*
X167778443Y-102787843D02*
X167808103Y-102648869D01*
X116462933Y-115865286D02*
X116423268Y-116000435D01*
X180703901Y-81064795D02*
X180740461Y-80928093D01*
X129243038Y-98927804D02*
X129240388Y-99067616D01*
X167808103Y-102648869D02*
X167836883Y-102510042D01*
X169309913Y-89692972D02*
X169450462Y-89695481D01*
X139085549Y-82429525D02*
X138965552Y-82503885D01*
X116072355Y-117661555D02*
X116053974Y-117801088D01*
X117962659Y-125906389D02*
X118041834Y-126023252D01*
X124566970Y-130735472D02*
X124703462Y-130773862D01*
X119602038Y-110730340D02*
X119500381Y-110827940D01*
X118210809Y-112328411D02*
X118128433Y-112443728D01*
X166219740Y-66386294D02*
X166082036Y-66422944D01*
X181117721Y-78413020D02*
X181122921Y-78270792D01*
X133033437Y-88077382D02*
X132950727Y-88191836D01*
X180996261Y-79680478D02*
X181016491Y-79540226D01*
X180844405Y-75314453D02*
X180812675Y-75175649D01*
X136786377Y-84074965D02*
X136678006Y-84165045D01*
X138781104Y-123497914D02*
X138823184Y-123364468D01*
X134928007Y-85807536D02*
X134831097Y-85910240D01*
X179705751Y-83555480D02*
X179772191Y-83430691D01*
X167052773Y-105377129D02*
X167098543Y-105243683D01*
X160177666Y-114841868D02*
X160290564Y-114757298D01*
X139484402Y-118422749D02*
X139502522Y-118286042D01*
X178356591Y-85542148D02*
X178446831Y-85433065D01*
X175728179Y-87887761D02*
X175845321Y-87809711D01*
X158533691Y-115942558D02*
X158654668Y-115869588D01*
X157306573Y-78733343D02*
X157289653Y-78873591D01*
X172384824Y-89360311D02*
X172522533Y-89324881D01*
X115995134Y-120206636D02*
X116006752Y-120347734D01*
X154158461Y-80095636D02*
X154024722Y-80066676D01*
X154827525Y-80226876D02*
X154693527Y-80202716D01*
X153455954Y-79933736D02*
X153361334Y-79912676D01*
X167309341Y-91908942D02*
X167267261Y-91781454D01*
X157996162Y-73886446D02*
X157949702Y-74018226D01*
X137564238Y-83463245D02*
X137451062Y-83548525D01*
X136517324Y-127465991D02*
X136611384Y-127363007D01*
X139985808Y-117339334D02*
X140120658Y-117304574D01*
X156908401Y-116812797D02*
X157036885Y-116751187D01*
X161069778Y-69236298D02*
X160966943Y-69334342D01*
X150697101Y-79588426D02*
X150555586Y-79580426D01*
X144939560Y-80042526D02*
X144801859Y-80074386D01*
X167085501Y-91135757D02*
X167058231Y-91004158D01*
X166654143Y-106437610D02*
X166706853Y-106306424D01*
X143846218Y-80324106D02*
X143710081Y-80364066D01*
X158681092Y-72344707D02*
X158615642Y-72468860D01*
X170721328Y-66096528D02*
X170580793Y-66079672D01*
X158367732Y-72975752D02*
X158309652Y-73104578D01*
X126367715Y-131105102D02*
X126508203Y-131122022D01*
X134821632Y-128955737D02*
X134935670Y-128872427D01*
X122463319Y-129906632D02*
X122590375Y-129970382D01*
X130123888Y-104565080D02*
X130157178Y-104700360D01*
X136703604Y-127259171D02*
X136794134Y-127154049D01*
X174876529Y-67426643D02*
X174751740Y-67360188D01*
X135626163Y-85106805D02*
X135524166Y-85205135D01*
X181066971Y-79118785D02*
X181080441Y-78977550D01*
X130109417Y-107356244D02*
X129986450Y-107423674D01*
X130737257Y-92100556D02*
X130682438Y-92230182D01*
X181016491Y-79540226D02*
X181034771Y-79400564D01*
X167117431Y-90081078D02*
X167200451Y-89975836D01*
X167617473Y-103478160D02*
X167651323Y-103340317D01*
X158551042Y-72595192D02*
X158488122Y-72721739D01*
X177494439Y-69344571D02*
X177391450Y-69246243D01*
X116021900Y-118083005D02*
X116008377Y-118224219D01*
X166758833Y-106174539D02*
X166809973Y-106042508D01*
X168146333Y-100554557D02*
X168161753Y-100414583D01*
X150540001Y-118577917D02*
X150680250Y-118563267D01*
X119009934Y-111340199D02*
X118916069Y-111445731D01*
X167864483Y-102371926D02*
X167891283Y-102232949D01*
X116459444Y-122713339D02*
X116500681Y-122848477D01*
X117884661Y-125788388D02*
X117962659Y-125906389D01*
X117065464Y-114279528D02*
X117006279Y-114408998D01*
X133872517Y-129574617D02*
X133994487Y-129502227D01*
X163216508Y-67627376D02*
X163094538Y-67699778D01*
X142640531Y-80715686D02*
X142508500Y-80763996D01*
X119594631Y-127857212D02*
X119697560Y-127955532D01*
X180402861Y-82006843D02*
X180450751Y-81873538D01*
X164587114Y-110300596D02*
X164666324Y-110184119D01*
X136611384Y-127363007D02*
X136703604Y-127259171D01*
X176754539Y-68686016D02*
X176644316Y-68596955D01*
X146866867Y-118632394D02*
X147007968Y-118641794D01*
X165539202Y-66585004D02*
X165404052Y-66629826D01*
X148155129Y-79586226D02*
X148014731Y-79595226D01*
X163711351Y-67353249D02*
X163586833Y-67419347D01*
X139265574Y-121459122D02*
X139286984Y-121322131D01*
X164091614Y-110989060D02*
X164176204Y-110876005D01*
X133117007Y-87963469D02*
X133033437Y-88077382D01*
X164872962Y-66823619D02*
X164741217Y-66876175D01*
X135935272Y-84816965D02*
X135830995Y-84913435D01*
X130682438Y-92230182D02*
X130629028Y-92359102D01*
X129603598Y-95718178D02*
X129576038Y-95855303D01*
X120118255Y-128334332D02*
X120225533Y-128425422D01*
X168262611Y-97021800D02*
X168255111Y-96879836D01*
X161388733Y-113866358D02*
X161495120Y-113773138D01*
X123761377Y-130472562D02*
X123894597Y-130520432D01*
X129241507Y-99628738D02*
X129244498Y-99768986D01*
X137058494Y-126828229D02*
X137142914Y-126717732D01*
X180023361Y-82922115D02*
X180082571Y-82792784D01*
X129716017Y-107501294D02*
X129575773Y-107518294D01*
X161173324Y-69139840D02*
X161069778Y-69236298D01*
X132869257Y-88306010D02*
X132788237Y-88421189D01*
X121735049Y-109111890D02*
X121614635Y-109184720D01*
X119809898Y-110537700D02*
X119705536Y-110633300D01*
X172929662Y-89208711D02*
X173064947Y-89166221D01*
X141601018Y-117666884D02*
X141733053Y-117714774D01*
X130017018Y-94081706D02*
X129977078Y-94216001D01*
X116543606Y-122983344D02*
X116588471Y-123118495D01*
X167836883Y-102510042D02*
X167864483Y-102371926D01*
X161489810Y-68858740D02*
X161382707Y-68951715D01*
X168288078Y-98015124D02*
X168287227Y-97872749D01*
X167190970Y-66176690D02*
X167051581Y-66201599D01*
X158427222Y-72848370D02*
X158367732Y-72975752D01*
X129826908Y-94757558D02*
X129791928Y-94893860D01*
X139452052Y-118832149D02*
X139459752Y-118695157D01*
X164976854Y-109709561D02*
X165052214Y-109589573D01*
X131549823Y-130616937D02*
X131684974Y-130572037D01*
X180143625Y-73157888D02*
X180086115Y-73027642D01*
X167035941Y-90871564D02*
X167019491Y-90736982D01*
X117002860Y-124174143D02*
X117061820Y-124303343D01*
X121360469Y-129267902D02*
X121479294Y-129344542D01*
X116092549Y-117521300D02*
X116072355Y-117661555D01*
X130416579Y-106761102D02*
X130395639Y-106898518D01*
X129549678Y-95992997D02*
X129524148Y-96131259D01*
X158043821Y-116226158D02*
X158166637Y-116156888D01*
X117446628Y-125060802D02*
X117516184Y-125184627D01*
X167231283Y-104839803D02*
X167273783Y-104704797D01*
X175000207Y-67494399D02*
X174876529Y-67426643D01*
X177696295Y-69544315D02*
X177596005Y-69443974D01*
X178541605Y-70496026D02*
X178452215Y-70385190D01*
X152383728Y-79756256D02*
X152243478Y-79737286D01*
X168273553Y-98860285D02*
X168278153Y-98720040D01*
X129315408Y-97661767D02*
X129302918Y-97802433D01*
X168094443Y-100975290D02*
X168112553Y-100835046D01*
X150555586Y-79580426D02*
X150414627Y-79573226D01*
X146725211Y-118622304D02*
X146866867Y-118632394D01*
X132167877Y-89360544D02*
X132093947Y-89480118D01*
X164506944Y-110416456D02*
X164587114Y-110300596D01*
X116114422Y-117381064D02*
X116092549Y-117521300D01*
X178629295Y-70607244D02*
X178541605Y-70496026D01*
X136678006Y-84165045D02*
X136569918Y-84256135D01*
X148849418Y-118680726D02*
X148990236Y-118677377D01*
X179502485Y-71895456D02*
X179430095Y-71773500D01*
X129267398Y-100329535D02*
X129275898Y-100469929D01*
X117586518Y-125306311D02*
X117658935Y-125428282D01*
X163094538Y-67699778D02*
X162973439Y-67773669D01*
X156041139Y-80370497D02*
X155905291Y-80364606D01*
X157140433Y-79563057D02*
X157093843Y-79695650D01*
X147873660Y-79605326D02*
X147732977Y-79616216D01*
X139470452Y-118559154D02*
X139484402Y-118422749D01*
X128308322Y-107461674D02*
X128167800Y-107455774D01*
X181126730Y-77703025D02*
X181123595Y-77561786D01*
X133201017Y-87850569D02*
X133117007Y-87963469D01*
X152496071Y-118281067D02*
X152634340Y-118252477D01*
X173599294Y-88978961D02*
X173730182Y-88928231D01*
X129195550Y-131125037D02*
X129336647Y-131108397D01*
X157519202Y-75648847D02*
X157494642Y-75787236D01*
X139459752Y-118695157D02*
X139470452Y-118559154D01*
X129499758Y-96269943D02*
X129476398Y-96408921D01*
X117187885Y-114024108D02*
X117125838Y-114151608D01*
X176308177Y-68337997D02*
X176194558Y-68254642D01*
X179204435Y-71413410D02*
X179126365Y-71295349D01*
X124717389Y-107848730D02*
X124580753Y-107886270D01*
X167744401Y-93382504D02*
X167710121Y-93244250D01*
X166958273Y-105644022D02*
X167006023Y-105510569D01*
X129575773Y-107518294D02*
X129435666Y-107525644D01*
X145598855Y-118510364D02*
X145739815Y-118527314D01*
X135599216Y-128343167D02*
X135706318Y-128250237D01*
X173854315Y-66936549D02*
X173723402Y-66882249D01*
X134450467Y-86325453D02*
X134357257Y-86430287D01*
X156452664Y-80352931D02*
X156315108Y-80366981D01*
X157214573Y-79291914D02*
X157180373Y-79428192D01*
X122987590Y-108461800D02*
X122859783Y-108519750D01*
X181112195Y-77278867D02*
X181103795Y-77136811D01*
X118818281Y-127033303D02*
X118911270Y-127140546D01*
X168246711Y-96737751D02*
X168237111Y-96595682D01*
X159746802Y-70697962D02*
X159661952Y-70809564D01*
X167473533Y-104024688D02*
X167510793Y-103888539D01*
X168886082Y-89676372D02*
X169027580Y-89683472D01*
X117968298Y-112676342D02*
X117890200Y-112794341D01*
X171001243Y-66135166D02*
X170860850Y-66114948D01*
X143172891Y-80531946D02*
X143039305Y-80576436D01*
X177886691Y-86069977D02*
X177983451Y-85966269D01*
X117450836Y-113522483D02*
X117383123Y-113646158D01*
X167305981Y-89893096D02*
X167424123Y-89829786D01*
X121842146Y-129566522D02*
X121965123Y-129637762D01*
X179041351Y-84641888D02*
X179120561Y-84525309D01*
X157741152Y-74689401D02*
X157704312Y-74825528D01*
X169023647Y-66004330D02*
X168882410Y-66007531D01*
X153222361Y-79887956D02*
X153082679Y-79863886D01*
X121857060Y-109040080D02*
X121735049Y-109111890D01*
X155094706Y-80271556D02*
X154960968Y-80249806D01*
X168214879Y-89685696D02*
X168348476Y-89682306D01*
X139404534Y-120350190D02*
X139416604Y-120210659D01*
X138255116Y-82968565D02*
X138138397Y-83049035D01*
X168287935Y-98157215D02*
X168288078Y-98015124D01*
X180306675Y-73552059D02*
X180253985Y-73420372D01*
X139326714Y-121045036D02*
X139344684Y-120906498D01*
X153622996Y-79974396D02*
X153455954Y-79933736D01*
X153596928Y-118024167D02*
X153733640Y-117987487D01*
X180496811Y-81740231D02*
X180541561Y-81605942D01*
X139639432Y-117754388D02*
X139698652Y-117629438D01*
X118823369Y-111552403D02*
X118732337Y-111659634D01*
X152943440Y-79840576D02*
X152803464Y-79818206D01*
X145770540Y-79872996D02*
X145631016Y-79898696D01*
X119705536Y-110633300D02*
X119602038Y-110730340D01*
X151260643Y-79630106D02*
X151119827Y-79618256D01*
X142955737Y-118038464D02*
X143093729Y-118070064D01*
X167612129Y-66111718D02*
X167472313Y-66131584D01*
X166015824Y-107858328D02*
X166078434Y-107730695D01*
X119500381Y-110827940D02*
X119399801Y-110927250D01*
X181123595Y-77561786D02*
X181118595Y-77419853D01*
X124431804Y-130695822D02*
X124566970Y-130735472D01*
X175846489Y-68012046D02*
X175728640Y-67933919D01*
X170015394Y-89689231D02*
X170156070Y-89683831D01*
X175004141Y-88325901D02*
X175127250Y-88256631D01*
X135491840Y-128434107D02*
X135599216Y-128343167D01*
X176306996Y-87481071D02*
X176419061Y-87396081D01*
X167917633Y-102093413D02*
X167942873Y-101953173D01*
X157333512Y-77328908D02*
X157329112Y-77470290D01*
X166545923Y-106699260D02*
X166600173Y-106569066D01*
X123905407Y-108098480D02*
X123771940Y-108145790D01*
X130057978Y-93947412D02*
X130017018Y-94081706D01*
X130054198Y-104294507D02*
X130089598Y-104429935D01*
X117890200Y-112794341D02*
X117813561Y-112913186D01*
X179900971Y-83177672D02*
X179963031Y-83050174D01*
X144801859Y-80074386D02*
X144665439Y-80106836D01*
X171280317Y-66180461D02*
X171141342Y-66157073D01*
X126059799Y-107580170D02*
X125956636Y-107588170D01*
X180629535Y-74488380D02*
X180588295Y-74353291D01*
X146187732Y-79801656D02*
X146048491Y-79824406D01*
X117006279Y-114408998D02*
X116949033Y-114538201D01*
X167651323Y-103340317D02*
X167684343Y-103202911D01*
X153324365Y-118094147D02*
X153460499Y-118059727D01*
X139307414Y-121183866D02*
X139326714Y-121045036D01*
X176858915Y-87041761D02*
X176966443Y-86949831D01*
X153049118Y-118160457D02*
X153186952Y-118127727D01*
X133899697Y-86964340D02*
X133809747Y-87073434D01*
X179126365Y-71295349D02*
X179047185Y-71178563D01*
X169165731Y-66002786D02*
X169023647Y-66004330D01*
X118379260Y-112101477D02*
X118294135Y-112214806D01*
X139012554Y-122689032D02*
X139045994Y-122553740D01*
X129741398Y-103223689D02*
X129783188Y-103356707D01*
X170298184Y-66050842D02*
X170157931Y-66039037D01*
X168190043Y-100132966D02*
X168202913Y-99992010D01*
X173199520Y-89122041D02*
X173333813Y-89075981D01*
X123771940Y-108145790D02*
X123638700Y-108194920D01*
X173466833Y-89028391D02*
X173599294Y-88978961D01*
X160403616Y-114671148D02*
X160515670Y-114584738D01*
X130373328Y-93016546D02*
X130325448Y-93148156D01*
X145178975Y-118454764D02*
X145318650Y-118474214D01*
X126931055Y-131162672D02*
X127071944Y-131172892D01*
X157268983Y-79013413D02*
X157243973Y-79153513D01*
X157367932Y-76766714D02*
X157356672Y-76907682D01*
X159256972Y-71381990D02*
X159179472Y-71500149D01*
X117738424Y-113032767D02*
X117664094Y-113154311D01*
X117312263Y-124811337D02*
X117378404Y-124935856D01*
X134544667Y-86220764D02*
X134450467Y-86325453D01*
X167893466Y-66076865D02*
X167752378Y-66093491D01*
X161174391Y-114050228D02*
X161282061Y-113958438D01*
X123234733Y-130265152D02*
X123365687Y-130319412D01*
X115965374Y-119639993D02*
X115970314Y-119781929D01*
X141997404Y-117796784D02*
X142133391Y-117833354D01*
X133377684Y-129848717D02*
X133502203Y-129782557D01*
X133286017Y-87737521D02*
X133201017Y-87850569D01*
X131146617Y-91204845D02*
X131085287Y-91331629D01*
X118642041Y-111768574D02*
X118553007Y-111878645D01*
X167356233Y-104433527D02*
X167396323Y-104297254D01*
X115986456Y-118505281D02*
X115977956Y-118646799D01*
X161705054Y-113585578D02*
X161809050Y-113490808D01*
X124173818Y-108008800D02*
X124039748Y-108052710D01*
X151241376Y-118494257D02*
X151381343Y-118474447D01*
X129239580Y-99488069D02*
X129241507Y-99628738D01*
X131024817Y-91458986D02*
X130965737Y-91586050D01*
X131414965Y-130659857D02*
X131549823Y-130616937D01*
X172248848Y-66391246D02*
X172111303Y-66356144D01*
X138138397Y-83049035D02*
X138022661Y-83130065D01*
X129275898Y-100469929D02*
X129285598Y-100609602D01*
X162040163Y-68414448D02*
X161928540Y-68500323D01*
X165270186Y-66675952D02*
X165137310Y-66723578D01*
X130304468Y-105379343D02*
X130328928Y-105515064D01*
X130391138Y-105929132D02*
X130406618Y-106066686D01*
X139439234Y-119382773D02*
X139440578Y-119244804D01*
X167396481Y-92165209D02*
X167352411Y-92036866D01*
X116037150Y-117941610D02*
X116021900Y-118083005D01*
X161597188Y-68767794D02*
X161489810Y-68858740D01*
X167869081Y-93933431D02*
X167839661Y-93795879D01*
X139427394Y-120072255D02*
X139434786Y-119934850D01*
X125115854Y-130879112D02*
X125253625Y-130910842D01*
X137005099Y-83896735D02*
X136895441Y-83985425D01*
X167098543Y-105243683D02*
X167143583Y-105109243D01*
X157319993Y-78591968D02*
X157306573Y-78733343D01*
X168236253Y-99568452D02*
X168245553Y-99427777D01*
X176966443Y-86949831D02*
X177072834Y-86856911D01*
X136895441Y-83985425D02*
X136786377Y-84074965D01*
X173064947Y-89166221D02*
X173199520Y-89122041D01*
X135123637Y-85604119D02*
X135025337Y-85705689D01*
X129938128Y-94350437D02*
X129900168Y-94485432D01*
X179638031Y-83679157D02*
X179705751Y-83555480D01*
X122975326Y-130152112D02*
X123104605Y-130209332D01*
X135728029Y-85010055D02*
X135626163Y-85106805D01*
X173194433Y-66681259D02*
X173061137Y-66635102D01*
X157671381Y-116429187D02*
X157796609Y-116362167D01*
X121980236Y-108969540D02*
X121857060Y-109040080D01*
X132869681Y-130099027D02*
X132997608Y-130038827D01*
X116423268Y-116000435D02*
X116384963Y-116136994D01*
X119105470Y-111235370D02*
X119009934Y-111340199D01*
X130037446Y-131000187D02*
X130176141Y-130973917D01*
X156651566Y-116932347D02*
X156780052Y-116873147D01*
X148014731Y-79595226D02*
X147873660Y-79605326D01*
X135382473Y-128524627D02*
X135491840Y-128434107D01*
X142269530Y-117869194D02*
X142406522Y-117904464D01*
X116313268Y-116411241D02*
X116279779Y-116549377D01*
X161282061Y-113958438D02*
X161388733Y-113866358D01*
X125669072Y-130995992D02*
X125808679Y-131021072D01*
X140315728Y-81733965D02*
X140190508Y-81799415D01*
X134589316Y-129119457D02*
X134705762Y-129038437D01*
X119906059Y-128147772D02*
X120011555Y-128241692D01*
X132093947Y-89480118D02*
X132020547Y-89600937D01*
X168143931Y-95608864D02*
X168126621Y-95468053D01*
X129321398Y-101032172D02*
X129335408Y-101172135D01*
X157949702Y-74018226D02*
X157904932Y-74150983D01*
X144619841Y-118369294D02*
X144759229Y-118391804D01*
X176419061Y-87396081D02*
X176530263Y-87309641D01*
X144341192Y-118321664D02*
X144480147Y-118345734D01*
X157494642Y-75787236D02*
X157471202Y-75927268D01*
X159604919Y-115252638D02*
X159721364Y-115171638D01*
X129343568Y-97382128D02*
X129328998Y-97521231D01*
X179497241Y-83925786D02*
X179568341Y-83802828D01*
X180353581Y-82138862D02*
X180402861Y-82006843D01*
X172792561Y-66547415D02*
X172657260Y-66505935D01*
X180027175Y-72898405D02*
X179966985Y-72770415D01*
X168278153Y-98720040D02*
X168281953Y-98579362D01*
X170998236Y-89614551D02*
X171138202Y-89597041D01*
X127781906Y-131198857D02*
X127923293Y-131198999D01*
X115970314Y-119781929D02*
X115976864Y-119922904D01*
X138279024Y-124797228D02*
X138336384Y-124669596D01*
X165823424Y-108237418D02*
X165888464Y-108111474D01*
X117378404Y-124935856D02*
X117446628Y-125060802D01*
X168034151Y-66061975D02*
X167893466Y-66076865D01*
X128489526Y-131183007D02*
X128631595Y-131174607D01*
X139078284Y-122417463D02*
X139109064Y-122281181D01*
X152356809Y-118308847D02*
X152496071Y-118281067D01*
X115960680Y-119215282D02*
X115960566Y-119356672D01*
X180974381Y-79820578D02*
X180996261Y-79680478D01*
X136223238Y-127768847D02*
X136323254Y-127668847D01*
X122604921Y-108640580D02*
X122477977Y-108703620D01*
X164005504Y-111102251D02*
X164091614Y-110989060D01*
X117183776Y-124558340D02*
X117247326Y-124685412D01*
X149142231Y-79550892D02*
X149001128Y-79552935D01*
X126639552Y-107520360D02*
X126501652Y-107533810D01*
X177385612Y-86570761D02*
X177487900Y-86473011D01*
X137451062Y-83548525D02*
X137338565Y-83634505D01*
X181128146Y-77986348D02*
X181128287Y-77845111D01*
X180082571Y-82792784D02*
X180139801Y-82663440D01*
X143306762Y-80488596D02*
X143172891Y-80531946D01*
X118047458Y-112559892D02*
X117968298Y-112676342D01*
X168237111Y-96595682D02*
X168226571Y-96454018D01*
X176749981Y-87132701D02*
X176858915Y-87041761D01*
X129238872Y-99347674D02*
X129239580Y-99488069D01*
X163918944Y-111214286D02*
X164005504Y-111102251D01*
X162521033Y-112806418D02*
X162620634Y-112705124D01*
X166082036Y-66422944D02*
X165945197Y-66461164D01*
X137543944Y-126143013D02*
X137618764Y-126025574D01*
X157292311Y-116625107D02*
X157418679Y-116561077D01*
X120347728Y-110078030D02*
X120238296Y-110167290D01*
X164666324Y-110184119D02*
X164745374Y-110066121D01*
X123497392Y-130372252D02*
X123629307Y-130423262D01*
X133720497Y-87183213D02*
X133632237Y-87292856D01*
X115962456Y-119073359D02*
X115960680Y-119215282D01*
X130418688Y-106205652D02*
X130426788Y-106345053D01*
X130576178Y-92489132D02*
X130524198Y-92620043D01*
X121009785Y-129029462D02*
X121125975Y-129110492D01*
X150399071Y-118591827D02*
X150540001Y-118577917D01*
X181126421Y-78128291D02*
X181128146Y-77986348D01*
X168088991Y-95186436D02*
X168068761Y-95046886D01*
X119914657Y-110443920D02*
X119809898Y-110537700D01*
X157395492Y-76485643D02*
X157380792Y-76626408D01*
X130303069Y-107160172D02*
X130217339Y-107267834D01*
X168055473Y-101255639D02*
X168075433Y-101115537D01*
X137618764Y-126025574D02*
X137691404Y-125907869D01*
X168285405Y-97731096D02*
X168282720Y-97589431D01*
X133632237Y-87292856D02*
X133544127Y-87403782D01*
X167897611Y-94071688D02*
X167869081Y-93933431D01*
X139344684Y-120906498D02*
X139361434Y-120767395D01*
X120011555Y-128241692D02*
X120118255Y-128334332D01*
X129898046Y-131025297D02*
X130037446Y-131000187D01*
X133456867Y-87515271D02*
X133371157Y-87626034D01*
X120894530Y-128947162D02*
X121009785Y-129029462D01*
X130359719Y-107033526D02*
X130303069Y-107160172D01*
X130328928Y-105515064D02*
X130351898Y-105651907D01*
X139045994Y-122553740D02*
X139078284Y-122417463D01*
X138371572Y-82889375D02*
X138255116Y-82968565D01*
X117520463Y-113398952D02*
X117450836Y-113522483D01*
X124703462Y-130773862D02*
X124840218Y-130810412D01*
X139592542Y-117884299D02*
X139639432Y-117754388D01*
X163102854Y-112189775D02*
X163197194Y-112083954D01*
X129824408Y-103490577D02*
X129864648Y-103624009D01*
X154679079Y-117703867D02*
X154813092Y-117659387D01*
X135321881Y-85403745D02*
X135255008Y-85470477D01*
X135422449Y-85304295D02*
X135321881Y-85403745D01*
X138977704Y-122824595D02*
X139012554Y-122689032D01*
X116949033Y-114538201D02*
X116893275Y-114668372D01*
X137902064Y-125545201D02*
X137969064Y-125422241D01*
X164348545Y-67043974D02*
X164219345Y-67102920D01*
X119697560Y-127955532D02*
X119801187Y-128052152D01*
X167951821Y-94349502D02*
X167925061Y-94210097D01*
X131599527Y-90330929D02*
X131532087Y-90454733D01*
X129328998Y-97521231D02*
X129315408Y-97661767D01*
X138823184Y-123364468D02*
X138863984Y-123230310D01*
X157326505Y-77610965D02*
X157325570Y-77750771D01*
X154693527Y-80202716D02*
X154559225Y-80177286D01*
X162973439Y-67773669D02*
X162853733Y-67848677D01*
X119293996Y-127556311D02*
X119392748Y-127657467D01*
X180870801Y-80376306D02*
X180899221Y-80238485D01*
X129253798Y-100050046D02*
X129259998Y-100189579D01*
X168202913Y-99992010D02*
X168215033Y-99851063D01*
X150258522Y-118604687D02*
X150399071Y-118591827D01*
X167143583Y-105109243D02*
X167187793Y-104974953D01*
X152523545Y-79776026D02*
X152383728Y-79756256D01*
X141590688Y-81130485D02*
X141461337Y-81186605D01*
X121142620Y-109489440D02*
X121026812Y-109569040D01*
X160378172Y-69942566D02*
X160284262Y-70047510D01*
X125125097Y-107747320D02*
X124988987Y-107779430D01*
X129464008Y-102146062D02*
X129486788Y-102284898D01*
X162153357Y-68329606D02*
X162040163Y-68414448D01*
X178883465Y-70946155D02*
X178800015Y-70832116D01*
X181051651Y-79260168D02*
X181066971Y-79118785D01*
X168315909Y-66037171D02*
X168174672Y-66048757D01*
X146327840Y-79779786D02*
X146187732Y-79801656D01*
X160284262Y-70047510D02*
X160191622Y-70153359D01*
X117125838Y-114151608D02*
X117065464Y-114279528D01*
X136355860Y-84440285D02*
X136249473Y-84533785D01*
X159335442Y-71265359D02*
X159256972Y-71381990D01*
X119399801Y-110927250D02*
X119300425Y-111028816D01*
X157904932Y-74150983D02*
X157861282Y-74285029D01*
X156263973Y-117104197D02*
X156394315Y-117047657D01*
X132628727Y-88652667D02*
X132549537Y-88769955D01*
X171278448Y-89577731D02*
X171419116Y-89556491D01*
X125818029Y-107610200D02*
X125678928Y-107634270D01*
X147149921Y-118650094D02*
X147292001Y-118657694D01*
X128206617Y-131194307D02*
X128348559Y-131189407D01*
X143440641Y-80446096D02*
X143306762Y-80488596D01*
X130249848Y-105107354D02*
X130277908Y-105243355D01*
X148284188Y-118685017D02*
X148426009Y-118685300D01*
X159920752Y-70477453D02*
X159833492Y-70586871D01*
X138863984Y-123230310D02*
X138903194Y-123095585D01*
X138392064Y-124541248D02*
X138446034Y-124413039D01*
X120667532Y-128778582D02*
X120780818Y-128863722D01*
X128730612Y-107491684D02*
X128590240Y-107480494D01*
X130472908Y-92751646D02*
X130422618Y-92884236D01*
X162421163Y-112906438D02*
X162521033Y-112806418D01*
X141461337Y-81186605D02*
X141332711Y-81243545D01*
X167440691Y-92293003D02*
X167396481Y-92165209D01*
X156975263Y-79951498D02*
X156900183Y-80070779D01*
X156004038Y-117213847D02*
X156133797Y-117159737D01*
X116735266Y-115062917D02*
X116686010Y-115194937D01*
X159721364Y-115171638D02*
X159836824Y-115090038D01*
X120569514Y-109903620D02*
X120457728Y-109990480D01*
X180665511Y-81201216D02*
X180703901Y-81064795D01*
X116588471Y-123118495D02*
X116634626Y-123252360D01*
X118122892Y-126139708D02*
X118205554Y-126255577D01*
X117664094Y-113154311D02*
X117591662Y-113276004D01*
X131876917Y-89842204D02*
X131806367Y-89963605D01*
X131818840Y-130525967D02*
X131951717Y-130478377D01*
X135222097Y-85503526D02*
X135123637Y-85604119D01*
X154544924Y-117747357D02*
X154679079Y-117703867D01*
X160100382Y-70260073D02*
X160010002Y-70368119D01*
X167200451Y-89975836D02*
X167305981Y-89893096D01*
X140190508Y-81799415D02*
X140065973Y-81865865D01*
X180812675Y-75175649D02*
X180779245Y-75037088D01*
X152217428Y-118335597D02*
X152356809Y-118308847D01*
X168269011Y-97163033D02*
X168262611Y-97021800D01*
X122732515Y-108579100D02*
X122604921Y-108640580D01*
X131143820Y-130740757D02*
X131279819Y-130701097D01*
X170297441Y-89676531D02*
X170438104Y-89667431D01*
X165888464Y-108111474D02*
X165952644Y-107984830D01*
X168001921Y-94628848D02*
X167977351Y-94488739D01*
X168274511Y-97305258D02*
X168269011Y-97163033D01*
X146748724Y-79720176D02*
X146608334Y-79738986D01*
X180999315Y-76151589D02*
X180977505Y-76010926D01*
X168075433Y-101115537D02*
X168094443Y-100975290D01*
X116034931Y-120628937D02*
X116051596Y-120770026D01*
X116419666Y-122577348D02*
X116459444Y-122713339D01*
X134081047Y-86748875D02*
X133989807Y-86856550D01*
X168215321Y-96312778D02*
X168203121Y-96171970D01*
X127071944Y-131172892D02*
X127213424Y-131181592D01*
X132020547Y-89600937D02*
X131948317Y-89721207D01*
X158411713Y-116014948D02*
X158533691Y-115942558D01*
X173061137Y-66635102D02*
X172926849Y-66590366D01*
X138737454Y-123630931D02*
X138781104Y-123497914D01*
X117247326Y-124685412D02*
X117312263Y-124811337D01*
X158093622Y-73624872D02*
X158044052Y-73755246D01*
X141865791Y-117759384D02*
X141997404Y-117796784D01*
X150680250Y-118563267D02*
X150821070Y-118547387D01*
X117251605Y-113897043D02*
X117187885Y-114024108D01*
X175610586Y-87963981D02*
X175728179Y-87887761D01*
X168047431Y-94908057D02*
X168025271Y-94768524D01*
X134172687Y-86641784D02*
X134081047Y-86748875D01*
X162383264Y-68163564D02*
X162267394Y-68246194D01*
X118041834Y-126023252D02*
X118122892Y-126139708D01*
X129281238Y-98083069D02*
X129271938Y-98223880D01*
X137115600Y-83808615D02*
X137005099Y-83896735D01*
X157430152Y-76205028D02*
X157411992Y-76345081D01*
X178623191Y-85212353D02*
X178709621Y-85100164D01*
X129442398Y-102007945D02*
X129464008Y-102146062D01*
X181128287Y-77845111D02*
X181126730Y-77703025D01*
X171141342Y-66157073D02*
X171001243Y-66135166D01*
X178270735Y-70168433D02*
X178177815Y-70061267D01*
X142244025Y-80864005D02*
X142113123Y-80915155D01*
X120334542Y-128515802D02*
X120444656Y-128604762D01*
X151799810Y-118409547D02*
X151939342Y-118385917D01*
X167990433Y-101674378D02*
X168012903Y-101535127D01*
X132394547Y-89004824D02*
X132318177Y-89122832D01*
X155476629Y-117422387D02*
X155609367Y-117371517D01*
X143039305Y-80576436D02*
X142906009Y-80621916D01*
X167352411Y-92036866D02*
X167309341Y-91908942D01*
X157669472Y-74961051D02*
X157636032Y-75097786D01*
X116592003Y-115461410D02*
X116547307Y-115595697D01*
X155364849Y-80310706D02*
X155229420Y-80291896D01*
X119392748Y-127657467D02*
X119492988Y-127757752D01*
X129724918Y-95167675D02*
X129693048Y-95304524D01*
X180545375Y-74218461D02*
X180500465Y-74083188D01*
X180809021Y-80652404D02*
X180840751Y-80514574D01*
X167601461Y-92832993D02*
X167562931Y-92696017D01*
X175249648Y-88185661D02*
X175370745Y-88113431D01*
X169874864Y-89693381D02*
X170015394Y-89689231D01*
X126227005Y-107565200D02*
X126059799Y-107580170D01*
X168245553Y-99427777D02*
X168253953Y-99286098D01*
X127213424Y-131181592D02*
X127355224Y-131188192D01*
X169450462Y-89695481D02*
X169592256Y-89696456D01*
X174625646Y-67295066D02*
X174498719Y-67231319D01*
X145909089Y-79848166D02*
X145770540Y-79872996D01*
X167839661Y-93795879D02*
X167808991Y-93657760D01*
X163461877Y-67487557D02*
X163338204Y-67557082D01*
X141733053Y-117714774D02*
X141865791Y-117759384D01*
X174371083Y-67169244D02*
X174243163Y-67108839D01*
X120021170Y-110350720D02*
X119914657Y-110443920D01*
X158885362Y-71978851D02*
X158815812Y-72100014D01*
X116162962Y-117102543D02*
X116137768Y-117242087D01*
X142133391Y-117833354D02*
X142269530Y-117869194D01*
X167813422Y-89721826D02*
X167947560Y-89704116D01*
X160290564Y-114757298D02*
X160403616Y-114671148D01*
X157418679Y-116561077D02*
X157545459Y-116495477D01*
X140259769Y-117295324D02*
X140400586Y-117304024D01*
X163382054Y-111871603D02*
X163473564Y-111763798D01*
X139193174Y-121871350D02*
X139218554Y-121734503D01*
X135524166Y-85205135D02*
X135422449Y-85304295D01*
X128026995Y-107453308D02*
X127886457Y-107455291D01*
X118465701Y-111989286D02*
X118379260Y-112101477D01*
X139942170Y-81932855D02*
X139818504Y-82001005D01*
X140809847Y-117389964D02*
X140943440Y-117430484D01*
X180253985Y-73420372D02*
X180199725Y-73288889D01*
X139525722Y-118150616D02*
X139555302Y-118016322D01*
X123245669Y-108350610D02*
X123116315Y-108405420D01*
X139446552Y-118968988D02*
X139452052Y-118832149D01*
X151400451Y-79642656D02*
X151260643Y-79630106D01*
X173730182Y-88928231D02*
X173860796Y-88875541D01*
X118294135Y-112214806D02*
X118210809Y-112328411D01*
X124977692Y-130845542D02*
X125115854Y-130879112D01*
X167331644Y-66153273D02*
X167190970Y-66176690D01*
X175368517Y-67707744D02*
X175246835Y-67635268D01*
X118288994Y-126369617D02*
X118373861Y-126482808D01*
X139218554Y-121734503D02*
X139242664Y-121597233D01*
X164823854Y-109947134D02*
X164900774Y-109828570D01*
X160191622Y-70153359D02*
X160100382Y-70260073D01*
X154946529Y-117613907D02*
X155079693Y-117567447D01*
X160848291Y-114320518D02*
X160957648Y-114231128D01*
X170156070Y-89683831D02*
X170297441Y-89676531D01*
X156780052Y-116873147D02*
X156908401Y-116812797D01*
X149282900Y-79549617D02*
X149142231Y-79550892D01*
X165272804Y-109227204D02*
X165344624Y-109105090D01*
X146161253Y-118573104D02*
X146302062Y-118586584D01*
X140820604Y-81481385D02*
X140693958Y-81543005D01*
X116008377Y-118224219D02*
X115996611Y-118364473D01*
X130176141Y-130973917D02*
X130314969Y-130945507D01*
X135255008Y-85470477D02*
X135255117Y-85470096D01*
X121242494Y-129189692D02*
X121360469Y-129267902D01*
X179275261Y-84288585D02*
X179350481Y-84169014D01*
X138498454Y-124283988D02*
X138549314Y-124154226D01*
X131085287Y-91331629D02*
X131024817Y-91458986D01*
X137142914Y-126717732D02*
X137226084Y-126605552D01*
X138160184Y-125048833D02*
X138220374Y-124923318D01*
X129308348Y-100891226D02*
X129321398Y-101032172D01*
X124027882Y-130566632D02*
X124162220Y-130611392D01*
X131334747Y-90828872D02*
X131271137Y-90953822D01*
X171973728Y-89454721D02*
X172110572Y-89425091D01*
X140065973Y-81865865D02*
X139942170Y-81932855D01*
X151963130Y-79702336D02*
X151823173Y-79686176D01*
X124840218Y-130810412D02*
X124977692Y-130845542D01*
X132216063Y-130378237D02*
X132347809Y-130325687D01*
X130592616Y-130883957D02*
X130731161Y-130850667D01*
X130965737Y-91586050D02*
X130907107Y-91714260D01*
X149554045Y-118654577D02*
X149695140Y-118646477D01*
X161817324Y-68587914D02*
X161706542Y-68677359D01*
X157356672Y-76907682D02*
X157347212Y-77048691D01*
X168108221Y-95326959D02*
X168088991Y-95186436D01*
X137833064Y-125667737D02*
X137902064Y-125545201D01*
X163743574Y-111435989D02*
X163831554Y-111325773D01*
X148567515Y-118684594D02*
X148708183Y-118683109D01*
X146467658Y-79758986D02*
X146327840Y-79779786D01*
X123629307Y-130423262D02*
X123761377Y-130472562D01*
X159951701Y-115007738D02*
X160064750Y-114925298D01*
X163964347Y-67224819D02*
X163837278Y-67288323D01*
X145739815Y-118527314D02*
X145881330Y-118543474D01*
X130157178Y-104700360D02*
X130189338Y-104835789D01*
X128914355Y-131153057D02*
X129054876Y-131139947D01*
X174503230Y-88587001D02*
X174630026Y-88524101D01*
X165404052Y-66629826D02*
X165270186Y-66675952D01*
X130220078Y-104970799D02*
X130249848Y-105107354D01*
X124039748Y-108052710D02*
X123905407Y-108098480D01*
X167150661Y-91395420D02*
X167116681Y-91266373D01*
X130426788Y-106345053D02*
X130429895Y-106484302D01*
X138022661Y-83130065D02*
X137907757Y-83211645D01*
X116134910Y-121331433D02*
X116159856Y-121470974D01*
X149130906Y-118673077D02*
X149272565Y-118667777D01*
X143710081Y-80364066D02*
X143574502Y-80404716D01*
X138446034Y-124413039D02*
X138498454Y-124283988D01*
X118911270Y-127140546D02*
X119004977Y-127245950D01*
X116381418Y-122440359D02*
X116419666Y-122577348D01*
X177077524Y-68960117D02*
X176970714Y-68867386D01*
X146888688Y-79702456D02*
X146748724Y-79720176D01*
X153891711Y-80037006D02*
X153757985Y-80006276D01*
X152243478Y-79737286D02*
X152103522Y-79719456D01*
X121026812Y-109569040D02*
X120911583Y-109650190D01*
X177182914Y-69054010D02*
X177077524Y-68960117D01*
X117732855Y-125549401D02*
X117807907Y-125669108D01*
X157861282Y-74285029D02*
X157819632Y-74419353D01*
X148719497Y-79560326D02*
X148577710Y-79565426D01*
X166140204Y-107602489D02*
X166200534Y-107475134D01*
X139361434Y-120767395D02*
X139377034Y-120627992D01*
X139772322Y-117512428D02*
X139865392Y-117408304D01*
X129302918Y-97802433D02*
X129291558Y-97942391D01*
X134357257Y-86430287D02*
X134264497Y-86535959D01*
X177282768Y-86666941D02*
X177385612Y-86570761D01*
X139391374Y-120489439D02*
X139404534Y-120350190D01*
X119099437Y-127349779D02*
X119195922Y-127453327D01*
X165691544Y-108486750D02*
X165757984Y-108362075D01*
X168281953Y-98579362D02*
X168284904Y-98438693D01*
X157164950Y-116688577D02*
X157292311Y-116625107D01*
X127467563Y-107473581D02*
X127329587Y-107477230D01*
X129853844Y-107470844D02*
X129716017Y-107501294D01*
X175246835Y-67635268D02*
X175123879Y-67564042D01*
X172110572Y-89425091D02*
X172247273Y-89393731D01*
X142818747Y-118006174D02*
X142955737Y-118038464D01*
X148001004Y-118681686D02*
X148142954Y-118683761D01*
X138549314Y-124154226D02*
X138598614Y-124024052D01*
X169592256Y-89696456D02*
X169733779Y-89695607D01*
X168287227Y-97872749D02*
X168285405Y-97731096D01*
X180195621Y-82533408D02*
X180249881Y-82402355D01*
X130232488Y-93412916D02*
X130187298Y-93546076D01*
X159016313Y-115643928D02*
X159135040Y-115567418D01*
X152103522Y-79719456D02*
X151963130Y-79702336D01*
X180357385Y-73683635D02*
X180306675Y-73552059D01*
X144899195Y-118413704D02*
X145038727Y-118434614D01*
X120238296Y-110167290D02*
X120129555Y-110258080D01*
X137307944Y-126491651D02*
X137388534Y-126376194D01*
X178535791Y-85322994D02*
X178623191Y-85212353D01*
X122352608Y-108767790D02*
X122228002Y-108833400D01*
X159495652Y-71036124D02*
X159414922Y-71150386D01*
X174755677Y-88459651D02*
X174880754Y-88393341D01*
X140674843Y-117354254D02*
X140809847Y-117389964D01*
X160064750Y-114925298D02*
X160177666Y-114841868D01*
X174120183Y-88765191D02*
X174248241Y-88707531D01*
X138941014Y-122960583D02*
X138977704Y-122824595D01*
X130429895Y-106484302D02*
X130427079Y-106622709D01*
X127606670Y-107471315D02*
X127467563Y-107473581D01*
X142681765Y-117973024D02*
X142818747Y-118006174D01*
X155344464Y-117471677D02*
X155476629Y-117422387D01*
X156900183Y-80070779D02*
X156811793Y-80180842D01*
X135255117Y-85470096D02*
X135222097Y-85503526D01*
%TD*%
M02*
