M48
; DRILL file {KiCad (6.0.0)} date Sat Oct 29 10:39:44 2022
; FORMAT={3:3/ absolute / metric / suppress leading zeros}
; #@! TF.CreationDate,2022-10-29T10:39:44-07:00
; #@! TF.GenerationSoftware,Kicad,Pcbnew,(6.0.0)
; #@! TF.FileFunction,MixedPlating,1,2
FMAT,2
METRIC,TZ
; #@! TA.AperFunction,Plated,PTH,ViaDrill
T1C0.400
; #@! TA.AperFunction,Plated,PTH,ComponentDrill
T2C1.000
%
G90
G05
T1
X123951Y-121821
X125341Y-121831
X128452Y-119384
X130461Y-114564
X135941Y-91081
X136931Y-92040
X137981Y-92816
X139121Y-91909
X140074Y-91087
X141008Y-90134
X141100Y-86014
X141911Y-89200
X142166Y-86973
X142850Y-88114
X164631Y-76017
X166461Y-83064
X168809Y-71862
T2
X120000Y-120927
X122340Y-114489
X128289Y-111483
T0
M30
