%TF.GenerationSoftware,KiCad,Pcbnew,(6.0.0)*%
%TF.CreationDate,2022-10-29T10:39:51-07:00*%
%TF.ProjectId,tiny-osean,74696e79-2d6f-4736-9561-6e2e6b696361,rev?*%
%TF.SameCoordinates,Original*%
%TF.FileFunction,Soldermask,Top*%
%TF.FilePolarity,Negative*%
%FSLAX46Y46*%
G04 Gerber Fmt 4.6, Leading zero omitted, Abs format (unit mm)*
G04 Created by KiCad (PCBNEW (6.0.0)) date 2022-10-29 10:39:51*
%MOMM*%
%LPD*%
G01*
G04 APERTURE LIST*
G04 Aperture macros list*
%AMRoundRect*
0 Rectangle with rounded corners*
0 $1 Rounding radius*
0 $2 $3 $4 $5 $6 $7 $8 $9 X,Y pos of 4 corners*
0 Add a 4 corners polygon primitive as box body*
4,1,4,$2,$3,$4,$5,$6,$7,$8,$9,$2,$3,0*
0 Add four circle primitives for the rounded corners*
1,1,$1+$1,$2,$3*
1,1,$1+$1,$4,$5*
1,1,$1+$1,$6,$7*
1,1,$1+$1,$8,$9*
0 Add four rect primitives between the rounded corners*
20,1,$1+$1,$2,$3,$4,$5,0*
20,1,$1+$1,$4,$5,$6,$7,0*
20,1,$1+$1,$6,$7,$8,$9,0*
20,1,$1+$1,$8,$9,$2,$3,0*%
%AMRotRect*
0 Rectangle, with rotation*
0 The origin of the aperture is its center*
0 $1 length*
0 $2 width*
0 $3 Rotation angle, in degrees counterclockwise*
0 Add horizontal line*
21,1,$1,$2,0,0,$3*%
%AMFreePoly0*
4,1,14,0.334644,0.085355,0.385355,0.034644,0.400000,-0.000711,0.400000,-0.050000,0.385355,-0.085355,0.350000,-0.100000,-0.350000,-0.100000,-0.385355,-0.085355,-0.400000,-0.050000,-0.400000,0.050000,-0.385355,0.085355,-0.350000,0.100000,0.299289,0.100000,0.334644,0.085355,0.334644,0.085355,$1*%
%AMFreePoly1*
4,1,15,0.385355,0.085355,0.400000,0.050000,0.400000,0.000711,0.399705,0.000000,0.385355,-0.034644,0.334644,-0.085355,0.299289,-0.100000,-0.350000,-0.100000,-0.385355,-0.085355,-0.400000,-0.050000,-0.400000,0.050000,-0.385355,0.085355,-0.350000,0.100000,0.350000,0.100000,0.385355,0.085355,0.385355,0.085355,$1*%
%AMFreePoly2*
4,1,14,0.085355,0.385355,0.100000,0.350000,0.100000,-0.350000,0.085355,-0.385355,0.050000,-0.400000,-0.050000,-0.400000,-0.085355,-0.385355,-0.100000,-0.350000,-0.100000,0.299289,-0.085355,0.334644,-0.034644,0.385355,0.000711,0.400000,0.050000,0.400000,0.085355,0.385355,0.085355,0.385355,$1*%
%AMFreePoly3*
4,1,14,0.034644,0.385355,0.085355,0.334644,0.100000,0.299289,0.100000,-0.350000,0.085355,-0.385355,0.050000,-0.400000,-0.050000,-0.400000,-0.085355,-0.385355,-0.100000,-0.350000,-0.100000,0.350000,-0.085355,0.385355,-0.050000,0.400000,-0.000711,0.400000,0.034644,0.385355,0.034644,0.385355,$1*%
%AMFreePoly4*
4,1,14,0.385355,0.085355,0.400000,0.050000,0.400000,-0.050000,0.385355,-0.085355,0.350000,-0.100000,-0.299289,-0.100000,-0.334644,-0.085355,-0.385355,-0.034644,-0.400000,0.000711,-0.400000,0.050000,-0.385355,0.085355,-0.350000,0.100000,0.350000,0.100000,0.385355,0.085355,0.385355,0.085355,$1*%
%AMFreePoly5*
4,1,14,0.385355,0.085355,0.400000,0.050000,0.400000,-0.050000,0.385355,-0.085355,0.350000,-0.100000,-0.350000,-0.100000,-0.385355,-0.085355,-0.400000,-0.050000,-0.400000,-0.000711,-0.385355,0.034644,-0.334644,0.085355,-0.299289,0.100000,0.350000,0.100000,0.385355,0.085355,0.385355,0.085355,$1*%
%AMFreePoly6*
4,1,15,0.085355,0.385355,0.100000,0.350000,0.100000,-0.299289,0.099705,-0.300000,0.085355,-0.334644,0.034644,-0.385355,-0.000711,-0.400000,-0.050000,-0.400000,-0.085355,-0.385355,-0.100000,-0.350000,-0.100000,0.350000,-0.085355,0.385355,-0.050000,0.400000,0.050000,0.400000,0.085355,0.385355,0.085355,0.385355,$1*%
%AMFreePoly7*
4,1,14,0.085355,0.385355,0.100000,0.350000,0.100000,-0.350000,0.085355,-0.385355,0.050000,-0.400000,0.000711,-0.400000,-0.034644,-0.385355,-0.085355,-0.334644,-0.100000,-0.299289,-0.100000,0.350000,-0.085355,0.385355,-0.050000,0.400000,0.050000,0.400000,0.085355,0.385355,0.085355,0.385355,$1*%
%AMFreePoly8*
4,1,6,1.000000,0.000000,0.499999,-0.750000,-0.499999,-0.750000,-0.499999,0.750000,0.499999,0.750000,1.000000,0.000000,1.000000,0.000000,$1*%
%AMFreePoly9*
4,1,6,0.499999,-0.750000,-0.649999,-0.750000,-0.150000,0.000000,-0.649999,0.750000,0.499999,0.750000,0.499999,-0.750000,0.499999,-0.750000,$1*%
G04 Aperture macros list end*
%ADD10C,0.010000*%
%ADD11RotRect,2.800000X1.000000X45.000000*%
%ADD12RoundRect,0.135000X-0.035355X0.226274X-0.226274X0.035355X0.035355X-0.226274X0.226274X-0.035355X0*%
%ADD13RoundRect,0.250000X0.574524X0.097227X0.097227X0.574524X-0.574524X-0.097227X-0.097227X-0.574524X0*%
%ADD14RoundRect,0.135000X0.035355X-0.226274X0.226274X-0.035355X-0.035355X0.226274X-0.226274X0.035355X0*%
%ADD15RotRect,1.700000X1.700000X45.000000*%
%ADD16FreePoly0,0.000000*%
%ADD17RoundRect,0.050000X-0.350000X-0.050000X0.350000X-0.050000X0.350000X0.050000X-0.350000X0.050000X0*%
%ADD18FreePoly1,0.000000*%
%ADD19FreePoly2,0.000000*%
%ADD20RoundRect,0.050000X-0.050000X-0.350000X0.050000X-0.350000X0.050000X0.350000X-0.050000X0.350000X0*%
%ADD21FreePoly3,0.000000*%
%ADD22FreePoly4,0.000000*%
%ADD23FreePoly5,0.000000*%
%ADD24FreePoly6,0.000000*%
%ADD25FreePoly7,0.000000*%
%ADD26R,1.700000X1.700000*%
%ADD27FreePoly8,45.000000*%
%ADD28FreePoly9,45.000000*%
%ADD29RoundRect,0.225000X0.250000X-0.225000X0.250000X0.225000X-0.250000X0.225000X-0.250000X-0.225000X0*%
%ADD30RoundRect,0.140000X0.170000X-0.140000X0.170000X0.140000X-0.170000X0.140000X-0.170000X-0.140000X0*%
%ADD31RotRect,4.200000X3.200000X45.000000*%
%ADD32RoundRect,0.200000X0.053033X-0.335876X0.335876X-0.053033X-0.053033X0.335876X-0.335876X0.053033X0*%
G04 APERTURE END LIST*
D10*
%TO.C,Ref\u002A\u002A*%
X143176358Y-100143174D02*
X143200459Y-100183210D01*
X143200459Y-100183210D02*
X143235420Y-100252282D01*
X143235420Y-100252282D02*
X143274667Y-100333552D01*
X143274667Y-100333552D02*
X143499252Y-100847734D01*
X143499252Y-100847734D02*
X143685417Y-101373174D01*
X143685417Y-101373174D02*
X143831736Y-101905476D01*
X143831736Y-101905476D02*
X143913295Y-102299949D01*
X143913295Y-102299949D02*
X143928862Y-102392268D01*
X143928862Y-102392268D02*
X143940792Y-102477126D01*
X143940792Y-102477126D02*
X143949554Y-102562409D01*
X143949554Y-102562409D02*
X143955616Y-102656002D01*
X143955616Y-102656002D02*
X143959447Y-102765790D01*
X143959447Y-102765790D02*
X143961515Y-102899658D01*
X143961515Y-102899658D02*
X143962288Y-103065492D01*
X143962288Y-103065492D02*
X143962338Y-103125449D01*
X143962338Y-103125449D02*
X143961321Y-103329559D01*
X143961321Y-103329559D02*
X143957389Y-103500017D01*
X143957389Y-103500017D02*
X143949375Y-103645469D01*
X143949375Y-103645469D02*
X143936115Y-103774562D01*
X143936115Y-103774562D02*
X143916441Y-103895940D01*
X143916441Y-103895940D02*
X143889188Y-104018250D01*
X143889188Y-104018250D02*
X143853190Y-104150137D01*
X143853190Y-104150137D02*
X143807280Y-104300247D01*
X143807280Y-104300247D02*
X143801392Y-104318818D01*
X143801392Y-104318818D02*
X143675770Y-104645357D01*
X143675770Y-104645357D02*
X143512119Y-104958790D01*
X143512119Y-104958790D02*
X143313397Y-105256606D01*
X143313397Y-105256606D02*
X143082560Y-105536291D01*
X143082560Y-105536291D02*
X142822565Y-105795334D01*
X142822565Y-105795334D02*
X142536370Y-106031222D01*
X142536370Y-106031222D02*
X142226933Y-106241444D01*
X142226933Y-106241444D02*
X141897210Y-106423488D01*
X141897210Y-106423488D02*
X141550159Y-106574841D01*
X141550159Y-106574841D02*
X141188737Y-106692991D01*
X141188737Y-106692991D02*
X140935583Y-106753225D01*
X140935583Y-106753225D02*
X140679569Y-106794889D01*
X140679569Y-106794889D02*
X140396963Y-106823177D01*
X140396963Y-106823177D02*
X140101529Y-106837503D01*
X140101529Y-106837503D02*
X139807029Y-106837277D01*
X139807029Y-106837277D02*
X139527227Y-106821912D01*
X139527227Y-106821912D02*
X139465378Y-106816069D01*
X139465378Y-106816069D02*
X139228949Y-106785213D01*
X139228949Y-106785213D02*
X138968547Y-106739884D01*
X138968547Y-106739884D02*
X138698710Y-106683190D01*
X138698710Y-106683190D02*
X138433976Y-106618237D01*
X138433976Y-106618237D02*
X138188883Y-106548130D01*
X138188883Y-106548130D02*
X138142462Y-106533428D01*
X138142462Y-106533428D02*
X138023959Y-106493811D01*
X138023959Y-106493811D02*
X137904552Y-106451470D01*
X137904552Y-106451470D02*
X137790793Y-106409005D01*
X137790793Y-106409005D02*
X137689235Y-106369017D01*
X137689235Y-106369017D02*
X137606429Y-106334105D01*
X137606429Y-106334105D02*
X137548928Y-106306869D01*
X137548928Y-106306869D02*
X137523286Y-106289908D01*
X137523286Y-106289908D02*
X137522642Y-106287510D01*
X137522642Y-106287510D02*
X137537321Y-106270413D01*
X137537321Y-106270413D02*
X137579222Y-106223611D01*
X137579222Y-106223611D02*
X137646968Y-106148612D01*
X137646968Y-106148612D02*
X137739183Y-106046924D01*
X137739183Y-106046924D02*
X137854492Y-105920055D01*
X137854492Y-105920055D02*
X137991519Y-105769514D01*
X137991519Y-105769514D02*
X138148887Y-105596809D01*
X138148887Y-105596809D02*
X138325221Y-105403449D01*
X138325221Y-105403449D02*
X138519144Y-105190941D01*
X138519144Y-105190941D02*
X138729280Y-104960793D01*
X138729280Y-104960793D02*
X138954254Y-104714515D01*
X138954254Y-104714515D02*
X139192690Y-104453614D01*
X139192690Y-104453614D02*
X139443210Y-104179598D01*
X139443210Y-104179598D02*
X139704441Y-103893976D01*
X139704441Y-103893976D02*
X139975004Y-103598257D01*
X139975004Y-103598257D02*
X140253525Y-103293947D01*
X140253525Y-103293947D02*
X140312045Y-103230023D01*
X140312045Y-103230023D02*
X140592472Y-102923676D01*
X140592472Y-102923676D02*
X140865486Y-102625368D01*
X140865486Y-102625368D02*
X141129693Y-102336625D01*
X141129693Y-102336625D02*
X141383698Y-102058971D01*
X141383698Y-102058971D02*
X141626108Y-101793934D01*
X141626108Y-101793934D02*
X141855528Y-101543039D01*
X141855528Y-101543039D02*
X142070563Y-101307813D01*
X142070563Y-101307813D02*
X142269820Y-101089780D01*
X142269820Y-101089780D02*
X142451904Y-100890468D01*
X142451904Y-100890468D02*
X142615421Y-100711403D01*
X142615421Y-100711403D02*
X142758976Y-100554109D01*
X142758976Y-100554109D02*
X142881175Y-100420114D01*
X142881175Y-100420114D02*
X142980624Y-100310943D01*
X142980624Y-100310943D02*
X143055929Y-100228122D01*
X143055929Y-100228122D02*
X143105696Y-100173177D01*
X143105696Y-100173177D02*
X143128529Y-100147634D01*
X143128529Y-100147634D02*
X143129708Y-100146231D01*
X143129708Y-100146231D02*
X143144934Y-100129790D01*
X143144934Y-100129790D02*
X143159167Y-100127069D01*
X143159167Y-100127069D02*
X143176358Y-100143174D01*
X143176358Y-100143174D02*
X143176358Y-100143174D01*
G36*
X143176358Y-100143174D02*
G01*
X143200459Y-100183210D01*
X143235420Y-100252282D01*
X143274667Y-100333552D01*
X143499252Y-100847734D01*
X143685417Y-101373174D01*
X143831736Y-101905476D01*
X143913295Y-102299949D01*
X143928862Y-102392268D01*
X143940792Y-102477126D01*
X143949554Y-102562409D01*
X143955616Y-102656002D01*
X143959447Y-102765790D01*
X143961515Y-102899658D01*
X143962288Y-103065492D01*
X143962338Y-103125449D01*
X143961321Y-103329559D01*
X143957389Y-103500017D01*
X143949375Y-103645469D01*
X143936115Y-103774562D01*
X143916441Y-103895940D01*
X143889188Y-104018250D01*
X143853190Y-104150137D01*
X143807280Y-104300247D01*
X143801392Y-104318818D01*
X143675770Y-104645357D01*
X143512119Y-104958790D01*
X143313397Y-105256606D01*
X143082560Y-105536291D01*
X142822565Y-105795334D01*
X142536370Y-106031222D01*
X142226933Y-106241444D01*
X141897210Y-106423488D01*
X141550159Y-106574841D01*
X141188737Y-106692991D01*
X140935583Y-106753225D01*
X140679569Y-106794889D01*
X140396963Y-106823177D01*
X140101529Y-106837503D01*
X139807029Y-106837277D01*
X139527227Y-106821912D01*
X139465378Y-106816069D01*
X139228949Y-106785213D01*
X138968547Y-106739884D01*
X138698710Y-106683190D01*
X138433976Y-106618237D01*
X138188883Y-106548130D01*
X138142462Y-106533428D01*
X138023959Y-106493811D01*
X137904552Y-106451470D01*
X137790793Y-106409005D01*
X137689235Y-106369017D01*
X137606429Y-106334105D01*
X137548928Y-106306869D01*
X137523286Y-106289908D01*
X137522642Y-106287510D01*
X137537321Y-106270413D01*
X137579222Y-106223611D01*
X137646968Y-106148612D01*
X137739183Y-106046924D01*
X137854492Y-105920055D01*
X137991519Y-105769514D01*
X138148887Y-105596809D01*
X138325221Y-105403449D01*
X138519144Y-105190941D01*
X138729280Y-104960793D01*
X138954254Y-104714515D01*
X139192690Y-104453614D01*
X139443210Y-104179598D01*
X139704441Y-103893976D01*
X139975004Y-103598257D01*
X140253525Y-103293947D01*
X140312045Y-103230023D01*
X140592472Y-102923676D01*
X140865486Y-102625368D01*
X141129693Y-102336625D01*
X141383698Y-102058971D01*
X141626108Y-101793934D01*
X141855528Y-101543039D01*
X142070563Y-101307813D01*
X142269820Y-101089780D01*
X142451904Y-100890468D01*
X142615421Y-100711403D01*
X142758976Y-100554109D01*
X142881175Y-100420114D01*
X142980624Y-100310943D01*
X143055929Y-100228122D01*
X143105696Y-100173177D01*
X143128529Y-100147634D01*
X143129708Y-100146231D01*
X143144934Y-100129790D01*
X143159167Y-100127069D01*
X143176358Y-100143174D01*
G37*
X143176358Y-100143174D02*
X143200459Y-100183210D01*
X143235420Y-100252282D01*
X143274667Y-100333552D01*
X143499252Y-100847734D01*
X143685417Y-101373174D01*
X143831736Y-101905476D01*
X143913295Y-102299949D01*
X143928862Y-102392268D01*
X143940792Y-102477126D01*
X143949554Y-102562409D01*
X143955616Y-102656002D01*
X143959447Y-102765790D01*
X143961515Y-102899658D01*
X143962288Y-103065492D01*
X143962338Y-103125449D01*
X143961321Y-103329559D01*
X143957389Y-103500017D01*
X143949375Y-103645469D01*
X143936115Y-103774562D01*
X143916441Y-103895940D01*
X143889188Y-104018250D01*
X143853190Y-104150137D01*
X143807280Y-104300247D01*
X143801392Y-104318818D01*
X143675770Y-104645357D01*
X143512119Y-104958790D01*
X143313397Y-105256606D01*
X143082560Y-105536291D01*
X142822565Y-105795334D01*
X142536370Y-106031222D01*
X142226933Y-106241444D01*
X141897210Y-106423488D01*
X141550159Y-106574841D01*
X141188737Y-106692991D01*
X140935583Y-106753225D01*
X140679569Y-106794889D01*
X140396963Y-106823177D01*
X140101529Y-106837503D01*
X139807029Y-106837277D01*
X139527227Y-106821912D01*
X139465378Y-106816069D01*
X139228949Y-106785213D01*
X138968547Y-106739884D01*
X138698710Y-106683190D01*
X138433976Y-106618237D01*
X138188883Y-106548130D01*
X138142462Y-106533428D01*
X138023959Y-106493811D01*
X137904552Y-106451470D01*
X137790793Y-106409005D01*
X137689235Y-106369017D01*
X137606429Y-106334105D01*
X137548928Y-106306869D01*
X137523286Y-106289908D01*
X137522642Y-106287510D01*
X137537321Y-106270413D01*
X137579222Y-106223611D01*
X137646968Y-106148612D01*
X137739183Y-106046924D01*
X137854492Y-105920055D01*
X137991519Y-105769514D01*
X138148887Y-105596809D01*
X138325221Y-105403449D01*
X138519144Y-105190941D01*
X138729280Y-104960793D01*
X138954254Y-104714515D01*
X139192690Y-104453614D01*
X139443210Y-104179598D01*
X139704441Y-103893976D01*
X139975004Y-103598257D01*
X140253525Y-103293947D01*
X140312045Y-103230023D01*
X140592472Y-102923676D01*
X140865486Y-102625368D01*
X141129693Y-102336625D01*
X141383698Y-102058971D01*
X141626108Y-101793934D01*
X141855528Y-101543039D01*
X142070563Y-101307813D01*
X142269820Y-101089780D01*
X142451904Y-100890468D01*
X142615421Y-100711403D01*
X142758976Y-100554109D01*
X142881175Y-100420114D01*
X142980624Y-100310943D01*
X143055929Y-100228122D01*
X143105696Y-100173177D01*
X143128529Y-100147634D01*
X143129708Y-100146231D01*
X143144934Y-100129790D01*
X143159167Y-100127069D01*
X143176358Y-100143174D01*
X164992877Y-63155387D02*
X166004246Y-63155437D01*
X166004246Y-63155437D02*
X166978394Y-63155517D01*
X166978394Y-63155517D02*
X167915688Y-63155629D01*
X167915688Y-63155629D02*
X168816492Y-63155772D01*
X168816492Y-63155772D02*
X169681171Y-63155947D01*
X169681171Y-63155947D02*
X170510092Y-63156154D01*
X170510092Y-63156154D02*
X171303619Y-63156393D01*
X171303619Y-63156393D02*
X172062117Y-63156664D01*
X172062117Y-63156664D02*
X172785951Y-63156967D01*
X172785951Y-63156967D02*
X173475487Y-63157303D01*
X173475487Y-63157303D02*
X174131091Y-63157672D01*
X174131091Y-63157672D02*
X174753126Y-63158074D01*
X174753126Y-63158074D02*
X175341959Y-63158509D01*
X175341959Y-63158509D02*
X175897955Y-63158977D01*
X175897955Y-63158977D02*
X176421479Y-63159479D01*
X176421479Y-63159479D02*
X176912895Y-63160015D01*
X176912895Y-63160015D02*
X177372571Y-63160584D01*
X177372571Y-63160584D02*
X177800870Y-63161187D01*
X177800870Y-63161187D02*
X178198157Y-63161825D01*
X178198157Y-63161825D02*
X178564799Y-63162497D01*
X178564799Y-63162497D02*
X178901161Y-63163203D01*
X178901161Y-63163203D02*
X179207606Y-63163944D01*
X179207606Y-63163944D02*
X179484502Y-63164720D01*
X179484502Y-63164720D02*
X179732213Y-63165532D01*
X179732213Y-63165532D02*
X179951103Y-63166378D01*
X179951103Y-63166378D02*
X180141540Y-63167260D01*
X180141540Y-63167260D02*
X180303887Y-63168178D01*
X180303887Y-63168178D02*
X180438510Y-63169131D01*
X180438510Y-63169131D02*
X180545774Y-63170121D01*
X180545774Y-63170121D02*
X180626045Y-63171146D01*
X180626045Y-63171146D02*
X180679687Y-63172208D01*
X180679687Y-63172208D02*
X180707067Y-63173307D01*
X180707067Y-63173307D02*
X180708628Y-63173444D01*
X180708628Y-63173444D02*
X181093415Y-63231278D01*
X181093415Y-63231278D02*
X181457670Y-63326023D01*
X181457670Y-63326023D02*
X181802501Y-63458201D01*
X181802501Y-63458201D02*
X182129014Y-63628338D01*
X182129014Y-63628338D02*
X182438315Y-63836958D01*
X182438315Y-63836958D02*
X182731512Y-64084584D01*
X182731512Y-64084584D02*
X182826951Y-64176980D01*
X182826951Y-64176980D02*
X183085009Y-64460354D01*
X183085009Y-64460354D02*
X183304102Y-64756058D01*
X183304102Y-64756058D02*
X183485404Y-65066700D01*
X183485404Y-65066700D02*
X183630089Y-65394887D01*
X183630089Y-65394887D02*
X183739329Y-65743226D01*
X183739329Y-65743226D02*
X183814299Y-66114325D01*
X183814299Y-66114325D02*
X183852358Y-66454997D01*
X183852358Y-66454997D02*
X183853453Y-66484988D01*
X183853453Y-66484988D02*
X183854511Y-66545089D01*
X183854511Y-66545089D02*
X183855533Y-66635589D01*
X183855533Y-66635589D02*
X183856517Y-66756779D01*
X183856517Y-66756779D02*
X183857465Y-66908948D01*
X183857465Y-66908948D02*
X183858377Y-67092386D01*
X183858377Y-67092386D02*
X183859252Y-67307383D01*
X183859252Y-67307383D02*
X183860092Y-67554228D01*
X183860092Y-67554228D02*
X183860895Y-67833213D01*
X183860895Y-67833213D02*
X183861662Y-68144625D01*
X183861662Y-68144625D02*
X183862394Y-68488756D01*
X183862394Y-68488756D02*
X183863090Y-68865894D01*
X183863090Y-68865894D02*
X183863750Y-69276331D01*
X183863750Y-69276331D02*
X183864375Y-69720355D01*
X183864375Y-69720355D02*
X183864966Y-70198257D01*
X183864966Y-70198257D02*
X183865521Y-70710326D01*
X183865521Y-70710326D02*
X183866041Y-71256852D01*
X183866041Y-71256852D02*
X183866526Y-71838125D01*
X183866526Y-71838125D02*
X183866977Y-72454435D01*
X183866977Y-72454435D02*
X183867393Y-73106071D01*
X183867393Y-73106071D02*
X183867775Y-73793324D01*
X183867775Y-73793324D02*
X183868123Y-74516483D01*
X183868123Y-74516483D02*
X183868436Y-75275838D01*
X183868436Y-75275838D02*
X183868716Y-76071679D01*
X183868716Y-76071679D02*
X183868962Y-76904296D01*
X183868962Y-76904296D02*
X183869174Y-77773978D01*
X183869174Y-77773978D02*
X183869353Y-78681016D01*
X183869353Y-78681016D02*
X183869498Y-79625698D01*
X183869498Y-79625698D02*
X183869610Y-80608316D01*
X183869610Y-80608316D02*
X183869689Y-81629159D01*
X183869689Y-81629159D02*
X183869735Y-82688516D01*
X183869735Y-82688516D02*
X183869748Y-83786678D01*
X183869748Y-83786678D02*
X183869728Y-84923934D01*
X183869728Y-84923934D02*
X183869676Y-86100574D01*
X183869676Y-86100574D02*
X183869592Y-87316889D01*
X183869592Y-87316889D02*
X183869475Y-88573167D01*
X183869475Y-88573167D02*
X183869326Y-89869698D01*
X183869326Y-89869698D02*
X183869145Y-91206773D01*
X183869145Y-91206773D02*
X183868932Y-92584681D01*
X183868932Y-92584681D02*
X183868687Y-94003713D01*
X183868687Y-94003713D02*
X183868411Y-95464157D01*
X183868411Y-95464157D02*
X183868103Y-96966304D01*
X183868103Y-96966304D02*
X183867764Y-98510443D01*
X183867764Y-98510443D02*
X183867701Y-98786283D01*
X183867701Y-98786283D02*
X183867377Y-100194742D01*
X183867377Y-100194742D02*
X183867058Y-101561496D01*
X183867058Y-101561496D02*
X183866744Y-102887172D01*
X183866744Y-102887172D02*
X183866433Y-104172400D01*
X183866433Y-104172400D02*
X183866126Y-105417807D01*
X183866126Y-105417807D02*
X183865820Y-106624022D01*
X183865820Y-106624022D02*
X183865516Y-107791671D01*
X183865516Y-107791671D02*
X183865212Y-108921385D01*
X183865212Y-108921385D02*
X183864908Y-110013790D01*
X183864908Y-110013790D02*
X183864602Y-111069514D01*
X183864602Y-111069514D02*
X183864295Y-112089187D01*
X183864295Y-112089187D02*
X183863984Y-113073436D01*
X183863984Y-113073436D02*
X183863670Y-114022888D01*
X183863670Y-114022888D02*
X183863350Y-114938173D01*
X183863350Y-114938173D02*
X183863026Y-115819919D01*
X183863026Y-115819919D02*
X183862695Y-116668753D01*
X183862695Y-116668753D02*
X183862357Y-117485303D01*
X183862357Y-117485303D02*
X183862010Y-118270199D01*
X183862010Y-118270199D02*
X183861655Y-119024067D01*
X183861655Y-119024067D02*
X183861290Y-119747536D01*
X183861290Y-119747536D02*
X183860915Y-120441235D01*
X183860915Y-120441235D02*
X183860528Y-121105790D01*
X183860528Y-121105790D02*
X183860129Y-121741832D01*
X183860129Y-121741832D02*
X183859717Y-122349986D01*
X183859717Y-122349986D02*
X183859291Y-122930882D01*
X183859291Y-122930882D02*
X183858850Y-123485148D01*
X183858850Y-123485148D02*
X183858393Y-124013412D01*
X183858393Y-124013412D02*
X183857920Y-124516302D01*
X183857920Y-124516302D02*
X183857430Y-124994446D01*
X183857430Y-124994446D02*
X183856921Y-125448472D01*
X183856921Y-125448472D02*
X183856393Y-125879009D01*
X183856393Y-125879009D02*
X183855846Y-126286684D01*
X183855846Y-126286684D02*
X183855278Y-126672126D01*
X183855278Y-126672126D02*
X183854688Y-127035962D01*
X183854688Y-127035962D02*
X183854076Y-127378821D01*
X183854076Y-127378821D02*
X183853440Y-127701332D01*
X183853440Y-127701332D02*
X183852781Y-128004121D01*
X183852781Y-128004121D02*
X183852097Y-128287818D01*
X183852097Y-128287818D02*
X183851386Y-128553050D01*
X183851386Y-128553050D02*
X183850650Y-128800445D01*
X183850650Y-128800445D02*
X183849885Y-129030632D01*
X183849885Y-129030632D02*
X183849093Y-129244239D01*
X183849093Y-129244239D02*
X183848271Y-129441894D01*
X183848271Y-129441894D02*
X183847420Y-129624225D01*
X183847420Y-129624225D02*
X183846537Y-129791859D01*
X183846537Y-129791859D02*
X183845623Y-129945426D01*
X183845623Y-129945426D02*
X183844676Y-130085554D01*
X183844676Y-130085554D02*
X183843696Y-130212870D01*
X183843696Y-130212870D02*
X183842682Y-130328002D01*
X183842682Y-130328002D02*
X183841632Y-130431579D01*
X183841632Y-130431579D02*
X183840547Y-130524229D01*
X183840547Y-130524229D02*
X183839425Y-130606580D01*
X183839425Y-130606580D02*
X183838265Y-130679260D01*
X183838265Y-130679260D02*
X183837067Y-130742898D01*
X183837067Y-130742898D02*
X183835830Y-130798120D01*
X183835830Y-130798120D02*
X183834552Y-130845556D01*
X183834552Y-130845556D02*
X183833234Y-130885834D01*
X183833234Y-130885834D02*
X183831874Y-130919581D01*
X183831874Y-130919581D02*
X183830471Y-130947426D01*
X183830471Y-130947426D02*
X183829024Y-130969998D01*
X183829024Y-130969998D02*
X183827534Y-130987923D01*
X183827534Y-130987923D02*
X183825998Y-131001830D01*
X183825998Y-131001830D02*
X183824416Y-131012348D01*
X183824416Y-131012348D02*
X183824383Y-131012533D01*
X183824383Y-131012533D02*
X183734337Y-131407986D01*
X183734337Y-131407986D02*
X183610029Y-131778750D01*
X183610029Y-131778750D02*
X183451175Y-132125389D01*
X183451175Y-132125389D02*
X183257490Y-132448467D01*
X183257490Y-132448467D02*
X183028688Y-132748548D01*
X183028688Y-132748548D02*
X182847195Y-132945510D01*
X182847195Y-132945510D02*
X182561648Y-133203495D01*
X182561648Y-133203495D02*
X182252402Y-133426454D01*
X182252402Y-133426454D02*
X181919795Y-133614208D01*
X181919795Y-133614208D02*
X181564168Y-133766576D01*
X181564168Y-133766576D02*
X181185861Y-133883378D01*
X181185861Y-133883378D02*
X180994378Y-133927153D01*
X180994378Y-133927153D02*
X180985112Y-133928759D01*
X180985112Y-133928759D02*
X180972882Y-133930317D01*
X180972882Y-133930317D02*
X180957063Y-133931829D01*
X180957063Y-133931829D02*
X180937028Y-133933296D01*
X180937028Y-133933296D02*
X180912150Y-133934717D01*
X180912150Y-133934717D02*
X180881804Y-133936095D01*
X180881804Y-133936095D02*
X180845363Y-133937429D01*
X180845363Y-133937429D02*
X180802201Y-133938721D01*
X180802201Y-133938721D02*
X180751692Y-133939971D01*
X180751692Y-133939971D02*
X180693210Y-133941179D01*
X180693210Y-133941179D02*
X180626128Y-133942348D01*
X180626128Y-133942348D02*
X180549821Y-133943477D01*
X180549821Y-133943477D02*
X180463661Y-133944567D01*
X180463661Y-133944567D02*
X180367024Y-133945619D01*
X180367024Y-133945619D02*
X180259281Y-133946634D01*
X180259281Y-133946634D02*
X180139808Y-133947612D01*
X180139808Y-133947612D02*
X180007979Y-133948554D01*
X180007979Y-133948554D02*
X179863166Y-133949462D01*
X179863166Y-133949462D02*
X179704743Y-133950335D01*
X179704743Y-133950335D02*
X179532085Y-133951175D01*
X179532085Y-133951175D02*
X179344566Y-133951982D01*
X179344566Y-133951982D02*
X179141558Y-133952758D01*
X179141558Y-133952758D02*
X178922436Y-133953502D01*
X178922436Y-133953502D02*
X178686574Y-133954215D01*
X178686574Y-133954215D02*
X178433344Y-133954899D01*
X178433344Y-133954899D02*
X178162122Y-133955554D01*
X178162122Y-133955554D02*
X177872281Y-133956181D01*
X177872281Y-133956181D02*
X177563195Y-133956780D01*
X177563195Y-133956780D02*
X177234236Y-133957353D01*
X177234236Y-133957353D02*
X176884781Y-133957900D01*
X176884781Y-133957900D02*
X176514201Y-133958421D01*
X176514201Y-133958421D02*
X176121870Y-133958919D01*
X176121870Y-133958919D02*
X175707164Y-133959392D01*
X175707164Y-133959392D02*
X175269454Y-133959843D01*
X175269454Y-133959843D02*
X174808116Y-133960272D01*
X174808116Y-133960272D02*
X174322522Y-133960680D01*
X174322522Y-133960680D02*
X173812048Y-133961066D01*
X173812048Y-133961066D02*
X173276065Y-133961434D01*
X173276065Y-133961434D02*
X172713949Y-133961782D01*
X172713949Y-133961782D02*
X172125073Y-133962111D01*
X172125073Y-133962111D02*
X171508810Y-133962423D01*
X171508810Y-133962423D02*
X170864535Y-133962719D01*
X170864535Y-133962719D02*
X170191621Y-133962998D01*
X170191621Y-133962998D02*
X169489442Y-133963262D01*
X169489442Y-133963262D02*
X168757373Y-133963512D01*
X168757373Y-133963512D02*
X167994785Y-133963748D01*
X167994785Y-133963748D02*
X167201055Y-133963971D01*
X167201055Y-133963971D02*
X166375554Y-133964181D01*
X166375554Y-133964181D02*
X165517657Y-133964380D01*
X165517657Y-133964380D02*
X164626738Y-133964569D01*
X164626738Y-133964569D02*
X163702171Y-133964747D01*
X163702171Y-133964747D02*
X162743328Y-133964917D01*
X162743328Y-133964917D02*
X161749585Y-133965077D01*
X161749585Y-133965077D02*
X160720315Y-133965231D01*
X160720315Y-133965231D02*
X159654891Y-133965377D01*
X159654891Y-133965377D02*
X158552688Y-133965517D01*
X158552688Y-133965517D02*
X157413079Y-133965652D01*
X157413079Y-133965652D02*
X156235438Y-133965782D01*
X156235438Y-133965782D02*
X155019138Y-133965908D01*
X155019138Y-133965908D02*
X153763554Y-133966031D01*
X153763554Y-133966031D02*
X152468060Y-133966152D01*
X152468060Y-133966152D02*
X151132028Y-133966271D01*
X151132028Y-133966271D02*
X149754833Y-133966389D01*
X149754833Y-133966389D02*
X148524712Y-133966491D01*
X148524712Y-133966491D02*
X147355171Y-133966583D01*
X147355171Y-133966583D02*
X146195672Y-133966663D01*
X146195672Y-133966663D02*
X145046945Y-133966733D01*
X145046945Y-133966733D02*
X143909715Y-133966791D01*
X143909715Y-133966791D02*
X142784712Y-133966840D01*
X142784712Y-133966840D02*
X141672663Y-133966878D01*
X141672663Y-133966878D02*
X140574295Y-133966905D01*
X140574295Y-133966905D02*
X139490337Y-133966922D01*
X139490337Y-133966922D02*
X138421516Y-133966929D01*
X138421516Y-133966929D02*
X137368560Y-133966926D01*
X137368560Y-133966926D02*
X136332196Y-133966914D01*
X136332196Y-133966914D02*
X135313153Y-133966891D01*
X135313153Y-133966891D02*
X134312159Y-133966859D01*
X134312159Y-133966859D02*
X133329940Y-133966817D01*
X133329940Y-133966817D02*
X132367225Y-133966766D01*
X132367225Y-133966766D02*
X131424741Y-133966705D01*
X131424741Y-133966705D02*
X130503217Y-133966636D01*
X130503217Y-133966636D02*
X129603380Y-133966557D01*
X129603380Y-133966557D02*
X128725958Y-133966469D01*
X128725958Y-133966469D02*
X127871678Y-133966373D01*
X127871678Y-133966373D02*
X127041269Y-133966267D01*
X127041269Y-133966267D02*
X126235458Y-133966153D01*
X126235458Y-133966153D02*
X125454973Y-133966031D01*
X125454973Y-133966031D02*
X124700541Y-133965900D01*
X124700541Y-133965900D02*
X123972891Y-133965761D01*
X123972891Y-133965761D02*
X123272750Y-133965614D01*
X123272750Y-133965614D02*
X122600846Y-133965459D01*
X122600846Y-133965459D02*
X121957907Y-133965296D01*
X121957907Y-133965296D02*
X121344661Y-133965125D01*
X121344661Y-133965125D02*
X120761834Y-133964947D01*
X120761834Y-133964947D02*
X120210156Y-133964760D01*
X120210156Y-133964760D02*
X119690353Y-133964567D01*
X119690353Y-133964567D02*
X119203154Y-133964366D01*
X119203154Y-133964366D02*
X118749287Y-133964158D01*
X118749287Y-133964158D02*
X118329478Y-133963943D01*
X118329478Y-133963943D02*
X117944457Y-133963720D01*
X117944457Y-133963720D02*
X117594950Y-133963491D01*
X117594950Y-133963491D02*
X117281685Y-133963256D01*
X117281685Y-133963256D02*
X117005391Y-133963013D01*
X117005391Y-133963013D02*
X116766795Y-133962764D01*
X116766795Y-133962764D02*
X116566624Y-133962509D01*
X116566624Y-133962509D02*
X116405607Y-133962247D01*
X116405607Y-133962247D02*
X116284471Y-133961980D01*
X116284471Y-133961980D02*
X116203944Y-133961706D01*
X116203944Y-133961706D02*
X116164754Y-133961426D01*
X116164754Y-133961426D02*
X116160878Y-133961321D01*
X116160878Y-133961321D02*
X115802550Y-133903103D01*
X115802550Y-133903103D02*
X115449018Y-133806079D01*
X115449018Y-133806079D02*
X115105410Y-133672833D01*
X115105410Y-133672833D02*
X114776855Y-133505949D01*
X114776855Y-133505949D02*
X114468482Y-133308011D01*
X114468482Y-133308011D02*
X114185421Y-133081602D01*
X114185421Y-133081602D02*
X113948515Y-132846796D01*
X113948515Y-132846796D02*
X113703953Y-132546211D01*
X113703953Y-132546211D02*
X113496870Y-132225997D01*
X113496870Y-132225997D02*
X113327398Y-131886454D01*
X113327398Y-131886454D02*
X113195670Y-131527885D01*
X113195670Y-131527885D02*
X113101817Y-131150590D01*
X113101817Y-131150590D02*
X113049343Y-130790283D01*
X113049343Y-130790283D02*
X113048242Y-130765732D01*
X113048242Y-130765732D02*
X113047177Y-130714337D01*
X113047177Y-130714337D02*
X113046149Y-130635742D01*
X113046149Y-130635742D02*
X113045158Y-130529595D01*
X113045158Y-130529595D02*
X113044202Y-130395541D01*
X113044202Y-130395541D02*
X113043282Y-130233227D01*
X113043282Y-130233227D02*
X113042398Y-130042299D01*
X113042398Y-130042299D02*
X113041550Y-129822405D01*
X113041550Y-129822405D02*
X113040737Y-129573189D01*
X113040737Y-129573189D02*
X113039959Y-129294299D01*
X113039959Y-129294299D02*
X113039216Y-128985381D01*
X113039216Y-128985381D02*
X113038508Y-128646081D01*
X113038508Y-128646081D02*
X113037835Y-128276046D01*
X113037835Y-128276046D02*
X113037197Y-127874922D01*
X113037197Y-127874922D02*
X113036592Y-127442355D01*
X113036592Y-127442355D02*
X113036022Y-126977992D01*
X113036022Y-126977992D02*
X113035486Y-126481479D01*
X113035486Y-126481479D02*
X113034984Y-125952463D01*
X113034984Y-125952463D02*
X113034515Y-125390590D01*
X113034515Y-125390590D02*
X113034080Y-124795506D01*
X113034080Y-124795506D02*
X113033679Y-124166858D01*
X113033679Y-124166858D02*
X113033310Y-123504292D01*
X113033310Y-123504292D02*
X113032974Y-122807454D01*
X113032974Y-122807454D02*
X113032672Y-122075992D01*
X113032672Y-122075992D02*
X113032402Y-121309550D01*
X113032402Y-121309550D02*
X113032164Y-120507776D01*
X113032164Y-120507776D02*
X113031958Y-119670316D01*
X113031958Y-119670316D02*
X113031785Y-118796817D01*
X113031785Y-118796817D02*
X113031644Y-117886924D01*
X113031644Y-117886924D02*
X113031534Y-116940284D01*
X113031534Y-116940284D02*
X113031456Y-115956544D01*
X113031456Y-115956544D02*
X113031410Y-114935350D01*
X113031410Y-114935350D02*
X113031394Y-113876347D01*
X113031394Y-113876347D02*
X113031410Y-112779184D01*
X113031410Y-112779184D02*
X113031457Y-111643506D01*
X113031457Y-111643506D02*
X113031534Y-110468959D01*
X113031534Y-110468959D02*
X113031642Y-109255190D01*
X113031642Y-109255190D02*
X113031780Y-108001845D01*
X113031780Y-108001845D02*
X113031949Y-106708570D01*
X113031949Y-106708570D02*
X113032147Y-105375013D01*
X113032147Y-105375013D02*
X113032376Y-104000819D01*
X113032376Y-104000819D02*
X113032634Y-102585634D01*
X113032634Y-102585634D02*
X113032922Y-101129106D01*
X113032922Y-101129106D02*
X113033239Y-99630880D01*
X113033239Y-99630880D02*
X113033513Y-98405283D01*
X113033513Y-98405283D02*
X113033816Y-97084749D01*
X113033816Y-97084749D02*
X114445164Y-97084749D01*
X114445164Y-97084749D02*
X114445175Y-98097000D01*
X114445175Y-98097000D02*
X114445207Y-99109670D01*
X114445207Y-99109670D02*
X114445261Y-100121867D01*
X114445261Y-100121867D02*
X114445335Y-101132701D01*
X114445335Y-101132701D02*
X114445429Y-102141279D01*
X114445429Y-102141279D02*
X114445545Y-103146710D01*
X114445545Y-103146710D02*
X114445681Y-104148102D01*
X114445681Y-104148102D02*
X114445838Y-105144562D01*
X114445838Y-105144562D02*
X114446016Y-106135200D01*
X114446016Y-106135200D02*
X114446215Y-107119123D01*
X114446215Y-107119123D02*
X114446434Y-108095440D01*
X114446434Y-108095440D02*
X114446674Y-109063259D01*
X114446674Y-109063259D02*
X114446935Y-110021687D01*
X114446935Y-110021687D02*
X114447216Y-110969834D01*
X114447216Y-110969834D02*
X114447517Y-111906808D01*
X114447517Y-111906808D02*
X114447839Y-112831716D01*
X114447839Y-112831716D02*
X114448182Y-113743668D01*
X114448182Y-113743668D02*
X114448545Y-114641770D01*
X114448545Y-114641770D02*
X114448929Y-115525132D01*
X114448929Y-115525132D02*
X114449333Y-116392861D01*
X114449333Y-116392861D02*
X114449757Y-117244067D01*
X114449757Y-117244067D02*
X114450202Y-118077856D01*
X114450202Y-118077856D02*
X114450667Y-118893338D01*
X114450667Y-118893338D02*
X114451153Y-119689620D01*
X114451153Y-119689620D02*
X114451659Y-120465811D01*
X114451659Y-120465811D02*
X114452185Y-121221019D01*
X114452185Y-121221019D02*
X114452731Y-121954352D01*
X114452731Y-121954352D02*
X114453297Y-122664918D01*
X114453297Y-122664918D02*
X114453884Y-123351826D01*
X114453884Y-123351826D02*
X114454491Y-124014184D01*
X114454491Y-124014184D02*
X114455117Y-124651100D01*
X114455117Y-124651100D02*
X114455764Y-125261682D01*
X114455764Y-125261682D02*
X114456431Y-125845039D01*
X114456431Y-125845039D02*
X114457118Y-126400278D01*
X114457118Y-126400278D02*
X114457825Y-126926509D01*
X114457825Y-126926509D02*
X114458552Y-127422838D01*
X114458552Y-127422838D02*
X114459299Y-127888375D01*
X114459299Y-127888375D02*
X114460066Y-128322227D01*
X114460066Y-128322227D02*
X114460853Y-128723504D01*
X114460853Y-128723504D02*
X114461660Y-129091312D01*
X114461660Y-129091312D02*
X114462486Y-129424760D01*
X114462486Y-129424760D02*
X114463332Y-129722957D01*
X114463332Y-129722957D02*
X114464199Y-129985011D01*
X114464199Y-129985011D02*
X114465084Y-130210029D01*
X114465084Y-130210029D02*
X114465990Y-130397121D01*
X114465990Y-130397121D02*
X114466915Y-130545394D01*
X114466915Y-130545394D02*
X114467860Y-130653957D01*
X114467860Y-130653957D02*
X114468825Y-130721917D01*
X114468825Y-130721917D02*
X114469745Y-130747949D01*
X114469745Y-130747949D02*
X114525110Y-131032830D01*
X114525110Y-131032830D02*
X114618182Y-131302577D01*
X114618182Y-131302577D02*
X114746128Y-131554186D01*
X114746128Y-131554186D02*
X114906115Y-131784653D01*
X114906115Y-131784653D02*
X115095309Y-131990973D01*
X115095309Y-131990973D02*
X115310878Y-132170143D01*
X115310878Y-132170143D02*
X115549989Y-132319158D01*
X115549989Y-132319158D02*
X115809808Y-132435015D01*
X115809808Y-132435015D02*
X116087503Y-132514709D01*
X116087503Y-132514709D02*
X116146941Y-132526408D01*
X116146941Y-132526408D02*
X116159902Y-132527644D01*
X116159902Y-132527644D02*
X116185352Y-132528842D01*
X116185352Y-132528842D02*
X116223854Y-132530003D01*
X116223854Y-132530003D02*
X116275975Y-132531129D01*
X116275975Y-132531129D02*
X116342279Y-132532218D01*
X116342279Y-132532218D02*
X116423330Y-132533273D01*
X116423330Y-132533273D02*
X116519692Y-132534292D01*
X116519692Y-132534292D02*
X116631931Y-132535276D01*
X116631931Y-132535276D02*
X116760612Y-132536227D01*
X116760612Y-132536227D02*
X116906298Y-132537144D01*
X116906298Y-132537144D02*
X117069554Y-132538027D01*
X117069554Y-132538027D02*
X117250945Y-132538878D01*
X117250945Y-132538878D02*
X117451036Y-132539696D01*
X117451036Y-132539696D02*
X117670392Y-132540482D01*
X117670392Y-132540482D02*
X117909575Y-132541237D01*
X117909575Y-132541237D02*
X118169153Y-132541960D01*
X118169153Y-132541960D02*
X118449688Y-132542653D01*
X118449688Y-132542653D02*
X118751746Y-132543315D01*
X118751746Y-132543315D02*
X119075892Y-132543948D01*
X119075892Y-132543948D02*
X119422689Y-132544551D01*
X119422689Y-132544551D02*
X119792703Y-132545124D01*
X119792703Y-132545124D02*
X120186498Y-132545670D01*
X120186498Y-132545670D02*
X120604639Y-132546187D01*
X120604639Y-132546187D02*
X121047690Y-132546676D01*
X121047690Y-132546676D02*
X121516216Y-132547137D01*
X121516216Y-132547137D02*
X122010782Y-132547572D01*
X122010782Y-132547572D02*
X122531951Y-132547980D01*
X122531951Y-132547980D02*
X123080290Y-132548362D01*
X123080290Y-132548362D02*
X123656363Y-132548719D01*
X123656363Y-132548719D02*
X124260733Y-132549050D01*
X124260733Y-132549050D02*
X124893966Y-132549356D01*
X124893966Y-132549356D02*
X125556626Y-132549637D01*
X125556626Y-132549637D02*
X126249279Y-132549895D01*
X126249279Y-132549895D02*
X126972487Y-132550129D01*
X126972487Y-132550129D02*
X127726817Y-132550340D01*
X127726817Y-132550340D02*
X128512833Y-132550528D01*
X128512833Y-132550528D02*
X129331100Y-132550694D01*
X129331100Y-132550694D02*
X130182181Y-132550838D01*
X130182181Y-132550838D02*
X131066642Y-132550960D01*
X131066642Y-132550960D02*
X131985047Y-132551061D01*
X131985047Y-132551061D02*
X132937961Y-132551142D01*
X132937961Y-132551142D02*
X133925948Y-132551202D01*
X133925948Y-132551202D02*
X134949574Y-132551242D01*
X134949574Y-132551242D02*
X136009402Y-132551264D01*
X136009402Y-132551264D02*
X137105998Y-132551266D01*
X137105998Y-132551266D02*
X138239926Y-132551249D01*
X138239926Y-132551249D02*
X139411750Y-132551215D01*
X139411750Y-132551215D02*
X140622035Y-132551162D01*
X140622035Y-132551162D02*
X141871347Y-132551093D01*
X141871347Y-132551093D02*
X143160248Y-132551006D01*
X143160248Y-132551006D02*
X144489305Y-132550903D01*
X144489305Y-132550903D02*
X145859081Y-132550784D01*
X145859081Y-132550784D02*
X147270142Y-132550649D01*
X147270142Y-132550649D02*
X148514128Y-132550522D01*
X148514128Y-132550522D02*
X180729795Y-132547116D01*
X180729795Y-132547116D02*
X180899128Y-132497914D01*
X180899128Y-132497914D02*
X181188986Y-132392934D01*
X181188986Y-132392934D02*
X181454348Y-132253668D01*
X181454348Y-132253668D02*
X181694645Y-132080447D01*
X181694645Y-132080447D02*
X181841199Y-131945701D01*
X181841199Y-131945701D02*
X182025184Y-131734877D01*
X182025184Y-131734877D02*
X182175630Y-131506379D01*
X182175630Y-131506379D02*
X182296497Y-131253523D01*
X182296497Y-131253523D02*
X182363963Y-131063779D01*
X182363963Y-131063779D02*
X182423128Y-130874949D01*
X182423128Y-130874949D02*
X182423128Y-66274283D01*
X182423128Y-66274283D02*
X182374222Y-66105333D01*
X182374222Y-66105333D02*
X182269761Y-65816075D01*
X182269761Y-65816075D02*
X182131949Y-65552304D01*
X182131949Y-65552304D02*
X181962299Y-65315499D01*
X181962299Y-65315499D02*
X181762325Y-65107137D01*
X181762325Y-65107137D02*
X181533541Y-64928696D01*
X181533541Y-64928696D02*
X181277462Y-64781654D01*
X181277462Y-64781654D02*
X180995601Y-64667489D01*
X180995601Y-64667489D02*
X180859599Y-64626926D01*
X180859599Y-64626926D02*
X180687462Y-64580949D01*
X180687462Y-64580949D02*
X116213795Y-64580949D01*
X116213795Y-64580949D02*
X116025898Y-64628816D01*
X116025898Y-64628816D02*
X115751140Y-64719714D01*
X115751140Y-64719714D02*
X115491857Y-64847042D01*
X115491857Y-64847042D02*
X115252886Y-65007416D01*
X115252886Y-65007416D02*
X115039066Y-65197453D01*
X115039066Y-65197453D02*
X114855234Y-65413769D01*
X114855234Y-65413769D02*
X114808682Y-65480246D01*
X114808682Y-65480246D02*
X114666828Y-65722841D01*
X114666828Y-65722841D02*
X114562757Y-65972715D01*
X114562757Y-65972715D02*
X114493064Y-66239044D01*
X114493064Y-66239044D02*
X114467742Y-66399126D01*
X114467742Y-66399126D02*
X114466761Y-66428057D01*
X114466761Y-66428057D02*
X114465802Y-66498430D01*
X114465802Y-66498430D02*
X114464865Y-66609353D01*
X114464865Y-66609353D02*
X114463950Y-66759934D01*
X114463950Y-66759934D02*
X114463058Y-66949280D01*
X114463058Y-66949280D02*
X114462188Y-67176502D01*
X114462188Y-67176502D02*
X114461339Y-67440706D01*
X114461339Y-67440706D02*
X114460513Y-67741000D01*
X114460513Y-67741000D02*
X114459709Y-68076494D01*
X114459709Y-68076494D02*
X114458926Y-68446296D01*
X114458926Y-68446296D02*
X114458166Y-68849512D01*
X114458166Y-68849512D02*
X114457427Y-69285253D01*
X114457427Y-69285253D02*
X114456711Y-69752625D01*
X114456711Y-69752625D02*
X114456016Y-70250738D01*
X114456016Y-70250738D02*
X114455343Y-70778699D01*
X114455343Y-70778699D02*
X114454692Y-71335617D01*
X114454692Y-71335617D02*
X114454063Y-71920599D01*
X114454063Y-71920599D02*
X114453455Y-72532755D01*
X114453455Y-72532755D02*
X114452869Y-73171192D01*
X114452869Y-73171192D02*
X114452305Y-73835018D01*
X114452305Y-73835018D02*
X114451763Y-74523342D01*
X114451763Y-74523342D02*
X114451242Y-75235272D01*
X114451242Y-75235272D02*
X114450743Y-75969916D01*
X114450743Y-75969916D02*
X114450265Y-76726383D01*
X114450265Y-76726383D02*
X114449809Y-77503780D01*
X114449809Y-77503780D02*
X114449375Y-78301216D01*
X114449375Y-78301216D02*
X114448962Y-79117799D01*
X114448962Y-79117799D02*
X114448570Y-79952638D01*
X114448570Y-79952638D02*
X114448200Y-80804839D01*
X114448200Y-80804839D02*
X114447852Y-81673513D01*
X114447852Y-81673513D02*
X114447524Y-82557766D01*
X114447524Y-82557766D02*
X114447218Y-83456708D01*
X114447218Y-83456708D02*
X114446934Y-84369446D01*
X114446934Y-84369446D02*
X114446671Y-85295089D01*
X114446671Y-85295089D02*
X114446429Y-86232744D01*
X114446429Y-86232744D02*
X114446208Y-87181520D01*
X114446208Y-87181520D02*
X114446009Y-88140526D01*
X114446009Y-88140526D02*
X114445830Y-89108869D01*
X114445830Y-89108869D02*
X114445673Y-90085658D01*
X114445673Y-90085658D02*
X114445537Y-91070001D01*
X114445537Y-91070001D02*
X114445422Y-92061006D01*
X114445422Y-92061006D02*
X114445329Y-93057781D01*
X114445329Y-93057781D02*
X114445256Y-94059435D01*
X114445256Y-94059435D02*
X114445204Y-95065075D01*
X114445204Y-95065075D02*
X114445174Y-96073811D01*
X114445174Y-96073811D02*
X114445164Y-97084749D01*
X114445164Y-97084749D02*
X113033816Y-97084749D01*
X113033816Y-97084749D02*
X113033838Y-96990550D01*
X113033838Y-96990550D02*
X113034160Y-95617529D01*
X113034160Y-95617529D02*
X113034478Y-94285600D01*
X113034478Y-94285600D02*
X113034794Y-92994140D01*
X113034794Y-92994140D02*
X113035107Y-91742529D01*
X113035107Y-91742529D02*
X113035420Y-90530145D01*
X113035420Y-90530145D02*
X113035732Y-89356368D01*
X113035732Y-89356368D02*
X113036045Y-88220576D01*
X113036045Y-88220576D02*
X113036360Y-87122148D01*
X113036360Y-87122148D02*
X113036676Y-86060463D01*
X113036676Y-86060463D02*
X113036996Y-85034900D01*
X113036996Y-85034900D02*
X113037319Y-84044837D01*
X113037319Y-84044837D02*
X113037646Y-83089654D01*
X113037646Y-83089654D02*
X113037979Y-82168729D01*
X113037979Y-82168729D02*
X113038318Y-81281441D01*
X113038318Y-81281441D02*
X113038664Y-80427169D01*
X113038664Y-80427169D02*
X113039018Y-79605291D01*
X113039018Y-79605291D02*
X113039380Y-78815188D01*
X113039380Y-78815188D02*
X113039751Y-78056236D01*
X113039751Y-78056236D02*
X113040133Y-77327816D01*
X113040133Y-77327816D02*
X113040525Y-76629306D01*
X113040525Y-76629306D02*
X113040929Y-75960085D01*
X113040929Y-75960085D02*
X113041345Y-75319532D01*
X113041345Y-75319532D02*
X113041774Y-74707025D01*
X113041774Y-74707025D02*
X113042218Y-74121944D01*
X113042218Y-74121944D02*
X113042676Y-73563667D01*
X113042676Y-73563667D02*
X113043150Y-73031573D01*
X113043150Y-73031573D02*
X113043640Y-72525041D01*
X113043640Y-72525041D02*
X113044148Y-72043450D01*
X113044148Y-72043450D02*
X113044673Y-71586179D01*
X113044673Y-71586179D02*
X113045217Y-71152606D01*
X113045217Y-71152606D02*
X113045781Y-70742110D01*
X113045781Y-70742110D02*
X113046365Y-70354071D01*
X113046365Y-70354071D02*
X113046970Y-69987867D01*
X113046970Y-69987867D02*
X113047597Y-69642876D01*
X113047597Y-69642876D02*
X113048247Y-69318478D01*
X113048247Y-69318478D02*
X113048920Y-69014052D01*
X113048920Y-69014052D02*
X113049618Y-68728976D01*
X113049618Y-68728976D02*
X113050340Y-68462629D01*
X113050340Y-68462629D02*
X113051089Y-68214390D01*
X113051089Y-68214390D02*
X113051864Y-67983638D01*
X113051864Y-67983638D02*
X113052667Y-67769752D01*
X113052667Y-67769752D02*
X113053498Y-67572110D01*
X113053498Y-67572110D02*
X113054358Y-67390092D01*
X113054358Y-67390092D02*
X113055247Y-67223076D01*
X113055247Y-67223076D02*
X113056168Y-67070441D01*
X113056168Y-67070441D02*
X113057120Y-66931566D01*
X113057120Y-66931566D02*
X113058104Y-66805830D01*
X113058104Y-66805830D02*
X113059121Y-66692611D01*
X113059121Y-66692611D02*
X113060172Y-66591289D01*
X113060172Y-66591289D02*
X113061257Y-66501242D01*
X113061257Y-66501242D02*
X113062378Y-66421849D01*
X113062378Y-66421849D02*
X113063535Y-66352489D01*
X113063535Y-66352489D02*
X113064729Y-66292540D01*
X113064729Y-66292540D02*
X113065961Y-66241383D01*
X113065961Y-66241383D02*
X113067231Y-66198394D01*
X113067231Y-66198394D02*
X113068540Y-66162954D01*
X113068540Y-66162954D02*
X113069890Y-66134441D01*
X113069890Y-66134441D02*
X113071281Y-66112235D01*
X113071281Y-66112235D02*
X113072713Y-66095713D01*
X113072713Y-66095713D02*
X113074188Y-66084254D01*
X113074188Y-66084254D02*
X113074696Y-66081416D01*
X113074696Y-66081416D02*
X113165293Y-65701295D01*
X113165293Y-65701295D02*
X113282056Y-65351950D01*
X113282056Y-65351950D02*
X113427066Y-65029345D01*
X113427066Y-65029345D02*
X113602403Y-64729443D01*
X113602403Y-64729443D02*
X113810145Y-64448209D01*
X113810145Y-64448209D02*
X114052374Y-64181605D01*
X114052374Y-64181605D02*
X114054998Y-64178980D01*
X114054998Y-64178980D02*
X114335471Y-63925555D01*
X114335471Y-63925555D02*
X114634732Y-63708143D01*
X114634732Y-63708143D02*
X114955033Y-63525571D01*
X114955033Y-63525571D02*
X115298625Y-63376666D01*
X115298625Y-63376666D02*
X115667762Y-63260255D01*
X115667762Y-63260255D02*
X115937019Y-63198563D01*
X115937019Y-63198563D02*
X115946917Y-63197079D01*
X115946917Y-63197079D02*
X115961762Y-63195638D01*
X115961762Y-63195638D02*
X115982175Y-63194239D01*
X115982175Y-63194239D02*
X116008776Y-63192880D01*
X116008776Y-63192880D02*
X116042186Y-63191562D01*
X116042186Y-63191562D02*
X116083025Y-63190284D01*
X116083025Y-63190284D02*
X116131914Y-63189043D01*
X116131914Y-63189043D02*
X116189472Y-63187841D01*
X116189472Y-63187841D02*
X116256321Y-63186676D01*
X116256321Y-63186676D02*
X116333080Y-63185547D01*
X116333080Y-63185547D02*
X116420371Y-63184453D01*
X116420371Y-63184453D02*
X116518814Y-63183394D01*
X116518814Y-63183394D02*
X116629028Y-63182369D01*
X116629028Y-63182369D02*
X116751636Y-63181378D01*
X116751636Y-63181378D02*
X116887256Y-63180418D01*
X116887256Y-63180418D02*
X117036510Y-63179490D01*
X117036510Y-63179490D02*
X117200017Y-63178593D01*
X117200017Y-63178593D02*
X117378400Y-63177725D01*
X117378400Y-63177725D02*
X117572277Y-63176887D01*
X117572277Y-63176887D02*
X117782269Y-63176077D01*
X117782269Y-63176077D02*
X118008997Y-63175295D01*
X118008997Y-63175295D02*
X118253081Y-63174539D01*
X118253081Y-63174539D02*
X118515142Y-63173810D01*
X118515142Y-63173810D02*
X118795799Y-63173106D01*
X118795799Y-63173106D02*
X119095675Y-63172426D01*
X119095675Y-63172426D02*
X119415388Y-63171770D01*
X119415388Y-63171770D02*
X119755559Y-63171136D01*
X119755559Y-63171136D02*
X120116810Y-63170525D01*
X120116810Y-63170525D02*
X120499759Y-63169935D01*
X120499759Y-63169935D02*
X120905028Y-63169366D01*
X120905028Y-63169366D02*
X121333238Y-63168816D01*
X121333238Y-63168816D02*
X121785008Y-63168285D01*
X121785008Y-63168285D02*
X122260959Y-63167773D01*
X122260959Y-63167773D02*
X122761712Y-63167277D01*
X122761712Y-63167277D02*
X123287886Y-63166799D01*
X123287886Y-63166799D02*
X123840103Y-63166336D01*
X123840103Y-63166336D02*
X124418982Y-63165888D01*
X124418982Y-63165888D02*
X125025145Y-63165454D01*
X125025145Y-63165454D02*
X125659212Y-63165033D01*
X125659212Y-63165033D02*
X126321803Y-63164626D01*
X126321803Y-63164626D02*
X127013538Y-63164230D01*
X127013538Y-63164230D02*
X127735038Y-63163845D01*
X127735038Y-63163845D02*
X128486924Y-63163470D01*
X128486924Y-63163470D02*
X129269816Y-63163105D01*
X129269816Y-63163105D02*
X130084334Y-63162749D01*
X130084334Y-63162749D02*
X130931099Y-63162400D01*
X130931099Y-63162400D02*
X131810731Y-63162059D01*
X131810731Y-63162059D02*
X132723851Y-63161724D01*
X132723851Y-63161724D02*
X133671079Y-63161394D01*
X133671079Y-63161394D02*
X134653036Y-63161069D01*
X134653036Y-63161069D02*
X135670341Y-63160748D01*
X135670341Y-63160748D02*
X136723616Y-63160431D01*
X136723616Y-63160431D02*
X137813481Y-63160115D01*
X137813481Y-63160115D02*
X138940557Y-63159802D01*
X138940557Y-63159802D02*
X140105463Y-63159489D01*
X140105463Y-63159489D02*
X141308820Y-63159176D01*
X141308820Y-63159176D02*
X142551249Y-63158862D01*
X142551249Y-63158862D02*
X143833370Y-63158547D01*
X143833370Y-63158547D02*
X145155804Y-63158230D01*
X145155804Y-63158230D02*
X146519171Y-63157909D01*
X146519171Y-63157909D02*
X147924091Y-63157584D01*
X147924091Y-63157584D02*
X148291878Y-63157500D01*
X148291878Y-63157500D02*
X149820344Y-63157161D01*
X149820344Y-63157161D02*
X151306841Y-63156850D01*
X151306841Y-63156850D02*
X152751736Y-63156569D01*
X152751736Y-63156569D02*
X154155393Y-63156316D01*
X154155393Y-63156316D02*
X155518178Y-63156093D01*
X155518178Y-63156093D02*
X156840455Y-63155900D01*
X156840455Y-63155900D02*
X158122591Y-63155736D01*
X158122591Y-63155736D02*
X159364950Y-63155602D01*
X159364950Y-63155602D02*
X160567897Y-63155498D01*
X160567897Y-63155498D02*
X161731799Y-63155425D01*
X161731799Y-63155425D02*
X162857019Y-63155382D01*
X162857019Y-63155382D02*
X163943923Y-63155369D01*
X163943923Y-63155369D02*
X164992877Y-63155387D01*
X164992877Y-63155387D02*
X164992877Y-63155387D01*
G36*
X113034160Y-95617529D02*
G01*
X113034478Y-94285600D01*
X113034794Y-92994140D01*
X113035107Y-91742529D01*
X113035420Y-90530145D01*
X113035732Y-89356368D01*
X113036045Y-88220576D01*
X113036360Y-87122148D01*
X113036676Y-86060463D01*
X113036996Y-85034900D01*
X113037319Y-84044837D01*
X113037646Y-83089654D01*
X113037979Y-82168729D01*
X113038318Y-81281441D01*
X113038664Y-80427169D01*
X113039018Y-79605291D01*
X113039380Y-78815188D01*
X113039751Y-78056236D01*
X113040133Y-77327816D01*
X113040525Y-76629306D01*
X113040929Y-75960085D01*
X113041345Y-75319532D01*
X113041774Y-74707025D01*
X113042218Y-74121944D01*
X113042676Y-73563667D01*
X113043150Y-73031573D01*
X113043640Y-72525041D01*
X113044148Y-72043450D01*
X113044673Y-71586179D01*
X113045217Y-71152606D01*
X113045781Y-70742110D01*
X113046365Y-70354071D01*
X113046970Y-69987867D01*
X113047597Y-69642876D01*
X113048247Y-69318478D01*
X113048920Y-69014052D01*
X113049618Y-68728976D01*
X113050340Y-68462629D01*
X113051089Y-68214390D01*
X113051864Y-67983638D01*
X113052667Y-67769752D01*
X113053498Y-67572110D01*
X113054358Y-67390092D01*
X113055247Y-67223076D01*
X113056168Y-67070441D01*
X113057120Y-66931566D01*
X113058104Y-66805830D01*
X113059121Y-66692611D01*
X113060172Y-66591289D01*
X113061257Y-66501242D01*
X113062378Y-66421849D01*
X113063535Y-66352489D01*
X113064729Y-66292540D01*
X113065961Y-66241383D01*
X113067231Y-66198394D01*
X113068540Y-66162954D01*
X113069890Y-66134441D01*
X113071281Y-66112235D01*
X113072713Y-66095713D01*
X113074188Y-66084254D01*
X113074696Y-66081416D01*
X113165293Y-65701295D01*
X113282056Y-65351950D01*
X113427066Y-65029345D01*
X113602403Y-64729443D01*
X113810145Y-64448209D01*
X114052374Y-64181605D01*
X114054998Y-64178980D01*
X114335471Y-63925555D01*
X114634732Y-63708143D01*
X114955033Y-63525571D01*
X115298625Y-63376666D01*
X115667762Y-63260255D01*
X115937019Y-63198563D01*
X115946917Y-63197079D01*
X115961762Y-63195638D01*
X115982175Y-63194239D01*
X116008776Y-63192880D01*
X116042186Y-63191562D01*
X116083025Y-63190284D01*
X116131914Y-63189043D01*
X116189472Y-63187841D01*
X116256321Y-63186676D01*
X116333080Y-63185547D01*
X116420371Y-63184453D01*
X116518814Y-63183394D01*
X116629028Y-63182369D01*
X116751636Y-63181378D01*
X116887256Y-63180418D01*
X117036510Y-63179490D01*
X117200017Y-63178593D01*
X117378400Y-63177725D01*
X117572277Y-63176887D01*
X117782269Y-63176077D01*
X118008997Y-63175295D01*
X118253081Y-63174539D01*
X118515142Y-63173810D01*
X118795799Y-63173106D01*
X119095675Y-63172426D01*
X119415388Y-63171770D01*
X119755559Y-63171136D01*
X120116810Y-63170525D01*
X120499759Y-63169935D01*
X120905028Y-63169366D01*
X121333238Y-63168816D01*
X121785008Y-63168285D01*
X122260959Y-63167773D01*
X122761712Y-63167277D01*
X123287886Y-63166799D01*
X123840103Y-63166336D01*
X124418982Y-63165888D01*
X125025145Y-63165454D01*
X125659212Y-63165033D01*
X126321803Y-63164626D01*
X127013538Y-63164230D01*
X127735038Y-63163845D01*
X128486924Y-63163470D01*
X129269816Y-63163105D01*
X130084334Y-63162749D01*
X130931099Y-63162400D01*
X131810731Y-63162059D01*
X132723851Y-63161724D01*
X133671079Y-63161394D01*
X134653036Y-63161069D01*
X135670341Y-63160748D01*
X136723616Y-63160431D01*
X137813481Y-63160115D01*
X138940557Y-63159802D01*
X140105463Y-63159489D01*
X141308820Y-63159176D01*
X142551249Y-63158862D01*
X143833370Y-63158547D01*
X145155804Y-63158230D01*
X146519171Y-63157909D01*
X147924091Y-63157584D01*
X148291878Y-63157500D01*
X149820344Y-63157161D01*
X151306841Y-63156850D01*
X152751736Y-63156569D01*
X154155393Y-63156316D01*
X155518178Y-63156093D01*
X156840455Y-63155900D01*
X158122591Y-63155736D01*
X159364950Y-63155602D01*
X160567897Y-63155498D01*
X161731799Y-63155425D01*
X162857019Y-63155382D01*
X163943923Y-63155369D01*
X164992877Y-63155387D01*
X166004246Y-63155437D01*
X166978394Y-63155517D01*
X167915688Y-63155629D01*
X168816492Y-63155772D01*
X169681171Y-63155947D01*
X170510092Y-63156154D01*
X171303619Y-63156393D01*
X172062117Y-63156664D01*
X172785951Y-63156967D01*
X173475487Y-63157303D01*
X174131091Y-63157672D01*
X174753126Y-63158074D01*
X175341959Y-63158509D01*
X175897955Y-63158977D01*
X176421479Y-63159479D01*
X176912895Y-63160015D01*
X177372571Y-63160584D01*
X177800870Y-63161187D01*
X178198157Y-63161825D01*
X178564799Y-63162497D01*
X178901161Y-63163203D01*
X179207606Y-63163944D01*
X179484502Y-63164720D01*
X179732213Y-63165532D01*
X179951103Y-63166378D01*
X180141540Y-63167260D01*
X180303887Y-63168178D01*
X180438510Y-63169131D01*
X180545774Y-63170121D01*
X180626045Y-63171146D01*
X180679687Y-63172208D01*
X180707067Y-63173307D01*
X180708628Y-63173444D01*
X181093415Y-63231278D01*
X181457670Y-63326023D01*
X181802501Y-63458201D01*
X182129014Y-63628338D01*
X182438315Y-63836958D01*
X182731512Y-64084584D01*
X182826951Y-64176980D01*
X183085009Y-64460354D01*
X183304102Y-64756058D01*
X183485404Y-65066700D01*
X183630089Y-65394887D01*
X183739329Y-65743226D01*
X183814299Y-66114325D01*
X183852358Y-66454997D01*
X183853453Y-66484988D01*
X183854511Y-66545089D01*
X183855533Y-66635589D01*
X183856517Y-66756779D01*
X183857465Y-66908948D01*
X183858377Y-67092386D01*
X183859252Y-67307383D01*
X183860092Y-67554228D01*
X183860895Y-67833213D01*
X183861662Y-68144625D01*
X183862394Y-68488756D01*
X183863090Y-68865894D01*
X183863750Y-69276331D01*
X183864375Y-69720355D01*
X183864966Y-70198257D01*
X183865521Y-70710326D01*
X183866041Y-71256852D01*
X183866526Y-71838125D01*
X183866977Y-72454435D01*
X183867393Y-73106071D01*
X183867775Y-73793324D01*
X183868123Y-74516483D01*
X183868436Y-75275838D01*
X183868716Y-76071679D01*
X183868962Y-76904296D01*
X183869174Y-77773978D01*
X183869353Y-78681016D01*
X183869498Y-79625698D01*
X183869610Y-80608316D01*
X183869689Y-81629159D01*
X183869735Y-82688516D01*
X183869748Y-83786678D01*
X183869728Y-84923934D01*
X183869676Y-86100574D01*
X183869592Y-87316889D01*
X183869475Y-88573167D01*
X183869326Y-89869698D01*
X183869145Y-91206773D01*
X183868932Y-92584681D01*
X183868687Y-94003713D01*
X183868411Y-95464157D01*
X183868103Y-96966304D01*
X183867764Y-98510443D01*
X183867701Y-98786283D01*
X183867377Y-100194742D01*
X183867058Y-101561496D01*
X183866744Y-102887172D01*
X183866433Y-104172400D01*
X183866126Y-105417807D01*
X183865820Y-106624022D01*
X183865516Y-107791671D01*
X183865212Y-108921385D01*
X183864908Y-110013790D01*
X183864602Y-111069514D01*
X183864295Y-112089187D01*
X183863984Y-113073436D01*
X183863670Y-114022888D01*
X183863350Y-114938173D01*
X183863026Y-115819919D01*
X183862695Y-116668753D01*
X183862357Y-117485303D01*
X183862010Y-118270199D01*
X183861655Y-119024067D01*
X183861290Y-119747536D01*
X183860915Y-120441235D01*
X183860528Y-121105790D01*
X183860129Y-121741832D01*
X183859717Y-122349986D01*
X183859291Y-122930882D01*
X183858850Y-123485148D01*
X183858393Y-124013412D01*
X183857920Y-124516302D01*
X183857430Y-124994446D01*
X183856921Y-125448472D01*
X183856393Y-125879009D01*
X183855846Y-126286684D01*
X183855278Y-126672126D01*
X183854688Y-127035962D01*
X183854076Y-127378821D01*
X183853440Y-127701332D01*
X183852781Y-128004121D01*
X183852097Y-128287818D01*
X183851386Y-128553050D01*
X183850650Y-128800445D01*
X183849885Y-129030632D01*
X183849093Y-129244239D01*
X183848271Y-129441894D01*
X183847420Y-129624225D01*
X183846537Y-129791859D01*
X183845623Y-129945426D01*
X183844676Y-130085554D01*
X183843696Y-130212870D01*
X183842682Y-130328002D01*
X183841632Y-130431579D01*
X183840547Y-130524229D01*
X183839425Y-130606580D01*
X183838265Y-130679260D01*
X183837067Y-130742898D01*
X183835830Y-130798120D01*
X183834552Y-130845556D01*
X183833234Y-130885834D01*
X183831874Y-130919581D01*
X183830471Y-130947426D01*
X183829024Y-130969998D01*
X183827534Y-130987923D01*
X183825998Y-131001830D01*
X183824416Y-131012348D01*
X183824383Y-131012533D01*
X183734337Y-131407986D01*
X183610029Y-131778750D01*
X183451175Y-132125389D01*
X183257490Y-132448467D01*
X183028688Y-132748548D01*
X182847195Y-132945510D01*
X182561648Y-133203495D01*
X182252402Y-133426454D01*
X181919795Y-133614208D01*
X181564168Y-133766576D01*
X181185861Y-133883378D01*
X180994378Y-133927153D01*
X180985112Y-133928759D01*
X180972882Y-133930317D01*
X180957063Y-133931829D01*
X180937028Y-133933296D01*
X180912150Y-133934717D01*
X180881804Y-133936095D01*
X180845363Y-133937429D01*
X180802201Y-133938721D01*
X180751692Y-133939971D01*
X180693210Y-133941179D01*
X180626128Y-133942348D01*
X180549821Y-133943477D01*
X180463661Y-133944567D01*
X180367024Y-133945619D01*
X180259281Y-133946634D01*
X180139808Y-133947612D01*
X180007979Y-133948554D01*
X179863166Y-133949462D01*
X179704743Y-133950335D01*
X179532085Y-133951175D01*
X179344566Y-133951982D01*
X179141558Y-133952758D01*
X178922436Y-133953502D01*
X178686574Y-133954215D01*
X178433344Y-133954899D01*
X178162122Y-133955554D01*
X177872281Y-133956181D01*
X177563195Y-133956780D01*
X177234236Y-133957353D01*
X176884781Y-133957900D01*
X176514201Y-133958421D01*
X176121870Y-133958919D01*
X175707164Y-133959392D01*
X175269454Y-133959843D01*
X174808116Y-133960272D01*
X174322522Y-133960680D01*
X173812048Y-133961066D01*
X173276065Y-133961434D01*
X172713949Y-133961782D01*
X172125073Y-133962111D01*
X171508810Y-133962423D01*
X170864535Y-133962719D01*
X170191621Y-133962998D01*
X169489442Y-133963262D01*
X168757373Y-133963512D01*
X167994785Y-133963748D01*
X167201055Y-133963971D01*
X166375554Y-133964181D01*
X165517657Y-133964380D01*
X164626738Y-133964569D01*
X163702171Y-133964747D01*
X162743328Y-133964917D01*
X161749585Y-133965077D01*
X160720315Y-133965231D01*
X159654891Y-133965377D01*
X158552688Y-133965517D01*
X157413079Y-133965652D01*
X156235438Y-133965782D01*
X155019138Y-133965908D01*
X153763554Y-133966031D01*
X152468060Y-133966152D01*
X151132028Y-133966271D01*
X149754833Y-133966389D01*
X148524712Y-133966491D01*
X147355171Y-133966583D01*
X146195672Y-133966663D01*
X145046945Y-133966733D01*
X143909715Y-133966791D01*
X142784712Y-133966840D01*
X141672663Y-133966878D01*
X140574295Y-133966905D01*
X139490337Y-133966922D01*
X138421516Y-133966929D01*
X137368560Y-133966926D01*
X136332196Y-133966914D01*
X135313153Y-133966891D01*
X134312159Y-133966859D01*
X133329940Y-133966817D01*
X132367225Y-133966766D01*
X131424741Y-133966705D01*
X130503217Y-133966636D01*
X129603380Y-133966557D01*
X128725958Y-133966469D01*
X127871678Y-133966373D01*
X127041269Y-133966267D01*
X126235458Y-133966153D01*
X125454973Y-133966031D01*
X124700541Y-133965900D01*
X123972891Y-133965761D01*
X123272750Y-133965614D01*
X122600846Y-133965459D01*
X121957907Y-133965296D01*
X121344661Y-133965125D01*
X120761834Y-133964947D01*
X120210156Y-133964760D01*
X119690353Y-133964567D01*
X119203154Y-133964366D01*
X118749287Y-133964158D01*
X118329478Y-133963943D01*
X117944457Y-133963720D01*
X117594950Y-133963491D01*
X117281685Y-133963256D01*
X117005391Y-133963013D01*
X116766795Y-133962764D01*
X116566624Y-133962509D01*
X116405607Y-133962247D01*
X116284471Y-133961980D01*
X116203944Y-133961706D01*
X116164754Y-133961426D01*
X116160878Y-133961321D01*
X115802550Y-133903103D01*
X115449018Y-133806079D01*
X115105410Y-133672833D01*
X114776855Y-133505949D01*
X114468482Y-133308011D01*
X114185421Y-133081602D01*
X113948515Y-132846796D01*
X113703953Y-132546211D01*
X113496870Y-132225997D01*
X113327398Y-131886454D01*
X113195670Y-131527885D01*
X113101817Y-131150590D01*
X113049343Y-130790283D01*
X113048242Y-130765732D01*
X113047177Y-130714337D01*
X113046149Y-130635742D01*
X113045158Y-130529595D01*
X113044202Y-130395541D01*
X113043282Y-130233227D01*
X113042398Y-130042299D01*
X113041550Y-129822405D01*
X113040737Y-129573189D01*
X113039959Y-129294299D01*
X113039216Y-128985381D01*
X113038508Y-128646081D01*
X113037835Y-128276046D01*
X113037197Y-127874922D01*
X113036592Y-127442355D01*
X113036022Y-126977992D01*
X113035486Y-126481479D01*
X113034984Y-125952463D01*
X113034515Y-125390590D01*
X113034080Y-124795506D01*
X113033679Y-124166858D01*
X113033310Y-123504292D01*
X113032974Y-122807454D01*
X113032672Y-122075992D01*
X113032402Y-121309550D01*
X113032164Y-120507776D01*
X113031958Y-119670316D01*
X113031785Y-118796817D01*
X113031644Y-117886924D01*
X113031534Y-116940284D01*
X113031456Y-115956544D01*
X113031410Y-114935350D01*
X113031394Y-113876347D01*
X113031410Y-112779184D01*
X113031457Y-111643506D01*
X113031534Y-110468959D01*
X113031642Y-109255190D01*
X113031780Y-108001845D01*
X113031949Y-106708570D01*
X113032147Y-105375013D01*
X113032376Y-104000819D01*
X113032634Y-102585634D01*
X113032922Y-101129106D01*
X113033239Y-99630880D01*
X113033513Y-98405283D01*
X113033816Y-97084749D01*
X114445164Y-97084749D01*
X114445175Y-98097000D01*
X114445207Y-99109670D01*
X114445261Y-100121867D01*
X114445335Y-101132701D01*
X114445429Y-102141279D01*
X114445545Y-103146710D01*
X114445681Y-104148102D01*
X114445838Y-105144562D01*
X114446016Y-106135200D01*
X114446215Y-107119123D01*
X114446434Y-108095440D01*
X114446674Y-109063259D01*
X114446935Y-110021687D01*
X114447216Y-110969834D01*
X114447517Y-111906808D01*
X114447839Y-112831716D01*
X114448182Y-113743668D01*
X114448545Y-114641770D01*
X114448929Y-115525132D01*
X114449333Y-116392861D01*
X114449757Y-117244067D01*
X114450202Y-118077856D01*
X114450667Y-118893338D01*
X114451153Y-119689620D01*
X114451659Y-120465811D01*
X114452185Y-121221019D01*
X114452731Y-121954352D01*
X114453297Y-122664918D01*
X114453884Y-123351826D01*
X114454491Y-124014184D01*
X114455117Y-124651100D01*
X114455764Y-125261682D01*
X114456431Y-125845039D01*
X114457118Y-126400278D01*
X114457825Y-126926509D01*
X114458552Y-127422838D01*
X114459299Y-127888375D01*
X114460066Y-128322227D01*
X114460853Y-128723504D01*
X114461660Y-129091312D01*
X114462486Y-129424760D01*
X114463332Y-129722957D01*
X114464199Y-129985011D01*
X114465084Y-130210029D01*
X114465990Y-130397121D01*
X114466915Y-130545394D01*
X114467860Y-130653957D01*
X114468825Y-130721917D01*
X114469745Y-130747949D01*
X114525110Y-131032830D01*
X114618182Y-131302577D01*
X114746128Y-131554186D01*
X114906115Y-131784653D01*
X115095309Y-131990973D01*
X115310878Y-132170143D01*
X115549989Y-132319158D01*
X115809808Y-132435015D01*
X116087503Y-132514709D01*
X116146941Y-132526408D01*
X116159902Y-132527644D01*
X116185352Y-132528842D01*
X116223854Y-132530003D01*
X116275975Y-132531129D01*
X116342279Y-132532218D01*
X116423330Y-132533273D01*
X116519692Y-132534292D01*
X116631931Y-132535276D01*
X116760612Y-132536227D01*
X116906298Y-132537144D01*
X117069554Y-132538027D01*
X117250945Y-132538878D01*
X117451036Y-132539696D01*
X117670392Y-132540482D01*
X117909575Y-132541237D01*
X118169153Y-132541960D01*
X118449688Y-132542653D01*
X118751746Y-132543315D01*
X119075892Y-132543948D01*
X119422689Y-132544551D01*
X119792703Y-132545124D01*
X120186498Y-132545670D01*
X120604639Y-132546187D01*
X121047690Y-132546676D01*
X121516216Y-132547137D01*
X122010782Y-132547572D01*
X122531951Y-132547980D01*
X123080290Y-132548362D01*
X123656363Y-132548719D01*
X124260733Y-132549050D01*
X124893966Y-132549356D01*
X125556626Y-132549637D01*
X126249279Y-132549895D01*
X126972487Y-132550129D01*
X127726817Y-132550340D01*
X128512833Y-132550528D01*
X129331100Y-132550694D01*
X130182181Y-132550838D01*
X131066642Y-132550960D01*
X131985047Y-132551061D01*
X132937961Y-132551142D01*
X133925948Y-132551202D01*
X134949574Y-132551242D01*
X136009402Y-132551264D01*
X137105998Y-132551266D01*
X138239926Y-132551249D01*
X139411750Y-132551215D01*
X140622035Y-132551162D01*
X141871347Y-132551093D01*
X143160248Y-132551006D01*
X144489305Y-132550903D01*
X145859081Y-132550784D01*
X147270142Y-132550649D01*
X148514128Y-132550522D01*
X180729795Y-132547116D01*
X180899128Y-132497914D01*
X181188986Y-132392934D01*
X181454348Y-132253668D01*
X181694645Y-132080447D01*
X181841199Y-131945701D01*
X182025184Y-131734877D01*
X182175630Y-131506379D01*
X182296497Y-131253523D01*
X182363963Y-131063779D01*
X182423128Y-130874949D01*
X182423128Y-66274283D01*
X182374222Y-66105333D01*
X182269761Y-65816075D01*
X182131949Y-65552304D01*
X181962299Y-65315499D01*
X181762325Y-65107137D01*
X181533541Y-64928696D01*
X181277462Y-64781654D01*
X180995601Y-64667489D01*
X180859599Y-64626926D01*
X180687462Y-64580949D01*
X116213795Y-64580949D01*
X116025898Y-64628816D01*
X115751140Y-64719714D01*
X115491857Y-64847042D01*
X115252886Y-65007416D01*
X115039066Y-65197453D01*
X114855234Y-65413769D01*
X114808682Y-65480246D01*
X114666828Y-65722841D01*
X114562757Y-65972715D01*
X114493064Y-66239044D01*
X114467742Y-66399126D01*
X114466761Y-66428057D01*
X114465802Y-66498430D01*
X114464865Y-66609353D01*
X114463950Y-66759934D01*
X114463058Y-66949280D01*
X114462188Y-67176502D01*
X114461339Y-67440706D01*
X114460513Y-67741000D01*
X114459709Y-68076494D01*
X114458926Y-68446296D01*
X114458166Y-68849512D01*
X114457427Y-69285253D01*
X114456711Y-69752625D01*
X114456016Y-70250738D01*
X114455343Y-70778699D01*
X114454692Y-71335617D01*
X114454063Y-71920599D01*
X114453455Y-72532755D01*
X114452869Y-73171192D01*
X114452305Y-73835018D01*
X114451763Y-74523342D01*
X114451242Y-75235272D01*
X114450743Y-75969916D01*
X114450265Y-76726383D01*
X114449809Y-77503780D01*
X114449375Y-78301216D01*
X114448962Y-79117799D01*
X114448570Y-79952638D01*
X114448200Y-80804839D01*
X114447852Y-81673513D01*
X114447524Y-82557766D01*
X114447218Y-83456708D01*
X114446934Y-84369446D01*
X114446671Y-85295089D01*
X114446429Y-86232744D01*
X114446208Y-87181520D01*
X114446009Y-88140526D01*
X114445830Y-89108869D01*
X114445673Y-90085658D01*
X114445537Y-91070001D01*
X114445422Y-92061006D01*
X114445329Y-93057781D01*
X114445256Y-94059435D01*
X114445204Y-95065075D01*
X114445174Y-96073811D01*
X114445164Y-97084749D01*
X113033816Y-97084749D01*
X113033838Y-96990550D01*
X113034160Y-95617529D01*
G37*
X113034160Y-95617529D02*
X113034478Y-94285600D01*
X113034794Y-92994140D01*
X113035107Y-91742529D01*
X113035420Y-90530145D01*
X113035732Y-89356368D01*
X113036045Y-88220576D01*
X113036360Y-87122148D01*
X113036676Y-86060463D01*
X113036996Y-85034900D01*
X113037319Y-84044837D01*
X113037646Y-83089654D01*
X113037979Y-82168729D01*
X113038318Y-81281441D01*
X113038664Y-80427169D01*
X113039018Y-79605291D01*
X113039380Y-78815188D01*
X113039751Y-78056236D01*
X113040133Y-77327816D01*
X113040525Y-76629306D01*
X113040929Y-75960085D01*
X113041345Y-75319532D01*
X113041774Y-74707025D01*
X113042218Y-74121944D01*
X113042676Y-73563667D01*
X113043150Y-73031573D01*
X113043640Y-72525041D01*
X113044148Y-72043450D01*
X113044673Y-71586179D01*
X113045217Y-71152606D01*
X113045781Y-70742110D01*
X113046365Y-70354071D01*
X113046970Y-69987867D01*
X113047597Y-69642876D01*
X113048247Y-69318478D01*
X113048920Y-69014052D01*
X113049618Y-68728976D01*
X113050340Y-68462629D01*
X113051089Y-68214390D01*
X113051864Y-67983638D01*
X113052667Y-67769752D01*
X113053498Y-67572110D01*
X113054358Y-67390092D01*
X113055247Y-67223076D01*
X113056168Y-67070441D01*
X113057120Y-66931566D01*
X113058104Y-66805830D01*
X113059121Y-66692611D01*
X113060172Y-66591289D01*
X113061257Y-66501242D01*
X113062378Y-66421849D01*
X113063535Y-66352489D01*
X113064729Y-66292540D01*
X113065961Y-66241383D01*
X113067231Y-66198394D01*
X113068540Y-66162954D01*
X113069890Y-66134441D01*
X113071281Y-66112235D01*
X113072713Y-66095713D01*
X113074188Y-66084254D01*
X113074696Y-66081416D01*
X113165293Y-65701295D01*
X113282056Y-65351950D01*
X113427066Y-65029345D01*
X113602403Y-64729443D01*
X113810145Y-64448209D01*
X114052374Y-64181605D01*
X114054998Y-64178980D01*
X114335471Y-63925555D01*
X114634732Y-63708143D01*
X114955033Y-63525571D01*
X115298625Y-63376666D01*
X115667762Y-63260255D01*
X115937019Y-63198563D01*
X115946917Y-63197079D01*
X115961762Y-63195638D01*
X115982175Y-63194239D01*
X116008776Y-63192880D01*
X116042186Y-63191562D01*
X116083025Y-63190284D01*
X116131914Y-63189043D01*
X116189472Y-63187841D01*
X116256321Y-63186676D01*
X116333080Y-63185547D01*
X116420371Y-63184453D01*
X116518814Y-63183394D01*
X116629028Y-63182369D01*
X116751636Y-63181378D01*
X116887256Y-63180418D01*
X117036510Y-63179490D01*
X117200017Y-63178593D01*
X117378400Y-63177725D01*
X117572277Y-63176887D01*
X117782269Y-63176077D01*
X118008997Y-63175295D01*
X118253081Y-63174539D01*
X118515142Y-63173810D01*
X118795799Y-63173106D01*
X119095675Y-63172426D01*
X119415388Y-63171770D01*
X119755559Y-63171136D01*
X120116810Y-63170525D01*
X120499759Y-63169935D01*
X120905028Y-63169366D01*
X121333238Y-63168816D01*
X121785008Y-63168285D01*
X122260959Y-63167773D01*
X122761712Y-63167277D01*
X123287886Y-63166799D01*
X123840103Y-63166336D01*
X124418982Y-63165888D01*
X125025145Y-63165454D01*
X125659212Y-63165033D01*
X126321803Y-63164626D01*
X127013538Y-63164230D01*
X127735038Y-63163845D01*
X128486924Y-63163470D01*
X129269816Y-63163105D01*
X130084334Y-63162749D01*
X130931099Y-63162400D01*
X131810731Y-63162059D01*
X132723851Y-63161724D01*
X133671079Y-63161394D01*
X134653036Y-63161069D01*
X135670341Y-63160748D01*
X136723616Y-63160431D01*
X137813481Y-63160115D01*
X138940557Y-63159802D01*
X140105463Y-63159489D01*
X141308820Y-63159176D01*
X142551249Y-63158862D01*
X143833370Y-63158547D01*
X145155804Y-63158230D01*
X146519171Y-63157909D01*
X147924091Y-63157584D01*
X148291878Y-63157500D01*
X149820344Y-63157161D01*
X151306841Y-63156850D01*
X152751736Y-63156569D01*
X154155393Y-63156316D01*
X155518178Y-63156093D01*
X156840455Y-63155900D01*
X158122591Y-63155736D01*
X159364950Y-63155602D01*
X160567897Y-63155498D01*
X161731799Y-63155425D01*
X162857019Y-63155382D01*
X163943923Y-63155369D01*
X164992877Y-63155387D01*
X166004246Y-63155437D01*
X166978394Y-63155517D01*
X167915688Y-63155629D01*
X168816492Y-63155772D01*
X169681171Y-63155947D01*
X170510092Y-63156154D01*
X171303619Y-63156393D01*
X172062117Y-63156664D01*
X172785951Y-63156967D01*
X173475487Y-63157303D01*
X174131091Y-63157672D01*
X174753126Y-63158074D01*
X175341959Y-63158509D01*
X175897955Y-63158977D01*
X176421479Y-63159479D01*
X176912895Y-63160015D01*
X177372571Y-63160584D01*
X177800870Y-63161187D01*
X178198157Y-63161825D01*
X178564799Y-63162497D01*
X178901161Y-63163203D01*
X179207606Y-63163944D01*
X179484502Y-63164720D01*
X179732213Y-63165532D01*
X179951103Y-63166378D01*
X180141540Y-63167260D01*
X180303887Y-63168178D01*
X180438510Y-63169131D01*
X180545774Y-63170121D01*
X180626045Y-63171146D01*
X180679687Y-63172208D01*
X180707067Y-63173307D01*
X180708628Y-63173444D01*
X181093415Y-63231278D01*
X181457670Y-63326023D01*
X181802501Y-63458201D01*
X182129014Y-63628338D01*
X182438315Y-63836958D01*
X182731512Y-64084584D01*
X182826951Y-64176980D01*
X183085009Y-64460354D01*
X183304102Y-64756058D01*
X183485404Y-65066700D01*
X183630089Y-65394887D01*
X183739329Y-65743226D01*
X183814299Y-66114325D01*
X183852358Y-66454997D01*
X183853453Y-66484988D01*
X183854511Y-66545089D01*
X183855533Y-66635589D01*
X183856517Y-66756779D01*
X183857465Y-66908948D01*
X183858377Y-67092386D01*
X183859252Y-67307383D01*
X183860092Y-67554228D01*
X183860895Y-67833213D01*
X183861662Y-68144625D01*
X183862394Y-68488756D01*
X183863090Y-68865894D01*
X183863750Y-69276331D01*
X183864375Y-69720355D01*
X183864966Y-70198257D01*
X183865521Y-70710326D01*
X183866041Y-71256852D01*
X183866526Y-71838125D01*
X183866977Y-72454435D01*
X183867393Y-73106071D01*
X183867775Y-73793324D01*
X183868123Y-74516483D01*
X183868436Y-75275838D01*
X183868716Y-76071679D01*
X183868962Y-76904296D01*
X183869174Y-77773978D01*
X183869353Y-78681016D01*
X183869498Y-79625698D01*
X183869610Y-80608316D01*
X183869689Y-81629159D01*
X183869735Y-82688516D01*
X183869748Y-83786678D01*
X183869728Y-84923934D01*
X183869676Y-86100574D01*
X183869592Y-87316889D01*
X183869475Y-88573167D01*
X183869326Y-89869698D01*
X183869145Y-91206773D01*
X183868932Y-92584681D01*
X183868687Y-94003713D01*
X183868411Y-95464157D01*
X183868103Y-96966304D01*
X183867764Y-98510443D01*
X183867701Y-98786283D01*
X183867377Y-100194742D01*
X183867058Y-101561496D01*
X183866744Y-102887172D01*
X183866433Y-104172400D01*
X183866126Y-105417807D01*
X183865820Y-106624022D01*
X183865516Y-107791671D01*
X183865212Y-108921385D01*
X183864908Y-110013790D01*
X183864602Y-111069514D01*
X183864295Y-112089187D01*
X183863984Y-113073436D01*
X183863670Y-114022888D01*
X183863350Y-114938173D01*
X183863026Y-115819919D01*
X183862695Y-116668753D01*
X183862357Y-117485303D01*
X183862010Y-118270199D01*
X183861655Y-119024067D01*
X183861290Y-119747536D01*
X183860915Y-120441235D01*
X183860528Y-121105790D01*
X183860129Y-121741832D01*
X183859717Y-122349986D01*
X183859291Y-122930882D01*
X183858850Y-123485148D01*
X183858393Y-124013412D01*
X183857920Y-124516302D01*
X183857430Y-124994446D01*
X183856921Y-125448472D01*
X183856393Y-125879009D01*
X183855846Y-126286684D01*
X183855278Y-126672126D01*
X183854688Y-127035962D01*
X183854076Y-127378821D01*
X183853440Y-127701332D01*
X183852781Y-128004121D01*
X183852097Y-128287818D01*
X183851386Y-128553050D01*
X183850650Y-128800445D01*
X183849885Y-129030632D01*
X183849093Y-129244239D01*
X183848271Y-129441894D01*
X183847420Y-129624225D01*
X183846537Y-129791859D01*
X183845623Y-129945426D01*
X183844676Y-130085554D01*
X183843696Y-130212870D01*
X183842682Y-130328002D01*
X183841632Y-130431579D01*
X183840547Y-130524229D01*
X183839425Y-130606580D01*
X183838265Y-130679260D01*
X183837067Y-130742898D01*
X183835830Y-130798120D01*
X183834552Y-130845556D01*
X183833234Y-130885834D01*
X183831874Y-130919581D01*
X183830471Y-130947426D01*
X183829024Y-130969998D01*
X183827534Y-130987923D01*
X183825998Y-131001830D01*
X183824416Y-131012348D01*
X183824383Y-131012533D01*
X183734337Y-131407986D01*
X183610029Y-131778750D01*
X183451175Y-132125389D01*
X183257490Y-132448467D01*
X183028688Y-132748548D01*
X182847195Y-132945510D01*
X182561648Y-133203495D01*
X182252402Y-133426454D01*
X181919795Y-133614208D01*
X181564168Y-133766576D01*
X181185861Y-133883378D01*
X180994378Y-133927153D01*
X180985112Y-133928759D01*
X180972882Y-133930317D01*
X180957063Y-133931829D01*
X180937028Y-133933296D01*
X180912150Y-133934717D01*
X180881804Y-133936095D01*
X180845363Y-133937429D01*
X180802201Y-133938721D01*
X180751692Y-133939971D01*
X180693210Y-133941179D01*
X180626128Y-133942348D01*
X180549821Y-133943477D01*
X180463661Y-133944567D01*
X180367024Y-133945619D01*
X180259281Y-133946634D01*
X180139808Y-133947612D01*
X180007979Y-133948554D01*
X179863166Y-133949462D01*
X179704743Y-133950335D01*
X179532085Y-133951175D01*
X179344566Y-133951982D01*
X179141558Y-133952758D01*
X178922436Y-133953502D01*
X178686574Y-133954215D01*
X178433344Y-133954899D01*
X178162122Y-133955554D01*
X177872281Y-133956181D01*
X177563195Y-133956780D01*
X177234236Y-133957353D01*
X176884781Y-133957900D01*
X176514201Y-133958421D01*
X176121870Y-133958919D01*
X175707164Y-133959392D01*
X175269454Y-133959843D01*
X174808116Y-133960272D01*
X174322522Y-133960680D01*
X173812048Y-133961066D01*
X173276065Y-133961434D01*
X172713949Y-133961782D01*
X172125073Y-133962111D01*
X171508810Y-133962423D01*
X170864535Y-133962719D01*
X170191621Y-133962998D01*
X169489442Y-133963262D01*
X168757373Y-133963512D01*
X167994785Y-133963748D01*
X167201055Y-133963971D01*
X166375554Y-133964181D01*
X165517657Y-133964380D01*
X164626738Y-133964569D01*
X163702171Y-133964747D01*
X162743328Y-133964917D01*
X161749585Y-133965077D01*
X160720315Y-133965231D01*
X159654891Y-133965377D01*
X158552688Y-133965517D01*
X157413079Y-133965652D01*
X156235438Y-133965782D01*
X155019138Y-133965908D01*
X153763554Y-133966031D01*
X152468060Y-133966152D01*
X151132028Y-133966271D01*
X149754833Y-133966389D01*
X148524712Y-133966491D01*
X147355171Y-133966583D01*
X146195672Y-133966663D01*
X145046945Y-133966733D01*
X143909715Y-133966791D01*
X142784712Y-133966840D01*
X141672663Y-133966878D01*
X140574295Y-133966905D01*
X139490337Y-133966922D01*
X138421516Y-133966929D01*
X137368560Y-133966926D01*
X136332196Y-133966914D01*
X135313153Y-133966891D01*
X134312159Y-133966859D01*
X133329940Y-133966817D01*
X132367225Y-133966766D01*
X131424741Y-133966705D01*
X130503217Y-133966636D01*
X129603380Y-133966557D01*
X128725958Y-133966469D01*
X127871678Y-133966373D01*
X127041269Y-133966267D01*
X126235458Y-133966153D01*
X125454973Y-133966031D01*
X124700541Y-133965900D01*
X123972891Y-133965761D01*
X123272750Y-133965614D01*
X122600846Y-133965459D01*
X121957907Y-133965296D01*
X121344661Y-133965125D01*
X120761834Y-133964947D01*
X120210156Y-133964760D01*
X119690353Y-133964567D01*
X119203154Y-133964366D01*
X118749287Y-133964158D01*
X118329478Y-133963943D01*
X117944457Y-133963720D01*
X117594950Y-133963491D01*
X117281685Y-133963256D01*
X117005391Y-133963013D01*
X116766795Y-133962764D01*
X116566624Y-133962509D01*
X116405607Y-133962247D01*
X116284471Y-133961980D01*
X116203944Y-133961706D01*
X116164754Y-133961426D01*
X116160878Y-133961321D01*
X115802550Y-133903103D01*
X115449018Y-133806079D01*
X115105410Y-133672833D01*
X114776855Y-133505949D01*
X114468482Y-133308011D01*
X114185421Y-133081602D01*
X113948515Y-132846796D01*
X113703953Y-132546211D01*
X113496870Y-132225997D01*
X113327398Y-131886454D01*
X113195670Y-131527885D01*
X113101817Y-131150590D01*
X113049343Y-130790283D01*
X113048242Y-130765732D01*
X113047177Y-130714337D01*
X113046149Y-130635742D01*
X113045158Y-130529595D01*
X113044202Y-130395541D01*
X113043282Y-130233227D01*
X113042398Y-130042299D01*
X113041550Y-129822405D01*
X113040737Y-129573189D01*
X113039959Y-129294299D01*
X113039216Y-128985381D01*
X113038508Y-128646081D01*
X113037835Y-128276046D01*
X113037197Y-127874922D01*
X113036592Y-127442355D01*
X113036022Y-126977992D01*
X113035486Y-126481479D01*
X113034984Y-125952463D01*
X113034515Y-125390590D01*
X113034080Y-124795506D01*
X113033679Y-124166858D01*
X113033310Y-123504292D01*
X113032974Y-122807454D01*
X113032672Y-122075992D01*
X113032402Y-121309550D01*
X113032164Y-120507776D01*
X113031958Y-119670316D01*
X113031785Y-118796817D01*
X113031644Y-117886924D01*
X113031534Y-116940284D01*
X113031456Y-115956544D01*
X113031410Y-114935350D01*
X113031394Y-113876347D01*
X113031410Y-112779184D01*
X113031457Y-111643506D01*
X113031534Y-110468959D01*
X113031642Y-109255190D01*
X113031780Y-108001845D01*
X113031949Y-106708570D01*
X113032147Y-105375013D01*
X113032376Y-104000819D01*
X113032634Y-102585634D01*
X113032922Y-101129106D01*
X113033239Y-99630880D01*
X113033513Y-98405283D01*
X113033816Y-97084749D01*
X114445164Y-97084749D01*
X114445175Y-98097000D01*
X114445207Y-99109670D01*
X114445261Y-100121867D01*
X114445335Y-101132701D01*
X114445429Y-102141279D01*
X114445545Y-103146710D01*
X114445681Y-104148102D01*
X114445838Y-105144562D01*
X114446016Y-106135200D01*
X114446215Y-107119123D01*
X114446434Y-108095440D01*
X114446674Y-109063259D01*
X114446935Y-110021687D01*
X114447216Y-110969834D01*
X114447517Y-111906808D01*
X114447839Y-112831716D01*
X114448182Y-113743668D01*
X114448545Y-114641770D01*
X114448929Y-115525132D01*
X114449333Y-116392861D01*
X114449757Y-117244067D01*
X114450202Y-118077856D01*
X114450667Y-118893338D01*
X114451153Y-119689620D01*
X114451659Y-120465811D01*
X114452185Y-121221019D01*
X114452731Y-121954352D01*
X114453297Y-122664918D01*
X114453884Y-123351826D01*
X114454491Y-124014184D01*
X114455117Y-124651100D01*
X114455764Y-125261682D01*
X114456431Y-125845039D01*
X114457118Y-126400278D01*
X114457825Y-126926509D01*
X114458552Y-127422838D01*
X114459299Y-127888375D01*
X114460066Y-128322227D01*
X114460853Y-128723504D01*
X114461660Y-129091312D01*
X114462486Y-129424760D01*
X114463332Y-129722957D01*
X114464199Y-129985011D01*
X114465084Y-130210029D01*
X114465990Y-130397121D01*
X114466915Y-130545394D01*
X114467860Y-130653957D01*
X114468825Y-130721917D01*
X114469745Y-130747949D01*
X114525110Y-131032830D01*
X114618182Y-131302577D01*
X114746128Y-131554186D01*
X114906115Y-131784653D01*
X115095309Y-131990973D01*
X115310878Y-132170143D01*
X115549989Y-132319158D01*
X115809808Y-132435015D01*
X116087503Y-132514709D01*
X116146941Y-132526408D01*
X116159902Y-132527644D01*
X116185352Y-132528842D01*
X116223854Y-132530003D01*
X116275975Y-132531129D01*
X116342279Y-132532218D01*
X116423330Y-132533273D01*
X116519692Y-132534292D01*
X116631931Y-132535276D01*
X116760612Y-132536227D01*
X116906298Y-132537144D01*
X117069554Y-132538027D01*
X117250945Y-132538878D01*
X117451036Y-132539696D01*
X117670392Y-132540482D01*
X117909575Y-132541237D01*
X118169153Y-132541960D01*
X118449688Y-132542653D01*
X118751746Y-132543315D01*
X119075892Y-132543948D01*
X119422689Y-132544551D01*
X119792703Y-132545124D01*
X120186498Y-132545670D01*
X120604639Y-132546187D01*
X121047690Y-132546676D01*
X121516216Y-132547137D01*
X122010782Y-132547572D01*
X122531951Y-132547980D01*
X123080290Y-132548362D01*
X123656363Y-132548719D01*
X124260733Y-132549050D01*
X124893966Y-132549356D01*
X125556626Y-132549637D01*
X126249279Y-132549895D01*
X126972487Y-132550129D01*
X127726817Y-132550340D01*
X128512833Y-132550528D01*
X129331100Y-132550694D01*
X130182181Y-132550838D01*
X131066642Y-132550960D01*
X131985047Y-132551061D01*
X132937961Y-132551142D01*
X133925948Y-132551202D01*
X134949574Y-132551242D01*
X136009402Y-132551264D01*
X137105998Y-132551266D01*
X138239926Y-132551249D01*
X139411750Y-132551215D01*
X140622035Y-132551162D01*
X141871347Y-132551093D01*
X143160248Y-132551006D01*
X144489305Y-132550903D01*
X145859081Y-132550784D01*
X147270142Y-132550649D01*
X148514128Y-132550522D01*
X180729795Y-132547116D01*
X180899128Y-132497914D01*
X181188986Y-132392934D01*
X181454348Y-132253668D01*
X181694645Y-132080447D01*
X181841199Y-131945701D01*
X182025184Y-131734877D01*
X182175630Y-131506379D01*
X182296497Y-131253523D01*
X182363963Y-131063779D01*
X182423128Y-130874949D01*
X182423128Y-66274283D01*
X182374222Y-66105333D01*
X182269761Y-65816075D01*
X182131949Y-65552304D01*
X181962299Y-65315499D01*
X181762325Y-65107137D01*
X181533541Y-64928696D01*
X181277462Y-64781654D01*
X180995601Y-64667489D01*
X180859599Y-64626926D01*
X180687462Y-64580949D01*
X116213795Y-64580949D01*
X116025898Y-64628816D01*
X115751140Y-64719714D01*
X115491857Y-64847042D01*
X115252886Y-65007416D01*
X115039066Y-65197453D01*
X114855234Y-65413769D01*
X114808682Y-65480246D01*
X114666828Y-65722841D01*
X114562757Y-65972715D01*
X114493064Y-66239044D01*
X114467742Y-66399126D01*
X114466761Y-66428057D01*
X114465802Y-66498430D01*
X114464865Y-66609353D01*
X114463950Y-66759934D01*
X114463058Y-66949280D01*
X114462188Y-67176502D01*
X114461339Y-67440706D01*
X114460513Y-67741000D01*
X114459709Y-68076494D01*
X114458926Y-68446296D01*
X114458166Y-68849512D01*
X114457427Y-69285253D01*
X114456711Y-69752625D01*
X114456016Y-70250738D01*
X114455343Y-70778699D01*
X114454692Y-71335617D01*
X114454063Y-71920599D01*
X114453455Y-72532755D01*
X114452869Y-73171192D01*
X114452305Y-73835018D01*
X114451763Y-74523342D01*
X114451242Y-75235272D01*
X114450743Y-75969916D01*
X114450265Y-76726383D01*
X114449809Y-77503780D01*
X114449375Y-78301216D01*
X114448962Y-79117799D01*
X114448570Y-79952638D01*
X114448200Y-80804839D01*
X114447852Y-81673513D01*
X114447524Y-82557766D01*
X114447218Y-83456708D01*
X114446934Y-84369446D01*
X114446671Y-85295089D01*
X114446429Y-86232744D01*
X114446208Y-87181520D01*
X114446009Y-88140526D01*
X114445830Y-89108869D01*
X114445673Y-90085658D01*
X114445537Y-91070001D01*
X114445422Y-92061006D01*
X114445329Y-93057781D01*
X114445256Y-94059435D01*
X114445204Y-95065075D01*
X114445174Y-96073811D01*
X114445164Y-97084749D01*
X113033816Y-97084749D01*
X113033838Y-96990550D01*
X113034160Y-95617529D01*
X155326200Y-87585389D02*
X155359027Y-87638975D01*
X155359027Y-87638975D02*
X155403740Y-87718945D01*
X155403740Y-87718945D02*
X155457289Y-87819331D01*
X155457289Y-87819331D02*
X155516622Y-87934163D01*
X155516622Y-87934163D02*
X155578690Y-88057472D01*
X155578690Y-88057472D02*
X155640443Y-88183291D01*
X155640443Y-88183291D02*
X155698829Y-88305649D01*
X155698829Y-88305649D02*
X155750798Y-88418577D01*
X155750798Y-88418577D02*
X155786199Y-88499283D01*
X155786199Y-88499283D02*
X155983826Y-89014091D01*
X155983826Y-89014091D02*
X156140076Y-89532267D01*
X156140076Y-89532267D02*
X156253069Y-90044449D01*
X156253069Y-90044449D02*
X156274537Y-90195269D01*
X156274537Y-90195269D02*
X156290261Y-90371746D01*
X156290261Y-90371746D02*
X156300151Y-90563841D01*
X156300151Y-90563841D02*
X156304115Y-90761508D01*
X156304115Y-90761508D02*
X156302061Y-90954707D01*
X156302061Y-90954707D02*
X156293898Y-91133394D01*
X156293898Y-91133394D02*
X156279534Y-91287528D01*
X156279534Y-91287528D02*
X156265243Y-91377949D01*
X156265243Y-91377949D02*
X156179950Y-91721654D01*
X156179950Y-91721654D02*
X156065448Y-92036907D01*
X156065448Y-92036907D02*
X155919248Y-92328093D01*
X155919248Y-92328093D02*
X155738862Y-92599593D01*
X155738862Y-92599593D02*
X155521802Y-92855793D01*
X155521802Y-92855793D02*
X155308628Y-93062992D01*
X155308628Y-93062992D02*
X154981769Y-93330274D01*
X154981769Y-93330274D02*
X154640787Y-93557799D01*
X154640787Y-93557799D02*
X154284316Y-93746175D01*
X154284316Y-93746175D02*
X153910989Y-93896012D01*
X153910989Y-93896012D02*
X153519439Y-94007916D01*
X153519439Y-94007916D02*
X153108301Y-94082498D01*
X153108301Y-94082498D02*
X152986421Y-94097104D01*
X152986421Y-94097104D02*
X152875871Y-94105611D01*
X152875871Y-94105611D02*
X152736477Y-94111498D01*
X152736477Y-94111498D02*
X152581653Y-94114647D01*
X152581653Y-94114647D02*
X152424815Y-94114942D01*
X152424815Y-94114942D02*
X152279379Y-94112265D01*
X152279379Y-94112265D02*
X152158757Y-94106502D01*
X152158757Y-94106502D02*
X152133628Y-94104528D01*
X152133628Y-94104528D02*
X151901166Y-94077598D01*
X151901166Y-94077598D02*
X151643982Y-94036275D01*
X151643982Y-94036275D02*
X151376039Y-93983356D01*
X151376039Y-93983356D02*
X151111300Y-93921638D01*
X151111300Y-93921638D02*
X150863730Y-93853916D01*
X150863730Y-93853916D02*
X150827198Y-93842880D01*
X150827198Y-93842880D02*
X150627221Y-93776793D01*
X150627221Y-93776793D02*
X150408662Y-93696286D01*
X150408662Y-93696286D02*
X150183980Y-93606489D01*
X150183980Y-93606489D02*
X149965634Y-93512529D01*
X149965634Y-93512529D02*
X149766084Y-93419533D01*
X149766084Y-93419533D02*
X149629868Y-93350092D01*
X149629868Y-93350092D02*
X149560274Y-93312783D01*
X149560274Y-93312783D02*
X152423548Y-90434968D01*
X152423548Y-90434968D02*
X152713787Y-90143402D01*
X152713787Y-90143402D02*
X152996155Y-89860030D01*
X152996155Y-89860030D02*
X153269199Y-89586300D01*
X153269199Y-89586300D02*
X153531461Y-89323661D01*
X153531461Y-89323661D02*
X153781488Y-89073561D01*
X153781488Y-89073561D02*
X154017824Y-88837447D01*
X154017824Y-88837447D02*
X154239014Y-88616769D01*
X154239014Y-88616769D02*
X154443601Y-88412973D01*
X154443601Y-88412973D02*
X154630132Y-88227510D01*
X154630132Y-88227510D02*
X154797150Y-88061827D01*
X154797150Y-88061827D02*
X154943201Y-87917371D01*
X154943201Y-87917371D02*
X155066829Y-87795593D01*
X155066829Y-87795593D02*
X155166579Y-87697938D01*
X155166579Y-87697938D02*
X155240995Y-87625857D01*
X155240995Y-87625857D02*
X155288623Y-87580797D01*
X155288623Y-87580797D02*
X155308007Y-87564207D01*
X155308007Y-87564207D02*
X155308308Y-87564157D01*
X155308308Y-87564157D02*
X155326200Y-87585389D01*
X155326200Y-87585389D02*
X155326200Y-87585389D01*
G36*
X155326200Y-87585389D02*
G01*
X155359027Y-87638975D01*
X155403740Y-87718945D01*
X155457289Y-87819331D01*
X155516622Y-87934163D01*
X155578690Y-88057472D01*
X155640443Y-88183291D01*
X155698829Y-88305649D01*
X155750798Y-88418577D01*
X155786199Y-88499283D01*
X155983826Y-89014091D01*
X156140076Y-89532267D01*
X156253069Y-90044449D01*
X156274537Y-90195269D01*
X156290261Y-90371746D01*
X156300151Y-90563841D01*
X156304115Y-90761508D01*
X156302061Y-90954707D01*
X156293898Y-91133394D01*
X156279534Y-91287528D01*
X156265243Y-91377949D01*
X156179950Y-91721654D01*
X156065448Y-92036907D01*
X155919248Y-92328093D01*
X155738862Y-92599593D01*
X155521802Y-92855793D01*
X155308628Y-93062992D01*
X154981769Y-93330274D01*
X154640787Y-93557799D01*
X154284316Y-93746175D01*
X153910989Y-93896012D01*
X153519439Y-94007916D01*
X153108301Y-94082498D01*
X152986421Y-94097104D01*
X152875871Y-94105611D01*
X152736477Y-94111498D01*
X152581653Y-94114647D01*
X152424815Y-94114942D01*
X152279379Y-94112265D01*
X152158757Y-94106502D01*
X152133628Y-94104528D01*
X151901166Y-94077598D01*
X151643982Y-94036275D01*
X151376039Y-93983356D01*
X151111300Y-93921638D01*
X150863730Y-93853916D01*
X150827198Y-93842880D01*
X150627221Y-93776793D01*
X150408662Y-93696286D01*
X150183980Y-93606489D01*
X149965634Y-93512529D01*
X149766084Y-93419533D01*
X149629868Y-93350092D01*
X149560274Y-93312783D01*
X152423548Y-90434968D01*
X152713787Y-90143402D01*
X152996155Y-89860030D01*
X153269199Y-89586300D01*
X153531461Y-89323661D01*
X153781488Y-89073561D01*
X154017824Y-88837447D01*
X154239014Y-88616769D01*
X154443601Y-88412973D01*
X154630132Y-88227510D01*
X154797150Y-88061827D01*
X154943201Y-87917371D01*
X155066829Y-87795593D01*
X155166579Y-87697938D01*
X155240995Y-87625857D01*
X155288623Y-87580797D01*
X155308007Y-87564207D01*
X155308308Y-87564157D01*
X155326200Y-87585389D01*
G37*
X155326200Y-87585389D02*
X155359027Y-87638975D01*
X155403740Y-87718945D01*
X155457289Y-87819331D01*
X155516622Y-87934163D01*
X155578690Y-88057472D01*
X155640443Y-88183291D01*
X155698829Y-88305649D01*
X155750798Y-88418577D01*
X155786199Y-88499283D01*
X155983826Y-89014091D01*
X156140076Y-89532267D01*
X156253069Y-90044449D01*
X156274537Y-90195269D01*
X156290261Y-90371746D01*
X156300151Y-90563841D01*
X156304115Y-90761508D01*
X156302061Y-90954707D01*
X156293898Y-91133394D01*
X156279534Y-91287528D01*
X156265243Y-91377949D01*
X156179950Y-91721654D01*
X156065448Y-92036907D01*
X155919248Y-92328093D01*
X155738862Y-92599593D01*
X155521802Y-92855793D01*
X155308628Y-93062992D01*
X154981769Y-93330274D01*
X154640787Y-93557799D01*
X154284316Y-93746175D01*
X153910989Y-93896012D01*
X153519439Y-94007916D01*
X153108301Y-94082498D01*
X152986421Y-94097104D01*
X152875871Y-94105611D01*
X152736477Y-94111498D01*
X152581653Y-94114647D01*
X152424815Y-94114942D01*
X152279379Y-94112265D01*
X152158757Y-94106502D01*
X152133628Y-94104528D01*
X151901166Y-94077598D01*
X151643982Y-94036275D01*
X151376039Y-93983356D01*
X151111300Y-93921638D01*
X150863730Y-93853916D01*
X150827198Y-93842880D01*
X150627221Y-93776793D01*
X150408662Y-93696286D01*
X150183980Y-93606489D01*
X149965634Y-93512529D01*
X149766084Y-93419533D01*
X149629868Y-93350092D01*
X149560274Y-93312783D01*
X152423548Y-90434968D01*
X152713787Y-90143402D01*
X152996155Y-89860030D01*
X153269199Y-89586300D01*
X153531461Y-89323661D01*
X153781488Y-89073561D01*
X154017824Y-88837447D01*
X154239014Y-88616769D01*
X154443601Y-88412973D01*
X154630132Y-88227510D01*
X154797150Y-88061827D01*
X154943201Y-87917371D01*
X155066829Y-87795593D01*
X155166579Y-87697938D01*
X155240995Y-87625857D01*
X155288623Y-87580797D01*
X155308007Y-87564207D01*
X155308308Y-87564157D01*
X155326200Y-87585389D01*
%TD*%
D11*
%TO.C,SW1*%
X166112729Y-77700428D03*
X170213948Y-73599209D03*
X168941156Y-80528855D03*
X173042375Y-76427636D03*
%TD*%
D12*
%TO.C,R8*%
X136430567Y-108005571D03*
X135709319Y-108726819D03*
%TD*%
D13*
%TO.C,D1*%
X155694835Y-89797656D03*
X154227589Y-88330410D03*
%TD*%
D14*
%TO.C,R4*%
X158550318Y-86701996D03*
X159271566Y-85980748D03*
%TD*%
D13*
%TO.C,D2*%
X139694835Y-106797656D03*
X138227589Y-105330410D03*
%TD*%
D12*
%TO.C,R3*%
X158461004Y-85115094D03*
X157739756Y-85836342D03*
%TD*%
%TO.C,R5*%
X160058925Y-86804325D03*
X159337677Y-87525573D03*
%TD*%
D15*
%TO.C,J1*%
X128289214Y-111483120D03*
%TD*%
D14*
%TO.C,R2*%
X156872313Y-84968900D03*
X157593561Y-84247652D03*
%TD*%
%TO.C,R7*%
X134794225Y-107702372D03*
X135515473Y-106981124D03*
%TD*%
D16*
%TO.C,U1*%
X126995993Y-118611850D03*
D17*
X126995993Y-119011850D03*
X126995993Y-119411850D03*
X126995993Y-119811850D03*
D18*
X126995993Y-120211850D03*
D19*
X127645993Y-120861850D03*
D20*
X128045993Y-120861850D03*
X128445993Y-120861850D03*
X128845993Y-120861850D03*
D21*
X129245993Y-120861850D03*
D22*
X129895993Y-120211850D03*
D17*
X129895993Y-119811850D03*
X129895993Y-119411850D03*
X129895993Y-119011850D03*
D23*
X129895993Y-118611850D03*
D24*
X129245993Y-117961850D03*
D20*
X128845993Y-117961850D03*
X128445993Y-117961850D03*
X128045993Y-117961850D03*
D25*
X127645993Y-117961850D03*
D26*
X128445993Y-119411850D03*
%TD*%
D27*
%TO.C,JP2*%
X132454328Y-117361853D03*
D28*
X133479632Y-116336549D03*
%TD*%
D14*
%TO.C,R9*%
X136782182Y-109708219D03*
X137503430Y-108986971D03*
%TD*%
D29*
%TO.C,C2*%
X124198093Y-120293378D03*
X124198093Y-118743378D03*
%TD*%
D15*
%TO.C,J3*%
X120000000Y-120926672D03*
%TD*%
D30*
%TO.C,C1*%
X125598176Y-119998378D03*
X125598176Y-119038378D03*
%TD*%
D27*
%TO.C,JP1*%
X134496418Y-119656976D03*
D28*
X135521722Y-118631672D03*
%TD*%
D31*
%TO.C,BT1*%
X138208164Y-88310985D03*
X158714260Y-108817081D03*
%TD*%
D32*
%TO.C,R1*%
X172471362Y-81097333D03*
X173638088Y-79930607D03*
%TD*%
D12*
%TO.C,R6*%
X134411607Y-105894635D03*
X133690359Y-106615883D03*
%TD*%
D15*
%TO.C,J2*%
X122339843Y-114489335D03*
%TD*%
M02*
